<svg width="19" height="20" viewBox="0 0 19 20" fill="currentColor" xmlns="http://www.w3.org/2000/svg">
<path d="M8.0049 0L15.3032 2.28071C15.7206 2.41117 16.0049 2.79781 16.0049 3.23519V5H18.0049C18.5572 5 19.0049 5.44772 19.0049 6V8H6.00488V6C6.00488 5.44772 6.4526 5 7.0049 5H14.0049V3.97L8.0049 2.094L2.00488 3.97V11.3744C2.00488 12.6193 2.58406 13.7884 3.56329 14.5428L3.75154 14.6793L8.0049 17.579L11.7869 15H7.0049C6.4526 15 6.00488 14.5523 6.00488 14V10H19.0049V14C19.0049 14.5523 18.5572 15 18.0049 15L14.7848 15.0011C14.3982 15.5108 13.9276 15.9618 13.3849 16.3318L8.0049 20L2.62486 16.3318C0.985633 15.2141 0.00488281 13.3584 0.00488281 11.3744V3.23519C0.00488281 2.79781 0.289133 2.41117 0.706613 2.28071L8.0049 0Z" fill="black"/>
</svg>
