<svg  viewBox="0 0 24 24" fill="currentColor" xmlns="http://www.w3.org/2000/svg">
<path d="M3.36241 10.7032C3.93895 8.52447 5.6993 6.82847 7.89677 6.37155C10.2737 5.87731 12.7263 5.87731 15.1032 6.37155C17.3007 6.82847 19.0611 8.52447 19.6376 10.7032C20.1165 12.513 20.1229 14.4414 19.644 16.2511C19.0585 18.464 17.279 20.1547 15.0471 20.6188L14.8918 20.6511C12.6543 21.1163 10.3457 21.1163 8.10824 20.6511L7.95287 20.6188C5.72102 20.1547 3.94153 18.464 3.35597 16.2511C2.87707 14.4414 2.88351 12.513 3.36241 10.7032Z" fill="#363853" fill-opacity="0.15"/>
<path d="M3.01146 12.9952V7.25212C3.01146 5.3599 4.29687 3.69319 6.11272 3.19064C6.56583 3.06524 7.03975 3 7.50974 3H8.3677C10.0489 3 12.0221 4.31117 12.7463 6.04481C11.54 6.04503 9.08417 6.12466 7.89677 6.37155C5.6993 6.82847 3.93895 8.52447 3.36241 10.7032C3.16414 11.4525 3.04685 12.2221 3.01146 12.9952Z" fill="#363853" fill-opacity="0.15"/>
<path d="M3.01146 13.9964V14.0138L3.0124 14.0164C3.01208 14.0097 3.01177 14.0031 3.01146 13.9964Z" fill="#363853" fill-opacity="0.15"/>
<path d="M3.36241 10.7032C2.88351 12.513 2.87707 14.4414 3.35597 16.2511C3.94153 18.464 5.72102 20.1547 7.95287 20.6188L8.10824 20.6511C10.3457 21.1163 12.6543 21.1163 14.8918 20.6511L15.0471 20.6188C17.279 20.1547 19.0585 18.464 19.644 16.2511C20.1229 14.4414 20.1165 12.513 19.6376 10.7032C19.0611 8.52447 17.3007 6.82847 15.1032 6.37155C12.7263 5.87731 10.2737 5.87731 7.89677 6.37155M3.36241 10.7032C3.93895 8.52447 5.6993 6.82847 7.89677 6.37155M3.36241 10.7032C3.16414 11.4525 3.04685 12.2221 3.01146 12.9952V7.25212C3.01146 5.3599 4.29687 3.69319 6.11272 3.19064C6.56583 3.06524 7.03975 3 7.50974 3H8.3677C10.0489 3 12.0221 4.31117 12.7463 6.04481C11.54 6.04503 9.08417 6.12466 7.89677 6.37155M14.1103 8.76913L14.1529 8.77627C15.9358 9.07479 17.2426 10.6245 17.2426 12.4404M3.01146 13.9964V14.0138L3.0124 14.0164C3.01208 14.0097 3.01177 14.0031 3.01146 13.9964Z" stroke="#363853" stroke-width="1.5" stroke-linecap="round"/>
</svg>
