<svg width="20" height="20" viewBox="0 0 20 20" fill="none" xmlns="http://www.w3.org/2000/svg">
<path d="M1.75 5.25V3.35C1.75 2.78995 1.75 2.50992 1.85899 2.29601C1.95487 2.10785 2.10785 1.95487 2.29601 1.85899C2.50992 1.75 2.78995 1.75 3.35 1.75H5.25M8.75 1.75H11.25M8.75 18.25H11.25M18.25 10H1.75M18.25 5.25V3.35C18.25 2.78995 18.25 2.50992 18.141 2.29601C18.0451 2.10785 17.8922 1.95487 17.704 1.85899C17.4901 1.75 17.2101 1.75 16.65 1.75H14.75M1.75 14.75V16.65C1.75 17.2101 1.75 17.4901 1.85899 17.704C1.95487 17.8922 2.10785 18.0451 2.29601 18.141C2.50992 18.25 2.78995 18.25 3.35 18.25H5.25M18.25 14.75V16.65C18.25 17.2101 18.25 17.4901 18.141 17.704C18.0451 17.8922 17.8922 18.0451 17.704 18.141C17.4901 18.25 17.2101 18.25 16.65 18.25H14.75" stroke="black" stroke-width="1.5" stroke-linecap="round" stroke-linejoin="round"/>
</svg>
