<svg width="20" height="20" viewBox="0 0 20 20" fill="none" xmlns="http://www.w3.org/2000/svg">
<path d="M1.75 4.25V3.35C1.75 2.78995 1.75 2.50992 1.85899 2.29601C1.95487 2.10785 2.10785 1.95487 2.29601 1.85899C2.50992 1.75 2.78995 1.75 3.35 1.75H4.25M1.75 15.75V16.65C1.75 17.2101 1.75 17.4901 1.85899 17.704C1.95487 17.8922 2.10785 18.0451 2.29601 18.141C2.50992 18.25 2.78995 18.25 3.35 18.25H4.25M8.75 1.75H11.25M8.75 18.25H11.25M18.25 1.75V18.25M1.75 8.75L1.75 11.25M10 12.5V10M10 10H12.5M10 10V7.5M10 10H7.5" stroke="black" stroke-width="1.5" stroke-linecap="round" stroke-linejoin="round"/>
</svg>
