<svg width="20" height="20" viewBox="0 0 20 20" fill="none" xmlns="http://www.w3.org/2000/svg">
<path d="M18.25 8.75V11.25M1.75 8.75L1.75 11.25M10 12.5V10M10 10H12.5M10 10V7.5M10 10H7.5M18.25 1.75H1.75M1.75 14.75V16.65C1.75 17.2101 1.75 17.4901 1.85899 17.704C1.95487 17.8922 2.10785 18.0451 2.29601 18.141C2.50992 18.25 2.78995 18.25 3.35 18.25H5.25M8.75 18.25H11.25M18.25 14.75V16.65C18.25 17.2101 18.25 17.4901 18.141 17.704C18.0451 17.8922 17.8922 18.0451 17.704 18.141C17.4901 18.25 17.2101 18.25 16.65 18.25H14.75" stroke="black" stroke-width="1.5" stroke-linecap="round" stroke-linejoin="round"/>
</svg>
