<svg width="20" height="20" viewBox="0 0 20 20" fill="none" xmlns="http://www.w3.org/2000/svg">
<path d="M7.75 7.75H12.25M7.75 7.75V12.25M7.75 7.75V4.75C7.75 3.09315 6.40685 1.75 4.75 1.75C3.09315 1.75 1.75 3.09315 1.75 4.75C1.75 6.40685 3.09315 7.75 4.75 7.75H7.75ZM12.25 7.75V12.25M12.25 7.75H15.25C16.9069 7.75 18.25 6.40685 18.25 4.75C18.25 3.09315 16.9069 1.75 15.25 1.75C13.5931 1.75 12.25 3.09315 12.25 4.75V7.75ZM12.25 12.25H7.75M12.25 12.25H15.25C16.9069 12.25 18.25 13.5931 18.25 15.25C18.25 16.9069 16.9069 18.25 15.25 18.25C13.5931 18.25 12.25 16.9069 12.25 15.25V12.25ZM7.75 12.25H4.75C3.09315 12.25 1.75 13.5931 1.75 15.25C1.75 16.9069 3.09315 18.25 4.75 18.25C6.40685 18.25 7.75 16.9069 7.75 15.25V12.25Z" stroke="black" stroke-width="1.5" stroke-linejoin="round"/>
</svg>
