<svg width="20" height="20" viewBox="0 0 20 20" fill="none" xmlns="http://www.w3.org/2000/svg">
<path d="M6.75 13.75H13.25M3.75 7.25H4.25M7.75 7.25H8.25M15.75 7.25H16.25M11.75 7.25H12.25M3.75 10.25H4.25M7.75 10.25H8.25M15.75 10.25H16.25M11.75 10.25H12.25M3.95 16.25H16.05C17.1701 16.25 17.7302 16.25 18.158 16.032C18.5343 15.8403 18.8403 15.5343 19.032 15.158C19.25 14.7302 19.25 14.1701 19.25 13.05V6.95C19.25 5.82989 19.25 5.26984 19.032 4.84202C18.8403 4.46569 18.5343 4.15973 18.158 3.96799C17.7302 3.75 17.1701 3.75 16.05 3.75H3.95C2.8299 3.75 2.26984 3.75 1.84202 3.96799C1.46569 4.15973 1.15973 4.46569 0.967987 4.84202C0.75 5.26984 0.75 5.82989 0.75 6.95V13.05C0.75 14.1701 0.75 14.7302 0.967987 15.158C1.15973 15.5343 1.46569 15.8403 1.84202 16.032C2.26984 16.25 2.8299 16.25 3.95 16.25Z" stroke="black" stroke-width="1.5" stroke-linecap="round" stroke-linejoin="round"/>
</svg>
