<svg width="20" height="20" viewBox="0 0 20 20" fill="none" xmlns="http://www.w3.org/2000/svg">
<path d="M18.25 1.75H1.75M9.95 4.75H10.05C11.1701 4.75 11.7302 4.75 12.158 4.96799C12.5343 5.15973 12.8403 5.46569 13.032 5.84202C13.25 6.26984 13.25 6.8299 13.25 7.95V15.05C13.25 16.1701 13.25 16.7302 13.032 17.158C12.8403 17.5343 12.5343 17.8403 12.158 18.032C11.7302 18.25 11.1701 18.25 10.05 18.25H9.95C8.82989 18.25 8.26984 18.25 7.84202 18.032C7.46569 17.8403 7.15973 17.5343 6.96799 17.158C6.75 16.7302 6.75 16.1701 6.75 15.05V7.95C6.75 6.82989 6.75 6.26984 6.96799 5.84202C7.15973 5.46569 7.46569 5.15973 7.84202 4.96799C8.26984 4.75 8.82989 4.75 9.95 4.75Z" stroke="black" stroke-width="1.5" stroke-linecap="round" stroke-linejoin="round"/>
</svg>
