<svg width="20" height="20" viewBox="0 0 20 20" fill="none" xmlns="http://www.w3.org/2000/svg">
<path d="M18.25 1.75V18.25M15.25 10.05V9.95C15.25 8.82989 15.25 8.26984 15.032 7.84202C14.8403 7.46569 14.5343 7.15973 14.158 6.96799C13.7302 6.75 13.1701 6.75 12.05 6.75H4.95C3.8299 6.75 3.26984 6.75 2.84202 6.96799C2.46569 7.15973 2.15973 7.46569 1.96799 7.84202C1.75 8.26984 1.75 8.82989 1.75 9.95L1.75 10.05C1.75 11.1701 1.75 11.7302 1.96799 12.158C2.15973 12.5343 2.46569 12.8403 2.84202 13.032C3.26984 13.25 3.82989 13.25 4.95 13.25H12.05C13.1701 13.25 13.7302 13.25 14.158 13.032C14.5343 12.8403 14.8403 12.5343 15.032 12.158C15.25 11.7302 15.25 11.1701 15.25 10.05Z" stroke="black" stroke-width="1.5" stroke-linecap="round" stroke-linejoin="round"/>
</svg>
