<svg width="20" height="20" viewBox="0 0 20 20" fill="none" xmlns="http://www.w3.org/2000/svg">
<path d="M6.25 10H1.75M18.25 10H13.75M9.95 18.25H10.05C11.1701 18.25 11.7302 18.25 12.158 18.032C12.5343 17.8403 12.8403 17.5343 13.032 17.158C13.25 16.7302 13.25 16.1701 13.25 15.05V4.95C13.25 3.82989 13.25 3.26984 13.032 2.84202C12.8403 2.46569 12.5343 2.15973 12.158 1.96799C11.7302 1.75 11.1701 1.75 10.05 1.75H9.95C8.82989 1.75 8.26984 1.75 7.84202 1.96799C7.46569 2.15973 7.15973 2.46569 6.96799 2.84202C6.75 3.26984 6.75 3.82989 6.75 4.95V15.05C6.75 16.1701 6.75 16.7302 6.96799 17.158C7.15973 17.5343 7.46569 17.8403 7.84202 18.032C8.26984 18.25 8.82989 18.25 9.95 18.25Z" stroke="black" stroke-width="1.5" stroke-linecap="round" stroke-linejoin="round"/>
</svg>
