<svg width="20" height="20" viewBox="0 0 20 20" fill="none" xmlns="http://www.w3.org/2000/svg">
<path d="M17.582 11.75L18.0347 14.5634C18.239 15.8335 18.3412 16.4686 18.1441 16.9627C17.9711 17.3965 17.6457 17.7591 17.2237 17.9886C16.7429 18.25 16.071 18.25 14.7271 18.25H5.27294C3.92902 18.25 3.25706 18.25 2.77627 17.9886C2.35427 17.7591 2.02888 17.3965 1.85588 16.9627C1.65877 16.4686 1.76095 15.8335 1.9653 14.5634L2.41796 11.75M13.3588 9.88173C15.2137 8.02148 15.2137 5.00543 13.3588 3.14518C11.5038 1.28494 8.49623 1.28494 6.64124 3.14518C4.78625 5.00543 4.78625 8.02148 6.64124 9.88173C7.53928 10.7823 10 13.25 10 13.25C10 13.25 12.4018 10.8414 13.3588 9.88173ZM10.75 6.5C10.75 6.91421 10.4142 7.25 10 7.25C9.58579 7.25 9.25 6.91421 9.25 6.5C9.25 6.08579 9.58579 5.75 10 5.75C10.4142 5.75 10.75 6.08579 10.75 6.5Z" stroke="black" stroke-width="1.5" stroke-linecap="round" stroke-linejoin="round"/>
</svg>
