<svg width="20" height="20" viewBox="0 0 20 20" fill="none" xmlns="http://www.w3.org/2000/svg">
<path d="M5.74851 8.75H4.94851C3.8284 8.75 3.26835 8.75 2.84052 8.96799C2.4642 9.15973 2.15824 9.46569 1.96649 9.84202C1.7485 10.2698 1.7485 10.8299 1.7485 11.95V15.05C1.7485 16.1701 1.7485 16.7302 1.96649 17.158C2.15824 17.5343 2.4642 17.8403 2.84052 18.032C3.26835 18.25 3.8284 18.25 4.94851 18.25H5.74851M5.74851 8.75H5.79162C6.22424 8.75 6.44054 8.75 6.62231 8.67576C6.78274 8.61024 6.92339 8.50414 7.03047 8.36788C7.15179 8.21351 7.21121 8.00552 7.33006 7.58955L8.79161 2.47415C8.91407 2.04552 9.30585 1.75 9.75163 1.75C10.8545 1.75 11.7485 2.64403 11.7485 3.74688V6.15C11.7485 6.71005 11.7485 6.99008 11.8575 7.20399C11.9534 7.39215 12.1064 7.54513 12.2945 7.64101C12.5084 7.75 12.7885 7.75 13.3485 7.75H14.6785C16.1187 7.75 16.8345 7.75 17.3185 8.04991C17.7425 8.31263 18.0624 8.7243 18.1985 9.20416C18.3539 9.75194 18.1442 10.4443 17.7485 11.8291L16.5785 15.9291C16.3408 16.761 16.2211 17.177 15.9785 17.4858C15.7644 17.7583 15.4894 17.9705 15.1685 18.1015C14.805 18.25 14.3737 18.25 13.5085 18.25H5.74851M5.74851 8.75V18.25" stroke="black" stroke-width="1.5" stroke-linejoin="round"/>
</svg>
