<svg width="20" height="20" viewBox="0 0 20 20" fill="none" xmlns="http://www.w3.org/2000/svg">
<path d="M12.25 16.25V3.75M18.25 7.75V6.95C18.25 5.8299 18.25 5.26984 18.032 4.84202C17.8403 4.46569 17.5343 4.15973 17.158 3.96799C16.7302 3.75 16.1701 3.75 15.05 3.75H4.95C3.82989 3.75 3.26984 3.75 2.84202 3.96799C2.46569 4.15973 2.15973 4.46569 1.96799 4.84202C1.75 5.26984 1.75 5.8299 1.75 6.95V7.75C2.99264 7.75 4 8.75736 4 10C4 11.2426 2.99264 12.25 1.75 12.25V13.05C1.75 14.1701 1.75 14.7302 1.96799 15.158C2.15973 15.5343 2.46569 15.8403 2.84202 16.032C3.26984 16.25 3.82989 16.25 4.95 16.25H15.05C16.1701 16.25 16.7302 16.25 17.158 16.032C17.5343 15.8403 17.8403 15.5343 18.032 15.158C18.25 14.7302 18.25 14.1701 18.25 13.05V12.25C17.0074 12.25 16 11.2426 16 10C16 8.75736 17.0074 7.75 18.25 7.75Z" stroke="black" stroke-width="1.5" stroke-linecap="round" stroke-linejoin="round"/>
</svg>
