<svg width="20" height="20" viewBox="0 0 20 20" fill="none" xmlns="http://www.w3.org/2000/svg">
<path d="M1.75 4C1.75 3.76783 1.75 3.65175 1.75963 3.55397C1.85315 2.60441 2.60441 1.85315 3.55397 1.75963C3.65175 1.75 3.76783 1.75 4 1.75H6C6.23217 1.75 6.34825 1.75 6.44603 1.75963C7.39559 1.85315 8.14685 2.60441 8.24037 3.55397C8.25 3.65175 8.25 3.76783 8.25 4C8.25 4.23217 8.25 4.34825 8.24037 4.44603C8.14685 5.39559 7.39559 6.14685 6.44603 6.24037C6.34825 6.25 6.23217 6.25 6 6.25H4C3.76783 6.25 3.65175 6.25 3.55397 6.24037C2.60441 6.14685 1.85315 5.39559 1.75963 4.44603C1.75 4.34825 1.75 4.23217 1.75 4Z" stroke="black" stroke-width="1.5" stroke-linejoin="round"/>
<path d="M11.75 4.95C11.75 3.82989 11.75 3.26984 11.968 2.84202C12.1597 2.46569 12.4657 2.15973 12.842 1.96799C13.2698 1.75 13.8299 1.75 14.95 1.75H15.05C16.1701 1.75 16.7302 1.75 17.158 1.96799C17.5343 2.15973 17.8403 2.46569 18.032 2.84202C18.25 3.26984 18.25 3.8299 18.25 4.95V7.05C18.25 8.17011 18.25 8.73016 18.032 9.15798C17.8403 9.53431 17.5343 9.84027 17.158 10.032C16.7302 10.25 16.1701 10.25 15.05 10.25H14.95C13.8299 10.25 13.2698 10.25 12.842 10.032C12.4657 9.84027 12.1597 9.53431 11.968 9.15798C11.75 8.73016 11.75 8.1701 11.75 7.05V4.95Z" stroke="black" stroke-width="1.5" stroke-linejoin="round"/>
<path d="M1.75 12.95C1.75 11.8299 1.75 11.2698 1.96799 10.842C2.15973 10.4657 2.46569 10.1597 2.84202 9.96799C3.26984 9.75 3.8299 9.75 4.95 9.75H5.05C6.1701 9.75 6.73016 9.75 7.15798 9.96799C7.53431 10.1597 7.84027 10.4657 8.03201 10.842C8.25 11.2698 8.25 11.8299 8.25 12.95V15.05C8.25 16.1701 8.25 16.7302 8.03201 17.158C7.84027 17.5343 7.53431 17.8403 7.15798 18.032C6.73016 18.25 6.1701 18.25 5.05 18.25H4.95C3.8299 18.25 3.26984 18.25 2.84202 18.032C2.46569 17.8403 2.15973 17.5343 1.96799 17.158C1.75 16.7302 1.75 16.1701 1.75 15.05V12.95Z" stroke="black" stroke-width="1.5" stroke-linejoin="round"/>
<path d="M11.75 16C11.75 15.7678 11.75 15.6517 11.7596 15.554C11.8532 14.6044 12.6044 13.8532 13.554 13.7596C13.6517 13.75 13.7678 13.75 14 13.75H16C16.2322 13.75 16.3483 13.75 16.446 13.7596C17.3956 13.8532 18.1468 14.6044 18.2404 15.554C18.25 15.6517 18.25 15.7678 18.25 16C18.25 16.2322 18.25 16.3483 18.2404 16.446C18.1468 17.3956 17.3956 18.1468 16.446 18.2404C16.3483 18.25 16.2322 18.25 16 18.25H14C13.7678 18.25 13.6517 18.25 13.554 18.2404C12.6044 18.1468 11.8532 17.3956 11.7596 16.446C11.75 16.3483 11.75 16.2322 11.75 16Z" stroke="black" stroke-width="1.5" stroke-linejoin="round"/>
</svg>
