<svg width="26" height="25" viewBox="0 0 26 25" fill="currentColor" xmlns="http://www.w3.org/2000/svg">
<path d="M13 2.08334C18.98 2.08334 23.8333 6.75001 23.8333 12.5C23.8333 18.25 18.98 22.9167 13 22.9167C7.01999 22.9167 2.16666 18.25 2.16666 12.5C2.16666 6.75001 7.01999 2.08334 13 2.08334ZM13 20.8333C17.7883 20.8333 21.6667 17.1042 21.6667 12.5C21.6667 7.89584 17.7883 4.16668 13 4.16668C8.21166 4.16668 4.33332 7.89584 4.33332 12.5C4.33332 17.1042 8.21166 20.8333 13 20.8333ZM14.0833 12.5H17.3333L13 16.6667L8.66666 12.5H11.9167V8.33334H14.0833V12.5Z" fill="black"/>
</svg>
