<svg width="15" height="15" viewBox="0 0 15 15" fill="currentColor" xmlns="http://www.w3.org/2000/svg">
<path fill-rule="evenodd" clip-rule="evenodd" d="M11.4187 4.91637C10.4881 6.21141 9.5562 7.35444 8.4751 8.52679C8.14765 8.88188 7.60769 8.95262 7.20013 8.68054C6.2056 8.01657 5.33875 7.30982 4.4881 6.46937C4.13952 6.12497 4.10006 5.58182 4.38194 5.18956C5.31255 3.89452 6.24447 2.75149 7.32557 1.57915C7.65302 1.22405 8.19299 1.15331 8.60054 1.4254C9.59507 2.08936 10.4619 2.79612 11.3125 3.63656C11.6611 3.98097 11.7006 4.52411 11.4187 4.91637ZM2.86729 6.47033L2.66405 6.47804C1.96998 6.50488 1.36486 7.01301 1.26692 7.72718C1.07672 9.11419 1.07672 10.435 1.26692 11.822C1.36486 12.5361 1.96998 13.0443 2.66405 13.0711C6.01001 13.2005 9.10089 13.2005 12.4468 13.0711C13.1409 13.0443 13.746 12.5361 13.844 11.822C14.0342 10.435 14.0342 9.11419 13.844 7.72719C13.746 7.01301 13.1409 6.50488 12.4468 6.47804C12.2861 6.47183 12.126 6.46591 11.9664 6.46029C11.8851 6.45743 11.8076 6.49446 11.7583 6.5592C11.2578 7.21668 10.747 7.84446 10.2059 8.46743C10.0642 8.63051 10.1791 8.88661 10.3952 8.88661H10.7417C11.0869 8.88661 11.3667 9.16643 11.3667 9.51161C11.3667 9.85678 11.0869 10.1366 10.7417 10.1366H4.36938C4.02421 10.1366 3.74438 9.85678 3.74438 9.51161C3.74438 9.16643 4.02421 8.88661 4.36938 8.88661H4.61857C4.85668 8.88661 4.96298 8.58139 4.78073 8.42814C4.38088 8.09194 3.99324 7.73766 3.60943 7.35845C3.39489 7.14649 3.23212 6.90171 3.12144 6.63986C3.07802 6.53713 2.97874 6.46618 2.86729 6.47033Z" fill="white"/>
</svg>
