<svg width="15" height="15" viewBox="0 0 15 15" fill="currentColor" xmlns="http://www.w3.org/2000/svg">
<g clip-path="url(#clip0_1459_3585)">
<path fill-rule="evenodd" clip-rule="evenodd" d="M2.67707 2.64755C1.90809 2.7146 1.2832 3.29793 1.17222 4.04427C1.02842 5.01129 0.879883 6.01256 0.879883 7.03812C0.879883 8.06368 1.02842 9.06495 1.17222 10.032C1.2832 10.7783 1.90809 11.3616 2.67707 11.4287L2.90538 11.4486C4.17044 11.5594 5.48186 11.6742 6.82591 11.6742C8.16994 11.6742 9.48133 11.5594 10.7464 11.4486L10.9747 11.4287C11.7437 11.3616 12.3686 10.7783 12.4796 10.032C12.5007 9.89019 12.5218 9.74768 12.5426 9.60447C12.677 9.59182 12.8102 9.57551 12.9421 9.55755C13.4501 9.48833 13.844 9.07198 13.8872 8.57265C13.9302 8.07533 13.9708 7.5624 13.9708 7.03813C13.9708 6.51385 13.9302 6.00092 13.8872 5.5036C13.844 5.00428 13.4501 4.58792 12.9421 4.5187C12.8102 4.50074 12.677 4.48443 12.5426 4.47178C12.5218 4.32856 12.5007 4.18605 12.4796 4.04427C12.3686 3.29793 11.7437 2.7146 10.9747 2.64755L10.7464 2.62758C9.48135 2.51684 8.16994 2.40204 6.82591 2.40204C5.48187 2.40204 4.17046 2.51684 2.9054 2.62758L2.67707 2.64755ZM7.20065 4.11047C7.51718 3.8008 8.05031 4.02506 8.05031 4.46788V6.5682H8.98544C9.43354 6.5682 9.6554 7.11225 9.3351 7.42561L6.73876 9.96563C6.42223 10.2753 5.88911 10.051 5.88911 9.60822V7.5079H4.95398C4.50588 7.5079 4.28401 6.96386 4.60432 6.65049L7.20065 4.11047Z" fill="white"/>
</g>
<defs>
<clipPath id="clip0_1459_3585">
<rect width="14" height="14" fill="white" transform="translate(0.55542 0.0380249)"/>
</clipPath>
</defs>
</svg>
