<svg width="15" height="15" viewBox="0 0 15 15" fill="none" xmlns="http://www.w3.org/2000/svg">
<g clip-path="url(#clip0_1459_3717)">
<path fill-rule="evenodd" clip-rule="evenodd" d="M5.69629 2.16045C5.69629 1.13372 6.52862 0.301392 7.55534 0.301392C8.58207 0.301392 9.41439 1.13372 9.41439 2.16045C9.41439 2.92033 8.95849 3.57372 8.30529 3.86203L8.30532 4.85372C9.33474 4.85973 10.3984 4.89115 11.3374 5.05535C12.1653 5.2001 12.8025 5.84028 12.9767 6.64688C13.1442 7.42299 13.1442 8.06926 13.1442 9.24444V9.33152C13.1442 10.5067 13.1442 11.153 12.9767 11.9291C12.8025 12.7357 12.1653 13.3759 11.3374 13.5206C10.1761 13.7237 8.82417 13.7237 7.58207 13.7237H7.5287C6.2866 13.7237 4.93472 13.7237 3.77331 13.5206C2.94544 13.3759 2.30821 12.7357 2.13407 11.9291C1.96652 11.153 1.96653 10.5067 1.96655 9.33155V9.33153V9.24444V9.24442C1.96653 8.06925 1.96652 7.42298 2.13407 6.64688C2.30821 5.84028 2.94544 5.2001 3.77331 5.05535C4.71236 4.89116 5.77593 4.85973 6.80532 4.85372L6.80529 3.86199C6.15215 3.57366 5.69629 2.92029 5.69629 2.16045ZM6.15959 7.5975C6.15959 7.25232 5.87977 6.9725 5.53459 6.9725C5.18941 6.9725 4.90959 7.25232 4.90959 7.5975V8.19983C4.90958 8.54501 5.18941 8.82483 5.53458 8.82483C5.87976 8.82483 6.15958 8.54501 6.15959 8.19983V7.5975ZM9.57621 6.9725C9.92139 6.9725 10.2012 7.25232 10.2012 7.5975V8.19983C10.2012 8.54501 9.92139 8.82483 9.57621 8.82483C9.23103 8.82483 8.95121 8.54501 8.95121 8.19983V7.5975C8.95121 7.25232 9.23104 6.9725 9.57621 6.9725ZM5.84387 10.4175C5.60535 10.168 5.20972 10.1591 4.96021 10.3976C4.7107 10.6361 4.70179 11.0318 4.94031 11.2813L5.10093 11.4493C5.40751 11.77 5.83188 11.9514 6.27555 11.9514H8.83517C9.27883 11.9514 9.70321 11.77 10.0098 11.4493L10.1704 11.2813C10.4089 11.0318 10.4 10.6361 10.1505 10.3976C9.901 10.1591 9.50537 10.168 9.26685 10.4175L9.10623 10.5855C9.03548 10.6595 8.93755 10.7014 8.83517 10.7014H6.27555C6.17317 10.7014 6.07523 10.6595 6.00448 10.5855L5.84387 10.4175Z" fill="white"/>
</g>
<defs>
<clipPath id="clip0_1459_3717">
<rect width="14" height="14" fill="white" transform="translate(0.55542 0.0380859)"/>
</clipPath>
</defs>
</svg>
