<svg width="15" height="15" viewBox="0 0 15 15" fill="none" xmlns="http://www.w3.org/2000/svg">
<g clip-path="url(#clip0_1459_3715)">
<path fill-rule="evenodd" clip-rule="evenodd" d="M3.21533 2.15809C3.21533 1.32966 3.8869 0.658081 4.71533 0.658081H10.3953C11.2237 0.658081 11.8953 1.32966 11.8953 2.15809V3.49396C11.8953 3.64067 11.7695 3.75537 11.6229 3.75071C11.5685 3.74898 11.5135 3.74811 11.458 3.74811H3.65259C3.59711 3.74811 3.54216 3.74898 3.48774 3.75071C3.34111 3.75536 3.21533 3.64067 3.21533 3.49396V2.15809ZM10.1477 9.79377C10.2667 9.79377 10.3853 9.83383 10.4586 9.92757C10.8447 10.421 11.0262 11.4949 11.0932 12.5218C11.1292 13.073 10.6777 13.5211 10.1255 13.5211H4.98545C4.43316 13.5211 3.98167 13.073 4.01764 12.5218C4.08466 11.4949 4.26621 10.421 4.65228 9.92757C4.72563 9.83383 4.84417 9.79377 4.96318 9.79377H10.1477ZM1.05078 8.12029V9.24246C1.05078 10.1391 1.64086 10.898 2.45389 11.1519C2.70116 11.2291 2.9325 11.0405 2.98757 10.7874C3.00259 10.7184 3.01844 10.6501 3.03518 10.5828C3.16366 10.0663 3.40813 9.32031 3.96712 8.84309C4.19341 8.6499 4.48119 8.54377 4.77873 8.54377H10.3321C10.6296 8.54377 10.9174 8.6499 11.1437 8.84309C11.7027 9.32031 11.9471 10.0663 12.0756 10.5828C12.0923 10.6501 12.1082 10.7184 12.1232 10.7873C12.1783 11.0405 12.4096 11.2291 12.6569 11.1518C13.4698 10.8979 14.0598 10.1391 14.0598 9.24246V8.12029C14.0598 6.5592 13.5395 4.99811 11.458 4.99811H3.65259C1.57114 4.99811 1.05078 6.5592 1.05078 8.12029Z" fill="white"/>
</g>
<defs>
<clipPath id="clip0_1459_3715">
<rect width="14" height="14" fill="white" transform="translate(0.55542 0.0380859)"/>
</clipPath>
</defs>
</svg>
