<svg width="15" height="15" viewBox="0 0 15 15" fill="none" xmlns="http://www.w3.org/2000/svg">
<g clip-path="url(#clip0_1459_3723)">
<path fill-rule="evenodd" clip-rule="evenodd" d="M5.20957 1.02403C5.84094 0.559973 6.6723 0.303223 7.53724 0.303223C8.40172 0.303223 9.24068 0.559669 9.87996 1.02166C10.5227 1.48614 10.9846 2.17856 11.006 3.02621C11.0109 3.22153 11.0201 3.44019 11.0299 3.67122C11.0463 4.05792 11.0642 4.47926 11.0655 4.88376C11.0677 5.54604 11.0286 6.24869 10.8622 6.89296C10.695 7.54047 10.3908 8.16097 9.84035 8.61646C9.2859 9.07525 8.53793 9.32016 7.57386 9.32016C6.60964 9.32016 5.86033 9.0752 5.30311 8.61767C4.74982 8.16335 4.44045 7.54409 4.26813 6.89651C3.9916 5.85734 4.04279 4.61291 4.08381 3.6157C4.09239 3.40699 4.10053 3.20911 4.10513 3.02621C4.1263 2.18372 4.57413 1.49108 5.20957 1.02403ZM7.51759 10.6571C7.50966 10.6569 7.50169 10.6568 7.49369 10.6568C7.48721 10.6568 7.48075 10.6568 7.47431 10.657C5.99169 10.6485 4.86911 10.2186 4.10677 9.58038C3.33947 8.93801 2.89373 8.05013 2.81826 7.04146C2.78735 6.6284 2.42745 6.3186 2.01439 6.34951C1.60133 6.38041 1.29153 6.74032 1.32244 7.15338C1.42717 8.55321 2.05647 9.82017 3.14388 10.7305C4.06823 11.5044 5.29187 11.9953 6.74369 12.1236V13.2887C6.74369 13.7029 7.07947 14.0387 7.49369 14.0387C7.9079 14.0387 8.24369 13.7029 8.24369 13.2887V12.1244C11.2899 11.845 13.3785 9.80729 13.7817 7.21255C13.8453 6.80325 13.565 6.4199 13.1557 6.35631C12.7464 6.29272 12.363 6.57297 12.2994 6.98228C11.9871 8.99302 10.273 10.6571 7.51935 10.6571C7.51876 10.6571 7.51818 10.6571 7.51759 10.6571Z" fill="white"/>
</g>
<defs>
<clipPath id="clip0_1459_3723">
<rect width="14" height="14" fill="white" transform="translate(0.55542 0.0380859)"/>
</clipPath>
</defs>
</svg>
