<svg width="15" height="15" viewBox="0 0 15 15" fill="none" xmlns="http://www.w3.org/2000/svg">
<g clip-path="url(#clip0_1459_3713)">
<path fill-rule="evenodd" clip-rule="evenodd" d="M3.06219 1.14137C2.10361 1.56574 1.76672 2.09866 1.76672 2.6709C1.76672 3.24313 2.10361 3.77605 3.06219 4.20043C4.0366 4.63181 5.53899 4.88513 7.55502 4.88513C9.57105 4.88513 11.0734 4.63181 12.0478 4.20043C13.0064 3.77605 13.3433 3.24313 13.3433 2.6709C13.3433 2.09866 13.0064 1.56574 12.0478 1.14137C11.0734 0.709983 9.57105 0.456665 7.55502 0.456665C5.53899 0.456665 4.0366 0.709983 3.06219 1.14137ZM12.5538 5.34343C12.8198 5.22566 13.0667 5.09152 13.2901 4.94086C13.4641 4.82352 13.7188 4.9317 13.7282 5.14137C13.7475 5.57301 13.7589 6.00908 13.7589 6.44888C13.7589 6.79848 13.748 7.16998 13.7296 7.54767C13.7256 7.631 13.6797 7.70689 13.6076 7.74876C9.87656 9.91376 5.24357 9.90599 1.50388 7.74851C1.43142 7.7067 1.38535 7.63065 1.38129 7.54709C1.36295 7.1696 1.35205 6.7983 1.35205 6.44888C1.35205 6.04472 1.36164 5.59807 1.37823 5.14403C1.38595 4.93259 1.64351 4.82182 1.8189 4.94017C2.04258 5.09111 2.28976 5.22548 2.55617 5.34343C3.76228 5.87738 5.46654 6.13513 7.55502 6.13513C9.6435 6.13513 11.3477 5.87738 12.5538 5.34343ZM1.9024 9.364C1.72431 9.28085 1.51925 9.42024 1.53849 9.61584C1.56762 9.91214 1.59749 10.1916 1.62594 10.4445C1.73678 11.4297 2.29276 12.3591 3.25604 12.7903C4.24686 13.2337 5.77467 13.7462 7.55548 13.7462C9.33629 13.7462 10.8641 13.2337 11.8549 12.7903C12.8182 12.3591 13.3742 11.4297 13.485 10.4445C13.5134 10.1925 13.5431 9.91408 13.5722 9.61893C13.5914 9.42314 13.386 9.28373 13.2078 9.36718C9.63362 11.0413 5.47857 11.0338 1.9024 9.364Z" fill="white"/>
</g>
<defs>
<clipPath id="clip0_1459_3713">
<rect width="14" height="14" fill="white" transform="translate(0.55542 0.0380859)"/>
</clipPath>
</defs>
</svg>
