<svg width="15" height="15" viewBox="0 0 15 15" fill="none" xmlns="http://www.w3.org/2000/svg">
<g clip-path="url(#clip0_1459_3587)">
<path fill-rule="evenodd" clip-rule="evenodd" d="M2.87807 3.07228C2.87556 3.03882 2.88589 2.99915 2.92648 2.9586C2.9682 2.91692 3.03719 2.88177 3.12773 2.88177H11.9833C12.0738 2.88177 12.1428 2.91692 12.1845 2.9586C12.2251 2.99915 12.2354 3.03882 12.2329 3.07228L11.8095 8.72429C10.7715 8.76588 9.33858 8.80361 7.55542 8.80361C5.77237 8.80361 4.33945 8.76589 3.30147 8.72431L2.87807 3.07228ZM1.79268 8.66313L1.38226 3.18433C1.30522 2.15592 2.16845 1.38177 3.12773 1.38177H11.9833C12.9426 1.38177 13.8058 2.15591 13.7287 3.18433L13.3183 8.66315C13.8643 8.72081 14.3054 9.18069 14.3054 9.75607C14.3054 10.9346 13.3982 11.9241 12.2033 11.9773C11.1338 12.0249 9.56368 12.0723 7.55542 12.0723C5.54716 12.0723 3.97702 12.0249 2.90756 11.9773C1.71259 11.9241 0.80542 10.9346 0.80542 9.75607C0.80542 9.18062 1.2466 8.72071 1.79268 8.66313Z" fill="white"/>
</g>
<defs>
<clipPath id="clip0_1459_3587">
<rect width="14" height="14" fill="white" transform="translate(0.55542 0.0380249)"/>
</clipPath>
</defs>
</svg>
