<svg width="15" height="15" viewBox="0 0 15 15" fill="none" xmlns="http://www.w3.org/2000/svg">
<g clip-path="url(#clip0_1459_3721)">
<path fill-rule="evenodd" clip-rule="evenodd" d="M5.42017 0.74935C5.42017 0.602596 5.29434 0.487357 5.14825 0.5013C5.04773 0.510894 4.94757 0.52082 4.84779 0.531006C4.5064 0.565857 4.18979 0.71809 3.94874 0.957628L1.47542 3.41549C1.2306 3.65878 1.07552 3.98043 1.04154 4.32726C0.955493 5.20556 0.889282 6.11225 0.889282 7.0382C0.889282 8.46262 1.04575 9.85518 1.19318 11.1673C1.22251 11.4283 1.25148 11.6862 1.27879 11.9405C1.35552 12.6549 1.92138 13.2195 2.63422 13.2975C2.81549 13.3173 2.99865 13.3382 3.18358 13.3595C3.33208 13.3766 3.4624 13.2605 3.4624 13.1111V9.58791C3.4624 8.62308 4.2447 7.84102 5.20952 7.84131L9.90243 7.84273C10.8668 7.84302 11.6485 8.62491 11.6485 9.58932V13.111C11.6485 13.2605 11.7788 13.3766 11.9273 13.3595C12.1122 13.3382 12.2953 13.3173 12.4766 13.2975C13.1894 13.2195 13.7553 12.6549 13.832 11.9405C13.8593 11.6862 13.8883 11.4283 13.9176 11.1673C14.0651 9.85518 14.2215 8.46262 14.2215 7.0382C14.2215 5.61379 14.0651 4.22124 13.9176 2.90916V2.90915V2.90914V2.90913C13.8883 2.64809 13.8593 2.39023 13.832 2.13594C13.7553 1.42153 13.1894 0.856891 12.4766 0.778897C12.3474 0.764764 12.2173 0.750127 12.0862 0.735172C11.9377 0.718228 11.8074 0.834246 11.8074 0.983704V3.38962C11.8074 4.2873 11.0796 5.01492 10.1819 5.01462L7.04461 5.01355C6.14737 5.01325 5.42017 4.2858 5.42017 3.38855V0.74935ZM10.5574 0.78587C10.5574 0.658114 10.4612 0.550842 10.3341 0.537723C9.43147 0.444549 8.50007 0.37207 7.55541 0.37207C7.33897 0.37207 7.12359 0.375871 6.90939 0.38284C6.7756 0.387193 6.67017 0.497467 6.67017 0.631328V3.38855C6.67017 3.59561 6.83798 3.76348 7.04504 3.76355L10.1823 3.76462C10.3895 3.76469 10.5574 3.59678 10.5574 3.38962V0.78587ZM7.55541 13.7043C6.66637 13.7043 5.78907 13.6401 4.93646 13.5549C4.80908 13.5422 4.7124 13.4348 4.7124 13.3068V9.58791C4.7124 9.31359 4.93483 9.09123 5.20915 9.09131L9.90206 9.09273C10.1763 9.09281 10.3985 9.31512 10.3985 9.58932V13.3068C10.3985 13.4348 10.3018 13.5422 10.1744 13.5549C9.32181 13.6401 8.44448 13.7043 7.55541 13.7043Z" fill="white"/>
</g>
<defs>
<clipPath id="clip0_1459_3721">
<rect width="14" height="14" fill="white" transform="translate(0.55542 0.0380859)"/>
</clipPath>
</defs>
</svg>
