<svg width="15" height="15" viewBox="0 0 15 15" fill="currentColor" xmlns="http://www.w3.org/2000/svg">
<g clip-path="url(#clip0_1459_3711)">
<path fill-rule="evenodd" clip-rule="evenodd" d="M8.89176 0.373291C7.3344 0.373291 6.0719 1.63579 6.0719 3.19316C6.0719 4.49079 6.9484 5.58371 8.14165 5.91216V8.40981C7.9469 8.40782 7.75146 8.40674 7.5554 8.40674C6.16122 8.40674 4.79822 8.46117 3.49327 8.51328H3.49321H3.49313H3.49309L3.49304 8.51329H3.49302H3.49298C3.16446 8.52641 2.83962 8.53938 2.51889 8.5513C1.86178 8.57572 1.29415 9.01901 1.09561 9.6357C0.963491 10.0461 0.816895 10.536 0.816895 11.0549C0.816895 11.5738 0.963491 12.0637 1.09561 12.4741C1.29415 13.0907 1.86178 13.534 2.51889 13.5585C2.83971 13.5704 3.16463 13.5834 3.49324 13.5965C4.7982 13.6486 6.1612 13.703 7.5554 13.703C8.9496 13.703 10.3126 13.6486 11.6176 13.5965H11.6177C11.9462 13.5833 12.2711 13.5704 12.5919 13.5585C13.249 13.534 13.8166 13.0907 14.0152 12.4741C14.1473 12.0637 14.2939 11.5738 14.2939 11.0549C14.2939 10.536 14.1473 10.0461 14.0152 9.6357C13.8166 9.01901 13.249 8.57572 12.5919 8.5513C12.2711 8.53938 11.9462 8.52641 11.6177 8.51328H11.6176H11.6175C10.972 8.4875 10.3123 8.46116 9.64165 8.44112V5.91223C10.835 5.58384 11.7116 4.49087 11.7116 3.19316C11.7116 1.63579 10.4491 0.373291 8.89176 0.373291ZM4.22986 7.43572C4.64407 7.43572 4.97986 7.09994 4.97986 6.68572C4.97986 6.27151 4.64407 5.93572 4.22986 5.93572H2.77971C2.36549 5.93572 2.02971 6.27151 2.02971 6.68572C2.02971 7.09994 2.36549 7.43572 2.77971 7.43572H4.22986Z" fill="white"/>
</g>
<defs>
<clipPath id="clip0_1459_3711">
<rect width="14" height="14" fill="white" transform="translate(0.55542 0.0380859)"/>
</clipPath>
</defs>
</svg>
