<svg width="15" height="15" viewBox="0 0 15 15" fill="currentColor" xmlns="http://www.w3.org/2000/svg">
<g clip-path="url(#clip0_1459_3591)">
<path d="M4.61556 9.05221C4.66944 9.53215 5.05227 9.91474 5.53202 9.97035C6.18516 10.046 6.86193 10.1255 7.55537 10.1255C8.24881 10.1255 8.92557 10.046 9.57872 9.97035C10.0585 9.91474 10.4413 9.53215 10.4952 9.05221C10.5681 8.40197 10.6429 7.72826 10.6429 7.03798C10.6429 6.34769 10.5681 5.67398 10.4952 5.02374C10.4413 4.5438 10.0585 4.16121 9.57872 4.1056C8.92557 4.02989 8.24881 3.95038 7.55537 3.95038C6.86193 3.95038 6.18516 4.02989 5.53202 4.1056C5.05227 4.16121 4.66944 4.5438 4.61556 5.02374C4.54257 5.67398 4.46777 6.34769 4.46777 7.03798C4.46777 7.72826 4.54257 8.40197 4.61556 9.05221Z" fill="white"/>
<path fill-rule="evenodd" clip-rule="evenodd" d="M6.51406 0.469824C6.82058 0.385861 7.177 0.302917 7.55561 0.302917C7.93422 0.302917 8.29064 0.385861 8.59716 0.469824C9.24503 0.647295 9.71275 1.23402 9.73418 1.90905C9.74076 2.1162 9.7476 2.33997 9.75451 2.57501C9.75904 2.72907 9.62434 2.85026 9.47136 2.8315C8.83616 2.75363 8.19418 2.70037 7.55535 2.70037C6.91663 2.70037 6.27485 2.75371 5.63977 2.83149C5.48681 2.85022 5.35214 2.72903 5.35668 2.57498C5.36361 2.33996 5.37046 2.11619 5.37704 1.90905C5.39847 1.23402 5.86618 0.647295 6.51406 0.469824ZM5.63978 11.2444C5.48683 11.2257 5.35218 11.3469 5.3567 11.5009C5.36361 11.736 5.37046 11.9599 5.37704 12.1671C5.39847 12.8421 5.86618 13.4288 6.51406 13.6063C6.82058 13.6903 7.177 13.7732 7.55561 13.7732C7.93422 13.7732 8.29064 13.6903 8.59716 13.6063C9.24504 13.4288 9.71275 12.8421 9.73418 12.1671C9.74076 11.9599 9.74762 11.736 9.75454 11.5009C9.75908 11.3469 9.62438 11.2257 9.47139 11.2444C8.83618 11.3223 8.19418 11.3755 7.55535 11.3755C6.91662 11.3755 6.27486 11.3222 5.63978 11.2444Z" fill="white"/>
</g>
<defs>
<clipPath id="clip0_1459_3591">
<rect width="14" height="14" fill="white" transform="translate(0.55542 0.0380249)"/>
</clipPath>
</defs>
</svg>
