<svg width="15" height="15" viewBox="0 0 15 15" fill="none" xmlns="http://www.w3.org/2000/svg">
<g clip-path="url(#clip0_1459_3589)">
<path fill-rule="evenodd" clip-rule="evenodd" d="M9.27863 0.507695C9.57152 0.214802 10.0464 0.214802 10.3393 0.507695C10.6322 0.800588 10.6322 1.27546 10.3393 1.56835L9.10593 2.80171C8.81303 3.09461 8.33816 3.09461 8.04527 2.80171C7.75237 2.50882 7.75237 2.03395 8.04527 1.74105L9.27863 0.507695ZM9.03962 4.15131C10.0192 3.84343 11.377 3.73467 12.4443 4.8143C12.7789 5.15275 13.0253 5.53936 13.1982 5.95266C13.266 6.11474 13.2437 6.30053 13.1396 6.44203C13.0354 6.58354 12.8646 6.65998 12.6897 6.6434C12.6158 6.6364 12.5376 6.63272 12.455 6.63272C11.9372 6.63272 11.6038 6.77499 11.4002 6.97577C11.1976 7.17551 11.0552 7.50037 11.0552 8.00575C11.0552 8.51113 11.1976 8.83599 11.4002 9.03574C11.6038 9.23652 11.9372 9.37879 12.455 9.37879C12.5273 9.37879 12.5962 9.37597 12.6618 9.37058C12.8269 9.357 12.9881 9.42616 13.0921 9.55523C13.1961 9.68431 13.2293 9.85651 13.1809 10.015C12.8616 11.06 12.369 11.9969 11.9032 12.5394C11.1078 13.4657 9.6591 13.9443 8.27938 13.1018C7.9419 12.8957 7.46958 12.8958 7.13211 13.1018C5.75239 13.9443 4.30366 13.4657 3.50828 12.5394C2.91144 11.8443 2.25695 10.4833 1.99417 9.04957C1.73248 7.62176 1.83323 5.96134 2.96715 4.8143C4.03443 3.73467 5.39225 3.84343 6.37187 4.15131C6.62457 4.23073 6.86217 4.33744 7.08333 4.46713C7.44483 4.67911 7.96666 4.67911 8.32816 4.46713C8.54932 4.33744 8.78692 4.23073 9.03962 4.15131Z" fill="white"/>
</g>
<defs>
<clipPath id="clip0_1459_3589">
<rect width="14" height="14" fill="white" transform="translate(0.55542 0.0380249)"/>
</clipPath>
</defs>
</svg>
