<svg width="15" height="15" viewBox="0 0 15 15" fill="none" xmlns="http://www.w3.org/2000/svg">
<g clip-path="url(#clip0_1459_3719)">
<path fill-rule="evenodd" clip-rule="evenodd" d="M1.18434 2.1572C1.31676 1.27519 2.08824 0.610915 2.99678 0.642565C4.46587 0.693743 5.98672 0.735842 7.55544 0.735842C9.12395 0.735842 10.6433 0.714361 12.0933 0.654295C13.0054 0.616514 13.7944 1.27791 13.9289 2.17319L13.9647 2.41006C14.1058 3.34102 14.2617 4.36944 14.2617 5.42728C14.2617 6.48524 14.1058 7.51404 13.9646 8.44529L13.9272 8.6926C13.7942 9.5786 13.0174 10.2421 12.1078 10.2085C11.0291 10.1686 9.93225 10.139 8.80542 10.126V12.1508H9.92994C10.3442 12.1508 10.6799 12.4866 10.6799 12.9008C10.6799 13.315 10.3442 13.6508 9.92994 13.6508H5.18079C4.76657 13.6508 4.43079 13.315 4.43079 12.9008C4.43079 12.4866 4.76657 12.1508 5.18079 12.1508H6.30542V10.1295C5.42201 10.144 4.55666 10.171 3.69662 10.1979H3.69655H3.69568H3.69491C3.45714 10.2054 3.21977 10.2128 2.98254 10.2199C2.07663 10.2472 1.31693 9.58113 1.18595 8.7081L1.1464 8.44635C1.00517 7.5147 0.849121 6.48539 0.849121 5.42728C0.849121 4.36928 1.0051 3.34033 1.14629 2.40896L1.18434 2.1572ZM2.94455 2.14166C2.81497 2.13715 2.68952 2.23468 2.66771 2.37991L2.63179 2.61806C2.48819 3.56797 2.34912 4.48793 2.34912 5.42728C2.34912 6.36652 2.48813 7.28611 2.63167 8.23566L2.66935 8.48555C2.69113 8.63073 2.81423 8.7243 2.93746 8.7206C3.17086 8.71358 3.40553 8.70624 3.64153 8.69887L3.64441 8.69878C4.90579 8.65934 6.20539 8.61872 7.55543 8.61872C9.14937 8.61872 10.6758 8.65454 12.1631 8.70947C12.2955 8.71436 12.4221 8.61505 12.4439 8.46982L12.479 8.23688C12.6226 7.2868 12.7617 6.36668 12.7617 5.42728C12.7617 4.48777 12.6226 3.56729 12.4789 2.61683V2.61681L12.4456 2.39614C12.4237 2.25087 12.2947 2.14725 12.1554 2.15301C10.6779 2.21422 9.13661 2.23585 7.55544 2.23585C5.96096 2.23585 4.42 2.19306 2.94455 2.14166Z" fill="white"/>
</g>
<defs>
<clipPath id="clip0_1459_3719">
<rect width="14" height="14" fill="white" transform="translate(0.55542 0.0380859)"/>
</clipPath>
</defs>
</svg>
