<svg width="15" height="15" viewBox="0 0 15 15" fill="none" xmlns="http://www.w3.org/2000/svg">
<g clip-path="url(#clip0_1459_3594)">
<path fill-rule="evenodd" clip-rule="evenodd" d="M10.9069 8.61934C11.8089 7.7444 12.3695 6.5194 12.3695 5.16347C12.3695 2.50475 10.2142 0.349426 7.55549 0.349426C4.89677 0.349426 2.74146 2.50475 2.74146 5.16347V10.0192C2.74146 12.0667 4.40132 13.7266 6.44888 13.7266C8.40612 13.7266 9.97529 12.1513 10.1396 10.3092C10.1957 9.68083 10.454 9.05859 10.9069 8.61934ZM7.55543 3.48601C6.65088 3.48601 5.9176 4.21929 5.9176 5.12384V7.01288H6.03445C7.06275 7.01288 7.9435 7.74917 8.12579 8.76118L8.17058 9.00982C8.23177 9.34953 8.00599 9.67453 7.66628 9.73571C7.32656 9.7969 7.00157 9.57113 6.94038 9.23141L6.89559 8.98277C6.82053 8.56606 6.45787 8.26288 6.03445 8.26288H5.29236C4.94718 8.26288 4.66736 7.98306 4.66736 7.63788C4.66736 7.63198 4.66744 7.6261 4.6676 7.62024V5.12384C4.6676 3.52894 5.96053 2.23601 7.55543 2.23601C9.15033 2.23601 10.4433 3.52894 10.4433 5.12384C10.4433 5.46902 10.1634 5.74884 9.81826 5.74884C9.47308 5.74884 9.19326 5.46902 9.19326 5.12384C9.19326 4.21929 8.45998 3.48601 7.55543 3.48601Z" fill="white"/>
</g>
<defs>
<clipPath id="clip0_1459_3594">
<rect width="14" height="14" fill="white" transform="translate(0.55542 0.0380249)"/>
</clipPath>
</defs>
</svg>
