<svg width="15" height="15" viewBox="0 0 15 15" fill="currentColor" xmlns="http://www.w3.org/2000/svg">
<g clip-path="url(#clip0_1459_3596)">
<path fill-rule="evenodd" clip-rule="evenodd" d="M4.04668 1.99469H4.64072V3.88681C4.64072 4.10797 4.58205 4.32517 4.47069 4.51624L1.47847 9.65028C0.822145 10.7764 1.33807 12.2222 2.55903 12.6784C5.78116 13.8824 9.32967 13.8824 12.5518 12.6784C13.7727 12.2222 14.2887 10.7764 13.6323 9.65026L10.6401 4.51624C10.5288 4.32517 10.4701 4.10797 10.4701 3.88681V1.99469H11.0642C11.4784 1.99469 11.8142 1.6589 11.8142 1.24469C11.8142 0.830476 11.4784 0.49469 11.0642 0.49469H9.7201H5.39072H4.04668C3.63247 0.49469 3.29668 0.830476 3.29668 1.24469C3.29668 1.6589 3.63247 1.99469 4.04668 1.99469ZM6.14072 3.88681V1.99469H8.9701V3.88681C8.9701 4.37335 9.09919 4.85119 9.34418 5.27155L9.96033 6.32872C8.39541 6.48457 6.88447 6.46699 5.18512 6.26932L5.76664 5.27155C6.01164 4.85119 6.14072 4.37336 6.14072 3.88681Z" fill="white"/>
</g>
<defs>
<clipPath id="clip0_1459_3596">
<rect width="14" height="14" fill="white" transform="translate(0.55542 0.0380249)"/>
</clipPath>
</defs>
</svg>
