<svg width="15" height="15" viewBox="0 0 15 15" fill="currentColor" xmlns="http://www.w3.org/2000/svg">
<g clip-path="url(#clip0_1459_3725)">
<path fill-rule="evenodd" clip-rule="evenodd" d="M4.97165 4.61264C4.87965 4.60258 4.788 4.59256 4.69673 4.58271C4.21669 4.53092 3.83288 4.15169 3.78692 3.67105C3.71209 2.88862 3.6282 1.95221 3.58768 1.13833C3.5686 0.755212 3.97726 0.514584 4.31059 0.704418L5.95966 1.64359L7.23063 0.556653C7.41773 0.396643 7.69347 0.396643 7.88057 0.556653L9.15154 1.64359L10.8006 0.704418C11.1339 0.514584 11.5426 0.755211 11.5235 1.13833C11.483 1.95221 11.3991 2.88862 11.3243 3.67105C11.2783 4.15169 10.8945 4.53092 10.4145 4.58272C10.3232 4.59256 10.2316 4.60258 10.1396 4.61264C9.30502 4.70388 8.44082 4.79836 7.5556 4.79836C6.67039 4.79836 5.80619 4.70388 4.97165 4.61264ZM4.56264 5.82546C4.65309 5.83523 4.74502 5.8453 4.83831 5.85552H4.83833H4.83834C5.66491 5.94609 6.59789 6.04832 7.55561 6.04832C8.51334 6.04832 9.44632 5.94609 10.2729 5.85552H10.2729C10.3662 5.8453 10.4581 5.83523 10.5486 5.82547C11.0546 5.77086 11.5161 5.55018 11.8709 5.21535C11.956 5.13503 12.0837 5.11111 12.182 5.17458C12.8869 5.62965 13.3826 6.37276 13.4716 7.25399C13.6031 8.55558 13.6924 9.98997 13.6875 11.2981C13.6819 12.7496 12.3405 13.9904 11.1123 13.2169C10.341 12.7312 9.93107 12.0048 9.77731 11.2906C9.75119 11.1693 9.64693 11.0781 9.52285 11.0781H5.58793C5.46385 11.0781 5.35959 11.1693 5.33347 11.2906C5.1797 12.0048 4.76975 12.7312 3.99848 13.2169C2.77024 13.9904 1.42881 12.7496 1.42329 11.2981C1.41832 9.98997 1.50763 8.55558 1.63912 7.25399C1.72815 6.37264 2.22401 5.62945 2.92904 5.1744C3.02736 5.11094 3.15506 5.13487 3.24015 5.2152C3.59492 5.55011 4.05655 5.77086 4.56264 5.82546ZM3.53088 8.36355C3.53088 8.01837 3.81071 7.73855 4.15588 7.73855H4.35266V7.54177C4.35266 7.19659 4.63248 6.91677 4.97766 6.91677C5.32284 6.91677 5.60266 7.19659 5.60266 7.54177V7.73855H5.79974C6.14492 7.73855 6.42474 8.01837 6.42474 8.36355C6.42474 8.70873 6.14492 8.98855 5.79974 8.98855H5.60266V9.18563C5.60266 9.53081 5.32284 9.81063 4.97766 9.81063C4.63248 9.81063 4.35266 9.53081 4.35266 9.18563V8.98855H4.15588C3.81071 8.98855 3.53088 8.70873 3.53088 8.36355ZM9.896 7.62991C10.2412 7.62991 10.521 7.90973 10.521 8.25491V8.47231C10.521 8.81749 10.2412 9.09731 9.896 9.09731C9.55082 9.09731 9.271 8.81749 9.271 8.47231V8.25491C9.271 7.90973 9.55082 7.62991 9.896 7.62991Z" fill="white"/>
</g>
<defs>
<clipPath id="clip0_1459_3725">
<rect width="14" height="14" fill="white" transform="translate(0.55542 0.0380859)"/>
</clipPath>
</defs>
</svg>
