<svg width="15" height="15" viewBox="0 0 15 15" fill="currentColor" xmlns="http://www.w3.org/2000/svg">
<g clip-path="url(#clip0_1459_3612)">
<path fill-rule="evenodd" clip-rule="evenodd" d="M8.97481 2.57879C8.94225 1.78267 8.54463 1.10983 7.924 0.832821C7.26584 0.539048 6.52512 0.76251 6.01811 1.43677C5.8356 1.67948 5.65972 1.93436 5.49373 2.19483C5.16788 2.70614 4.62569 3.03684 4.03677 3.07497C3.70841 3.09623 3.42648 3.12566 3.18117 3.16057C2.00173 3.32844 1.15405 4.29664 0.960008 5.40866C0.872272 5.91145 0.80542 6.48047 0.80542 7.03801C0.80542 7.59555 0.872272 8.16458 0.960008 8.66737C1.15405 9.77938 2.00173 10.7476 3.18117 10.9154C3.42648 10.9503 3.70841 10.9798 4.03677 11.001L4.06908 10.5021L4.03677 11.001C4.62569 11.0392 5.16788 11.3699 5.49373 11.8812C5.65972 12.1416 5.8356 12.3965 6.01811 12.6392C6.52512 13.3135 7.26584 13.537 7.92401 13.2432C8.54463 12.9662 8.94225 12.2933 8.97481 11.4972C9.01956 10.4031 9.05542 8.93472 9.05542 7.03801C9.05542 5.14131 9.01956 3.6729 8.97481 2.57879ZM12.7648 2.81744C12.4549 2.54262 11.9809 2.57108 11.706 2.881C11.4312 3.19092 11.4597 3.66494 11.7696 3.93975C12.5066 4.59328 13.0563 5.63241 13.0563 7.03793C13.0563 8.44345 12.5066 9.48258 11.7696 10.1361C11.4597 10.4109 11.4312 10.8849 11.706 11.1948C11.9809 11.5048 12.4549 11.5332 12.7648 11.2584C13.831 10.3129 14.5563 8.8615 14.5563 7.03793C14.5563 5.21437 13.831 3.7629 12.7648 2.81744ZM11.3094 5.46551C11.0028 5.18702 10.5285 5.20981 10.25 5.51643C9.9715 5.82306 9.9943 6.29738 10.3009 6.57587C10.3877 6.65466 10.4764 6.79715 10.4764 7.03807C10.4764 7.27899 10.3877 7.42148 10.3009 7.50027C9.9943 7.77876 9.9715 8.25308 10.25 8.5597C10.5285 8.86632 11.0028 8.88912 11.3094 8.61063C11.7174 8.24006 11.9764 7.69058 11.9764 7.03807C11.9764 6.38556 11.7174 5.83609 11.3094 5.46551Z" fill="white"/>
</g>
<defs>
<clipPath id="clip0_1459_3612">
<rect width="14" height="14" fill="white" transform="translate(0.55542 0.0380249)"/>
</clipPath>
</defs>
</svg>
