<svg width="15" height="15" viewBox="0 0 15 15" fill="currentColor" xmlns="http://www.w3.org/2000/svg">
<g clip-path="url(#clip0_1459_3610)">
<path fill-rule="evenodd" clip-rule="evenodd" d="M3.46931 0.641242C4.76839 0.490506 6.14731 0.330505 7.55545 0.330505C8.9636 0.330505 10.3425 0.490506 11.6416 0.641242V0.641247C11.937 0.675524 12.2283 0.709322 12.5148 0.740651C13.2277 0.818588 13.7936 1.38324 13.8703 2.09769C13.8979 2.35547 13.9273 2.61688 13.9571 2.88154C14.1055 4.20249 14.263 5.60426 14.263 7.03806C14.263 8.47186 14.1055 9.87363 13.9571 11.1946L13.957 11.1947C13.9273 11.4593 13.8979 11.7207 13.8703 11.9784C13.7936 12.6929 13.2277 13.2575 12.5148 13.3354C12.2283 13.3668 11.937 13.4006 11.6415 13.4348C10.3425 13.5856 8.96359 13.7456 7.55545 13.7456C6.14732 13.7456 4.76841 13.5856 3.46934 13.4348H3.46933H3.46932H3.46915C3.17378 13.4006 2.88255 13.3668 2.59604 13.3354C1.88316 13.2575 1.31729 12.6929 1.2406 11.9784C1.21294 11.7206 1.18357 11.4593 1.15383 11.1946H1.15383H1.15383C1.0054 9.87362 0.8479 8.47186 0.8479 7.03806C0.8479 5.60426 1.0054 4.20249 1.15382 2.88154L1.15383 2.88148C1.18357 2.61684 1.21294 2.35545 1.2406 2.09769C1.31729 1.38324 1.88316 0.818588 2.59604 0.74065C2.8826 0.709321 3.17389 0.675521 3.46931 0.641242ZM5.21675 9.3818C5.10501 8.65152 4.98094 7.69317 4.98094 7.03805C4.98094 6.38291 5.10506 5.42452 5.21684 4.69425C5.30378 4.12626 5.86316 3.76269 6.40947 3.94077C7.99563 4.45782 9.48336 5.27227 10.4876 6.52074C10.7311 6.82359 10.7311 7.2525 10.4875 7.55534C9.48324 8.80377 7.99556 9.61825 6.40939 10.1353C5.86306 10.3134 5.30366 9.94981 5.21675 9.3818Z" fill="white"/>
</g>
<defs>
<clipPath id="clip0_1459_3610">
<rect width="14" height="14" fill="white" transform="translate(0.55542 0.0380249)"/>
</clipPath>
</defs>
</svg>
