<svg width="15" height="15" viewBox="0 0 15 15" fill="currentColor" xmlns="http://www.w3.org/2000/svg">
<g clip-path="url(#clip0_1459_3602)">
<path d="M7.55687 5.13818C7.11283 5.13817 6.6759 5.16103 6.26648 5.20497C6.46625 5.51174 6.58233 5.87801 6.58233 6.27139C6.58233 6.65039 6.47458 7.00423 6.28804 7.30393C6.69174 7.34644 7.1213 7.36847 7.55716 7.36847C7.99088 7.36846 8.41937 7.34664 8.82325 7.30447C8.63651 7.00465 8.52862 6.65062 8.52862 6.27139C8.52862 5.8778 8.64483 5.51136 8.84479 5.20449C8.43494 5.16085 7.99889 5.13819 7.55687 5.13818Z" fill="white"/>
<path d="M4.62549 5.56458C4.23514 5.56458 3.9187 5.88102 3.9187 6.27137C3.9187 6.66171 4.23514 6.97815 4.62549 6.97815C5.01583 6.97815 5.33227 6.66171 5.33227 6.27137C5.33227 5.88102 5.01583 5.56458 4.62549 5.56458Z" fill="white"/>
<path d="M9.77856 6.27137C9.77856 5.88102 10.095 5.56458 10.4854 5.56458C10.8757 5.56458 11.1921 5.88102 11.1921 6.27137C11.1921 6.66171 10.8757 6.97815 10.4854 6.97815C10.095 6.97815 9.77856 6.66171 9.77856 6.27137Z" fill="white"/>
<path fill-rule="evenodd" clip-rule="evenodd" d="M7.55542 1.8017C6.01258 1.8017 4.51609 1.92499 3.08531 2.08795C2.06137 2.20457 1.18296 2.96119 1.02681 4.02412C0.874553 5.06059 0.80542 6.19302 0.80542 7.44164C0.80542 8.69027 0.874554 9.82276 1.02682 10.8592C1.18296 11.9222 2.06137 12.6788 3.08531 12.7954C3.25556 12.8148 3.4085 12.6924 3.43996 12.524C3.55288 11.9195 3.77316 11.3069 3.92182 10.7203C3.98312 10.4783 4.18248 10.296 4.42893 10.2566C6.83013 9.87244 8.22654 9.87763 10.6966 10.256C10.9558 10.2957 11.1627 10.493 11.2146 10.7502C11.3272 11.3083 11.4855 11.8794 11.5797 12.4477C11.6153 12.6626 11.8091 12.8201 12.0255 12.7954C13.0495 12.6788 13.9279 11.9222 14.084 10.8592C14.2363 9.82276 14.3054 8.69027 14.3054 7.44164C14.3054 6.19302 14.2363 5.06059 14.084 4.02412C13.9279 2.96119 13.0495 2.20457 12.0255 2.08795C10.5947 1.92499 9.09826 1.8017 7.55542 1.8017ZM10.8153 4.34231C10.8116 4.34095 10.8078 4.33963 10.8041 4.33834C9.91087 4.03008 8.71362 3.88821 7.55684 3.88819C6.40293 3.88816 5.21178 4.02927 4.32718 4.3372C3.38806 4.48085 2.6687 5.29212 2.6687 6.2714C2.6687 7.30714 3.47341 8.15493 4.49172 8.22368C5.35452 8.49343 6.47074 8.61849 7.55712 8.61848C8.6467 8.61847 9.7691 8.49263 10.6399 8.22216C11.6484 8.14335 12.4421 7.30007 12.4421 6.2714C12.4421 5.30314 11.7389 4.49915 10.8153 4.34231Z" fill="white"/>
<path d="M7.55546 13.0817C6.76876 13.0817 5.99411 13.0496 5.23408 12.9966C4.926 12.9751 4.71506 12.6789 4.79091 12.3796L4.95005 11.7515C4.99963 11.5559 5.16208 11.4087 5.3621 11.3816C6.95294 11.1663 8.09063 11.1673 9.72586 11.3802C9.93595 11.4075 10.1042 11.5667 10.1461 11.7744L10.2737 12.4067C10.3329 12.7001 10.1228 12.9798 9.82422 13.0002C9.08106 13.0511 8.32401 13.0817 7.55546 13.0817Z" fill="white"/>
</g>
<defs>
<clipPath id="clip0_1459_3602">
<rect width="14" height="14" fill="white" transform="translate(0.55542 0.0380249)"/>
</clipPath>
</defs>
</svg>
