<svg width="15" height="15" viewBox="0 0 15 15" fill="none" xmlns="http://www.w3.org/2000/svg">
<g clip-path="url(#clip0_1459_3600)">
<path fill-rule="evenodd" clip-rule="evenodd" d="M7.55529 0.369446C3.87234 0.369446 0.886719 3.35506 0.886719 7.03802C0.886719 10.7209 3.87234 13.7066 7.55529 13.7066C11.2382 13.7066 14.2239 10.7209 14.2239 7.03802C14.2239 3.35506 11.2382 0.369446 7.55529 0.369446ZM6.13395 7.32739C5.10261 7.32739 4.26654 8.16346 4.26654 9.19481C4.26654 10.2261 5.10261 11.0622 6.13395 11.0622C7.1621 11.0622 7.99618 10.2313 8.00133 9.20438L8.0014 9.19481V4.27947C8.04073 4.28134 8.08005 4.28336 8.11938 4.28552C9.26934 4.34869 10.2375 5.28969 10.2786 6.3856C10.2825 6.48816 10.2845 6.59049 10.2845 6.69265C10.2845 7.03782 10.5643 7.31765 10.9095 7.31765C11.2547 7.31765 11.5345 7.03782 11.5345 6.69265C11.5345 6.57359 11.5321 6.45556 11.5277 6.3387C11.4603 4.54333 9.92692 3.13294 8.18794 3.03741C7.92193 3.02279 7.65108 3.01383 7.37628 3.01383C7.0311 3.01383 6.75128 3.29365 6.75128 3.63883C6.75128 3.643 6.75132 3.64717 6.7514 3.6513V7.43188C6.55813 7.36419 6.35034 7.32739 6.13395 7.32739Z" fill="white"/>
</g>
<defs>
<clipPath id="clip0_1459_3600">
<rect width="14" height="14" fill="white" transform="translate(0.55542 0.0380249)"/>
</clipPath>
</defs>
</svg>
