<svg width="15" height="15" viewBox="0 0 15 15" fill="none" xmlns="http://www.w3.org/2000/svg">
<g clip-path="url(#clip0_1459_3598)">
<path fill-rule="evenodd" clip-rule="evenodd" d="M4.18987 0.380798C2.63843 0.380798 1.38074 1.63849 1.38074 3.18994C1.38074 4.74138 2.63843 5.99907 4.18987 5.99907C5.74131 5.99907 6.999 4.74138 6.999 3.18994C6.999 1.63849 5.74131 0.380798 4.18987 0.380798ZM10.4917 1.80524C9.33361 1.80524 8.39478 2.74408 8.39478 3.90219C8.39478 5.0603 9.33361 5.99913 10.4917 5.99913C11.6498 5.99913 12.5886 5.0603 12.5886 3.90219C12.5886 2.74408 11.6498 1.80524 10.4917 1.80524ZM13.6858 7.78244C13.5443 7.69013 13.3657 7.67554 13.2111 7.74363L12.9984 7.83741C12.8648 7.89631 12.6769 7.97928 12.4591 8.07557C12.2014 8.18953 11.9018 8.32222 11.6012 8.45578L11.5821 8.32696C11.4776 7.62366 10.9006 7.07848 10.1908 7.01702L9.93627 6.99482H9.93625C9.133 6.9245 8.27698 6.84955 7.39688 6.84955C6.51678 6.84955 5.66075 6.9245 4.8575 6.99482L4.60301 7.01702C3.89314 7.07848 3.31612 7.62366 3.21165 8.32696C3.12232 8.92831 3.02612 9.58909 3.02612 10.2723C3.02612 10.9556 3.12232 11.6163 3.21165 12.2177C3.31612 12.921 3.89314 13.4662 4.60301 13.5276L4.8481 13.549L4.85749 13.5498C5.66074 13.6202 6.51678 13.6951 7.39688 13.6951C8.27698 13.6951 9.13301 13.6202 9.93626 13.5498L10.1908 13.5276C10.9006 13.4662 11.4776 12.921 11.5821 12.2177L11.6011 12.089C11.9018 12.2225 12.2014 12.3552 12.4591 12.4692C12.6769 12.5655 12.8648 12.6484 12.9984 12.7073L13.2111 12.8011C13.3657 12.8692 13.5443 12.8546 13.6858 12.7623C13.8273 12.67 13.9126 12.5125 13.9126 12.3435V8.20122C13.9126 8.03227 13.8273 7.87474 13.6858 7.78244Z" fill="white"/>
</g>
<defs>
<clipPath id="clip0_1459_3598">
<rect width="14" height="14" fill="white" transform="translate(0.55542 0.0380249)"/>
</clipPath>
</defs>
</svg>
