<svg width="15" height="15" viewBox="0 0 15 15" fill="currentColor" xmlns="http://www.w3.org/2000/svg">
<g clip-path="url(#clip0_1459_3608)">
<path fill-rule="evenodd" clip-rule="evenodd" d="M6.0554 0.263611C5.09469 0.263611 4.00797 0.59514 3.15325 1.31116C2.28494 2.03857 1.67529 3.14827 1.67529 4.64371C1.67529 6.11842 2.17584 7.11839 2.85253 7.83099C3.318 8.32115 3.86429 8.66805 4.32809 8.93556L3.98817 9.35985C3.46369 10.0145 3.92976 10.9851 4.76859 10.9851H5.27372C5.23525 11.5096 5.32545 12.174 5.71809 12.7654C6.23434 13.5429 7.16684 14.038 8.5554 14.038C9.38695 14.038 9.99342 13.8995 10.4756 13.6304C10.9056 13.3904 11.1837 13.069 11.3788 12.8435L11.4323 12.7819C11.6346 12.5507 11.7854 12.3984 12.0388 12.2791C12.304 12.1543 12.7468 12.038 13.5554 12.038C13.9696 12.038 14.3054 11.7022 14.3054 11.288C14.3054 10.8738 13.9696 10.538 13.5554 10.538C12.614 10.538 11.9318 10.6717 11.4001 10.9219C10.8566 11.1776 10.5387 11.5253 10.3035 11.7941L10.2741 11.8277C10.0531 12.0804 9.93713 12.2131 9.74456 12.3206C9.55488 12.4265 9.22384 12.538 8.5554 12.538C7.54396 12.538 7.14312 12.1998 6.9677 11.9356C6.77298 11.6424 6.73824 11.2632 6.78193 10.9851H7.34221C8.18104 10.9851 8.64711 10.0145 8.12263 9.35985L7.78271 8.93556C8.24651 8.66805 8.7928 8.32115 9.25827 7.83099C9.93496 7.11839 10.4355 6.11842 10.4355 4.64371C10.4355 1.64834 7.959 0.263611 6.0554 0.263611Z" fill="white"/>
</g>
<defs>
<clipPath id="clip0_1459_3608">
<rect width="14" height="14" fill="white" transform="translate(0.55542 0.0380249)"/>
</clipPath>
</defs>
</svg>
