<svg width="15" height="15" viewBox="0 0 15 15" fill="currentColor" xmlns="http://www.w3.org/2000/svg">
<g clip-path="url(#clip0_1459_3616)">
<path fill-rule="evenodd" clip-rule="evenodd" d="M7.23582 0.807068C7.23582 0.392854 6.90003 0.0570679 6.48582 0.0570679C6.07161 0.0570679 5.73582 0.392854 5.73582 0.807068V1.97536C5.73582 2.38958 6.07161 2.72536 6.48582 2.72536C6.90003 2.72536 7.23582 2.38958 7.23582 1.97536V0.807068ZM9.87144 3.6447C7.69314 3.51337 5.45137 3.51337 3.27306 3.6447C2.54942 3.68832 1.94743 4.25716 1.91138 5.00558C1.88049 5.64686 1.88251 6.30992 1.88452 6.97263C1.88502 7.13658 1.88552 7.30052 1.88552 7.4641C1.88552 7.74236 1.89739 8.01655 1.91678 8.28574C2.03965 9.99214 3.48002 11.3283 5.15278 11.4508C5.61535 11.4847 6.08952 11.5079 6.57225 11.5079C7.05499 11.5079 7.52915 11.4847 7.99172 11.4508C9.14848 11.3661 10.1941 10.701 10.7697 9.73444C10.9536 9.72969 11.1396 9.72158 11.3248 9.71144C12.6703 9.6378 14.0451 8.58267 14.0451 7.0431C14.0451 5.50216 12.6685 4.4512 11.3252 4.37675C11.2313 4.37154 11.1376 4.36683 11.0446 4.36276C10.8059 3.95099 10.3672 3.67458 9.87144 3.6447ZM11.2428 8.21369L11.2327 8.21424C11.2491 7.96804 11.259 7.71776 11.259 7.4641C11.259 7.30063 11.2595 7.1368 11.26 6.97296V6.97289V6.97283V6.97276V6.97269V6.97263V6.97252C11.2611 6.60567 11.2622 6.2387 11.2577 5.87539C12.0007 5.92397 12.5451 6.49035 12.5451 7.0431C12.5451 7.60107 11.9918 8.17268 11.2428 8.21369ZM14.3306 13.2688C14.3306 13.683 13.9949 14.0188 13.5806 14.0188H1.53027C1.11606 14.0188 0.780273 13.683 0.780273 13.2688C0.780273 12.8546 1.11606 12.5188 1.53027 12.5188H13.5806C13.9949 12.5188 14.3306 12.8546 14.3306 13.2688ZM3.45091 0.0570679C3.86512 0.0570679 4.20091 0.392854 4.20091 0.807068V1.97536C4.20091 2.38958 3.86512 2.72536 3.45091 2.72536C3.0367 2.72536 2.70091 2.38958 2.70091 1.97536V0.807068C2.70091 0.392854 3.0367 0.0570679 3.45091 0.0570679ZM10.2707 0.807068C10.2707 0.392854 9.93495 0.0570679 9.52073 0.0570679C9.10652 0.0570679 8.77073 0.392854 8.77073 0.807068V1.97536C8.77073 2.38958 9.10652 2.72536 9.52073 2.72536C9.93495 2.72536 10.2707 2.38958 10.2707 1.97536V0.807068Z" fill="white"/>
</g>
<defs>
<clipPath id="clip0_1459_3616">
<rect width="14" height="14" fill="white" transform="translate(0.55542 0.0380249)"/>
</clipPath>
</defs>
</svg>
