<svg width="15" height="15" viewBox="0 0 15 15" fill="currentColor" xmlns="http://www.w3.org/2000/svg">
<g clip-path="url(#clip0_1459_3618)">
<path fill-rule="evenodd" clip-rule="evenodd" d="M4.43771 0.393523C6.08181 9.20594e-05 7.64614 9.18508e-05 9.29025 0.393523C10.1134 0.590508 11.0827 1.25947 11.0827 2.34115C11.0827 2.95432 10.7241 3.39404 10.2849 3.66729C10.1066 3.77818 9.98358 3.96779 9.98963 4.17765C9.99281 4.28827 9.99456 4.3997 9.99456 4.51186L9.99426 4.59268C9.99218 4.87519 9.74623 5.08978 9.46451 5.0686C8.63635 5.00635 7.76086 4.95574 6.86398 4.95574C5.96703 4.95574 5.09147 5.00636 4.26326 5.06861C3.98154 5.0898 3.73559 4.87521 3.73351 4.5927L3.73321 4.51186C3.73321 4.39967 3.73496 4.28821 3.73815 4.17755C3.74419 3.96771 3.62118 3.7781 3.44293 3.6672C3.00374 3.39395 2.64523 2.95425 2.64523 2.34115C2.64523 1.25947 3.61453 0.590509 4.43771 0.393523ZM3.44514 6.38815C4.53643 6.29753 5.68501 6.20574 6.864 6.20574C8.043 6.20574 9.19158 6.29753 10.2829 6.38815C11.2505 6.4685 12.0872 7.08959 12.4543 7.96099H13.6843C14.0294 7.96099 14.3093 8.24082 14.3093 8.58599C14.3093 8.93117 14.0294 9.21099 13.6843 9.21099H12.7307C12.7644 9.43797 12.7868 9.6649 12.7963 9.89369C12.8044 10.0912 12.6847 10.275 12.492 10.3191C12.3991 10.3403 12.3039 10.3543 12.2071 10.3605L11.8396 10.3844C10.1333 10.4951 8.38911 10.6082 6.60565 10.6082C4.82219 10.6082 3.07804 10.4951 1.37167 10.3844L1.36386 10.3839C1.11523 10.368 0.921928 10.169 0.93123 9.92002C0.942824 9.60973 0.977793 9.30167 1.03278 8.99366C1.0551 8.86864 1.07902 8.73462 1.10255 8.57436C1.27614 7.39157 2.26294 6.48631 3.44514 6.38815ZM1.71767 11.6593C1.39968 11.6389 1.14271 11.9204 1.26376 12.2152C1.62653 13.0986 2.46423 13.745 3.44514 13.8264C4.53643 13.917 5.68501 14.0088 6.864 14.0088C8.043 14.0088 9.19158 13.917 10.2829 13.8264C11.2747 13.7441 12.0727 13.1078 12.4442 12.2389C12.5794 11.9228 12.2809 11.6091 11.9378 11.6306L11.9117 11.6323C10.2138 11.7425 8.43286 11.8582 6.60565 11.8582C4.97409 11.8582 3.34531 11.7636 1.71767 11.6593Z" fill="white"/>
</g>
<defs>
<clipPath id="clip0_1459_3618">
<rect width="14" height="14" fill="white" transform="translate(0.55542 0.0380249)"/>
</clipPath>
</defs>
</svg>
