<svg width="15" height="15" viewBox="0 0 15 15" fill="currentColor" xmlns="http://www.w3.org/2000/svg">
<g clip-path="url(#clip0_1459_3727)">
<path fill-rule="evenodd" clip-rule="evenodd" d="M10.3159 1.62893C10.4164 1.01798 10.3434 0.336898 9.69491 0.120606C8.82343 -0.170063 8.04781 1.07019 7.47947 2.38995C7.42124 2.52516 7.49523 2.67953 7.63363 2.72973C8.67303 3.10675 9.53587 3.78495 10.1545 4.40356C10.7844 5.03348 11.4761 5.91661 11.8487 6.98154C11.8976 7.12154 12.0529 7.19728 12.1893 7.13905C13.5169 6.57232 14.7992 5.8029 14.5098 4.93529C14.2935 4.2868 13.6124 4.21376 13.0015 4.31431C12.9048 4.33022 12.7411 4.03879 12.8075 3.96675C13.4448 3.27603 13.9384 2.30045 13.1341 1.49622C12.3299 0.691976 11.3542 1.18562 10.6634 1.82289C10.5914 1.88934 10.3 1.72564 10.3159 1.62893ZM0.60477 12.7824C0.40676 10.917 0.779923 7.53475 3.41744 4.89723C5.64739 2.66728 7.9327 3.94958 9.27056 5.28744C10.6084 6.62529 11.8907 8.9106 9.66077 11.1406C7.02325 13.7781 3.64098 14.1512 1.77564 13.9532C1.14965 13.8868 0.671221 13.4084 0.60477 12.7824ZM4.39888 5.61812C4.64296 5.37404 5.03868 5.37404 5.28276 5.61812L6.40408 6.73944C6.64816 6.98352 6.64816 7.37925 6.40408 7.62332C6.16 7.8674 5.76428 7.8674 5.5202 7.62332L4.39888 6.502C4.1548 6.25793 4.1548 5.8622 4.39888 5.61812ZM5.34343 9.92134C5.09935 9.67727 4.70363 9.67727 4.45955 9.92134C4.21547 10.1654 4.21547 10.5612 4.45955 10.8052L5.47792 11.8236C5.722 12.0677 6.11772 12.0677 6.3618 11.8236C6.60588 11.5795 6.60588 11.1838 6.3618 10.9397L5.34343 9.92134Z" fill="white"/>
</g>
<defs>
<clipPath id="clip0_1459_3727">
<rect width="14" height="14" fill="white" transform="translate(0.55542 0.0380859)"/>
</clipPath>
</defs>
</svg>
