<svg width="15" height="15" viewBox="0 0 15 15" fill="none" xmlns="http://www.w3.org/2000/svg">
<g clip-path="url(#clip0_1459_3614)">
<path fill-rule="evenodd" clip-rule="evenodd" d="M6.99934 1.09388C7.16815 0.71563 6.99837 0.272144 6.62012 0.103327C6.24187 -0.0654892 5.79839 0.104291 5.62957 0.482542L5.2919 1.23912C4.38045 1.33893 3.67126 2.11133 3.67126 3.04935C3.67126 4.05513 4.48661 4.87047 5.4924 4.87047C6.49818 4.87047 7.31353 4.05513 7.31353 3.04935C7.31353 2.51895 7.08679 2.04151 6.72495 1.70868L6.99934 1.09388ZM7.56874 5.74921H7.54223H7.54222C6.76041 5.7492 4.66909 5.74917 3.10057 6.08036C2.26593 6.25659 1.72349 6.93381 1.51051 7.65512L1.50854 7.66178C1.40479 8.01314 1.33846 8.23779 1.30676 8.5526C1.30302 8.58982 1.29975 8.62831 1.29691 8.66854C1.29168 8.74252 1.33793 8.81122 1.41046 8.82675C3.46266 9.266 6.41303 9.26861 7.5556 9.26861C8.69817 9.26861 11.6485 9.266 13.7007 8.82675C13.7731 8.81126 13.8193 8.74267 13.8141 8.66883C13.8112 8.6285 13.8079 8.5899 13.8042 8.5526C13.7725 8.23779 13.7062 8.01314 13.6024 7.66179L13.6004 7.65512C13.3875 6.93381 12.845 6.25659 12.0104 6.08036C10.4419 5.74917 8.35056 5.7492 7.56875 5.74921H7.56874ZM1.28082 10.6876C1.27593 10.3716 1.56736 10.1344 1.87954 10.1842C3.97714 10.5186 6.5318 10.5186 7.53733 10.5186H7.53734H7.5556H7.57385H7.57386C8.57936 10.5186 11.1339 10.5186 13.2314 10.1842C13.5436 10.1345 13.835 10.3716 13.8301 10.6877C13.8267 10.9104 13.8194 11.0832 13.8042 11.2346C13.7725 11.5494 13.7062 11.7741 13.6024 12.1254L13.6004 12.1321C13.3875 12.8534 12.845 13.5306 12.0104 13.7069C10.4419 14.038 8.35054 14.038 7.56874 14.038H7.54223C6.76043 14.038 4.66909 14.038 3.10057 13.7069C2.26593 13.5306 1.72349 12.8534 1.51051 12.1321L1.50854 12.1254C1.40479 11.7741 1.33846 11.5494 1.30676 11.2346C1.29152 11.0832 1.28427 10.9104 1.28082 10.6876Z" fill="white"/>
</g>
<defs>
<clipPath id="clip0_1459_3614">
<rect width="14" height="14" fill="white" transform="translate(0.55542 0.0380249)"/>
</clipPath>
</defs>
</svg>
