<svg width="15" height="15" viewBox="0 0 15 15" fill="none" xmlns="http://www.w3.org/2000/svg">
<g clip-path="url(#clip0_1459_3729)">
<path fill-rule="evenodd" clip-rule="evenodd" d="M5.55837 3.78809C4.43911 3.78809 3.78525 4.43435 3.3735 5.12894C3.16943 5.47319 3.02002 5.83607 2.89889 6.14552L2.84258 6.29015C2.74519 6.54101 2.67172 6.73027 2.59795 6.85322C2.48931 7.03429 2.35922 7.1242 2.19071 7.15705C2.00686 7.19288 1.75131 7.1655 1.39354 7.04624C1.32008 7.02175 1.23943 7.03269 1.17514 7.07585C1.11085 7.11901 1.07019 7.18952 1.06504 7.26678C0.931111 9.27539 2.21463 10.5643 3.73062 10.8675C5.11105 11.1436 6.68422 10.604 7.55544 9.09078C8.42666 10.604 9.99983 11.1436 11.3802 10.8675C12.8962 10.5643 14.1798 9.27539 14.0458 7.26678C14.0407 7.18952 14 7.11901 13.9357 7.07585C13.8714 7.03269 13.7908 7.02175 13.7173 7.04624C13.3596 7.1655 13.104 7.19288 12.9202 7.15705C12.7516 7.1242 12.6216 7.03429 12.5129 6.85322C12.4392 6.73027 12.3657 6.54102 12.2683 6.29016V6.29014L12.212 6.14552C12.0909 5.83607 11.9414 5.47319 11.7374 5.12894C11.3256 4.43435 10.6718 3.78809 9.55252 3.78809C8.73365 3.78809 8.20101 4.09049 7.85827 4.46645C7.73133 4.6057 7.63269 4.75272 7.55544 4.89269C7.4782 4.75272 7.37956 4.60568 7.25261 4.46643C6.90987 4.09047 6.37724 3.78809 5.55837 3.78809Z" fill="white"/>
</g>
<defs>
<clipPath id="clip0_1459_3729">
<rect width="14" height="14" fill="white" transform="translate(0.55542 0.0380859)"/>
</clipPath>
</defs>
</svg>
