<svg width="15" height="15" viewBox="0 0 15 15" fill="none" xmlns="http://www.w3.org/2000/svg">
<g clip-path="url(#clip0_1459_3620)">
<path fill-rule="evenodd" clip-rule="evenodd" d="M9.88114 2.67598C9.88114 3.96049 8.83983 5.0018 7.55531 5.0018C6.2708 5.0018 5.22949 3.96049 5.22949 2.67598C5.22949 1.39146 6.2708 0.350159 7.55531 0.350159C8.83983 0.350159 9.88114 1.39146 9.88114 2.67598ZM8.4319 6.74067C8.31993 6.82658 8.3069 6.98899 8.39984 7.09519L11.3347 10.4487L11.4753 10.5894C11.5824 10.6965 11.7598 10.6845 11.8474 10.561C12.8689 9.11983 13.3076 7.51219 12.1486 6.41155C10.9758 5.29839 9.55349 5.88002 8.4319 6.74067ZM6.67899 6.74029C6.79097 6.82621 6.80401 6.98862 6.71106 7.09483L3.77584 10.4487L3.63568 10.5889C3.52858 10.696 3.35123 10.6841 3.26365 10.5605C2.2424 9.11948 1.80384 7.51207 2.96273 6.41155C4.13542 5.29855 5.55747 5.87986 6.67899 6.74029ZM4.4316 11.9115C4.33308 11.8159 4.33388 11.6585 4.43096 11.5614L4.67442 11.3179C4.68422 11.3081 4.69368 11.298 4.7028 11.2876L7.36716 8.24319C7.46676 8.12937 7.64382 8.12937 7.74342 8.24319L10.4078 11.2876C10.4169 11.298 10.4264 11.3081 10.4362 11.3179L10.68 11.5618C10.7771 11.6589 10.7779 11.8163 10.6793 11.9119C9.63478 12.9255 8.42973 13.6861 7.59586 13.8412C7.56905 13.8462 7.54232 13.8462 7.51551 13.8412C6.68153 13.6861 5.47628 12.9253 4.4316 11.9115Z" fill="white"/>
</g>
<defs>
<clipPath id="clip0_1459_3620">
<rect width="14" height="14" fill="white" transform="translate(0.55542 0.0380249)"/>
</clipPath>
</defs>
</svg>
