<svg width="15" height="15" viewBox="0 0 15 15" fill="none" xmlns="http://www.w3.org/2000/svg">
<g clip-path="url(#clip0_1459_3622)">
<path fill-rule="evenodd" clip-rule="evenodd" d="M4.8123 1.19212C4.90029 1.03274 5.06796 0.933777 5.25002 0.933777H9.86081C10.0429 0.933777 10.2106 1.03274 10.2985 1.19212L11.3137 3.03111L11.657 3.06069L11.7232 3.06641C12.9091 3.16883 13.8846 4.0804 14.0587 5.26079C14.1861 6.12421 14.3054 7.04107 14.3054 7.98518C14.3054 8.92929 14.1861 9.84617 14.0587 10.7096C13.8846 11.89 12.9091 12.8015 11.7232 12.9039C10.3544 13.0222 8.95897 13.1424 7.55542 13.1424C6.15187 13.1424 4.75644 13.0222 3.38759 12.9039C2.20173 12.8015 1.22625 11.89 1.05209 10.7096C0.924692 9.84617 0.80542 8.92929 0.80542 7.98518C0.80542 7.04107 0.924692 6.12421 1.05209 5.26079C1.22625 4.08039 2.20173 3.16882 3.38759 3.06641L3.46702 3.05955L3.79707 3.03111L4.8123 1.19212ZM10.1684 7.69025C10.1684 9.13336 8.99854 10.3032 7.55543 10.3032C6.11232 10.3032 4.94244 9.13336 4.94244 7.69025C4.94244 6.24714 6.11232 5.07727 7.55543 5.07727C8.99854 5.07727 10.1684 6.24714 10.1684 7.69025Z" fill="white"/>
</g>
<defs>
<clipPath id="clip0_1459_3622">
<rect width="14" height="14" fill="white" transform="translate(0.55542 0.0380249)"/>
</clipPath>
</defs>
</svg>
