<svg width="15" height="15" viewBox="0 0 15 15" fill="currentColor" xmlns="http://www.w3.org/2000/svg">
<g clip-path="url(#clip0_1459_3731)">
<path fill-rule="evenodd" clip-rule="evenodd" d="M4.37975 0.621311C5.39244 0.508432 6.45921 0.408203 7.5556 0.408203C8.65199 0.408203 9.71876 0.508432 10.7314 0.621311C12.4341 0.811103 13.8013 2.17654 13.9839 3.88342C14.0918 4.89117 14.1856 5.9502 14.1856 7.03827C14.1856 8.12633 14.0918 9.18537 13.9839 10.1931C13.8013 11.9 12.4341 13.2654 10.7314 13.4552C9.71876 13.5681 8.65199 13.6683 7.5556 13.6683C6.45921 13.6683 5.39244 13.5681 4.37975 13.4552C2.67704 13.2654 1.30985 11.9 1.12724 10.1931C1.01942 9.18537 0.925537 8.12633 0.925537 7.03827C0.925537 5.9502 1.01942 4.89117 1.12724 3.88342C1.30985 2.17654 2.67703 0.811103 4.37975 0.621311ZM11.103 4.29011C11.103 5.08893 10.4554 5.7365 9.65659 5.7365C8.85777 5.7365 8.21021 5.08893 8.21021 4.29011C8.21021 3.49129 8.85777 2.84372 9.65659 2.84372C10.4554 2.84372 11.103 3.49129 11.103 4.29011ZM4.90754 12.0013C3.7484 11.8546 2.81566 10.7953 2.69158 9.47835C2.62936 8.81787 2.57371 8.14543 2.54442 7.46306C2.53381 7.21588 2.70972 6.99864 2.95593 6.97439C3.14368 6.95591 3.33216 6.94692 3.52082 6.9475C4.92514 6.91143 6.29506 7.44316 7.38615 8.44779C8.26951 9.26116 8.92358 10.3417 9.27817 11.5556C9.36136 11.8404 9.15694 12.1216 8.86123 12.146C8.42999 12.1815 7.99396 12.2039 7.55381 12.2039C6.65252 12.2039 5.76852 12.1103 4.90754 12.0013ZM10.6444 11.8976C10.5082 11.9445 10.3705 11.8488 10.3433 11.7074C10.2034 10.9821 9.9132 10.0858 9.38613 9.30298C9.28719 9.15603 9.35376 8.94992 9.52666 8.91132C9.9337 8.82045 10.3487 8.77484 10.7656 8.77587C11.2712 8.77554 11.7743 8.84456 12.264 8.98089C12.3769 9.01229 12.4489 9.12101 12.4383 9.23764C12.431 9.31807 12.4235 9.39832 12.416 9.4784C12.3082 10.6221 11.5906 11.5715 10.6444 11.8976Z" fill="white"/>
</g>
<defs>
<clipPath id="clip0_1459_3731">
<rect width="14" height="14" fill="white" transform="translate(0.55542 0.0380859)"/>
</clipPath>
</defs>
</svg>
