<svg width="15" height="15" viewBox="0 0 15 15" fill="none" xmlns="http://www.w3.org/2000/svg">
<g clip-path="url(#clip0_1459_3661)">
<path fill-rule="evenodd" clip-rule="evenodd" d="M6.20081 0.288025C5.22132 0.288025 4.26199 0.322626 3.33017 0.388952C2.09413 0.476934 1.09361 1.40974 1.03396 2.60881C0.962924 4.03672 0.925537 5.51857 0.925537 7.03802C0.925537 8.55748 0.962924 10.0393 1.03396 11.4672C1.09361 12.6663 2.09413 13.5991 3.33017 13.6871C4.26199 13.7534 5.22132 13.788 6.20081 13.788C7.18029 13.788 8.13963 13.7534 9.07144 13.6871C10.3075 13.5991 11.308 12.6663 11.3676 11.4672C11.3726 11.3676 11.287 11.2878 11.1872 11.288C10.9323 11.2883 10.6758 11.2329 10.4365 11.1196C9.8252 10.8302 9.4354 10.2143 9.4354 9.53796C9.4354 9.33088 9.26754 9.16302 9.06047 9.16302H5.94897C4.77537 9.16302 3.82397 8.21163 3.82397 7.03801C3.82397 5.86442 4.77537 4.91302 5.94897 4.91302H9.06049C9.26755 4.91302 9.43541 4.74516 9.43541 4.53811C9.43541 3.86171 9.8252 3.24587 10.4365 2.95643C10.6758 2.84312 10.9323 2.78778 11.1872 2.78808C11.287 2.78821 11.3726 2.70845 11.3676 2.60881C11.308 1.40974 10.3075 0.476934 9.07144 0.388952C8.13963 0.322626 7.18029 0.288025 6.20081 0.288025ZM10.9713 9.98987C10.7967 9.90717 10.6853 9.73122 10.6853 9.53796V8.03802H5.94887C5.39659 8.03802 4.94887 7.5903 4.94887 7.03802C4.94887 6.48573 5.39659 6.03802 5.94887 6.03802H10.6853V4.53811C10.6853 4.34484 10.7967 4.1689 10.9713 4.08619C11.146 4.00349 11.3527 4.02886 11.5022 4.15133C12.6239 5.07041 13.1961 5.64218 14.0734 6.72291C14.2225 6.90654 14.2225 7.16952 14.0734 7.35315C13.1961 8.43389 12.6239 9.00564 11.5022 9.92472C11.3527 10.0472 11.146 10.0725 10.9713 9.98987Z" fill="white"/>
</g>
<defs>
<clipPath id="clip0_1459_3661">
<rect width="14" height="14" fill="white" transform="translate(0.55542 0.0380249)"/>
</clipPath>
</defs>
</svg>
