<svg width="15" height="15" viewBox="0 0 15 15" fill="currentColor" xmlns="http://www.w3.org/2000/svg">
<g clip-path="url(#clip0_1459_3743)">
<path fill-rule="evenodd" clip-rule="evenodd" d="M13.9012 0.78042C13.1237 0.694938 12.3393 0.694938 11.5617 0.78042C11.4089 0.797225 11.2723 0.88343 11.1913 1.01416L9.88857 3.11769C9.78691 3.28184 9.54546 3.27369 9.4551 3.10306L8.84144 1.94428C8.71447 1.70452 8.41946 1.60977 8.17662 1.73075C5.92619 2.85189 3.99501 4.2877 3.05304 5.92735C2.57535 6.75884 2.34356 7.65883 2.47627 8.59393C2.51363 8.85717 2.57923 9.11867 2.67342 9.37802C2.7246 9.51896 2.89217 9.57244 3.02022 9.4944C4.08569 8.84508 5.05828 8.13054 5.72131 7.48049C5.96778 7.23883 6.36349 7.24274 6.60515 7.48922C6.81015 7.69831 6.83843 8.0148 6.69182 8.25353C6.68286 8.26812 6.67179 8.28116 6.65951 8.29309C6.19004 8.74912 5.59247 9.2442 4.9133 9.73649C4.72581 9.87239 4.53415 10.0066 4.33972 10.1383C4.04548 10.3319 3.74144 10.5217 3.43188 10.7055C3.42863 10.7074 3.42781 10.7117 3.43013 10.7147C3.43243 10.7177 3.43165 10.722 3.42844 10.7239C2.64739 11.1998 1.85652 11.6156 1.13891 11.9184C0.757284 12.0794 0.578457 12.5193 0.739492 12.9009C0.900527 13.2826 1.34044 13.4614 1.72207 13.3004C2.57409 12.9408 3.49907 12.4475 4.39426 11.8908C4.47978 11.8376 4.58862 11.8408 4.67349 11.8951C6.51753 13.0737 9.021 12.5246 10.9585 10.8907C13.1943 9.00536 14.8334 5.60256 14.3435 1.22186C14.3175 0.989367 14.1337 0.805985 13.9012 0.78042Z" fill="white"/>
</g>
<defs>
<clipPath id="clip0_1459_3743">
<rect width="14" height="14" fill="white" transform="translate(0.55542 0.0380859)"/>
</clipPath>
</defs>
</svg>
