<svg width="15" height="15" viewBox="0 0 15 15" fill="none" xmlns="http://www.w3.org/2000/svg">
<g clip-path="url(#clip0_1459_3642)">
<path fill-rule="evenodd" clip-rule="evenodd" d="M0.830986 4.21941C0.862277 3.70267 0.892965 3.19586 0.920737 2.70528C0.989045 1.49865 1.8473 0.284459 3.1884 0.0995569C3.38988 0.0717792 3.60158 0.0536499 3.821 0.0536499C4.04042 0.0536499 4.25212 0.0717792 4.4536 0.099556C5.7947 0.284458 6.65296 1.49865 6.72126 2.70528L6.73767 2.99148C7.00097 2.95018 7.26832 2.92873 7.53975 2.92873C7.82186 2.92873 8.09956 2.95191 8.37287 2.99645L8.38956 2.70537C8.45787 1.49874 9.31613 0.284556 10.6572 0.0996532C10.8587 0.0718765 11.0704 0.0537462 11.2898 0.0537462C11.5092 0.0537462 11.7209 0.0718756 11.9224 0.0996532C13.2635 0.284555 14.1218 1.49874 14.1901 2.70537C14.2178 3.19586 14.2485 3.70258 14.2798 4.21923C14.4073 6.32528 14.5449 8.59671 14.5357 10.6074C14.5384 10.662 14.5398 10.717 14.5398 10.7724C14.5398 12.5673 13.0847 14.0224 11.2898 14.0224C9.49487 14.0224 8.0398 12.5673 8.0398 10.7724C8.0398 10.7166 8.0412 10.6613 8.04397 10.6062C8.03899 9.51392 8.07731 8.34478 8.1338 7.16702C8.14954 6.83863 8.47431 6.62145 8.75558 6.79165C8.88566 6.87036 9.01897 6.96245 9.15578 7.06896C9.42815 7.281 9.82084 7.2321 10.0329 6.95973C10.2449 6.68738 10.196 6.29467 9.92366 6.08263C9.17266 5.49795 8.37859 5.16303 7.5398 5.16302C6.70099 5.16301 5.90688 5.49793 5.15585 6.08263C4.88348 6.29467 4.83458 6.68738 5.04663 6.95973C5.25867 7.2321 5.65137 7.281 5.92374 7.06896C6.07312 6.95266 6.21833 6.85355 6.35972 6.77028C6.6405 6.60492 6.96045 6.82237 6.97612 7.14785C7.0331 8.33206 7.07186 9.50788 7.06686 10.606C7.06964 10.6611 7.07104 10.7166 7.07104 10.7724C7.07104 12.5673 5.61597 14.0224 3.82104 14.0224C2.02612 14.0224 0.571045 12.5673 0.571045 10.7724C0.571045 10.7171 0.572424 10.6622 0.575148 10.6076C0.565908 8.597 0.703446 6.32565 0.830986 4.21941ZM3.82104 9.0224C2.85455 9.0224 2.07104 9.8059 2.07104 10.7724C2.07104 11.7389 2.85455 12.5224 3.82104 12.5224C4.78754 12.5224 5.57104 11.7389 5.57104 10.7724C5.57104 9.8059 4.78754 9.0224 3.82104 9.0224ZM11.2898 9.0224C12.2563 9.0224 13.0398 9.8059 13.0398 10.7724C13.0398 11.7389 12.2563 12.5224 11.2898 12.5224C10.3233 12.5224 9.5398 11.7389 9.5398 10.7724C9.5398 9.8059 10.3233 9.0224 11.2898 9.0224Z" fill="white"/>
</g>
<defs>
<clipPath id="clip0_1459_3642">
<rect width="14" height="14" fill="white" transform="translate(0.55542 0.0380249)"/>
</clipPath>
</defs>
</svg>
