<svg width="15" height="15" viewBox="0 0 15 15" fill="currentColor" xmlns="http://www.w3.org/2000/svg">
<g clip-path="url(#clip0_1459_3751)">
<path fill-rule="evenodd" clip-rule="evenodd" d="M3.76025 4.22559C3.76025 2.63777 5.04744 1.35059 6.63525 1.35059C8.22307 1.35059 9.51025 2.63777 9.51025 4.22559C9.51025 4.45145 9.48433 4.67046 9.43556 4.88011C9.35736 5.21632 9.5665 5.55226 9.90271 5.63046C10.2389 5.70867 10.5748 5.49952 10.653 5.16332C10.7233 4.86147 10.7602 4.54745 10.7602 4.22559C10.7602 1.94742 8.91343 0.100586 6.63525 0.100586C4.35708 0.100586 2.51025 1.94742 2.51025 4.22559C2.51025 4.54745 2.54724 4.86147 2.61745 5.16332C2.69566 5.49952 3.0316 5.70867 3.3678 5.63047C3.704 5.55226 3.91315 5.21632 3.83495 4.88011C3.78618 4.67046 3.76025 4.45145 3.76025 4.22559ZM7.91577 4.22564V7.47559C11.5279 7.2215 12.6006 9.29274 12.6006 11.0422C12.6006 11.6818 12.3781 12.557 12.0167 13.2554C11.7609 13.7498 11.2116 13.9756 10.6549 13.9756H7.32352C6.48656 13.9756 5.67068 13.7131 4.99078 13.225L4.3173 12.7415C3.04755 11.8299 3.26732 9.87943 4.70809 9.27328L5.41566 8.97559V4.22564C5.41566 3.53526 5.97533 2.97559 6.66572 2.97559C7.3561 2.97559 7.91577 3.53526 7.91577 4.22564Z" fill="white"/>
</g>
<defs>
<clipPath id="clip0_1459_3751">
<rect width="14" height="14" fill="white" transform="translate(0.55542 0.0380859)"/>
</clipPath>
</defs>
</svg>
