<svg width="15" height="15" viewBox="0 0 15 15" fill="currentColor" xmlns="http://www.w3.org/2000/svg">
<g clip-path="url(#clip0_1459_3753)">
<path fill-rule="evenodd" clip-rule="evenodd" d="M2.12999 7.2786L2.09138 6.84802C1.88065 4.29842 3.8671 1.61499 7.55519 1.61499C11.2433 1.61499 13.2299 4.29846 13.0192 6.84802L12.9809 7.27538C12.6635 7.09266 12.3021 6.97454 11.9132 6.94052C10.4851 6.81557 9.22606 7.87202 9.10111 9.30018L8.94024 11.1389C8.8153 12.5671 9.87175 13.8261 11.2999 13.9511C12.728 14.076 13.9871 13.0196 14.112 11.5914L14.2729 9.75265C14.2788 9.6855 14.282 9.61873 14.2828 9.55243L14.5134 6.97945L14.5138 6.97465C14.8015 3.51621 12.0876 0.11499 7.55519 0.11499C3.02267 0.11499 0.309083 3.51625 0.596737 6.97465H0.596722L0.597152 6.97945L0.827988 9.55438L0.833689 9.55387C0.834456 9.61969 0.837714 9.68599 0.843546 9.75265L1.00442 11.5914C1.12936 13.0196 2.3884 14.076 3.81655 13.9511C5.2447 13.8261 6.30116 12.5671 6.17621 11.1389L6.01534 9.30018C5.89039 7.87202 4.63136 6.81557 3.20321 6.94052C2.81203 6.97474 2.44875 7.09404 2.12999 7.2786Z" fill="white"/>
</g>
<defs>
<clipPath id="clip0_1459_3753">
<rect width="14" height="14" fill="white" transform="translate(0.55542 0.0380859)"/>
</clipPath>
</defs>
</svg>
