<svg width="15" height="15" viewBox="0 0 15 15" fill="none" xmlns="http://www.w3.org/2000/svg">
<g clip-path="url(#clip0_1459_3626)">
<path fill-rule="evenodd" clip-rule="evenodd" d="M6.05884 2.06638C6.69285 2.03474 7.21567 2.02288 7.55546 2.02288C7.89401 2.02288 8.41426 2.03465 9.04517 2.06603V0.953064C9.04517 0.538851 9.38095 0.203064 9.79517 0.203064C10.2094 0.203064 10.5452 0.53885 10.5452 0.953064V2.16649C10.7808 2.18635 11.0224 2.20869 11.2676 2.23373C12.8171 2.392 14.0399 3.6119 14.1727 5.17493C14.2741 6.3676 14.3054 7.45317 14.3054 7.94913C14.3054 8.44503 14.2741 9.52938 14.1728 10.7211C14.0399 12.2841 12.8171 13.504 11.2676 13.6623C9.67782 13.8246 8.24248 13.873 7.55545 13.873C6.86843 13.873 5.43309 13.8246 3.84329 13.6623C2.29376 13.504 1.071 12.2841 0.938068 10.7211C0.836711 9.52939 0.80542 8.44504 0.80542 7.94913C0.80542 7.45315 0.836722 6.36758 0.938124 5.17492C1.07101 3.6119 2.29376 2.392 3.84328 2.23373C4.08611 2.20893 4.32533 2.18679 4.55884 2.16707V0.953064C4.55884 0.538851 4.89462 0.203064 5.30884 0.203064C5.72305 0.203064 6.05884 0.53885 6.05884 0.953064V2.06638ZM4.05542 5.62739C3.71024 5.62739 3.43042 5.90721 3.43042 6.25239C3.43042 6.59756 3.71024 6.87739 4.05542 6.87739H4.55542C4.9006 6.87739 5.18042 6.59756 5.18042 6.25239C5.18042 5.90721 4.9006 5.62739 4.55542 5.62739H4.05542ZM3.43042 9.25239C3.43042 8.90721 3.71024 8.62739 4.05542 8.62739H4.55542C4.9006 8.62739 5.18042 8.90721 5.18042 9.25239C5.18042 9.59756 4.9006 9.87739 4.55542 9.87739H4.05542C3.71024 9.87739 3.43042 9.59756 3.43042 9.25239ZM7.30542 5.62739C6.96024 5.62739 6.68042 5.90721 6.68042 6.25239C6.68042 6.59756 6.96024 6.87739 7.30542 6.87739H7.80542C8.1506 6.87739 8.43042 6.59756 8.43042 6.25239C8.43042 5.90721 8.1506 5.62739 7.80542 5.62739H7.30542ZM9.93042 6.25239C9.93042 5.90721 10.2102 5.62739 10.5554 5.62739H11.0554C11.4006 5.62739 11.6804 5.90721 11.6804 6.25239C11.6804 6.59756 11.4006 6.87739 11.0554 6.87739H10.5554C10.2102 6.87739 9.93042 6.59756 9.93042 6.25239ZM7.30542 8.62739C6.96024 8.62739 6.68042 8.90721 6.68042 9.25239C6.68042 9.59756 6.96024 9.87739 7.30542 9.87739H7.80542C8.1506 9.87739 8.43042 9.59756 8.43042 9.25239C8.43042 8.90721 8.1506 8.62739 7.80542 8.62739H7.30542Z" fill="white"/>
</g>
<defs>
<clipPath id="clip0_1459_3626">
<rect width="14" height="14" fill="white" transform="translate(0.55542 0.0380249)"/>
</clipPath>
</defs>
</svg>
