<svg width="15" height="15" viewBox="0 0 15 15" fill="currentColor" xmlns="http://www.w3.org/2000/svg">
<g clip-path="url(#clip0_1459_3651)">
<path fill-rule="evenodd" clip-rule="evenodd" d="M9.71573 0.351987C7.13927 0.157329 4.74053 0.157329 2.16407 0.351987C1.4362 0.406979 0.857954 0.984755 0.802731 1.71279C0.6084 4.27476 0.6084 6.6742 0.802731 9.23617C0.857949 9.96414 1.43603 10.5419 2.16396 10.5969C2.4395 10.6178 2.66993 10.3926 2.6614 10.1164C2.6063 8.33149 2.64825 6.5779 2.78727 4.74519C2.88923 3.40101 3.95727 2.33401 5.30085 2.2325C7.14599 2.09309 8.90439 2.05115 10.6973 2.10668C10.9158 2.11344 11.0936 1.93071 11.077 1.7127C11.0218 0.984614 10.4436 0.406975 9.71573 0.351987ZM5.39502 3.47895C7.97149 3.28429 10.3702 3.28429 12.9467 3.47895C13.6745 3.53394 14.2528 4.11171 14.308 4.83974C14.5023 7.40172 14.5023 9.80116 14.308 12.3631C14.2528 13.0911 13.6745 13.6689 12.9467 13.7239C10.3702 13.9186 7.97149 13.9186 5.39503 13.7239C4.66716 13.6689 4.08891 13.0911 4.03369 12.3631C3.83936 9.80116 3.83936 7.40172 4.03369 4.83974C4.08891 4.11171 4.66716 3.53394 5.39502 3.47895ZM7.06274 9.22651C6.71757 9.22651 6.43774 8.94668 6.43774 8.60151C6.43774 8.25633 6.71757 7.9765 7.06274 7.9765H8.54565V6.4931C8.54565 6.14792 8.82548 5.8681 9.17065 5.8681C9.51583 5.8681 9.79565 6.14792 9.79565 6.4931V7.9765H11.2791C11.6243 7.9765 11.9041 8.25633 11.9041 8.60151C11.9041 8.94668 11.6243 9.22651 11.2791 9.22651H9.79565V10.7095C9.79565 11.0546 9.51583 11.3345 9.17065 11.3345C8.82548 11.3345 8.54565 11.0546 8.54565 10.7095V9.22651H7.06274Z" fill="white"/>
</g>
<defs>
<clipPath id="clip0_1459_3651">
<rect width="14" height="14" fill="white" transform="translate(0.55542 0.0380249)"/>
</clipPath>
</defs>
</svg>
