<svg width="15" height="14" viewBox="0 0 15 14" fill="none" xmlns="http://www.w3.org/2000/svg">
<g clip-path="url(#clip0_1459_3521)">
<path fill-rule="evenodd" clip-rule="evenodd" d="M3.21506 1.73252C3.24983 1.69775 3.29698 1.67822 3.34615 1.67822H6.8053V12.3381H4.67249C4.25827 12.3381 3.92249 12.6739 3.92249 13.0881C3.92249 13.5023 4.25827 13.8381 4.67249 13.8381H7.54526L7.5553 13.8382L7.56534 13.8381H10.4379C10.8521 13.8381 11.1879 13.5023 11.1879 13.0881C11.1879 12.6739 10.8521 12.3381 10.4379 12.3381H8.3053V1.67822H11.7646C11.8137 1.67822 11.8609 1.69775 11.8957 1.73252C11.9304 1.76729 11.95 1.81444 11.95 1.8636V3.26668C11.95 3.68089 12.2857 4.01668 12.7 4.01668C13.1142 4.01668 13.45 3.68089 13.45 3.26668V1.8636C13.45 1.41661 13.2724 0.98793 12.9563 0.67186C12.6403 0.35579 12.2116 0.178223 11.7646 0.178223H7.5553H3.34615C2.89916 0.178223 2.47047 0.355789 2.1544 0.67186C1.83833 0.987931 1.66077 1.41661 1.66077 1.8636V3.26668C1.66077 3.68089 1.99655 4.01668 2.41077 4.01668C2.82498 4.01668 3.16077 3.68089 3.16077 3.26668V1.8636C3.16077 1.81444 3.1803 1.76729 3.21506 1.73252Z" fill="white"/>
</g>
<defs>
<clipPath id="clip0_1459_3521">
<rect width="14" height="14" fill="white" transform="translate(0.55542 0.00830078)"/>
</clipPath>
</defs>
</svg>
