<svg width="15" height="14" viewBox="0 0 15 14" fill="none" xmlns="http://www.w3.org/2000/svg">
<g clip-path="url(#clip0_1459_3519)">
<path fill-rule="evenodd" clip-rule="evenodd" d="M7.94827 0.258301H7.16434C6.87085 0.258675 6.58365 0.347507 6.3414 0.513203C6.09946 0.67869 5.91295 0.913173 5.80613 1.18612L5.44762 2.09338L4.35312 2.72699L3.38895 2.57997C3.09836 2.53612 2.8013 2.58094 2.53659 2.70857C2.27199 2.83615 2.05181 3.04088 1.90516 3.29539L1.51446 3.97154C1.36742 4.22598 1.30056 4.51887 1.3226 4.81192C1.34463 5.10488 1.45466 5.3846 1.638 5.61415L2.24738 6.3777V7.6389L1.63783 8.40266C1.45449 8.63222 1.34463 8.91172 1.3226 9.20469C1.30056 9.49773 1.36743 9.79062 1.51446 10.0451L1.90553 10.7219C2.05218 10.9762 2.27209 11.1805 2.53659 11.308C2.8013 11.4357 3.09894 11.4804 3.38953 11.4365L4.35594 11.2896L5.44732 11.9196L5.80398 12.8295C5.91074 13.1029 6.0974 13.3377 6.33962 13.5034C6.58186 13.6691 6.86906 13.7579 7.16256 13.7583H7.94534C8.23883 13.7579 8.52539 13.6691 8.76764 13.5034C9.0097 13.3378 9.19652 13.1026 9.30331 12.8294L9.65993 11.9196L10.7513 11.2896L11.7183 11.4366C12.0089 11.4805 12.3059 11.4357 12.5706 11.308C12.8351 11.1805 13.0554 10.9756 13.2021 10.7212L13.5928 10.0451C13.7398 9.79062 13.8067 9.49773 13.7846 9.20469C13.7626 8.91187 13.6524 8.63194 13.4692 8.40245L12.8634 7.6393V6.3777L13.4728 5.61415C13.6562 5.38456 13.7662 5.10497 13.7882 4.81191C13.8102 4.51886 13.7434 4.22598 13.5963 3.97153L13.2054 3.2949C13.0587 3.04046 12.8388 2.83613 12.5742 2.70857C12.3095 2.58094 12.0119 2.53621 11.7213 2.58006L10.7549 2.72705L9.66516 2.09794L9.30661 1.18647C9.19982 0.913373 9.01326 0.678761 8.77121 0.513203C8.52897 0.347507 8.24176 0.258676 7.94827 0.258301ZM7.55542 9.88586C8.93002 9.88586 10.0795 8.92202 10.3649 7.6333H7.81443L6.011 9.43672C6.45722 9.7211 6.98708 9.88586 7.55542 9.88586ZM5.12709 8.55287L6.81161 6.86835L5.85444 4.68706C5.14099 5.21075 4.67786 6.05544 4.67786 7.0083C4.67786 7.57671 4.84266 8.10662 5.12709 8.55287ZM6.99896 4.1845L7.96381 6.3833H10.3649C10.0795 5.09458 8.93002 4.13074 7.55542 4.13074C7.36505 4.13074 7.179 4.14922 6.99896 4.1845Z" fill="white"/>
</g>
<defs>
<clipPath id="clip0_1459_3519">
<rect width="14" height="14" fill="white" transform="translate(0.55542 0.00830078)"/>
</clipPath>
</defs>
</svg>
