<svg width="15" height="15" viewBox="0 0 15 15" fill="none" xmlns="http://www.w3.org/2000/svg">
<g clip-path="url(#clip0_1459_3671)">
<path fill-rule="evenodd" clip-rule="evenodd" d="M6.85978 0.102831C7.23831 0.271032 7.40881 0.71424 7.24061 1.09276C7.09994 1.40933 6.96309 1.89985 6.85169 2.52351C8.87715 2.45516 10.903 2.21316 12.9089 1.81383C13.3152 1.73295 13.71 1.99672 13.7909 2.40296C13.8718 2.8092 13.608 3.20409 13.2018 3.28496C11.0412 3.71509 8.853 3.97037 6.66128 4.03C6.61 4.65699 6.58586 5.33059 6.59564 6.01943C7.32871 5.92676 8.04117 5.93604 8.66054 6.05055C8.95441 6.10488 9.24223 6.17455 9.52162 6.25858C9.5567 6.05616 9.56807 5.87355 9.5572 5.71408C9.52902 5.30082 9.84119 4.94297 10.2544 4.91479C10.6677 4.88661 11.0255 5.19878 11.0537 5.61203C11.0807 6.00782 11.033 6.42407 10.9308 6.84392C11.9032 7.37673 12.6698 8.11316 13.0756 8.98812C13.4291 9.75014 13.4971 10.6047 13.1759 11.4492C12.8599 12.2798 12.1955 13.0298 11.2137 13.6671C10.8663 13.8926 10.4019 13.7938 10.1763 13.4464C9.9508 13.0989 10.0496 12.6345 10.3971 12.4089C11.1966 11.89 11.6025 11.3666 11.7738 10.9159C11.9399 10.4792 11.9122 10.0447 11.7149 9.61924C11.4912 9.13707 11.0387 8.65746 10.3997 8.26836C10.0545 8.97046 9.5915 9.67604 9.05514 10.3263C8.66311 10.8016 8.21882 11.2625 7.73785 11.6764C7.97455 12.1113 8.24413 12.4623 8.54332 12.7187C8.85781 12.9883 8.89424 13.4618 8.62467 13.7763C8.3551 14.0908 7.88163 14.1272 7.56713 13.8576C7.15231 13.5021 6.80594 13.0603 6.51694 12.5649C5.85559 12.9608 5.15658 13.2422 4.45025 13.3455C3.86467 13.4312 3.15457 13.3906 2.53536 13.1272C1.89198 12.8536 1.30185 12.3098 1.17536 11.4225C0.868299 9.26863 2.17811 7.7656 3.73226 6.92226C4.16331 6.68834 4.6267 6.4961 5.10221 6.34642C5.08012 5.55183 5.10083 4.77009 5.15588 4.03996C3.92375 4.02252 2.69226 3.94176 1.46568 3.79401C1.05444 3.74447 0.761218 3.37094 0.810755 2.9597C0.860293 2.54846 1.23383 2.25524 1.64507 2.30479C2.86744 2.45202 4.09645 2.52984 5.3275 2.54189C5.45734 1.72258 5.63959 1.00183 5.86985 0.483658C6.03805 0.105133 6.48126 -0.0653691 6.85978 0.102831ZM5.20148 7.89811C4.9417 7.99588 4.68841 8.11001 4.44768 8.24064C3.20635 8.91425 2.47473 9.90878 2.66034 11.2108C2.69511 11.4546 2.83511 11.6247 3.12245 11.7469C3.43396 11.8794 3.85516 11.9166 4.23316 11.8613C4.76226 11.7839 5.32895 11.5458 5.89164 11.1881C5.854 11.0812 5.81808 10.9733 5.7838 10.8648C5.49244 9.94188 5.30616 8.92377 5.20148 7.89811ZM7.14586 10.1871C7.4067 9.93492 7.65904 9.66154 7.89798 9.37185C8.35137 8.82218 8.73529 8.23841 9.02005 7.67391C8.81813 7.61595 8.60721 7.56611 8.38785 7.52556C7.89661 7.43475 7.29772 7.43317 6.67235 7.52262C6.75652 8.46138 6.91052 9.3738 7.14586 10.1871Z" fill="white"/>
</g>
<defs>
<clipPath id="clip0_1459_3671">
<rect width="14" height="14" fill="white" transform="translate(0.55542 0.0380249)"/>
</clipPath>
</defs>
</svg>
