<svg width="15" height="15" viewBox="0 0 15 15" fill="currentColor" xmlns="http://www.w3.org/2000/svg">
<g clip-path="url(#clip0_1459_3653)">
<path fill-rule="evenodd" clip-rule="evenodd" d="M6.0494 0.655879C4.59387 0.589638 3.70775 0.607347 2.53532 0.68989C1.80458 0.741336 1.23558 1.315 1.15404 2.02475C0.813888 4.9853 0.698922 7.97324 1.05644 10.9672C1.20608 12.2203 2.22865 13.107 3.41414 13.2361C6.21352 13.5409 8.97259 13.533 11.7699 13.2284C12.9604 13.0988 13.9151 12.1579 14.0573 10.9672C14.2784 9.11576 14.3366 7.22132 14.1999 4.90778C14.1292 3.71243 13.1916 2.74954 11.997 2.65064C10.808 2.5522 9.93133 2.53464 8.63498 2.50866H8.63477C8.44462 2.50485 8.24545 2.50085 8.03494 2.4964C7.83104 2.49209 7.64973 2.36308 7.57868 2.17123L7.37822 1.62992C7.17122 1.07098 6.65083 0.68325 6.0494 0.655879Z" fill="white"/>
</g>
<defs>
<clipPath id="clip0_1459_3653">
<rect width="14" height="14" fill="white" transform="translate(0.55542 0.0380249)"/>
</clipPath>
</defs>
</svg>
