<svg width="15" height="14" viewBox="0 0 15 14" fill="currentColor" xmlns="http://www.w3.org/2000/svg">
<g clip-path="url(#clip0_1459_3513)">
<path fill-rule="evenodd" clip-rule="evenodd" d="M6.4303 0.0639742C6.70644 0.0639735 6.9303 0.287832 6.9303 0.563974V3.43896C6.9303 3.71511 6.70644 3.93896 6.4303 3.93896H1.76542C1.54022 3.93896 1.39211 3.73155 1.49575 3.53161L1.49576 3.53159L1.49578 3.53155C1.51285 3.49862 1.52969 3.46612 1.54569 3.43412C1.67786 3.16978 1.87554 2.80739 2.13938 2.41163C2.66109 1.62907 3.47013 0.672602 4.5818 0.116765C4.65123 0.0820508 4.72778 0.0639783 4.8054 0.0639781L6.4303 0.0639742ZM8.1803 3.43896C8.1803 3.71511 8.40416 3.93896 8.6803 3.93896H13.2364C13.5079 3.93896 13.6865 3.67692 13.5651 3.43411C13.4329 3.16977 13.2353 2.80738 12.9714 2.41161C12.4497 1.62905 11.6407 0.672588 10.529 0.116751C10.4596 0.0820371 10.383 0.0639648 10.3054 0.0639648L8.6803 0.0639687C8.40415 0.0639694 8.1803 0.287827 8.1803 0.563969V3.43896ZM1.4944 5.18896H7.5553H13.6164C13.8623 5.18896 14.0726 5.36773 14.1045 5.61157C14.3891 7.78645 14.1988 9.79055 14.0164 10.9904C13.8725 11.9377 13.0463 12.564 12.1342 12.564H10.0553C9.77916 12.564 9.5553 12.3401 9.5553 12.064V11.5093C9.5553 11.4803 9.57883 11.4568 9.60786 11.4568C10.2772 11.4568 10.8879 11.075 11.1811 10.4732C11.4742 9.87145 11.3985 9.15519 10.9859 8.62811C10.2508 7.68903 9.71144 7.21731 8.99046 6.66503C8.13852 6.01244 6.97214 6.01244 6.12021 6.66503C5.39923 7.21731 4.85987 7.68903 4.12478 8.62811C3.7122 9.15519 3.63641 9.87145 3.92956 10.4732C4.22272 11.075 4.83344 11.4568 5.50281 11.4568C5.5318 11.4568 5.5553 11.4803 5.5553 11.5093V12.064C5.5553 12.3401 5.33144 12.564 5.0553 12.564H2.97657C2.06453 12.564 1.23834 11.9377 1.09438 10.9905C0.912017 9.79056 0.721642 7.78645 1.00632 5.61157C1.03824 5.36773 1.24848 5.18896 1.4944 5.18896ZM6.8053 10.2068H5.50281C5.31156 10.2068 5.13707 10.0977 5.05331 9.92576C4.96956 9.75383 4.99121 9.54919 5.10909 9.39859C5.76461 8.56116 6.22215 8.16153 6.88034 7.65735C7.28376 7.34833 7.82692 7.34833 8.23033 7.65735C8.88853 8.16153 9.34606 8.56116 10.0016 9.39859C10.1195 9.54919 10.1411 9.75383 10.0574 9.92576C9.9736 10.0977 9.79911 10.2068 9.60786 10.2068H8.3053V13.2029C8.3053 13.6171 7.96951 13.9529 7.5553 13.9529C7.14108 13.9529 6.8053 13.6171 6.8053 13.2029V10.2068Z" fill="white"/>
</g>
<defs>
<clipPath id="clip0_1459_3513">
<rect width="14" height="14" fill="white" transform="translate(0.55542 0.00830078)"/>
</clipPath>
</defs>
</svg>
