<svg width="15" height="14" viewBox="0 0 15 14" fill="none" xmlns="http://www.w3.org/2000/svg">
<g clip-path="url(#clip0_1459_3533)">
<path fill-rule="evenodd" clip-rule="evenodd" d="M7.71158 2.23293C8.13115 1.81336 8.5589 1.64349 8.93888 1.63995C9.31572 1.63644 9.74897 1.79544 10.1865 2.23293C10.6239 2.67041 10.7829 3.10366 10.7794 3.4805C10.7759 3.86048 10.606 4.28823 10.1865 4.7078L9.8329 5.06135C9.54 5.35425 9.54 5.82912 9.8329 6.12201C10.1258 6.41491 10.6006 6.41491 10.8935 6.12201L11.2471 5.76846C11.8882 5.12737 12.2715 4.34051 12.2793 3.49446C12.2872 2.64527 11.9159 1.84109 11.2471 1.17227C10.5783 0.503441 9.7741 0.132112 8.92492 0.140016C8.07887 0.147891 7.29201 0.531176 6.65092 1.17227L6.36807 1.45511L5.59026 2.23293C4.88694 2.93624 4.30993 3.66339 4.30993 4.53102C4.30993 5.39865 4.88694 6.1258 5.59026 6.82912C5.88315 7.12201 6.35802 7.12201 6.65092 6.82912C6.94381 6.53623 6.94381 6.06135 6.65092 5.76846C5.94002 5.05756 5.80993 4.72405 5.80993 4.53102C5.80993 4.33799 5.94002 4.00448 6.65092 3.29359L7.42873 2.51577L7.71158 2.23293ZM7.35784 11.7788C6.93564 12.201 6.50977 12.3719 6.1332 12.3763C5.76063 12.3807 5.32779 12.2236 4.88296 11.7788C4.43814 11.334 4.28104 10.9012 4.28544 10.5286C4.28988 10.152 4.46077 9.72614 4.88296 9.30395L5.23652 8.95039C5.52941 8.6575 5.52941 8.18263 5.23652 7.88973C4.94362 7.59684 4.46875 7.59684 4.17586 7.88973L3.8223 8.24329C3.18384 8.88175 2.79553 9.66446 2.78554 10.5109C2.77551 11.3613 3.14874 12.1659 3.8223 12.8395C4.49586 13.513 5.30045 13.8863 6.1509 13.8762C6.99732 13.8663 7.78003 13.4779 8.4185 12.8395L8.70134 12.5566L9.47916 11.7788C10.1825 11.0755 10.7595 10.3484 10.7595 9.48072C10.7595 8.6131 10.1825 7.88594 9.47916 7.18263C9.18626 6.88973 8.71139 6.88973 8.4185 7.18263C8.1256 7.47552 8.1256 7.95039 8.4185 8.24329C9.12939 8.95418 9.25949 9.28769 9.25949 9.48072C9.25949 9.67376 9.12939 10.0073 8.4185 10.7182L7.64068 11.496L7.35784 11.7788ZM1.67028 3.28184C2.00685 3.0404 2.47542 3.11751 2.71687 3.45407L3.29676 4.26242C3.53821 4.59899 3.4611 5.06756 3.12453 5.30901C2.78797 5.55045 2.3194 5.47334 2.07795 5.13678L1.49805 4.32843C1.25661 3.99186 1.33372 3.52329 1.67028 3.28184ZM1.81303 6.43906C2.15705 6.20836 2.62296 6.30022 2.85366 6.64425C3.08436 6.98827 2.99249 7.45417 2.64847 7.68487L1.82222 8.23895C1.47819 8.46965 1.01229 8.37779 0.781592 8.03377C0.550892 7.68975 0.642757 7.22384 0.986778 6.99314L1.81303 6.43906ZM14.389 6.32234C14.2172 5.94544 13.7724 5.77919 13.3955 5.951L12.4902 6.36366C12.1133 6.53548 11.9471 6.9803 12.1189 7.3572C12.2907 7.73409 12.7355 7.90035 13.1124 7.72853L14.0177 7.31587C14.3946 7.14406 14.5608 6.69924 14.389 6.32234ZM12.6945 8.98991C12.5109 8.61862 12.061 8.4665 11.6897 8.65013C11.3185 8.83376 11.1663 9.28361 11.35 9.65489L11.791 10.5466C11.9746 10.9179 12.4245 11.07 12.7958 10.8864C13.167 10.7028 13.3192 10.2529 13.1355 9.88165L12.6945 8.98991Z" fill="white"/>
</g>
<defs>
<clipPath id="clip0_1459_3533">
<rect width="14" height="14" fill="white" transform="translate(0.55542 0.00830078)"/>
</clipPath>
</defs>
</svg>
