<svg width="15" height="15" viewBox="0 0 15 15" fill="none" xmlns="http://www.w3.org/2000/svg">
<g clip-path="url(#clip0_1459_3745)">
<path fill-rule="evenodd" clip-rule="evenodd" d="M6.87427 0.241211C5.99188 0.241211 5.1326 0.337254 4.34823 0.424923L4.12803 0.449453C3.30356 0.540662 2.63658 1.19395 2.55307 2.03443C2.50723 2.49587 2.45711 3.01123 2.41734 3.52578C2.40965 3.6252 2.49502 3.70623 2.59466 3.70211C2.83429 3.69219 3.07622 3.68163 3.32202 3.6709L3.32309 3.67086C3.54089 3.66135 3.66632 3.652 3.79644 3.6423L3.8275 3.63998C3.97905 3.62873 4.13784 3.61771 4.41521 3.6081C5.21809 3.58028 5.90035 4.18997 5.96263 4.99092L5.96552 5.02704C5.96649 5.03885 5.9675 5.0507 5.96853 5.0626C5.97918 5.1853 6.07999 5.28006 6.20305 5.28494C6.29897 5.28874 6.39565 5.29205 6.48703 5.2947C6.64078 5.29916 6.7795 5.30176 6.87425 5.30176C7.04658 5.30176 7.32097 5.29275 7.57262 5.27928C7.6938 5.2728 7.79189 5.17865 7.80232 5.05775C7.80425 5.03532 7.80608 5.01305 7.8078 4.99091C7.87008 4.18997 8.55234 3.58028 9.35522 3.6081C9.63349 3.61774 9.78771 3.62884 9.93491 3.64021L9.96287 3.64237C10.0877 3.65205 10.2078 3.66136 10.4254 3.67086L10.4265 3.6709C10.6722 3.68163 10.9142 3.69219 11.1538 3.70211C11.2535 3.70623 11.3389 3.62519 11.3312 3.52575C11.2914 3.01121 11.2413 2.49586 11.1954 2.03443C11.1119 1.19395 10.445 0.540663 9.62051 0.449453L9.4003 0.424923C8.61594 0.337254 7.75666 0.241211 6.87427 0.241211ZM10.9548 13.6361C12.0491 13.5012 13.0877 12.6293 12.9895 11.3744C12.9249 10.5487 12.7183 9.86182 12.5086 9.16468L12.503 9.14631C12.4297 8.90242 12.3559 8.65714 12.2846 8.39744C12.2706 8.34669 12.2554 8.29643 12.2388 8.24672C12.2376 8.24293 12.2363 8.23914 12.235 8.23536C12.2071 8.15255 12.2203 8.06133 12.2686 7.98853C12.4567 7.70515 12.5789 7.37152 12.6038 7.00077C12.6206 6.74968 12.6241 6.59523 12.6014 6.42387C12.5915 6.34934 12.5728 6.25434 12.5512 6.14422C12.5475 6.12542 12.5619 6.10791 12.581 6.10791H12.8426C13.1877 6.10791 13.4676 5.82809 13.4676 5.48291V3.79541C13.4676 3.65734 13.5795 3.54541 13.7176 3.54541H13.7332C14.0784 3.54541 14.3582 3.26559 14.3582 2.92041C14.3582 2.57524 14.0784 2.29541 13.7332 2.29541H12.8426C12.4974 2.29541 12.2176 2.57524 12.2176 2.92041V4.60791C12.2176 4.74599 12.1056 4.85791 11.9676 4.85791H11.7813C11.7427 4.85791 11.7048 4.84866 11.6696 4.83287C11.4959 4.75487 11.3065 4.70929 11.1125 4.70125C10.8715 4.69128 10.6284 4.68067 10.3829 4.66995L10.3818 4.66991C10.1473 4.65967 10.014 4.64934 9.88571 4.63939C9.73888 4.628 9.59862 4.61713 9.3206 4.6075C9.05297 4.59823 8.82555 4.80145 8.80479 5.06844C8.79576 5.18463 8.78429 5.30106 8.7715 5.41846C8.75347 5.58382 8.70804 5.74565 8.63174 5.88178C8.63172 5.88181 8.63174 5.88184 8.63177 5.88184C8.6318 5.88184 8.63182 5.88187 8.63181 5.8819C8.54821 6.03098 8.42759 6.1492 8.2654 6.20741C8.21656 6.22494 8.16395 6.23703 8.10746 6.24288C8.06757 6.24701 8.02327 6.25103 7.97567 6.25489C7.83685 6.26618 7.66999 6.27619 7.50278 6.28404C7.26863 6.29503 7.03377 6.30176 6.87425 6.30176C6.56179 6.30176 5.79533 6.27593 5.47624 6.24289C5.11724 6.20571 5.04431 5.83479 4.99893 5.41846C4.98614 5.30106 4.97467 5.18463 4.96563 5.06844C4.94488 4.80145 4.71746 4.59823 4.44983 4.6075C4.17051 4.61717 4.02395 4.6281 3.87053 4.63955H3.87052C3.73782 4.64945 3.59999 4.65973 3.36668 4.66991L3.36562 4.66995L3.36543 4.66996C3.11989 4.68068 2.8769 4.69128 2.63602 4.70125C2.53867 4.70528 2.44252 4.71876 2.34892 4.74104C2.34891 4.74104 2.34891 4.74105 2.34891 4.74105C2.34891 4.74106 2.3489 4.74107 2.3489 4.74107C1.80758 4.86998 1.35195 5.29327 1.24659 5.88571C1.23006 5.97862 1.21298 6.0654 1.19746 6.14429C1.17577 6.25448 1.15712 6.34928 1.14724 6.42386C1.12453 6.59522 1.12803 6.74967 1.14485 7.00076C1.1697 7.37151 1.29188 7.70513 1.48003 7.98851C1.52837 8.06131 1.54152 8.15254 1.51359 8.23534C1.49557 8.28875 1.47903 8.3428 1.46403 8.39743C1.3927 8.65712 1.31895 8.90241 1.24559 9.1463L1.24006 9.16467C1.03036 9.86181 0.823723 10.5487 0.759134 11.3744C0.657247 12.6768 1.77979 13.5666 2.91831 13.6482L2.9589 13.6511C4.20959 13.7408 5.52467 13.8351 6.87439 13.8351C7.21182 13.8351 7.54709 13.8292 7.87972 13.8189C8.87757 13.7882 9.85175 13.7184 10.7897 13.6511H10.7899L10.8303 13.6482H10.8305C10.8719 13.6452 10.9134 13.6412 10.9548 13.6361ZM4.1543 10.8819C4.49947 10.8819 4.7793 10.602 4.7793 10.2569C4.7793 9.91166 4.49947 9.63184 4.1543 9.63184H3.36484C3.01967 9.63184 2.73984 9.91166 2.73984 10.2569C2.73984 10.602 3.01967 10.8819 3.36484 10.8819H4.1543ZM7.78833 10.2569C7.78833 10.602 7.50851 10.8819 7.16333 10.8819H6.37388C6.0287 10.8819 5.74888 10.602 5.74888 10.2569C5.74888 9.91166 6.0287 9.63184 6.37388 9.63184H7.16333C7.50851 9.63184 7.78833 9.91166 7.78833 10.2569ZM10.3838 10.8819C10.7289 10.8819 11.0088 10.602 11.0088 10.2569C11.0088 9.91166 10.7289 9.63184 10.3838 9.63184H9.59434C9.24916 9.63184 8.96934 9.91166 8.96934 10.2569C8.96934 10.602 9.24916 10.8819 9.59434 10.8819H10.3838Z" fill="white"/>
</g>
<defs>
<clipPath id="clip0_1459_3745">
<rect width="14" height="14" fill="white" transform="translate(0.55542 0.0380859)"/>
</clipPath>
</defs>
</svg>
