<svg width="15" height="15" viewBox="0 0 15 15" fill="currentColor" xmlns="http://www.w3.org/2000/svg">
<g clip-path="url(#clip0_1459_3637)">
<path fill-rule="evenodd" clip-rule="evenodd" d="M1.30542 0.129333C0.891206 0.129333 0.55542 0.46512 0.55542 0.879334C0.55542 1.29354 0.891206 1.62933 1.30542 1.62933H1.5979C1.43028 5.17836 1.75352 8.73414 2.55893 12.1958C2.79746 13.2211 3.71119 13.9466 4.7638 13.9466H7.55542H9.89653C11.2153 13.9466 12.3485 13.0103 12.5972 11.7152L12.7661 10.8355C13.0131 9.54898 13.2102 8.25385 13.3569 6.95309C13.367 6.90564 13.3726 6.85654 13.3732 6.80625C13.5226 5.44621 13.617 4.08012 13.656 2.71134L13.6868 1.62933H13.8054C14.2196 1.62933 14.5554 1.29354 14.5554 0.879334C14.5554 0.46512 14.2196 0.129333 13.8054 0.129333H12.9579H7.55542H2.39004H1.30542ZM12.1862 1.62933H8.30542V6.04632H11.944C12.0535 4.92363 12.1244 3.79706 12.1566 2.6686L12.1862 1.62933ZM6.80542 1.62933H3.09964C3.02723 3.10292 3.04287 4.57786 3.1459 6.04632H6.80542V1.62933ZM11.7744 7.54632H8.30542V12.4466H9.89653C10.496 12.4466 11.011 12.021 11.1241 11.4323L11.293 10.5527C11.4845 9.55538 11.645 8.55278 11.7744 7.54632ZM6.80542 7.54632H3.2818C3.44268 8.99434 3.68894 10.4334 4.01991 11.8559C4.10039 12.2018 4.40866 12.4466 4.7638 12.4466H6.80542V7.54632Z" fill="white"/>
</g>
<defs>
<clipPath id="clip0_1459_3637">
<rect width="14" height="14" fill="white" transform="translate(0.55542 0.0380249)"/>
</clipPath>
</defs>
</svg>
