<svg width="15" height="15" viewBox="0 0 15 15" fill="currentColor" xmlns="http://www.w3.org/2000/svg">
<g clip-path="url(#clip0_1459_3759)">
<path fill-rule="evenodd" clip-rule="evenodd" d="M8.3055 0.788086C8.3055 0.373872 7.96971 0.0380859 7.5555 0.0380859C7.14129 0.0380859 6.8055 0.373872 6.8055 0.788086V1.30892C6.8055 1.72314 7.14129 2.05892 7.5555 2.05892C7.96971 2.05892 8.3055 1.72314 8.3055 1.30892V0.788086ZM3.6664 2.08833C3.3735 1.79543 2.89863 1.79543 2.60574 2.08833C2.31284 2.38122 2.31284 2.85609 2.60574 3.14899L2.97402 3.51727C3.26692 3.81016 3.74179 3.81016 4.03468 3.51727C4.32758 3.22438 4.32758 2.7495 4.03468 2.45661L3.6664 2.08833ZM14.5555 7.03809C14.5555 7.4523 14.2197 7.78809 13.8055 7.78809H13.2846C12.8704 7.78809 12.5346 7.4523 12.5346 7.03809C12.5346 6.62388 12.8704 6.28809 13.2846 6.28809H13.8055C14.2197 6.28809 14.5555 6.62388 14.5555 7.03809ZM1.82625 7.78809C2.24047 7.78809 2.57625 7.4523 2.57625 7.03809C2.57625 6.62388 2.24047 6.28809 1.82625 6.28809H1.30542C0.891206 6.28809 0.55542 6.62388 0.55542 7.03809C0.55542 7.4523 0.891206 7.78809 1.30542 7.78809H1.82625ZM12.5052 2.08833C12.7981 2.38122 12.7981 2.85609 12.5052 3.14899L12.137 3.51727C11.8441 3.81016 11.3692 3.81016 11.0763 3.51727C10.7834 3.22438 10.7834 2.7495 11.0763 2.45661L11.4446 2.08833C11.7375 1.79543 12.2124 1.79543 12.5052 2.08833ZM7.48107 3.39818C8.16769 3.38492 8.84534 3.55568 9.44368 3.89275C10.042 4.22981 10.5392 4.72089 10.8837 5.315C11.228 5.90891 11.4072 6.58414 11.4026 7.27064C11.3994 7.98322 11.1977 8.68083 10.8201 9.28511C10.7063 9.46706 10.6001 9.62617 10.5061 9.76686L10.5049 9.76872C10.1648 10.2778 9.99822 10.5368 9.94696 11.0275C9.92036 11.2822 9.7057 11.4756 9.44966 11.4756H5.66193C5.40491 11.4756 5.18976 11.2807 5.16438 11.025C5.11396 10.517 4.94639 10.2591 4.57737 9.71295L4.57662 9.71184L4.57661 9.71182L4.57653 9.71169C4.50223 9.60174 4.42022 9.48037 4.33279 9.34632C3.95766 8.77108 3.74334 8.10592 3.71208 7.41989C3.68082 6.73385 3.83376 6.05195 4.15502 5.44498C4.47628 4.83801 4.95415 4.3281 5.53902 3.96818C6.1239 3.60826 6.79445 3.41145 7.48107 3.39818ZM8.71175 14.0381C9.12596 14.0381 9.46175 13.7023 9.46175 13.2881C9.46175 12.8739 9.12596 12.5381 8.71175 12.5381H6.39929C5.98508 12.5381 5.64929 12.8739 5.64929 13.2881C5.64929 13.7023 5.98508 14.0381 6.39929 14.0381H8.71175Z" fill="white"/>
</g>
<defs>
<clipPath id="clip0_1459_3759">
<rect width="14" height="14" fill="white" transform="translate(0.55542 0.0380859)"/>
</clipPath>
</defs>
</svg>
