<svg width="15" height="15" viewBox="0 0 15 15" fill="none" xmlns="http://www.w3.org/2000/svg">
<g clip-path="url(#clip0_1459_3639)">
<path fill-rule="evenodd" clip-rule="evenodd" d="M6.72704 1.28654C8.09388 -0.0802939 10.31 -0.0802939 11.6768 1.28654C13.0436 2.65338 13.0436 4.86946 11.6768 6.23629L7.61093 10.3021C6.73225 11.1808 5.30762 11.1808 4.42894 10.3021C3.55027 9.42348 3.55027 7.99886 4.42895 7.12018L6.90382 4.6453C7.19671 4.35241 7.67159 4.35241 7.96448 4.6453C8.25737 4.9382 8.25737 5.41307 7.96448 5.70596L5.48961 8.18084C5.19671 8.47373 5.19671 8.9486 5.48961 9.2415C5.7825 9.53439 6.25737 9.53439 6.55027 9.2415L10.6161 5.17563C11.3972 4.39458 11.3972 3.12825 10.6161 2.34721C9.83508 1.56616 8.56875 1.56616 7.7877 2.34721L3.36828 6.76662C2.09908 8.03583 2.09908 10.0936 3.36828 11.3628C4.63749 12.632 6.69527 12.632 7.96448 11.3628L12.9142 6.41307C13.2071 6.12018 13.682 6.12018 13.9749 6.41307C14.2678 6.70596 14.2678 7.18084 13.9749 7.47373L9.02514 12.4234C7.17015 14.2784 4.16261 14.2784 2.30762 12.4234C0.452635 10.5685 0.452635 7.56095 2.30762 5.70596L6.72704 1.28654Z" fill="white"/>
</g>
<defs>
<clipPath id="clip0_1459_3639">
<rect width="14" height="14" fill="white" transform="translate(0.55542 0.0380249)"/>
</clipPath>
</defs>
</svg>
