<svg width="15" height="15" viewBox="0 0 15 15" fill="currentColor" xmlns="http://www.w3.org/2000/svg">
<g clip-path="url(#clip0_1459_3624)">
<path fill-rule="evenodd" clip-rule="evenodd" d="M4.46423 1.56842C5.28406 0.7486 6.39598 0.288025 7.5554 0.288025C8.71481 0.288025 9.82673 0.748601 10.6465 1.56842C11.4664 2.38825 11.9269 3.50019 11.9269 4.65961C11.9269 5.20291 12.0156 5.72212 12.1572 6.27312C12.1934 6.38504 12.2328 6.4902 12.2748 6.58899C12.3315 6.72228 12.4461 6.83738 12.6663 6.97826C12.7523 7.03329 12.8403 7.08388 12.9403 7.14135L13.0338 7.19521C13.1669 7.27229 13.3167 7.36175 13.4598 7.46765C13.977 7.8506 14.1672 8.44071 14.1415 8.97272C14.1165 9.49043 13.8844 10.0301 13.4513 10.3557C13.4454 10.3604 13.4387 10.3655 13.4313 10.371C13.4137 10.3842 13.3917 10.3996 13.3647 10.4169C13.3108 10.4516 13.237 10.4939 13.1386 10.541C12.9421 10.6351 12.6458 10.749 12.21 10.8592C11.3401 11.079 9.89932 11.288 7.5554 11.288C5.21148 11.288 3.77063 11.079 2.90078 10.8592C2.46499 10.749 2.16871 10.6351 1.97216 10.541C1.87375 10.4939 1.79999 10.4516 1.74607 10.4169C1.7191 10.3996 1.6971 10.3842 1.67946 10.371C1.67205 10.3655 1.6654 10.3604 1.65949 10.3557C1.22638 10.0301 0.994312 9.49043 0.969312 8.97272C0.943621 8.44071 1.13375 7.8506 1.65102 7.46765L1.94852 7.86951L1.65102 7.46765C1.79408 7.36174 1.94385 7.27229 2.07694 7.19522L2.17047 7.14134L2.17049 7.14132C2.2705 7.08387 2.35852 7.0333 2.44451 6.97828C2.66466 6.83741 2.77924 6.72232 2.83591 6.58904C3.03821 6.11329 3.18382 5.48485 3.18382 4.65961C3.18382 3.50019 3.6444 2.38825 4.46423 1.56842ZM6.39369 12.0226C6.19923 11.9564 5.98411 12.0159 5.85128 12.1726C5.71846 12.3293 5.69496 12.5513 5.79204 12.7323C6.12849 13.3596 6.79154 13.788 7.55543 13.788C8.31931 13.788 8.98237 13.3596 9.31881 12.7323C9.41589 12.5513 9.3924 12.3293 9.25957 12.1726C9.12675 12.0159 8.91162 11.9564 8.71717 12.0226C8.4639 12.1087 8.08973 12.1746 7.55543 12.1746C7.02112 12.1746 6.64696 12.1087 6.39369 12.0226Z" fill="white"/>
</g>
<defs>
<clipPath id="clip0_1459_3624">
<rect width="14" height="14" fill="white" transform="translate(0.55542 0.0380249)"/>
</clipPath>
</defs>
</svg>
