<svg width="15" height="14" viewBox="0 0 15 14" fill="currentColor" xmlns="http://www.w3.org/2000/svg">
<g clip-path="url(#clip0_1459_3525)">
<path fill-rule="evenodd" clip-rule="evenodd" d="M7.55542 0.258301C6.03203 0.258301 4.54208 0.33903 3.11539 0.48888C2.06319 0.599395 1.19483 1.39298 1.04086 2.45929C0.885772 3.53332 0.80542 4.6537 0.80542 5.79135C0.80542 6.89216 0.88591 7.96085 1.03047 8.99931C1.18934 10.1405 2.14651 10.9513 3.24762 11.0538L3.46481 11.074L3.69004 11.095V13.2583C3.69004 13.4279 3.77601 13.5859 3.9184 13.6781C4.06079 13.7702 4.24018 13.7839 4.3949 13.7144C5.79936 13.0836 6.64894 12.472 7.67445 11.3242C9.13979 11.3196 10.5576 11.2295 11.9307 11.09C13.0182 10.9796 13.9071 10.1517 14.0616 9.0572C14.2102 8.00481 14.3054 6.91547 14.3054 5.79135C14.3054 4.66119 14.2186 3.55326 14.0669 2.4901C13.9128 1.40977 13.0332 0.601855 11.9652 0.491429C10.5393 0.34399 9.07554 0.258301 7.55542 0.258301ZM4.915 4.3706C4.70859 4.3706 4.54126 4.53793 4.54126 4.74434V6.74182C4.54126 6.94823 4.70859 7.11555 4.915 7.11555H5.58082C5.74257 7.11555 5.88185 7.01245 5.93345 6.86645C6.04848 6.541 6.40556 6.37043 6.73101 6.48546C7.05646 6.60049 7.22703 6.95757 7.112 7.28302C6.88939 7.91282 6.28878 8.36555 5.58082 8.36555H4.915C4.01823 8.36555 3.29126 7.63858 3.29126 6.74182V4.74434C3.29126 3.84758 4.01823 3.1206 4.915 3.1206H5.58082C6.28879 3.1206 6.8894 3.57334 7.11201 4.20316C7.22703 4.52861 7.05645 4.88568 6.73101 5.00071C6.40556 5.11574 6.04848 4.94516 5.93345 4.61971C5.88185 4.47371 5.74257 4.3706 5.58082 4.3706H4.915ZM9.21313 4.74434C9.21313 4.53793 9.38046 4.3706 9.58687 4.3706H10.2527C10.4144 4.3706 10.5537 4.47371 10.6053 4.61971C10.7203 4.94516 11.0774 5.11574 11.4029 5.00071C11.7283 4.88568 11.8989 4.52861 11.7839 4.20316C11.5613 3.57334 10.9606 3.1206 10.2527 3.1206H9.58687C8.69011 3.1206 7.96313 3.84758 7.96313 4.74434V6.74182C7.96313 7.63858 8.69011 8.36555 9.58687 8.36555H10.2527C10.9606 8.36555 11.5612 7.91282 11.7839 7.28302C11.8989 6.95757 11.7283 6.60049 11.4029 6.48546C11.0774 6.37043 10.7203 6.541 10.6053 6.86645C10.5537 7.01245 10.4144 7.11555 10.2527 7.11555H9.58687C9.38046 7.11555 9.21313 6.94823 9.21313 6.74182V4.74434Z" fill="white"/>
</g>
<defs>
<clipPath id="clip0_1459_3525">
<rect width="14" height="14" fill="white" transform="translate(0.55542 0.00830078)"/>
</clipPath>
</defs>
</svg>
