<svg width="15" height="15" viewBox="0 0 15 15" fill="currentColor" xmlns="http://www.w3.org/2000/svg">
<g clip-path="url(#clip0_1459_3633)">
<path fill-rule="evenodd" clip-rule="evenodd" d="M6.54641 0.292786C6.38859 0.292786 6.23371 0.335523 6.09821 0.416459C6.07938 0.427709 6.06131 0.440185 6.04411 0.453808C5.90038 0.567689 5.8034 0.730323 5.77153 0.910908C5.74018 1.08856 5.77399 1.27147 5.86657 1.42608C6.67094 2.82141 6.98717 4.54069 6.56517 5.86949C6.4767 6.14806 6.27147 6.27614 6.05056 6.28979C5.8203 6.30401 5.5568 6.19174 5.39395 5.91624C5.2976 5.75323 5.21074 5.58424 5.13399 5.41008C5.0773 5.28143 4.96907 5.18259 4.83581 5.13778C4.70255 5.09298 4.55659 5.10634 4.43368 5.1746C3.75806 5.54984 3.19813 6.10299 2.8147 6.774C2.43127 7.44501 2.23898 8.20823 2.2587 8.98082H2.25865L2.25895 8.98829C2.3136 10.3379 2.77876 11.5487 3.68986 12.4221C4.60215 13.2966 5.90961 13.7833 7.55332 13.7833C9.20429 13.7833 10.5097 13.268 11.418 12.3828C12.3235 11.5004 12.7902 10.2936 12.8476 8.99004V8.98971C12.982 5.8892 10.8062 2.18465 6.96722 0.400758C6.83842 0.330005 6.6937 0.292786 6.54641 0.292786Z" fill="white"/>
</g>
<defs>
<clipPath id="clip0_1459_3633">
<rect width="14" height="14" fill="white" transform="translate(0.55542 0.0380249)"/>
</clipPath>
</defs>
</svg>
