<svg width="15" height="15" viewBox="0 0 15 15" fill="currentColor" xmlns="http://www.w3.org/2000/svg">
<g clip-path="url(#clip0_1459_3647)">
<path fill-rule="evenodd" clip-rule="evenodd" d="M7.56201 0.461365C7.1411 0.461365 6.72421 0.472521 6.312 0.491295C3.44928 0.621676 0.812012 2.92645 0.812012 5.88314C0.812012 6.60327 0.854411 7.30476 1.06462 8.0549C1.48936 9.57057 2.709 11.1713 4.9394 11.3627C5.0048 11.8461 5.11636 12.2805 5.28705 12.6266C5.50876 13.0763 5.89147 13.4805 6.47628 13.4805C6.75718 13.4805 6.9736 13.3187 7.08629 13.2256C7.19091 13.1392 7.29976 13.029 7.3887 12.9389H7.38873H7.38874H7.38875L7.44092 12.8862C7.55163 12.7753 7.63703 12.6962 7.71254 12.6451C7.72436 12.6371 7.7347 12.6306 7.74362 12.6254C7.75403 12.6336 7.76584 12.6431 7.77915 12.6542C7.84164 12.7065 7.89889 12.7597 7.96789 12.8239H7.9679C8.01914 12.8715 8.07685 12.9252 8.14799 12.9889C8.29456 13.1203 8.47531 13.2718 8.67893 13.3909C8.88285 13.5102 9.139 13.6145 9.43235 13.6145C9.73426 13.6145 9.99274 13.5005 10.1946 13.3713C10.3957 13.2427 10.5704 13.0798 10.7102 12.9392C10.7875 12.8615 10.8451 12.8007 10.8957 12.7473C10.9321 12.7089 10.9648 12.6744 10.9985 12.6402C11.0395 12.688 11.0857 12.7451 11.1393 12.8121L11.1565 12.8335C11.2429 12.9415 11.3506 13.0761 11.4579 13.1833C11.5162 13.2416 11.5902 13.3081 11.6768 13.3624C11.7599 13.4146 11.8938 13.4805 12.0627 13.4805C12.5753 13.4805 12.9839 13.2376 13.2757 12.8654C13.5544 12.5099 13.7297 12.0366 13.837 11.5244C14.2464 9.56974 14.3851 7.69879 14.2469 5.84596C14.019 2.78981 11.7068 0.623136 8.81202 0.491295C8.39981 0.472521 7.98292 0.461365 7.56201 0.461365ZM7.68727 12.5857C7.68503 12.5844 7.68393 12.5839 7.68393 12.584L7.68474 12.5845L7.68727 12.5857ZM11.1479 12.5047C11.1479 12.5048 11.1466 12.5057 11.144 12.5071C11.1466 12.5053 11.1479 12.5046 11.1479 12.5047ZM7.84888 5.24945C8.19406 5.24945 8.47388 5.52927 8.47388 5.87445V6.96783C8.47388 7.31301 8.19406 7.59283 7.84888 7.59283C7.5037 7.59283 7.22388 7.31301 7.22388 6.96783V5.87445C7.22388 5.52927 7.5037 5.24945 7.84888 5.24945ZM11.6926 5.87445C11.6926 5.52927 11.4128 5.24945 11.0676 5.24945C10.7224 5.24945 10.4426 5.52927 10.4426 5.87445V6.96783C10.4426 7.31301 10.7224 7.59283 11.0676 7.59283C11.4128 7.59283 11.6926 7.31301 11.6926 6.96783V5.87445Z" fill="white"/>
</g>
<defs>
<clipPath id="clip0_1459_3647">
<rect width="14" height="14" fill="white" transform="translate(0.55542 0.0380249)"/>
</clipPath>
</defs>
</svg>
