<svg width="15" height="14" viewBox="0 0 15 14" fill="currentColor" xmlns="http://www.w3.org/2000/svg">
<g clip-path="url(#clip0_1459_3531)">
<path fill-rule="evenodd" clip-rule="evenodd" d="M9.12709 0.108392C8.72236 0.0202683 8.32282 0.276929 8.2347 0.68166C8.14658 1.08639 8.40324 1.48593 8.80797 1.57405C9.34309 1.69057 9.85693 1.88929 10.3312 2.16315C10.6899 2.37028 11.1486 2.2474 11.3557 1.88869C11.5629 1.52999 11.44 1.07129 11.0813 0.864159C10.4728 0.512818 9.81361 0.257872 9.12709 0.108392ZM6.30282 1.57405C6.70755 1.48593 6.96421 1.08639 6.87609 0.68166C6.78797 0.276929 6.38843 0.0202683 5.9837 0.108392C5.29718 0.257872 4.63796 0.512818 4.0295 0.864159C3.6708 1.07129 3.54792 1.52999 3.75504 1.88869C3.96217 2.2474 4.42087 2.37028 4.77958 2.16315C5.25385 1.88929 5.7677 1.69057 6.30282 1.57405ZM3.00987 2.57301C3.33733 2.82667 3.39716 3.29776 3.1435 3.62522C2.8411 4.0156 2.59462 4.44624 2.41117 4.9047C2.25729 5.28926 1.82079 5.47627 1.43622 5.32239C1.05165 5.16851 0.864638 4.73201 1.01852 4.34744C1.25377 3.75951 1.56987 3.20726 1.95767 2.70664C2.21133 2.37918 2.68242 2.31935 3.00987 2.57301ZM5.18262 5.95597C4.7684 5.95597 4.43262 6.29175 4.43262 6.70597C4.43262 7.12018 4.7684 7.45597 5.18262 7.45597H7.09303L8.38176 9.06689C8.64052 9.39033 9.11249 9.44277 9.43594 9.18402C9.75938 8.92526 9.81182 8.45329 9.55307 8.12984L8.03915 6.23745C7.89682 6.05953 7.68133 5.95597 7.4535 5.95597H5.18262ZM13.806 6.18158C14.2202 6.18518 14.553 6.52388 14.5494 6.93808C14.5401 8.01407 14.3156 9.07629 13.8905 10.0626C14.1467 10.3915 14.2993 10.8051 14.2993 11.2543C14.2993 12.3263 13.4303 13.1952 12.3584 13.1952C11.2864 13.1952 10.4175 12.3263 10.4175 11.2543C10.4175 10.1824 11.2864 9.31339 12.3584 9.31339C12.4309 9.31339 12.5025 9.31737 12.5729 9.32511C12.8802 8.56309 13.0423 7.74902 13.0495 6.92503C13.0531 6.51083 13.3918 6.17798 13.806 6.18158ZM1.31128 6.18155C1.72549 6.18155 2.06128 6.51734 2.06128 6.93155C2.06128 8.38866 2.64011 9.78608 3.67044 10.8164C4.18061 11.3266 4.78626 11.7313 5.45283 12.0074C6.11939 12.2835 6.83382 12.4256 7.5553 12.4256C7.96951 12.4256 8.3053 12.7614 8.3053 13.1756C8.3053 13.5898 7.96951 13.9256 7.5553 13.9256C6.63683 13.9256 5.72736 13.7447 4.8788 13.3932C4.03025 13.0417 3.25924 12.5265 2.60978 11.8771C1.29815 10.5654 0.561279 8.78648 0.561279 6.93155C0.561279 6.51734 0.897066 6.18155 1.31128 6.18155ZM12.101 2.57301C12.4284 2.31935 12.8995 2.37918 13.1532 2.70664C13.541 3.20726 13.8571 3.75951 14.0923 4.34744C14.2462 4.73201 14.0592 5.16851 13.6746 5.32239C13.2901 5.47627 12.8536 5.28926 12.6997 4.9047C12.5162 4.44624 12.2698 4.0156 11.9674 3.62522C11.7137 3.29776 11.7735 2.82667 12.101 2.57301Z" fill="white"/>
</g>
<defs>
<clipPath id="clip0_1459_3531">
<rect width="14" height="14" fill="white" transform="translate(0.55542 0.00830078)"/>
</clipPath>
</defs>
</svg>
