<svg width="15" height="15" viewBox="0 0 15 15" fill="none" xmlns="http://www.w3.org/2000/svg">
<g clip-path="url(#clip0_1459_3765)">
<path fill-rule="evenodd" clip-rule="evenodd" d="M2.57227 6.05481C2.57227 3.84567 4.36313 2.05481 6.57227 2.05481C8.7814 2.05481 10.5722 3.84567 10.5722 6.05481C10.5722 8.26395 8.7814 10.0548 6.57227 10.0548C4.36313 10.0548 2.57227 8.26395 2.57227 6.05481ZM6.57227 0.0548096C3.25856 0.0548096 0.572266 2.74111 0.572266 6.05481C0.572266 9.36852 3.25856 12.0548 6.57227 12.0548C7.8681 12.0548 9.06798 11.644 10.0488 10.9456L12.8318 13.7286C13.2223 14.1191 13.8555 14.1191 14.246 13.7286C14.6365 13.338 14.6365 12.7049 14.246 12.3144L11.463 9.53135C12.1615 8.55053 12.5722 7.35064 12.5722 6.05481C12.5722 2.74111 9.88597 0.0548096 6.57227 0.0548096Z" fill="white"/>
</g>
<defs>
<clipPath id="clip0_1459_3765">
<rect width="14" height="14" fill="white" transform="translate(0.55542 0.0380859)"/>
</clipPath>
</defs>
</svg>
