<svg width="15" height="15" viewBox="0 0 15 15" fill="currentColor" xmlns="http://www.w3.org/2000/svg">
<g clip-path="url(#clip0_1459_3763)">
<path fill-rule="evenodd" clip-rule="evenodd" d="M3.80701 0.288086C3.2696 0.288086 2.74935 0.343587 2.26924 0.398804C1.5589 0.480497 0.991118 1.04692 0.912088 1.75981C0.859023 2.23849 0.807007 2.7548 0.807007 3.28809C0.807007 3.82138 0.859023 4.33769 0.912088 4.81637C0.991118 5.52926 1.55891 6.09568 2.26924 6.17737C2.74935 6.23259 3.2696 6.28809 3.80701 6.28809C4.34441 6.28809 4.86467 6.23259 5.34478 6.17737C6.05511 6.09568 6.6229 5.52926 6.70193 4.81637C6.75499 4.33769 6.80701 3.82138 6.80701 3.28809C6.80701 2.7548 6.75499 2.23849 6.70193 1.75981C6.6229 1.04692 6.05511 0.480497 5.34478 0.398804C4.86467 0.343587 4.34441 0.288086 3.80701 0.288086ZM11.6634 0.467224C11.5695 0.35495 11.431 0.289487 11.2847 0.288108C11.1383 0.28673 10.9986 0.349574 10.9026 0.460058C9.69239 1.85228 8.80923 2.87076 8.12135 4.26712C7.6302 5.26413 8.43326 6.28809 9.43825 6.28809H13.0882C14.1085 6.28809 14.9082 5.23834 14.3963 4.23991C13.7226 2.92612 12.9002 1.94411 11.8193 0.653425V0.653418V0.653407L11.6634 0.467224ZM8.13916 8.28663C8.13916 7.94145 8.41898 7.66163 8.76416 7.66163H13.7641C14.1093 7.66163 14.3891 7.94145 14.3891 8.28663C14.3891 8.6318 14.1093 8.91163 13.7641 8.91163H8.76416C8.41898 8.91163 8.13916 8.6318 8.13916 8.28663ZM8.13916 13.2866C8.13916 12.9415 8.41898 12.6616 8.76416 12.6616H13.7641C14.1093 12.6616 14.3891 12.9415 14.3891 13.2866C14.3891 13.6318 14.1093 13.9116 13.7641 13.9116H8.76416C8.41898 13.9116 8.13916 13.6318 8.13916 13.2866ZM8.76416 10.1616C8.41898 10.1616 8.13916 10.4415 8.13916 10.7866C8.13916 11.1318 8.41898 11.4116 8.76416 11.4116H13.7641C14.1093 11.4116 14.3891 11.1318 14.3891 10.7866C14.3891 10.4415 14.1093 10.1616 13.7641 10.1616H8.76416ZM3.80698 7.53516C2.01119 7.53516 0.55542 8.99093 0.55542 10.7867C0.55542 12.5825 2.01119 14.0383 3.80698 14.0383C5.60277 14.0383 7.05855 12.5825 7.05855 10.7867C7.05855 8.99093 5.60277 7.53516 3.80698 7.53516Z" fill="white"/>
</g>
<defs>
<clipPath id="clip0_1459_3763">
<rect width="14" height="14" fill="white" transform="translate(0.55542 0.0380859)"/>
</clipPath>
</defs>
</svg>
