<svg width="15" height="15" viewBox="0 0 15 15" fill="none" xmlns="http://www.w3.org/2000/svg">
<g clip-path="url(#clip0_1459_3741)">
<path fill-rule="evenodd" clip-rule="evenodd" d="M13.4529 3.59134C14.1229 2.05996 12.5567 0.636915 11.0887 1.27032C10.6076 1.47786 10.1308 1.70816 9.5985 1.98764C9.50001 2.03935 9.37917 2.02046 9.30116 1.94117C8.83626 1.46863 8.41859 1.07308 7.98691 0.703518C6.7715 -0.336972 4.88625 0.578171 5.07947 2.22146C5.1459 2.78645 5.251 3.35679 5.40218 4.01336C5.40273 4.01577 5.4026 4.01818 5.40127 4.02101C5.39996 4.0238 5.39843 4.02503 5.39681 4.02584C4.62634 4.41038 4.00393 4.76085 3.41018 5.14557C2.06471 6.01735 2.39258 8.09808 4.01837 8.40963C4.57374 8.51605 5.13639 8.58566 5.77847 8.6304C5.90625 8.6393 6.00758 8.74218 6.01463 8.87007C6.05129 9.53569 6.11735 10.1155 6.22685 10.6861C6.54109 12.3236 8.61664 12.5883 9.47351 11.2693C9.87078 10.6578 10.2286 10.0293 10.6258 9.25586C10.6265 9.25456 10.6275 9.25325 10.63 9.25206C10.6327 9.25083 10.635 9.25068 10.6374 9.25122C11.2702 9.39509 11.8214 9.49609 12.3618 9.56202C14.0304 9.76557 14.9336 7.84617 13.8884 6.62726C13.5365 6.21701 13.1651 5.81868 12.7296 5.37946C12.649 5.29817 12.6333 5.17277 12.6909 5.07386C12.9957 4.55062 13.241 4.07576 13.4529 3.59134ZM0.995304 12.5342L3.78192 9.74754C3.8401 9.68935 3.92317 9.66368 4.00422 9.67787C4.21287 9.7144 4.42247 9.74623 4.63567 9.77395C4.75163 9.78903 4.84263 9.88112 4.85645 9.99724C4.87925 10.189 4.90567 10.3777 4.93617 10.5653C4.94921 10.6456 4.92343 10.7274 4.86596 10.7848L2.05597 13.5948C1.76307 13.8877 1.2882 13.8877 0.995305 13.5948C0.702412 13.3019 0.702411 12.8271 0.995304 12.5342Z" fill="white"/>
</g>
<defs>
<clipPath id="clip0_1459_3741">
<rect width="14" height="14" fill="white" transform="translate(0.55542 0.0380859)"/>
</clipPath>
</defs>
</svg>
