<svg width="15" height="15" viewBox="0 0 15 15" fill="none" xmlns="http://www.w3.org/2000/svg">
<g clip-path="url(#clip0_1459_3733)">
<path fill-rule="evenodd" clip-rule="evenodd" d="M7.55542 0.600586C7.28235 0.600586 7.03167 0.751584 6.90401 0.992967C6.90057 0.999463 6.89728 1.00603 6.89413 1.01267L4.62881 5.79455C4.45326 6.11291 4.00722 6.14214 3.79106 5.85254L2.26017 3.1437C2.25273 3.13052 2.24469 3.11769 2.23608 3.10525C2.07257 2.86888 1.79484 2.77007 1.53939 2.82362C1.27564 2.87891 1.0511 3.09567 1.01812 3.40387C0.903828 4.47217 0.80542 5.58523 0.80542 6.72559C0.80542 7.86594 0.903828 8.979 1.01812 10.0473C1.19733 11.7223 2.54074 13.0646 4.21269 13.2509C5.28654 13.3706 6.4071 13.4756 7.55542 13.4756C8.70374 13.4756 9.8243 13.3706 10.8981 13.2509C12.5701 13.0646 13.9135 11.7223 14.0927 10.0473C14.207 8.979 14.3054 7.86594 14.3054 6.72559C14.3054 5.58523 14.207 4.47217 14.0927 3.40387C14.0597 3.09567 13.8352 2.87891 13.5714 2.82362C13.316 2.77007 13.0382 2.86888 12.8747 3.10525C12.8661 3.11769 12.8581 3.13052 12.8506 3.1437L11.3198 5.85254C11.1036 6.14214 10.6576 6.11291 10.482 5.79455L8.21671 1.01267C8.21356 1.00603 8.21027 0.999464 8.20683 0.992969C8.07917 0.751583 7.82848 0.600586 7.55542 0.600586Z" fill="white"/>
</g>
<defs>
<clipPath id="clip0_1459_3733">
<rect width="14" height="14" fill="white" transform="translate(0.55542 0.0380859)"/>
</clipPath>
</defs>
</svg>
