<svg width="15" height="15" viewBox="0 0 15 15" fill="currentColor" xmlns="http://www.w3.org/2000/svg">
<g clip-path="url(#clip0_1459_3747)">
<path fill-rule="evenodd" clip-rule="evenodd" d="M13.9095 0.675141C13.1298 -0.104543 11.8584 -0.0804222 11.1089 0.728277L7.79542 4.30327C7.65018 4.45997 7.54009 4.64589 7.47252 4.84859L6.97321 6.34652C6.71263 7.12828 7.45636 7.87202 8.23812 7.61143L9.73605 7.11212C9.93875 7.04456 10.1247 6.93447 10.2814 6.78923L13.8563 3.47573C14.665 2.72619 14.6892 1.45483 13.9095 0.675141ZM6.8786 3.45355C6.61233 3.74084 6.4105 4.0817 6.28663 4.45331L5.78732 5.95124C5.201 7.71019 6.87441 9.3836 8.63337 8.79729L10.1313 8.29798C10.5029 8.17411 10.8437 7.97228 11.131 7.706L12.9851 5.98754C13.1379 5.84594 13.386 5.94238 13.3999 6.15022C13.431 6.61454 13.4505 7.08796 13.4505 7.56734C13.4505 7.81326 13.4453 8.05761 13.4361 8.29996C13.4355 8.31789 13.4368 8.33582 13.4395 8.35357C13.4492 8.41835 13.4526 8.48505 13.4492 8.55299C13.4069 9.39609 13.3192 10.2178 13.2325 10.9945C13.1341 11.8749 12.6638 12.6399 11.9915 13.1347C11.5658 13.4547 11.0527 13.6688 10.4944 13.7334C9.66438 13.8294 8.77973 13.9286 7.87116 13.9695C7.81298 13.9721 7.75573 13.9697 7.69985 13.9627C7.68473 13.9608 7.66949 13.9598 7.65426 13.9603C7.45528 13.9669 7.25501 13.9705 7.0537 13.9705C5.8424 13.9705 4.66876 13.8398 3.58793 13.7148C2.1679 13.5505 1.0341 12.4196 0.874918 10.9945C0.754498 9.91646 0.631884 8.75134 0.631884 7.54871C0.631884 7.30279 0.63701 7.05844 0.646197 6.81609C0.646877 6.79816 0.645533 6.78023 0.642873 6.76248C0.633162 6.6977 0.629706 6.631 0.633115 6.56306C0.675411 5.71996 0.763122 4.89828 0.849887 4.12154C0.94823 3.24115 1.41854 2.47615 2.09084 1.98137C2.51663 1.66137 3.02969 1.44724 3.58793 1.38266C4.41799 1.28664 5.30264 1.18747 6.2112 1.14654C6.26938 1.14392 6.32663 1.14633 6.38252 1.15338C6.39764 1.15528 6.41287 1.15624 6.4281 1.15573C6.62708 1.14914 6.82735 1.14552 7.02866 1.14552C7.50055 1.14552 7.96672 1.16537 8.42391 1.19698C8.63137 1.21133 8.72724 1.45903 8.58587 1.61155L6.8786 3.45355Z" fill="white"/>
</g>
<defs>
<clipPath id="clip0_1459_3747">
<rect width="14" height="14" fill="white" transform="translate(0.55542 0.0380859)"/>
</clipPath>
</defs>
</svg>
