<svg width="15" height="15" viewBox="0 0 15 15" fill="currentColor" xmlns="http://www.w3.org/2000/svg">
<g clip-path="url(#clip0_1459_3749)">
<path fill-rule="evenodd" clip-rule="evenodd" d="M3.80469 1.92041C3.80469 1.88042 3.76998 1.84882 3.73029 1.85375C3.6983 1.85773 3.66626 1.86169 3.63414 1.86563C2.92724 1.95248 2.35612 2.52143 2.30475 3.25115C2.09731 6.19787 2.09731 8.9832 2.30475 11.9299C2.3559 12.6564 2.92771 13.2391 3.65534 13.3001C6.33088 13.5244 8.77997 13.5244 11.4555 13.3001C12.1831 13.2391 12.7549 12.6564 12.8061 11.9299C13.0135 8.9832 13.0135 6.19787 12.8061 3.25115C12.7547 2.52143 12.1836 1.95248 11.4767 1.86563C11.4445 1.86168 11.4124 1.85772 11.3804 1.85374C11.3407 1.8488 11.306 1.88041 11.306 1.92041C11.306 3.33564 10.1587 4.48291 8.7435 4.48291H6.36719C4.95196 4.48291 3.80469 3.33565 3.80469 1.92041ZM5.08135 1.6559C5.20374 1.05782 5.73292 0.60791 6.36719 0.60791H8.7435C9.40387 0.60791 9.95033 1.09561 10.0424 1.73047C10.0514 1.79249 10.056 1.85591 10.056 1.92041C10.056 2.64529 9.46838 3.23291 8.7435 3.23291H6.36719C5.64232 3.23291 5.05469 2.64529 5.05469 1.92041C5.05469 1.85591 5.05934 1.79249 5.06833 1.73047C5.07197 1.70538 5.07632 1.68051 5.08135 1.6559Z" fill="white"/>
</g>
<defs>
<clipPath id="clip0_1459_3749">
<rect width="14" height="14" fill="white" transform="translate(0.55542 0.0380859)"/>
</clipPath>
</defs>
</svg>
