<svg width="15" height="14" viewBox="0 0 15 14" fill="currentColor" xmlns="http://www.w3.org/2000/svg">
<g clip-path="url(#clip0_1459_3527)">
<path fill-rule="evenodd" clip-rule="evenodd" d="M5.30522 0.883301C5.30522 0.469087 5.64101 0.133301 6.05522 0.133301H7.55522H9.05522C9.46943 0.133301 9.80522 0.469087 9.80522 0.883301C9.80522 1.29751 9.46943 1.6333 9.05522 1.6333H8.30522V2.93401C10.988 3.2998 13.0552 5.60014 13.0552 8.3833C13.0552 11.4209 10.5928 13.8833 7.55522 13.8833C4.51765 13.8833 2.05522 11.4209 2.05522 8.3833C2.05522 5.60014 4.12246 3.2998 6.80522 2.93401V1.6333H6.05522C5.64101 1.6333 5.30522 1.29751 5.30522 0.883301ZM3.37051 2.73223C3.70317 2.48543 3.77279 2.01569 3.52599 1.68302C3.2792 1.35036 2.80946 1.28075 2.47679 1.52754C1.81333 2.01974 1.2239 2.60592 0.728089 3.2665C0.47944 3.59778 0.546426 4.06791 0.877706 4.31656C1.20899 4.56521 1.67911 4.49822 1.92776 4.16694C2.3368 3.62197 2.82318 3.13827 3.37051 2.73223ZM11.5849 1.68302C11.3381 2.01569 11.4077 2.48543 11.7404 2.73223C12.2877 3.13827 12.7741 3.62197 13.1831 4.16694C13.4318 4.49822 13.9019 4.56521 14.2332 4.31656C14.5645 4.06791 14.6315 3.59778 14.3828 3.2665C13.887 2.60592 13.2976 2.01974 12.6341 1.52754C12.3015 1.28075 11.8317 1.35036 11.5849 1.68302ZM7.55522 5.76807C7.9004 5.76807 8.18022 6.04789 8.18022 6.39307V8.13418L9.19716 9.15112C9.44124 9.3952 9.44124 9.79093 9.19716 10.035C8.95308 10.2791 8.55736 10.2791 8.31328 10.035L7.11328 8.83501C6.99607 8.7178 6.93022 8.55883 6.93022 8.39307V6.39307C6.93022 6.04789 7.21004 5.76807 7.55522 5.76807Z" fill="white"/>
</g>
<defs>
<clipPath id="clip0_1459_3527">
<rect width="14" height="14" fill="white" transform="translate(0.55542 0.00830078)"/>
</clipPath>
</defs>
</svg>
