<svg width="15" height="14" viewBox="0 0 15 14" fill="currentColor" xmlns="http://www.w3.org/2000/svg">
<g clip-path="url(#clip0_1459_3529)">
<path fill-rule="evenodd" clip-rule="evenodd" d="M2.26697 0.00830078C1.85275 0.00830078 1.51697 0.344087 1.51697 0.758301C1.51697 1.17251 1.85275 1.5083 2.26697 1.5083H3.54683C3.49405 1.66552 3.44124 1.82508 3.3912 1.98461C3.244 2.45387 3.11223 2.94881 3.06434 3.44782C3.01603 3.95114 3.05168 4.47087 3.24893 4.98382C3.44699 5.49885 3.79593 5.97568 4.32712 6.40977C4.61581 6.64569 4.93664 6.84597 5.28017 7.0083C4.93664 7.17063 4.61581 7.37091 4.32712 7.60683C3.79593 8.04092 3.44699 8.51775 3.24893 9.03278C3.05168 9.54573 3.01603 10.0655 3.06434 10.5688C3.11223 11.0678 3.244 11.5627 3.3912 12.032C3.44124 12.1915 3.49405 12.3511 3.54683 12.5083H2.26697C1.85275 12.5083 1.51697 12.8441 1.51697 13.2583C1.51697 13.6725 1.85275 14.0083 2.26697 14.0083H12.8439C13.2581 14.0083 13.5939 13.6725 13.5939 13.2583C13.5939 12.8441 13.2581 12.5083 12.8439 12.5083H11.5642C11.617 12.3511 11.6698 12.1915 11.7198 12.032C11.867 11.5627 11.9988 11.0678 12.0467 10.5688C12.095 10.0655 12.0593 9.54573 11.8621 9.03278C11.664 8.51775 11.3151 8.04092 10.7839 7.60683C10.4952 7.37091 10.1744 7.17063 9.83086 7.0083C10.1744 6.84597 10.4952 6.64569 10.7839 6.40977C11.3151 5.97568 11.664 5.49885 11.8621 4.98382C12.0593 4.47087 12.095 3.95114 12.0467 3.44782C11.9988 2.94881 11.867 2.45387 11.7198 1.98461C11.6698 1.82508 11.617 1.66552 11.5642 1.5083H12.8439C13.2581 1.5083 13.5939 1.17251 13.5939 0.758301C13.5939 0.344087 13.2581 0.00830078 12.8439 0.00830078H2.26697ZM10.2011 10.2216C10.4073 10.3175 10.5486 10.5259 10.5065 10.7494C10.4586 11.0039 10.3836 11.28 10.2885 11.5831C10.2534 11.6951 10.2169 11.8066 10.1799 11.918C10.1122 12.1216 9.92103 12.2583 9.70648 12.2583H5.40438C5.18983 12.2583 4.99867 12.1216 4.93097 11.918C4.89393 11.8066 4.85748 11.6951 4.82235 11.5831C4.7273 11.28 4.65228 11.004 4.60434 10.7494C4.56225 10.5259 4.70354 10.3175 4.90977 10.2216C5.20793 10.0831 5.49812 9.90924 5.78957 9.73461C6.19293 9.49294 6.59873 9.2498 7.03147 9.09682C7.1907 9.04054 7.36501 9.0083 7.55545 9.0083C7.74588 9.0083 7.9202 9.04054 8.07942 9.09682C8.51216 9.2498 8.91796 9.49294 9.32133 9.73461C9.61277 9.90923 9.90294 10.0831 10.2011 10.2216Z" fill="white"/>
</g>
<defs>
<clipPath id="clip0_1459_3529">
<rect width="14" height="14" fill="white" transform="translate(0.55542 0.00830078)"/>
</clipPath>
</defs>
</svg>
