<svg width="15" height="15" viewBox="0 0 15 15" fill="none" xmlns="http://www.w3.org/2000/svg">
<g clip-path="url(#clip0_1459_3761)">
<path fill-rule="evenodd" clip-rule="evenodd" d="M6.07581 0.288086C5.09632 0.288086 4.13699 0.322687 3.20517 0.389013C1.96913 0.476995 0.968608 1.40981 0.908958 2.60888C0.837924 4.03678 0.800537 5.51863 0.800537 7.03809C0.800537 8.55755 0.837924 10.0394 0.908958 11.4673C0.968609 12.6664 1.96913 13.5992 3.20517 13.6872C4.13699 13.7535 5.09632 13.7881 6.07581 13.7881C7.05529 13.7881 8.01463 13.7535 8.94644 13.6872C10.1825 13.5992 11.183 12.6664 11.2426 11.4673C11.2719 10.8786 11.2955 10.2806 11.3131 9.67469C11.3212 9.39411 11.0954 9.16309 10.8147 9.16309H8.94884C8.74177 9.16309 8.5739 9.33095 8.5739 9.53803C8.5739 10.2144 8.18411 10.8303 7.57277 11.1197C6.96144 11.4092 6.23803 11.3204 5.71482 10.8917C4.53072 9.92156 3.89817 9.29027 2.96527 8.14101C2.44354 7.49829 2.44354 6.57791 2.96527 5.93518C3.89816 4.78593 4.53072 4.15464 5.71482 3.18449C6.23803 2.75582 6.96143 2.66705 7.57277 2.9565C8.18411 3.24594 8.5739 3.86177 8.5739 4.53817C8.5739 4.74523 8.74176 4.91309 8.94882 4.91309H10.8147C11.0954 4.91309 11.3212 4.68206 11.3131 4.40148C11.2955 3.79554 11.2719 3.19762 11.2426 2.60888C11.183 1.40981 10.1825 0.476995 8.94644 0.389013C8.01463 0.322687 7.05529 0.288086 6.07581 0.288086ZM7.03794 9.98993C7.2126 9.90723 7.32397 9.73128 7.32397 9.53802V8.03809H13.3104C13.8627 8.03809 14.3104 7.59037 14.3104 7.03809C14.3104 6.4858 13.8627 6.03809 13.3104 6.03809H7.32397V4.53817C7.32397 4.34491 7.2126 4.16896 7.03794 4.08626C6.86327 4.00356 6.65658 4.02893 6.50709 4.1514C5.38532 5.07048 4.81312 5.64225 3.93585 6.72298C3.78678 6.90661 3.78678 7.16958 3.93585 7.35321C4.81312 8.43395 5.38532 9.00571 6.50709 9.92479C6.65658 10.0473 6.86327 10.0726 7.03794 9.98993Z" fill="white"/>
</g>
<defs>
<clipPath id="clip0_1459_3761">
<rect width="14" height="14" fill="white" transform="translate(0.55542 0.0380859)"/>
</clipPath>
</defs>
</svg>
