<svg width="15" height="15" viewBox="0 0 15 15" fill="currentColor" xmlns="http://www.w3.org/2000/svg">
<g clip-path="url(#clip0_1459_3755)">
<path fill-rule="evenodd" clip-rule="evenodd" d="M7.55542 0.288086C6.82339 0.288086 6.18088 0.495518 5.72187 0.954533C5.26285 1.41355 5.05542 2.05606 5.05542 2.78809C5.05542 3.52012 5.26285 4.16263 5.72187 4.62164C6.01596 4.91574 6.38539 5.10656 6.80542 5.20571V6.53809H4.55542C3.03664 6.53809 1.80542 7.76931 1.80542 9.28809V9.99669C1.63461 10.0793 1.47864 10.1878 1.34187 10.3245C0.967852 10.6986 0.80542 11.2161 0.80542 11.7881C0.80542 12.3601 0.967852 12.8776 1.34187 13.2517C1.71588 13.6257 2.23339 13.7881 2.80542 13.7881C3.37745 13.7881 3.89496 13.6257 4.26897 13.2517C4.64299 12.8776 4.80542 12.3601 4.80542 11.7881C4.80542 11.2161 4.64299 10.6986 4.26897 10.3245C4.0077 10.0633 3.67641 9.90524 3.30542 9.83371V9.28809C3.30542 8.59773 3.86506 8.03809 4.55542 8.03809H6.80542V9.89722C6.53533 9.98363 6.29288 10.1235 6.09187 10.3245C5.71785 10.6986 5.55542 11.2161 5.55542 11.7881C5.55542 12.3601 5.71785 12.8776 6.09187 13.2517C6.46588 13.6257 6.98339 13.7881 7.55542 13.7881C8.12745 13.7881 8.64496 13.6257 9.01897 13.2517C9.39299 12.8776 9.55542 12.3601 9.55542 11.7881C9.55542 11.2161 9.39299 10.6986 9.01897 10.3245C8.81796 10.1235 8.57551 9.98363 8.30542 9.89722V8.03809H10.5554C11.2458 8.03809 11.8054 8.59773 11.8054 9.28809V9.83371C11.4344 9.90524 11.1031 10.0633 10.8418 10.3245C10.4678 10.6986 10.3054 11.2161 10.3054 11.7881C10.3054 12.3601 10.4678 12.8776 10.8418 13.2517C11.2159 13.6257 11.7334 13.7881 12.3054 13.7881C12.8774 13.7881 13.3949 13.6257 13.769 13.2517C14.143 12.8776 14.3054 12.3601 14.3054 11.7881C14.3054 11.2161 14.143 10.6986 13.769 10.3245C13.6322 10.1878 13.4762 10.0793 13.3054 9.99669V9.28809C13.3054 7.76931 12.0742 6.53809 10.5554 6.53809H8.30542V5.20571C8.72545 5.10656 9.09488 4.91574 9.38897 4.62164C9.84799 4.16263 10.0554 3.52012 10.0554 2.78809C10.0554 2.05606 9.84799 1.41355 9.38897 0.954533C8.92996 0.495518 8.28745 0.288086 7.55542 0.288086Z" fill="white"/>
</g>
<defs>
<clipPath id="clip0_1459_3755">
<rect width="14" height="14" fill="white" transform="translate(0.55542 0.0380859)"/>
</clipPath>
</defs>
</svg>
