<svg width="15" height="15" viewBox="0 0 15 15" fill="currentColor" xmlns="http://www.w3.org/2000/svg">
<g clip-path="url(#clip0_1459_3649)">
<path fill-rule="evenodd" clip-rule="evenodd" d="M7.00483 1.45591C7.28641 1.05513 7.74553 0.816589 8.23533 0.816589C9.14873 0.816589 9.85121 1.62418 9.72468 2.52877L9.52907 3.92719L9.52916 3.9273H9.53406H9.53897H9.54389H9.54881H9.55374H9.55867H9.56362H9.56857H9.57353H9.57849H9.58347H9.58845H9.59343H9.59843H9.60343H9.60843H9.61345H9.61847H9.62349H9.62853H9.63357H9.63861H9.64366H9.64872H9.65379H9.65886H9.66394H9.66902H9.67411H9.67921H9.68431H9.68941H9.69453H9.69965H9.70477H9.7099H9.71504H9.72018H9.72533H9.73048H9.73564H9.7408H9.74597H9.75115H9.75633H9.76151H9.7667H9.7719H9.7771H9.7823H9.78751H9.79273H9.79795H9.80317H9.8084H9.81363H9.81887H9.82411H9.82936H9.83461H9.83987H9.84513H9.8504H9.85567H9.86094H9.86622H9.8715H9.87679H9.88208H9.88737H9.89267H9.89797H9.90327H9.90858H9.9139H9.91921H9.92453H9.92986H9.93518H9.94052H9.94585H9.95119H9.95653H9.96187H9.96722H9.97257H9.97792H9.98328H9.98864H9.994H9.99936H10.0047H10.0101H10.0155H10.0209H10.0262H10.0316H10.037H10.0424H10.0478H10.0532H10.0585H10.0639H10.0694H10.0747H10.0801H10.0856H10.091H10.0964H10.1018H10.1072H10.1126H10.118H10.1234H10.1288H10.1343H10.1397H10.1451H10.1505H10.156H10.1614H10.1668H10.1722H10.1777H10.1831H10.1885H10.194H10.1994H10.2049H10.2103H10.2157H10.2212H10.2266H10.232H10.2375H10.2429H10.2484H10.2538H10.2593H10.2647H10.2701H10.2756H10.281H10.2865H10.2919H10.2974H10.3028H10.3082H10.3137H10.3191H10.3246H10.33H10.3355H10.3409H10.3463H10.3518H10.3572H10.3627H10.3681H10.3735H10.379H10.3844H10.3899H10.3953H10.4007H10.4062H10.4116H10.417H10.4225H10.4279H10.4333H10.4387H10.4442H10.4496H10.455H10.4604H10.4659H10.4713H10.4767H10.4821H10.4875H10.4929H10.4983H10.5037H10.5091H10.5146H10.5199H10.5253H10.5308H10.5361H10.5415H10.5469H10.5523H10.5577H10.5631H10.5684H10.5738H10.5792H10.5846H10.5899H10.5953H10.6007H10.606H10.6114H10.6167H10.6221H10.6274H10.6328H10.6381H10.6435H10.6488H10.6541H10.6595H10.6648H10.6701H10.6754H10.6807H10.6861H10.6914H10.6967H10.702H10.7073H10.7126H10.7178H10.7231H10.7284H10.7337H10.739H10.7442H10.7495H10.7548H10.76H10.7653H10.7705H10.7757H10.781H10.7862H10.7914H10.7967H10.8019H10.8071H10.8123H10.8175H10.8227H10.8279H10.8331H10.8383H10.8434H10.8486H10.8538H10.8589H10.8641H10.8692H10.8744H10.8795H10.8847H10.8898H10.8949H10.9H10.9051H10.9102H10.9153H10.9204H10.9255H10.9306H10.9357H10.9408H10.9458H10.9509H10.9559H10.961H10.966H10.971H10.9761H10.9811H10.9861H10.9911H10.9961H11.0011H11.0061H11.011H11.016H11.021H11.0259H11.0309H11.0358H11.0407H11.0457H11.0506H11.0555H11.0604H11.0653H11.0702H11.0751H11.08H11.0848H11.0897H11.0945H11.0994H11.1042H11.109H11.1139H11.1187H11.1235H11.1283H11.1331H11.1378H11.1426H11.1474H11.1521H11.1569H11.1616H11.1663H11.171H11.1758H11.1805H11.1852H11.1898H11.1945H11.1992H11.2038H11.2085H11.2131H11.2178H11.2224H11.227H11.2316H11.2362H11.2408H11.2453H11.2499H11.2545H11.259H11.2635H11.2681H11.2726H11.2771H11.2816H11.2861H11.2906H11.295H11.2995H11.3039H11.3084H11.3128H11.3172H11.3216H11.326H11.3304H11.3348H11.3391H11.3435H11.3478H11.3522H11.3565H11.3608H11.3651H11.3694H11.3737H11.3779H11.3822H11.3864H11.3907H11.3949H11.3991H11.4033H11.4075H11.4117H11.4159H11.42H11.4242H11.4283H11.4324H11.4365H11.4406H11.4447C12.0114 3.9273 12.7714 4.19569 13.3887 4.68954C14.0219 5.19606 14.5554 5.9819 14.5554 7.03801C14.5554 8.02414 14.078 9.53967 13.3868 10.7928C13.0372 11.4267 12.6156 12.0261 12.141 12.4738C11.6726 12.9158 11.0987 13.2594 10.4543 13.2594C8.02401 13.2594 5.94025 12.6996 4.88182 12.3988C4.85894 12.3923 4.83595 12.3892 4.81217 12.3892C4.67037 12.3892 4.55542 12.2742 4.55542 12.1324V5.25837C4.55542 5.05261 4.61889 4.85185 4.73718 4.68349L7.00483 1.45591ZM1.93042 4.56659C1.17103 4.56659 0.55542 5.1822 0.55542 5.94159V11.6916C0.55542 12.451 1.17103 13.0666 1.93042 13.0666C2.68981 13.0666 3.30542 12.451 3.30542 11.6916V5.94159C3.30542 5.1822 2.68981 4.56659 1.93042 4.56659Z" fill="white"/>
</g>
<defs>
<clipPath id="clip0_1459_3649">
<rect width="14" height="14" fill="white" transform="translate(0.55542 0.0380249)"/>
</clipPath>
</defs>
</svg>
