<svg width="15" height="14" viewBox="0 0 15 14" fill="none" xmlns="http://www.w3.org/2000/svg">
<g clip-path="url(#clip0_1459_3537)">
<path fill-rule="evenodd" clip-rule="evenodd" d="M0.55542 7.0083C0.55542 3.14231 3.68943 0.00830078 7.55542 0.00830078C11.4214 0.00830078 14.5554 3.14231 14.5554 7.0083C14.5554 10.8743 11.4214 14.0083 7.55542 14.0083C3.68943 14.0083 0.55542 10.8743 0.55542 7.0083ZM5.18066 5.55495C5.18066 4.2434 6.24389 3.18018 7.55544 3.18018C8.867 3.18018 9.93022 4.2434 9.93022 5.55495C9.93022 6.86651 8.867 7.92973 7.55544 7.92973C6.24389 7.92973 5.18066 6.86651 5.18066 5.55495ZM11.1751 10.6452C11.2984 10.8326 11.2592 11.0805 11.0873 11.2247C10.1318 12.0259 8.9 12.5083 7.55553 12.5083C6.21104 12.5083 4.97922 12.0259 4.02373 11.2247C3.85179 11.0805 3.81261 10.8326 3.93594 10.6451C4.17572 10.2807 4.47086 9.95195 4.81355 9.67185C5.58738 9.03936 6.55607 8.69385 7.5555 8.69385C8.55492 8.69385 9.52362 9.03936 10.2975 9.67185C10.6401 9.95196 10.9353 10.2807 11.1751 10.6452Z" fill="white"/>
</g>
<defs>
<clipPath id="clip0_1459_3537">
<rect width="14" height="14" fill="white" transform="translate(0.55542 0.00830078)"/>
</clipPath>
</defs>
</svg>
