<svg width="15" height="14" viewBox="0 0 15 14" fill="none" xmlns="http://www.w3.org/2000/svg">
<g clip-path="url(#clip0_1459_3523)">
<path fill-rule="evenodd" clip-rule="evenodd" d="M1.55542 0.383301C1.21024 0.383301 0.93042 0.663123 0.93042 1.0083C0.93042 1.35348 1.21024 1.6333 1.55542 1.6333H13.5554C13.9006 1.6333 14.1804 1.35348 14.1804 1.0083C14.1804 0.663123 13.9006 0.383301 13.5554 0.383301H1.55542ZM1.55542 3.3833C1.21024 3.3833 0.93042 3.66312 0.93042 4.0083C0.93042 4.35348 1.21024 4.6333 1.55542 4.6333H2.55542C2.9006 4.6333 3.18042 4.35348 3.18042 4.0083C3.18042 3.66312 2.9006 3.3833 2.55542 3.3833H1.55542ZM11.9304 4.0083C11.9304 3.66312 12.2102 3.3833 12.5554 3.3833H13.5554C13.9006 3.3833 14.1804 3.66312 14.1804 4.0083C14.1804 4.35348 13.9006 4.6333 13.5554 4.6333H12.5554C12.2102 4.6333 11.9304 4.35348 11.9304 4.0083ZM1.55542 9.3833C1.21024 9.3833 0.93042 9.66312 0.93042 10.0083C0.93042 10.3535 1.21024 10.6333 1.55542 10.6333H2.55542C2.9006 10.6333 3.18042 10.3535 3.18042 10.0083C3.18042 9.66312 2.9006 9.3833 2.55542 9.3833H1.55542ZM11.9304 10.0083C11.9304 9.66312 12.2102 9.3833 12.5554 9.3833H13.5554C13.9006 9.3833 14.1804 9.66312 14.1804 10.0083C14.1804 10.3535 13.9006 10.6333 13.5554 10.6333H12.5554C12.2102 10.6333 11.9304 10.3535 11.9304 10.0083ZM1.55542 6.3833C1.21024 6.3833 0.93042 6.66312 0.93042 7.0083C0.93042 7.35348 1.21024 7.6333 1.55542 7.6333H2.55542C2.9006 7.6333 3.18042 7.35348 3.18042 7.0083C3.18042 6.66312 2.9006 6.3833 2.55542 6.3833H1.55542ZM11.9304 7.0083C11.9304 6.66312 12.2102 6.3833 12.5554 6.3833H13.5554C13.9006 6.3833 14.1804 6.66312 14.1804 7.0083C14.1804 7.35348 13.9006 7.6333 13.5554 7.6333H12.5554C12.2102 7.6333 11.9304 7.35348 11.9304 7.0083ZM1.55542 12.3833C1.21024 12.3833 0.93042 12.6631 0.93042 13.0083C0.93042 13.3535 1.21024 13.6333 1.55542 13.6333H13.5554C13.9006 13.6333 14.1804 13.3535 14.1804 13.0083C14.1804 12.6631 13.9006 12.3833 13.5554 12.3833H1.55542ZM7.55542 3.5083C6.98931 3.5083 6.43979 3.56005 5.92211 3.61775C4.99893 3.72065 4.25805 4.46037 4.15899 5.38621C4.10386 5.90149 4.05542 6.44679 4.05542 7.0083C4.05542 7.56981 4.10386 8.1151 4.15899 8.63038C4.25805 9.55623 4.99893 10.2959 5.92211 10.3989C6.43979 10.4566 6.98931 10.5083 7.55542 10.5083C8.12153 10.5083 8.67105 10.4566 9.18873 10.3989C10.1119 10.2959 10.8528 9.55623 10.9518 8.63039C11.007 8.1151 11.0554 7.56981 11.0554 7.0083C11.0554 6.44679 11.007 5.90149 10.9518 5.38621C10.8528 4.46037 10.1119 3.72065 9.18873 3.61775C8.67105 3.56005 8.12153 3.5083 7.55542 3.5083Z" fill="white"/>
</g>
<defs>
<clipPath id="clip0_1459_3523">
<rect width="14" height="14" fill="white" transform="translate(0.55542 0.00830078)"/>
</clipPath>
</defs>
</svg>
