<svg width="15" height="15" viewBox="0 0 15 15" fill="none" xmlns="http://www.w3.org/2000/svg">
<g clip-path="url(#clip0_1459_3675)">
<path fill-rule="evenodd" clip-rule="evenodd" d="M5.66231 2.46109C6.48141 1.95878 7.45022 1.74753 8.40749 1.86129C9.36482 1.97505 10.2551 2.4073 10.9293 3.08814C11.556 3.72108 11.9607 4.53339 12.0856 5.40656C12.7482 5.60473 13.3288 6.01463 13.732 6.57624C14.1746 7.19263 14.3722 7.94827 14.2854 8.69981C14.1987 9.45126 13.8341 10.1433 13.2636 10.6459C11.9606 11.7939 9.74176 12.2731 7.6301 12.2437C5.51604 12.2143 3.31511 11.6727 2.0316 10.5727C1.31688 9.96015 0.877437 9.09221 0.813507 8.15873C0.770984 7.53782 0.897057 6.92354 1.17033 6.37531C1.187 6.35009 1.20204 6.32335 1.21525 6.29516C1.33404 6.0416 1.61684 5.71814 2.03688 5.45547C2.44945 5.19747 2.9469 5.02851 3.456 5.02851C3.96509 5.02851 4.4625 5.19747 4.87504 5.45546C5.29504 5.71813 5.57782 6.04158 5.69662 6.29516C5.84305 6.60773 6.21516 6.74241 6.52773 6.59598C6.84031 6.44954 6.97499 6.07743 6.82855 5.76486C6.58355 5.2419 6.10781 4.75211 5.53784 4.39565C5.16569 4.16291 4.73267 3.97383 4.26289 3.8688C4.60617 3.29903 5.08499 2.81513 5.66231 2.46109Z" fill="white"/>
</g>
<defs>
<clipPath id="clip0_1459_3675">
<rect width="14" height="14" fill="white" transform="translate(0.55542 0.0380249)"/>
</clipPath>
</defs>
</svg>
