<svg width="15" height="14" viewBox="0 0 15 14" fill="none" xmlns="http://www.w3.org/2000/svg">
<g clip-path="url(#clip0_1459_3539)">
<path fill-rule="evenodd" clip-rule="evenodd" d="M7.90895 0.279748C7.71369 0.0844852 7.3971 0.0844852 7.20184 0.279748L5.68461 1.79698C5.52238 1.95921 5.27055 1.99021 5.07381 1.87217L3.674 1.03228C3.50225 0.929234 3.28557 0.938622 3.12338 1.05614C2.96119 1.17366 2.88478 1.37663 2.9292 1.57194L3.63529 4.67585C3.68706 4.90345 3.88942 5.06494 4.12283 5.06494H10.9879C11.2214 5.06494 11.4237 4.90345 11.4755 4.67585L12.1816 1.57194C12.226 1.37663 12.1496 1.17366 11.9874 1.05614C11.8252 0.938622 11.6085 0.929234 11.4368 1.03228L10.037 1.87217C9.84024 1.99021 9.58842 1.95921 9.42618 1.79698L7.90895 0.279748ZM12.1101 6.59951C12.0365 6.42311 11.8603 6.31494 11.6692 6.31494H3.4417C3.25057 6.31494 3.07437 6.42311 3.00077 6.59951C2.65918 7.41823 2.48022 8.40497 2.48022 9.55819C2.48022 10.9811 3.06932 12.0981 4.04307 12.8386C4.99195 13.5601 6.24834 13.8834 7.55545 13.8834C8.86256 13.8834 10.119 13.5601 11.0678 12.8386C12.0416 12.0981 12.6307 10.9811 12.6307 9.55819C12.6307 8.40498 12.4517 7.41824 12.1101 6.59951ZM8.32827 8.5601C8.12869 8.36966 7.81573 8.34853 7.59163 8.50937C7.50637 8.57056 7.41907 8.62946 7.32994 8.68595C6.52843 9.19394 5.54916 9.52829 4.50263 9.58513C4.21831 9.60058 3.97708 9.82958 4.02564 10.1101C4.1428 10.787 4.47939 11.2859 4.95104 11.6446C5.56758 12.1134 6.4738 12.3834 7.55545 12.3834C8.63709 12.3834 9.54331 12.1134 10.1599 11.6446C10.5361 11.3585 10.8264 10.9831 10.9879 10.4993C11.0704 10.2522 10.8987 10.0073 10.6504 9.92831C9.76171 9.64555 8.96275 9.16552 8.32827 8.5601Z" fill="white"/>
</g>
<defs>
<clipPath id="clip0_1459_3539">
<rect width="14" height="14" fill="white" transform="translate(0.55542 0.00830078)"/>
</clipPath>
</defs>
</svg>
