<svg width="15" height="15" viewBox="0 0 15 15" fill="none" xmlns="http://www.w3.org/2000/svg">
<g clip-path="url(#clip0_1459_3737)">
<path fill-rule="evenodd" clip-rule="evenodd" d="M6.4303 0.0546969L4.8054 0.0547008C4.72778 0.054701 4.65123 0.0727735 4.5818 0.107487C3.47013 0.663324 2.66109 1.61979 2.13938 2.40235C1.87554 2.79812 1.67786 3.16051 1.54569 3.42485C1.52969 3.45684 1.51285 3.48934 1.49578 3.52227L1.49576 3.52231L1.49575 3.52234C1.39211 3.72228 1.54022 3.92969 1.76542 3.92969H6.4303C6.70644 3.92969 6.9303 3.70583 6.9303 3.42969V0.554697C6.9303 0.278554 6.70644 0.0546962 6.4303 0.0546969ZM8.1803 0.554692C8.1803 0.27855 8.40415 0.0546921 8.6803 0.0546914L10.3054 0.0546875C10.383 0.0546875 10.4596 0.0727598 10.529 0.107474C11.6407 0.663311 12.4497 1.61978 12.9714 2.40234C13.2353 2.79811 13.4329 3.1605 13.5651 3.42483C13.6865 3.66765 13.5079 3.92969 13.2364 3.92969H8.6803C8.40416 3.92969 8.1803 3.70583 8.1803 3.42969V0.554692ZM1.4944 5.17969C1.24848 5.17969 1.03824 5.35846 1.00632 5.60229C0.721642 7.77718 0.912017 9.78129 1.09438 10.9812C1.23834 11.9284 2.06453 12.5547 2.97657 12.5547H3.12592C3.50208 12.5547 3.75705 12.1357 3.7529 11.7596C3.74995 11.4925 3.80808 11.2234 3.92956 10.9741C4.22272 10.3723 4.83344 9.99048 5.50281 9.99048C5.5318 9.99048 5.5553 9.96698 5.5553 9.93799V8.24436C5.5553 7.13979 6.45073 6.24436 7.5553 6.24436C8.65987 6.24436 9.5553 7.13979 9.5553 8.24436V9.93792C9.5553 9.96695 9.57883 9.99048 9.60786 9.99048C10.2772 9.99048 10.8879 10.3723 11.1811 10.9741C11.3026 11.2234 11.3607 11.4925 11.3577 11.7596C11.3536 12.1357 11.6086 12.5547 11.9847 12.5547H12.1342C13.0463 12.5547 13.8725 11.9284 14.0164 10.9812C14.1988 9.78128 14.3891 7.77718 14.1045 5.60229C14.0726 5.35846 13.8623 5.17969 13.6164 5.17969H7.5553H1.4944ZM6.8053 11.2405H5.50281C5.31156 11.2405 5.13707 11.3496 5.05331 11.5215C4.96956 11.6934 4.99121 11.8981 5.10909 12.0487C5.76461 12.8861 6.22215 13.2857 6.88034 13.7899C7.28376 14.0989 7.82692 14.0989 8.23033 13.7899C8.88853 13.2857 9.34606 12.8861 10.0016 12.0487C10.1195 11.8981 10.1411 11.6934 10.0574 11.5215C9.9736 11.3496 9.79911 11.2405 9.60786 11.2405H8.3053V8.24436C8.3053 7.83015 7.96951 7.49436 7.5553 7.49436C7.14108 7.49436 6.8053 7.83015 6.8053 8.24436V11.2405Z" fill="white"/>
</g>
<defs>
<clipPath id="clip0_1459_3737">
<rect width="14" height="14" fill="white" transform="translate(0.55542 0.0380859)"/>
</clipPath>
</defs>
</svg>
