<svg width="15" height="15" viewBox="0 0 15 15" fill="none" xmlns="http://www.w3.org/2000/svg">
<g clip-path="url(#clip0_1459_3644)">
<path fill-rule="evenodd" clip-rule="evenodd" d="M8.30515 0.787048C8.30515 0.372835 7.96936 0.0370483 7.55515 0.0370483C7.14093 0.0370483 6.80515 0.372835 6.80515 0.787048V0.997912C6.00759 1.02123 5.22878 1.07859 4.47866 1.13706C3.30214 1.22877 2.30134 2.123 2.12746 3.30798C2.05338 3.81282 1.99436 4.34441 1.99436 4.89199C1.99436 5.43958 2.05338 5.97118 2.12746 6.47601C2.30134 7.661 3.30214 8.55522 4.47866 8.64693C5.45329 8.7229 6.47636 8.797 7.52603 8.797C8.57571 8.797 9.59877 8.7229 10.5734 8.64693C11.7499 8.55522 12.7507 7.661 12.9246 6.47601C12.9987 5.97118 13.0577 5.43958 13.0577 4.89199C13.0577 4.34441 12.9987 3.81282 12.9246 3.30798C12.7507 2.123 11.7499 1.22877 10.5734 1.13706C9.84155 1.08001 9.08238 1.02403 8.30515 0.999676V0.787048ZM5.19036 11.5209H1.84607C1.43186 11.5209 1.09607 11.1851 1.09607 10.7709C1.09607 10.3567 1.43186 10.0209 1.84607 10.0209H13.2646C13.6788 10.0209 14.0146 10.3567 14.0146 10.7709C14.0146 11.1851 13.6788 11.5209 13.2646 11.5209H9.91993L10.8236 12.7741C11.0628 13.1058 10.9968 13.594 10.6763 13.8645C10.3558 14.1351 9.90203 14.0856 9.66286 13.7539L8.05264 11.5209H7.05765L5.44743 13.7539C5.20827 14.0856 4.75454 14.1351 4.43401 13.8645C4.11347 13.594 4.04751 13.1058 4.28667 12.7741L5.19036 11.5209Z" fill="white"/>
</g>
<defs>
<clipPath id="clip0_1459_3644">
<rect width="14" height="14" fill="white" transform="translate(0.55542 0.0380249)"/>
</clipPath>
</defs>
</svg>
