<svg width="15" height="15" viewBox="0 0 15 15" fill="none" xmlns="http://www.w3.org/2000/svg">
<g clip-path="url(#clip0_1459_3673)">
<path fill-rule="evenodd" clip-rule="evenodd" d="M7.20174 0.434716C7.39701 0.239454 7.71359 0.239454 7.90885 0.434716L9.70213 2.22799L11.4367 1.18725C11.6084 1.0842 11.8251 1.09359 11.9873 1.21111C12.1495 1.32863 12.2259 1.5316 12.1815 1.7269L11.3869 5.21966H3.72365L2.9291 1.7269C2.88468 1.5316 2.96109 1.32863 3.12328 1.21111C3.28547 1.09359 3.50215 1.0842 3.6739 1.18725L5.40846 2.22799L7.20174 0.434716ZM2.8962 6.46966C2.44109 7.02886 2.146 7.60517 1.9568 8.18229C1.64761 9.1254 1.63091 10.0476 1.61705 10.8131L1.61661 10.8371C1.6074 11.3448 1.59842 11.7635 1.52996 12.1269C1.46369 12.4786 1.34813 12.7378 1.15219 12.9384C1.01164 13.0823 0.971025 13.2964 1.0491 13.4818C1.12718 13.6672 1.30875 13.7877 1.5099 13.7877H13.6009C13.8021 13.7877 13.9836 13.6672 14.0617 13.4818C14.1398 13.2964 14.0992 13.0823 13.9586 12.9384C13.7627 12.7378 13.6471 12.4786 13.5809 12.1269C13.5124 11.7635 13.5034 11.3448 13.4942 10.8371L13.4938 10.8149C13.4799 10.049 13.4632 9.12607 13.1535 8.18217C12.9642 7.60509 12.6689 7.02882 12.2138 6.46966H2.8962ZM10.6191 10.1846C10.6665 10.5216 10.6144 10.8818 10.5127 11.2286C10.1524 12.4566 8.83506 13.0243 7.55529 13.0243C6.27552 13.0243 4.95816 12.4566 4.59789 11.2286C4.49615 10.8818 4.44403 10.5216 4.49143 10.1846C4.55527 9.73061 4.6857 9.297 4.85425 8.89034C5.88079 8.73549 6.85123 8.24565 7.5553 7.64227C8.25936 8.24565 9.2298 8.73547 10.2563 8.89032C10.4249 9.297 10.5553 9.73061 10.6191 10.1846Z" fill="white"/>
</g>
<defs>
<clipPath id="clip0_1459_3673">
<rect width="14" height="14" fill="white" transform="translate(0.55542 0.0380249)"/>
</clipPath>
</defs>
</svg>
