<svg width="15" height="15" viewBox="0 0 15 15" fill="none" xmlns="http://www.w3.org/2000/svg">
<g clip-path="url(#clip0_1459_3667)">
<path fill-rule="evenodd" clip-rule="evenodd" d="M3.12135 3.18744C2.41803 3.89076 2.00122 4.96569 2.00122 6.45457C2.00122 8.31685 2.52306 9.68351 3.42474 10.5852C4.32643 11.4868 5.69309 12.0087 7.55538 12.0087C9.41767 12.0087 10.7843 11.4868 11.686 10.5851C12.5877 9.68347 13.1095 8.31681 13.1095 6.45452C13.1095 6.10935 13.3894 5.82952 13.7345 5.82952C14.0797 5.82952 14.3595 6.10935 14.3595 6.45452C14.3595 8.54691 13.7691 10.2698 12.5699 11.469C11.3707 12.6683 9.64776 13.2587 7.55538 13.2587C5.46301 13.2587 3.74009 12.6683 2.54086 11.469C1.34164 10.2698 0.751221 8.54695 0.751221 6.45457C0.751221 4.73561 1.23661 3.30441 2.23746 2.30356C3.23831 1.30271 4.6695 0.817322 6.38847 0.817322C8.10742 0.817322 9.53861 1.3027 10.5394 2.30354C11.5403 3.30438 12.0256 4.73557 12.0256 6.45452C12.0256 7.79708 11.6461 8.93419 10.8452 9.73507C10.0444 10.5359 8.90726 10.9155 7.56471 10.9155C6.22218 10.9155 5.08506 10.536 4.28417 9.73514C3.48329 8.93427 3.10376 7.79718 3.10376 6.45463C3.10376 5.49893 3.37448 4.66404 3.96985 4.06867C4.56522 3.4733 5.40011 3.20257 6.35581 3.20257C7.3115 3.20257 8.14637 3.47326 8.74172 4.06861C9.33707 4.66398 9.60776 5.49885 9.60776 6.45452C9.60776 7.03572 9.44237 7.57802 9.04596 7.97443C8.64955 8.37084 8.10724 8.53625 7.52605 8.53625C6.94486 8.53625 6.40255 8.37084 6.00614 7.97443C5.60973 7.57802 5.44434 7.03572 5.44434 6.45452C5.44434 6.10935 5.72416 5.82952 6.06934 5.82952C6.41451 5.82952 6.69434 6.10935 6.69434 6.45452C6.69434 6.80563 6.79115 6.99168 6.89002 7.09055C6.9889 7.18942 7.17494 7.28624 7.52605 7.28624C7.87715 7.28624 8.0632 7.18942 8.16207 7.09055C8.26095 6.99168 8.35776 6.80563 8.35776 6.45452C8.35776 5.7289 8.15563 5.2503 7.85784 4.95251C7.56004 4.65471 7.08144 4.45257 6.35581 4.45257C5.6302 4.45257 5.15157 4.65472 4.85374 4.95255C4.5559 5.25038 4.35376 5.72902 4.35376 6.45463C4.35376 7.5671 4.66471 8.34791 5.16804 8.85123C5.67138 9.35455 6.45224 9.66548 7.56471 9.66548C8.67717 9.66548 9.45803 9.35454 9.96138 8.8512C10.4647 8.34785 10.7756 7.567 10.7756 6.45452C10.7756 4.96564 10.3589 3.89072 9.65556 3.18742C8.95226 2.48412 7.87735 2.06732 6.38847 2.06732C4.89959 2.06732 3.82466 2.48413 3.12135 3.18744Z" fill="white"/>
</g>
<defs>
<clipPath id="clip0_1459_3667">
<rect width="14" height="14" fill="white" transform="translate(0.55542 0.0380249)"/>
</clipPath>
</defs>
</svg>
