<svg width="15" height="15" viewBox="0 0 15 15" fill="none" xmlns="http://www.w3.org/2000/svg">
<g clip-path="url(#clip0_1459_3769)">
<path fill-rule="evenodd" clip-rule="evenodd" d="M2.05542 7.03809C2.05542 4.00052 4.51785 1.53809 7.55542 1.53809C10.593 1.53809 13.0554 4.00052 13.0554 7.03809C13.0554 7.53544 12.9894 8.01736 12.8656 8.47559H9.01534L11.1651 5.47488C11.4063 5.13816 11.3289 4.66964 10.9922 4.42841C10.6555 4.18717 10.187 4.26458 9.94574 4.6013L7.17013 8.47559H2.24518C2.12143 8.01736 2.05542 7.53544 2.05542 7.03809ZM5.47383 13.7234C2.62435 12.8371 0.55542 10.1792 0.55542 7.03809C0.55542 3.1721 3.68943 0.0380859 7.55542 0.0380859C11.4214 0.0380859 14.5554 3.1721 14.5554 7.03809C14.5554 10.9041 11.4214 14.0381 7.55542 14.0381" fill="white"/>
</g>
<defs>
<clipPath id="clip0_1459_3769">
<rect width="14" height="14" fill="white" transform="translate(0.55542 0.0380859)"/>
</clipPath>
</defs>
</svg>
