<svg width="15" height="15" viewBox="0 0 15 15" fill="none" xmlns="http://www.w3.org/2000/svg">
<g clip-path="url(#clip0_1459_3665)">
<path fill-rule="evenodd" clip-rule="evenodd" d="M12.7559 6.36299C13.6569 7.00189 13.8815 8.28309 13.0035 8.95335C12.1586 9.59842 11.1627 10.0368 10.0955 10.2184C8.61362 10.4707 7.09798 10.2104 5.79354 9.49354C5.57342 9.37255 5.35931 9.23857 5.1524 9.09186L5.1523 9.09179C4.95278 8.95033 4.76222 8.79862 4.58121 8.6376L4.57825 8.63495C3.46074 7.63971 2.7073 6.28937 2.45376 4.79995C2.27209 3.73268 2.35626 2.64787 2.68544 1.63707C3.02747 0.58679 4.31081 0.374832 5.21185 1.01374L8.4545 3.313L9.93583 1.46133C10.1946 1.13788 10.6665 1.08544 10.99 1.3442C11.3134 1.60296 11.3659 2.07493 11.1071 2.39837L9.68016 4.18209L12.7559 6.36299ZM3.93461 9.73038C3.69885 9.53339 3.33989 9.56603 3.16292 9.81717L1.73679 11.841C1.27026 12.5031 1.74318 13.4161 2.55313 13.417L7.598 13.4226C8.35823 13.4234 8.84133 12.6092 8.47625 11.9424L8.37692 11.7609C8.29718 11.6153 8.15017 11.5198 7.98546 11.4988C6.71568 11.3365 5.49259 10.8654 4.42928 10.1114C4.2588 9.99058 4.09382 9.86343 3.93461 9.73038Z" fill="white"/>
</g>
<defs>
<clipPath id="clip0_1459_3665">
<rect width="14" height="14" fill="white" transform="translate(0.55542 0.0380249)"/>
</clipPath>
</defs>
</svg>
