<svg width="15" height="15" viewBox="0 0 15 15" fill="none" xmlns="http://www.w3.org/2000/svg">
<g clip-path="url(#clip0_1459_3663)">
<path fill-rule="evenodd" clip-rule="evenodd" d="M12.3325 0.945807C11.9782 0.828395 11.636 0.923586 11.4388 0.984813L11.587 1.46231L11.4388 0.984813L2.6248 3.72089C0.27969 4.44886 0.279689 7.76814 2.6248 8.49611L11.4388 11.2322C11.636 11.2934 11.9782 11.3886 12.3325 11.2712C12.7326 11.1385 13.0409 10.8461 13.2743 10.5057C13.5087 10.1639 13.6908 9.74084 13.8307 9.2824C14.1106 8.36487 14.2449 7.22768 14.2449 6.1085C14.2449 4.98932 14.1106 3.85213 13.8307 2.9346C13.6908 2.47616 13.5087 2.05311 13.2743 1.71126C13.0409 1.37083 12.7326 1.07842 12.3325 0.945807ZM3.10697 9.95463C2.84663 9.87383 2.56412 10.0168 2.53006 10.2872C2.51682 10.3923 2.51001 10.4993 2.51001 10.6078C2.51001 12.0317 3.6819 13.186 5.1275 13.186C6.1287 13.186 6.9986 12.6323 7.43883 11.8189C7.57014 11.5763 7.41868 11.2931 7.15521 11.2113L3.10697 9.95463Z" fill="white"/>
</g>
<defs>
<clipPath id="clip0_1459_3663">
<rect width="14" height="14" fill="white" transform="translate(0.55542 0.0380249)"/>
</clipPath>
</defs>
</svg>
