<svg width="15" height="14" viewBox="0 0 15 14" fill="none" xmlns="http://www.w3.org/2000/svg">
<g clip-path="url(#clip0_1459_3535)">
<path fill-rule="evenodd" clip-rule="evenodd" d="M7.55522 0.133301C6.58276 0.133301 5.65013 0.519609 4.96249 1.20724C4.27486 1.89487 3.88855 2.82751 3.88855 3.79997V4.92411C2.84645 5.42422 2.08248 6.43486 1.94616 7.63751C1.88818 8.14902 1.84705 8.67704 1.84705 9.21659C1.84705 9.75615 1.88818 10.2842 1.94616 10.7957C2.13678 12.4774 3.55463 13.7836 5.24406 13.8435C5.98219 13.8697 6.73969 13.8833 7.55538 13.8833C8.37107 13.8833 9.12857 13.8697 9.8667 13.8435C11.5561 13.7836 12.974 12.4774 13.1646 10.7957C13.2226 10.2842 13.2637 9.75615 13.2637 9.21659C13.2637 8.67704 13.2226 8.14902 13.1646 7.63751C12.974 5.95583 11.5561 4.64959 9.8667 4.58964C9.12857 4.56345 8.37107 4.54993 7.55538 4.54993C6.79282 4.54993 6.08111 4.56174 5.38855 4.58468V3.79997C5.38855 3.22533 5.61682 2.67423 6.02315 2.2679C6.42948 1.86157 6.98058 1.6333 7.55522 1.6333C8.12985 1.6333 8.68095 1.86157 9.08728 2.2679C9.38017 2.5608 9.85505 2.5608 10.1479 2.2679C10.4408 1.97501 10.4408 1.50013 10.1479 1.20724C9.46031 0.519609 8.52768 0.133301 7.55522 0.133301ZM7.5553 7.96661C7.96951 7.96661 8.3053 8.3024 8.3053 8.71661V9.71655C8.3053 10.1308 7.96951 10.4666 7.5553 10.4666C7.14108 10.4666 6.8053 10.1308 6.8053 9.71655V8.71661C6.8053 8.3024 7.14108 7.96661 7.5553 7.96661Z" fill="white"/>
</g>
<defs>
<clipPath id="clip0_1459_3535">
<rect width="14" height="14" fill="white" transform="translate(0.55542 0.00830078)"/>
</clipPath>
</defs>
</svg>
