<svg width="15" height="15" viewBox="0 0 15 15" fill="currentColor" xmlns="http://www.w3.org/2000/svg">
<g clip-path="url(#clip0_1459_3659)">
<path fill-rule="evenodd" clip-rule="evenodd" d="M0.555908 2.09564C0.555908 0.991073 1.45134 0.0956421 2.55591 0.0956421H3.55591C4.66048 0.0956421 5.55591 0.991073 5.55591 2.09564C5.55591 3.20021 4.66048 4.09564 3.55591 4.09564H2.55591C1.45134 4.09564 0.555908 3.20021 0.555908 2.09564ZM0.555908 7.59564C0.555908 6.49108 1.45134 5.59564 2.55591 5.59564H3.55591C4.66048 5.59564 5.55591 6.49108 5.55591 7.59564C5.55591 8.70022 4.66048 9.59564 3.55591 9.59564H2.55591C1.45134 9.59564 0.555908 8.70022 0.555908 7.59564ZM9.05591 0.0956421C7.95134 0.0956421 7.05591 0.991073 7.05591 2.09564L7.05612 2.1247C7.06109 2.47374 7.47569 2.57937 7.7851 2.41774C8.17904 2.21194 8.6271 2.09558 9.10234 2.09558C9.8906 2.09558 10.6041 2.41574 11.1199 2.93309C11.3537 3.16767 11.7542 3.20327 11.8875 2.90008C11.9958 2.65393 12.0559 2.3818 12.0559 2.09564C12.0559 0.991073 11.1605 0.0956421 10.0559 0.0956421H9.05591ZM7.13864 9.05978C5.41179 9.77969 5.05858 12.0717 6.48857 13.2781L6.62237 13.391C7.07336 13.7714 7.64438 13.9801 8.23442 13.9801H12.721C13.2344 13.9801 13.7536 13.7155 14.005 13.2108C14.3495 12.5193 14.555 11.7748 14.555 10.7825C14.555 9.4243 13.8795 8.54974 12.9911 8.0183C12.2827 7.5945 11.4407 7.38684 10.7011 7.27891V4.94442C10.7011 4.0614 9.98534 3.34556 9.10232 3.34556C8.2193 3.34556 7.50347 4.0614 7.50347 4.94442V8.90767L7.13864 9.05978Z" fill="white"/>
</g>
<defs>
<clipPath id="clip0_1459_3659">
<rect width="14" height="14" fill="white" transform="translate(0.55542 0.0380249)"/>
</clipPath>
</defs>
</svg>
