<svg width="15" height="14" viewBox="0 0 15 14" fill="currentColor" xmlns="http://www.w3.org/2000/svg">
<g clip-path="url(#clip0_1459_3541)">
<path fill-rule="evenodd" clip-rule="evenodd" d="M6.3733 0.897264C6.95956 0.099675 8.15124 0.0996752 8.7375 0.897264C9.2663 1.61667 10.1543 1.98337 11.0381 1.84834C12.0187 1.69852 12.8651 2.54498 12.7153 3.5256C12.5803 4.40942 12.947 5.29738 13.6664 5.82618C14.464 6.41244 14.464 7.60412 13.6664 8.19038C12.947 8.71918 12.5803 9.60714 12.7153 10.491C12.8651 11.4716 12.0187 12.318 11.0381 12.1682C10.1543 12.0332 9.2663 12.3999 8.7375 13.1193C8.15124 13.9169 6.95956 13.9169 6.3733 13.1193C5.8445 12.3999 4.95654 12.0332 4.07272 12.1682C3.0921 12.318 2.24564 11.4716 2.39546 10.491C2.53049 9.60714 2.16379 8.71918 1.44438 8.19038C0.646794 7.60412 0.646794 6.41244 1.44438 5.82618C2.16379 5.29738 2.53049 4.40942 2.39546 3.5256C2.24564 2.54498 3.0921 1.69852 4.07272 1.84834C4.95654 1.98337 5.8445 1.61667 6.3733 0.897264ZM4.51489 7.00813C4.51489 5.32885 5.87622 3.96753 7.5555 3.96753C9.23477 3.96753 10.5961 5.32885 10.5961 7.00813C10.5961 8.68741 9.23477 10.0487 7.5555 10.0487C5.87622 10.0487 4.51489 8.68741 4.51489 7.00813Z" fill="white"/>
</g>
<defs>
<clipPath id="clip0_1459_3541">
<rect width="14" height="14" fill="white" transform="translate(0.55542 0.00830078)"/>
</clipPath>
</defs>
</svg>
