<svg width="15" height="15" viewBox="0 0 15 15" fill="currentColor" xmlns="http://www.w3.org/2000/svg">
<g clip-path="url(#clip0_1459_3629)">
<path fill-rule="evenodd" clip-rule="evenodd" d="M2.07892 0.555011C3.81632 0.491141 5.66039 0.456116 7.55546 0.456116C9.44756 0.456116 11.255 0.493356 13.013 0.555224C13.4587 0.57091 13.9508 0.790307 14.1893 1.27241C14.3667 1.63091 14.4765 2.02157 14.4765 2.43299C14.4765 2.83207 14.3644 3.20247 14.2066 3.53596C13.9619 4.05306 13.4322 4.2933 12.9444 4.29242C11.8202 4.29038 10.7064 4.28454 9.60117 4.27874H9.60112H9.60108H9.60102H9.60097H9.60091H9.60088H9.60086H9.60083C7.08349 4.26553 4.61018 4.25256 2.15739 4.28528C1.68728 4.29156 1.15195 4.07427 0.903485 3.55711C0.735123 3.20669 0.634399 2.83065 0.634399 2.43299C0.634399 2.02042 0.73711 1.62099 0.926055 1.24813C1.16531 0.775992 1.65024 0.570771 2.07892 0.555011ZM1.77797 5.82537C1.80789 5.65053 1.97324 5.54254 2.15061 5.54254H12.5792C12.7646 5.54254 12.9378 5.65501 12.9685 5.83787C13.1353 6.83456 13.2329 7.8835 13.2329 8.95687C13.2329 10.0663 13.1174 11.1341 12.9471 12.1567C12.8383 12.8094 12.3062 13.3006 11.656 13.3714C10.2834 13.5208 8.85763 13.6198 7.37507 13.6198C6.16243 13.6198 4.97569 13.5128 3.85493 13.4118C3.61202 13.3899 3.37221 13.3683 3.13591 13.3481C2.4791 13.292 1.90741 12.8127 1.79125 12.1328C1.61671 11.111 1.51721 10.0533 1.51721 8.95687C1.51721 7.88313 1.60643 6.82754 1.77797 5.82537ZM5.93298 7.47736C5.58781 7.47736 5.30798 7.75717 5.30798 8.10236C5.30798 8.44754 5.58781 8.72736 5.93298 8.72736H8.8176C9.16278 8.72736 9.4426 8.44754 9.4426 8.10236C9.4426 7.75717 9.16278 7.47736 8.8176 7.47736H5.93298Z" fill="white"/>
</g>
<defs>
<clipPath id="clip0_1459_3629">
<rect width="14" height="14" fill="white" transform="translate(0.55542 0.0380249)"/>
</clipPath>
</defs>
</svg>
