<svg width="15" height="15" viewBox="0 0 15 15" fill="none" xmlns="http://www.w3.org/2000/svg">
<g clip-path="url(#clip0_1459_3739)">
<path fill-rule="evenodd" clip-rule="evenodd" d="M13.036 1.60058C11.9766 0.541133 10.2315 0.637789 9.29551 1.80775L6.31236 5.5367C6.20907 5.6658 6.25747 5.85786 6.4042 5.93405C6.82271 6.15136 7.20139 6.43292 7.52563 6.75716C7.9595 7.19103 8.31695 7.72237 8.54628 8.31618C8.61056 8.48262 8.81935 8.54875 8.95867 8.43729L12.8289 5.34112C13.9988 4.40515 14.0955 2.66003 13.036 1.60058ZM7.5577 9.48728C7.64592 10.2798 7.39376 11.1317 6.64175 11.8838C5.33392 13.1916 3.45864 13.4266 1.75135 13.0486C1.56501 13.0073 1.50257 12.774 1.60208 12.6111C1.98677 11.9814 1.90475 11.2093 1.821 10.4208C1.71664 9.43845 1.60958 8.43062 2.39911 7.6411C3.31519 6.72502 4.37961 6.5507 5.3041 6.82984C5.30412 6.82984 5.30413 6.82984 5.30414 6.82982C5.30415 6.82981 5.30416 6.8298 5.30418 6.8298C5.80686 6.9816 6.26816 7.26746 6.64175 7.64104C7.08781 8.08711 7.40881 8.65823 7.52586 9.27553C7.53914 9.34556 7.54979 9.41618 7.5577 9.48728Z" fill="white"/>
</g>
<defs>
<clipPath id="clip0_1459_3739">
<rect width="14" height="14" fill="white" transform="translate(0.55542 0.0380859)"/>
</clipPath>
</defs>
</svg>
