<svg width="15" height="15" viewBox="0 0 15 15" fill="currentColor" xmlns="http://www.w3.org/2000/svg">
<g clip-path="url(#clip0_1459_3657)">
<path fill-rule="evenodd" clip-rule="evenodd" d="M7.55522 0.163025C6.58276 0.163025 5.65013 0.549333 4.96249 1.23696C4.27486 1.92459 3.88855 2.85723 3.88855 3.82969V4.9539C2.84645 5.45401 2.08248 6.46464 1.94616 7.6673C1.88818 8.17881 1.84705 8.70683 1.84705 9.24638C1.84705 9.78594 1.88818 10.3139 1.94616 10.8254C2.13678 12.5071 3.55463 13.8134 5.24406 13.8733C5.98219 13.8995 6.73969 13.913 7.55538 13.913C8.37107 13.913 9.12857 13.8995 9.8667 13.8733C11.5561 13.8134 12.974 12.5071 13.1646 10.8254C13.2226 10.3139 13.2637 9.78594 13.2637 9.24638C13.2637 8.70683 13.2226 8.17881 13.1646 7.6673C13.0282 6.46451 12.2641 5.45379 11.2219 4.95374V3.82969C11.2219 2.85723 10.8356 1.92459 10.1479 1.23696C9.46031 0.549333 8.52768 0.163025 7.55522 0.163025ZM9.72188 4.61445V3.82969C9.72188 3.25505 9.49361 2.70395 9.08728 2.29762C8.68095 1.89129 8.12985 1.66302 7.55522 1.66302C6.98058 1.66302 6.42948 1.89129 6.02315 2.29762C5.61682 2.70395 5.38855 3.25505 5.38855 3.82969V4.61446C6.08111 4.59152 6.79282 4.57971 7.55538 4.57971C8.31782 4.57971 9.02943 4.59152 9.72188 4.61445ZM7.5553 7.91308C7.96951 7.91308 8.3053 8.24887 8.3053 8.66308V9.66302C8.3053 10.0772 7.96951 10.413 7.5553 10.413C7.14108 10.413 6.8053 10.0772 6.8053 9.66302V8.66308C6.8053 8.24887 7.14108 7.91308 7.5553 7.91308Z" fill="white"/>
</g>
<defs>
<clipPath id="clip0_1459_3657">
<rect width="14" height="14" fill="white" transform="translate(0.55542 0.0380249)"/>
</clipPath>
</defs>
</svg>
