<svg width="15" height="15" viewBox="0 0 15 15" fill="currentColor" xmlns="http://www.w3.org/2000/svg">
<g clip-path="url(#clip0_1459_3655)">
<path fill-rule="evenodd" clip-rule="evenodd" d="M7.55535 1.55706C6.87868 1.55706 6.21239 1.64408 5.59161 1.82018C5.19312 1.93322 4.77844 1.70182 4.66539 1.30333C4.55235 0.90485 4.78375 0.490171 5.18224 0.377127C5.94734 0.160082 6.75234 0.0570679 7.55535 0.0570679C10.4384 0.0570679 13.4831 1.41867 14.332 4.69342C14.4359 5.09438 14.1951 5.50368 13.7941 5.6076C13.3932 5.71153 12.9839 5.47075 12.8799 5.06979C12.2663 2.7025 10.0471 1.55706 7.55535 1.55706ZM2.12117 2.19791C2.40151 1.89297 2.87596 1.87303 3.18089 2.15337C3.48583 2.43371 3.50577 2.90816 3.22543 3.21309C2.5222 3.97802 2.0553 5.05477 2.0553 6.52983V13.2687C2.0553 13.6829 1.71951 14.0187 1.3053 14.0187C0.891084 14.0187 0.555298 13.6829 0.555298 13.2687V6.52983C0.555298 4.7119 1.14185 3.26315 2.12117 2.19791ZM14.5554 7.61029C14.5554 7.19607 14.2196 6.86029 13.8054 6.86029C13.3911 6.86029 13.0554 7.19607 13.0554 7.61029V13.2688C13.0554 13.683 13.3911 14.0188 13.8054 14.0188C14.2196 14.0188 14.5554 13.683 14.5554 13.2688V7.61029ZM3.57408 10.8062C3.50687 10.3975 3.78372 10.0117 4.19244 9.94444C4.60117 9.87723 4.98699 10.1541 5.0542 10.5628C5.17579 11.3022 5.31765 11.9272 5.42869 12.3659C5.48415 12.5849 5.53177 12.7569 5.56508 12.8728C5.58174 12.9307 5.5948 12.9745 5.60347 13.0031L5.61307 13.0345L5.61521 13.0413L5.61546 13.0421L5.6155 13.0422L5.61557 13.0425H5.61558C5.74062 13.4372 5.52214 13.8586 5.12745 13.9838C4.73264 14.1091 4.31102 13.8906 4.18573 13.4958L4.90059 13.269C4.18573 13.4958 4.1857 13.4957 4.18568 13.4957L4.18562 13.4955L4.18549 13.4951L4.18513 13.4939L4.18404 13.4905L4.18046 13.479L4.16793 13.4381C4.15729 13.403 4.14222 13.3524 4.12353 13.2874C4.08616 13.1575 4.03429 12.9699 3.97455 12.734C3.85519 12.2625 3.70383 11.5952 3.57408 10.8062ZM10.6326 5.31788C11.0276 5.19327 11.4489 5.41249 11.5735 5.80751C11.7339 6.31598 11.8183 6.89465 11.8183 7.54874C11.8183 9.12361 11.5949 10.6065 11.3743 11.6898C11.2636 12.2333 11.1527 12.6803 11.069 12.9933C11.0271 13.1499 10.9919 13.2732 10.9668 13.3584C10.9543 13.4011 10.9443 13.4342 10.9372 13.4573L10.9289 13.4843L10.9264 13.4921L10.9257 13.4945L10.9254 13.4953L10.9253 13.4956C10.9253 13.4957 10.9253 13.4958 10.2104 13.269L10.9253 13.4958C10.8 13.8907 10.3784 14.1091 9.98355 13.9839C9.58887 13.8586 9.3704 13.4372 9.49541 13.0425H9.49544L9.49547 13.0424L9.49548 13.0423L9.49554 13.0421L9.49559 13.042L9.49685 13.0379L9.50286 13.0185C9.50836 13.0005 9.51678 12.9726 9.52771 12.9354C9.54956 12.8611 9.58142 12.7496 9.61995 12.6056C9.69706 12.3174 9.80067 11.9 9.90446 11.3905C10.1128 10.3678 10.3183 8.99067 10.3183 7.54874C10.3183 7.02298 10.2504 6.59937 10.143 6.25878C10.0184 5.86375 10.2376 5.4425 10.6326 5.31788ZM8.30538 11.4599C8.30538 11.0457 7.96959 10.7099 7.55538 10.7099C7.14117 10.7099 6.80538 11.0457 6.80538 11.4599V12.4599C6.80538 12.8741 7.14117 13.2099 7.55538 13.2099C7.96959 13.2099 8.30538 12.8741 8.30538 12.4599V11.4599ZM7.55545 4.58685C7.94239 4.58685 8.34761 4.63974 8.72011 4.77032C9.111 4.90735 9.53897 4.70156 9.67599 4.31067C9.81302 3.91978 9.60722 3.49182 9.21633 3.35478C8.64975 3.15616 8.07032 3.08685 7.55545 3.08685C6.6989 3.08685 5.62938 3.28002 4.76001 3.97601C3.85963 4.69683 3.29263 5.86077 3.29263 7.54874C3.29263 7.96295 3.62842 8.29875 4.04263 8.29875C4.45685 8.29875 4.79263 7.96295 4.79263 7.54874C4.79263 6.21991 5.22163 5.52793 5.69746 5.147C6.2043 4.74123 6.89118 4.58685 7.55545 4.58685ZM7.13033 8.55276C7.13033 8.22175 7.2219 8.0479 7.29074 7.96865C7.35418 7.89561 7.4376 7.85443 7.55535 7.85443C7.67309 7.85443 7.75651 7.89561 7.81995 7.96865C7.88879 8.0479 7.98036 8.22176 7.98036 8.55276C7.98036 8.96697 8.31615 9.30276 8.73036 9.30276C9.14457 9.30276 9.48036 8.96697 9.48036 8.55276C9.48036 7.94581 9.3089 7.39548 8.95246 6.98507C8.59063 6.56845 8.08654 6.35443 7.55535 6.35443C7.02415 6.35443 6.52006 6.56845 6.15823 6.98507C5.80179 7.39548 5.63033 7.94581 5.63033 8.55276C5.63033 8.96697 5.96612 9.30276 6.38033 9.30276C6.79454 9.30276 7.13033 8.96697 7.13033 8.55276Z" fill="white"/>
</g>
<defs>
<clipPath id="clip0_1459_3655">
<rect width="14" height="14" fill="white" transform="translate(0.55542 0.0380249)"/>
</clipPath>
</defs>
</svg>
