<svg width="15" height="15" viewBox="0 0 15 15" fill="currentColor" xmlns="http://www.w3.org/2000/svg">
<g clip-path="url(#clip0_1459_3757)">
<path fill-rule="evenodd" clip-rule="evenodd" d="M7.01586 9.10934H8.09452C8.4679 9.30414 8.7228 9.6949 8.7228 10.1452V12.6852C8.7228 12.9613 8.94666 13.1852 9.2228 13.1852H10.7186C11.6349 13.1852 12.4141 12.5168 12.5536 11.6112C12.6812 10.7826 12.7343 9.94531 12.7128 9.10934H13.8054C14.0987 9.10934 14.3651 8.93839 14.4872 8.67176C14.6094 8.40514 14.565 8.09177 14.3735 7.86963L8.8809 1.49823C8.18279 0.688416 6.92807 0.688419 6.22996 1.49823L0.737374 7.86963C0.545878 8.09177 0.501431 8.40514 0.623603 8.67176C0.745775 8.93839 1.01215 9.10934 1.30543 9.10934H2.39795C2.37648 9.94531 2.42958 10.7826 2.55718 11.6112C2.69663 12.5168 3.47586 13.1852 4.3921 13.1852H5.88758C6.16372 13.1852 6.38758 12.9613 6.38758 12.6852V10.1452C6.38758 9.6949 6.64248 9.30414 7.01586 9.10934Z" fill="white"/>
</g>
<defs>
<clipPath id="clip0_1459_3757">
<rect width="14" height="14" fill="white" transform="translate(0.55542 0.0380859)"/>
</clipPath>
</defs>
</svg>
