<svg width="15" height="15" viewBox="0 0 15 15" fill="none" xmlns="http://www.w3.org/2000/svg">
<g clip-path="url(#clip0_1459_3767)">
<path fill-rule="evenodd" clip-rule="evenodd" d="M13.0626 1.69703C13.0617 1.69653 13.0608 1.69604 12.6908 2.34839L13.0608 1.69604C13.0396 1.684 13.0178 1.67301 12.9955 1.66309L12.6908 2.34839C12.9955 1.66309 12.9955 1.66306 12.9954 1.66302L12.9951 1.66291L12.9944 1.66259L12.992 1.66154L12.9836 1.65781L12.9523 1.64408C12.9252 1.63223 12.8859 1.61512 12.8356 1.59349C12.7349 1.55025 12.5901 1.48889 12.4114 1.41544C12.0545 1.26876 11.5598 1.07282 11.0097 0.87642C9.94928 0.497882 8.54913 0.0671387 7.55536 0.0671387C6.56159 0.0671387 5.16144 0.497882 4.10104 0.87642C3.55086 1.07282 3.05617 1.26876 2.69928 1.41544C2.52058 1.48889 2.3758 1.55025 2.27514 1.59349C2.2248 1.61512 2.18545 1.63223 2.15837 1.64408L2.12711 1.65781L2.11866 1.66154L2.11629 1.66259L2.11557 1.66291L2.11533 1.66302C2.11524 1.66306 2.11517 1.66309 2.4199 2.34839L2.11517 1.66309C2.09287 1.67301 2.07107 1.684 2.04985 1.69604L2.4199 2.34839C2.04985 1.69604 2.04899 1.69653 2.04812 1.69703L2.04637 1.69803L2.04279 1.7001L2.03537 1.70447L2.01945 1.71418C2.00837 1.7211 1.9964 1.72891 1.9836 1.73769C1.95799 1.75526 1.9292 1.77664 1.8978 1.80244C1.83488 1.85416 1.76242 1.9229 1.68471 2.01315C1.52894 2.19406 1.35634 2.45643 1.19593 2.83335C0.877126 3.58248 0.602173 4.79361 0.602173 6.76057C0.602173 9.21029 1.76409 10.9007 3.18105 12.0249C4.57476 13.1306 6.22424 13.701 7.30223 13.9845C7.42727 14.0174 7.55869 14.0174 7.68373 13.9845C8.7582 13.7019 10.4367 13.1328 11.8604 12.0303C13.3065 10.9103 14.5085 9.21943 14.5085 6.76057C14.5085 4.79361 14.2336 3.58248 13.9148 2.83336C13.7544 2.45643 13.5818 2.19406 13.426 2.01315C13.3483 1.9229 13.2758 1.85416 13.2129 1.80244C13.1815 1.77664 13.1527 1.75526 13.1271 1.73769C13.1143 1.72891 13.1023 1.7211 13.0912 1.71418L13.0753 1.70447L13.0679 1.7001L13.0643 1.69803L13.0626 1.69703ZM12.2893 2.99186L12.2887 2.99118L12.2435 2.9717C12.1492 2.9312 12.0118 2.87293 11.8412 2.80283C11.4995 2.6624 11.0276 2.47553 10.5054 2.28911C9.42107 1.90204 8.25352 1.56716 7.55542 1.56714V12.4646C8.53219 12.187 9.84755 11.6919 10.9419 10.8443C12.1116 9.93849 13.0085 8.652 13.0085 6.76057C13.0085 4.92103 12.7496 3.92607 12.5346 3.42073C12.428 3.17042 12.3337 3.04347 12.2893 2.99186Z" fill="white"/>
</g>
<defs>
<clipPath id="clip0_1459_3767">
<rect width="14" height="14" fill="white" transform="translate(0.55542 0.0380859)"/>
</clipPath>
</defs>
</svg>
