<svg width="15" height="15" viewBox="0 0 15 15" fill="none" xmlns="http://www.w3.org/2000/svg">
<g clip-path="url(#clip0_1459_3631)">
<path fill-rule="evenodd" clip-rule="evenodd" d="M7.99854 0.980181C7.99854 0.736316 7.80173 0.538025 7.55786 0.538025C6.18962 0.538025 5.08358 0.57928 3.93927 0.657956C2.72634 0.741349 1.76135 1.70754 1.68507 2.92286C1.60167 4.25161 1.55786 5.62803 1.55786 7.03802C1.55786 8.44802 1.60167 9.82444 1.68507 11.1532C1.76135 12.3685 2.72634 13.3347 3.93927 13.4181C5.08358 13.4967 6.18962 13.538 7.55786 13.538C8.92611 13.538 10.0321 13.4967 11.1764 13.4181C12.3894 13.3347 13.3544 12.3685 13.4306 11.1532C13.4967 10.0999 13.538 9.01678 13.5522 7.91066C13.5527 7.87044 13.5484 7.82999 13.5388 7.79094C13.297 6.81389 12.8153 6.29247 12.2866 5.99282C11.6579 5.63655 10.8794 5.54667 10.1262 5.55189C8.98214 5.5598 7.99854 4.69951 7.99854 3.49375V0.980181ZM13.5243 5.34801C13.5291 5.35229 13.5367 5.34876 13.5366 5.34231C13.5242 4.85298 13.3655 4.37478 13.0728 3.97605C12.1691 2.74493 11.4365 1.96507 10.2405 1.04196C10.1097 0.941032 9.96965 0.855268 9.82303 0.785035C9.53944 0.649188 9.24854 0.887547 9.24854 1.20199V3.49375C9.24854 3.94484 9.60468 4.30546 10.1175 4.30191C10.9413 4.2962 11.9865 4.38601 12.9029 4.9053C13.1227 5.0299 13.3309 5.17675 13.5243 5.34801Z" fill="white"/>
</g>
<defs>
<clipPath id="clip0_1459_3631">
<rect width="14" height="14" fill="white" transform="translate(0.55542 0.0380249)"/>
</clipPath>
</defs>
</svg>
