<svg width="15" height="15" viewBox="0 0 15 15" fill="currentColor" xmlns="http://www.w3.org/2000/svg">
<g clip-path="url(#clip0_1459_3669)">
<path fill-rule="evenodd" clip-rule="evenodd" d="M11.8498 0.59369C8.40943 0.229382 6.50984 0.214377 3.25601 0.594284C2.55745 0.675848 1.90537 0.953853 1.45214 1.41853C0.986687 1.89572 0.753478 2.55096 0.895672 3.29424C1.38974 5.87681 2.81112 8.07627 5.22368 8.93977V12.1992C5.22368 13.3226 6.37501 14.0779 7.40547 13.6305L8.94844 12.9607C9.51857 12.7132 9.88743 12.1509 9.88743 11.5294V8.93979C12.3 8.07629 13.7214 5.87682 14.2154 3.29424C14.358 2.54884 14.1192 1.89039 13.6535 1.41296C13.1989 0.946972 12.5461 0.667424 11.8498 0.59369Z" fill="white"/>
</g>
<defs>
<clipPath id="clip0_1459_3669">
<rect width="14" height="14" fill="white" transform="translate(0.55542 0.0380249)"/>
</clipPath>
</defs>
</svg>
