<svg width="15" height="15" viewBox="0 0 15 15" fill="none" xmlns="http://www.w3.org/2000/svg">
<g clip-path="url(#clip0_1459_3679)">
<path fill-rule="evenodd" clip-rule="evenodd" d="M0.80542 7.03802C0.80542 3.3101 3.8275 0.288025 7.55542 0.288025C11.2833 0.288025 14.3054 3.3101 14.3054 7.03802C14.3054 10.7659 11.2833 13.788 7.55542 13.788C3.8275 13.788 0.80542 10.7659 0.80542 7.03802ZM4.98452 7.83217C4.89214 7.49958 4.54763 7.30486 4.21505 7.39725C3.88246 7.48963 3.68774 7.83415 3.78013 8.16673C4.35559 10.2384 6.62924 11.4801 8.68422 10.9093C8.69984 10.905 8.71529 10.9 8.73053 10.8945C9.95561 10.449 10.9833 9.44027 11.3314 8.16389C11.4223 7.83088 11.2259 7.48729 10.8929 7.39647C10.5599 7.30566 10.2163 7.50198 10.1255 7.835C9.89866 8.66675 9.20577 9.38353 8.32639 9.71128C6.9258 10.086 5.36847 9.21437 4.98452 7.83217ZM5.00732 4.04413C5.3525 4.04413 5.63232 4.32396 5.63232 4.66913V5.36912C5.63232 5.7143 5.3525 5.99412 5.00732 5.99412C4.66215 5.99412 4.38232 5.7143 4.38232 5.36912V4.66913C4.38232 4.32396 4.66215 4.04413 5.00732 4.04413ZM10.7285 4.66913C10.7285 4.32396 10.4487 4.04413 10.1035 4.04413C9.75834 4.04413 9.47852 4.32396 9.47852 4.66913V5.36912C9.47852 5.7143 9.75834 5.99412 10.1035 5.99412C10.4487 5.99412 10.7285 5.7143 10.7285 5.36912V4.66913Z" fill="white"/>
</g>
<defs>
<clipPath id="clip0_1459_3679">
<rect width="14" height="14" fill="white" transform="translate(0.55542 0.0380249)"/>
</clipPath>
</defs>
</svg>
