<svg width="15" height="14" viewBox="0 0 15 14" fill="none" xmlns="http://www.w3.org/2000/svg">
<g clip-path="url(#clip0_1459_3543)">
<path fill-rule="evenodd" clip-rule="evenodd" d="M7.80543 0.258301C6.46817 0.258301 5.01847 0.376318 3.70662 0.524985C2.57594 0.653122 1.68978 1.54863 1.56636 2.67728C1.42383 3.98063 1.30547 5.42871 1.30547 6.7583C1.30547 7.83102 1.3825 8.98156 1.48691 10.0698L0.816841 13.1521C0.780329 13.32 0.832645 13.495 0.955373 13.6153C1.0781 13.7357 1.25403 13.7845 1.42124 13.7447L4.30177 13.0589C5.4478 13.1745 6.66715 13.2583 7.80543 13.2583C9.14228 13.2583 10.5927 13.1427 11.9055 12.9954C13.0368 12.8684 13.9231 11.9726 14.046 10.8437C14.188 9.53862 14.3054 8.08798 14.3054 6.7583C14.3054 5.42892 14.188 3.981 14.0461 2.67753C13.9231 1.54866 13.0368 0.653115 11.9061 0.525027C10.5936 0.376339 9.14281 0.258301 7.80543 0.258301ZM4.74292 5.5083C4.74292 5.16312 5.02274 4.8833 5.36792 4.8833H10.2429C10.5881 4.8833 10.8679 5.16312 10.8679 5.5083C10.8679 5.85348 10.5881 6.1333 10.2429 6.1333H5.36792C5.02274 6.1333 4.74292 5.85348 4.74292 5.5083ZM5.36792 7.8833C5.02274 7.8833 4.74292 8.16312 4.74292 8.5083C4.74292 8.85348 5.02274 9.1333 5.36792 9.1333H9.05542C9.4006 9.1333 9.68042 8.85348 9.68042 8.5083C9.68042 8.16312 9.4006 7.8833 9.05542 7.8833H5.36792Z" fill="white"/>
</g>
<defs>
<clipPath id="clip0_1459_3543">
<rect width="14" height="14" fill="white" transform="translate(0.55542 0.00830078)"/>
</clipPath>
</defs>
</svg>
