<svg width="15" height="15" viewBox="0 0 15 15" fill="none" xmlns="http://www.w3.org/2000/svg">
<g clip-path="url(#clip0_1459_3677)">
<path fill-rule="evenodd" clip-rule="evenodd" d="M3.22957 12.578C2.26964 12.4778 1.49636 11.7214 1.37728 10.7636C1.2276 9.55982 1.07788 8.31389 1.07788 7.03804C1.07788 6.09921 1.15895 5.17658 1.26142 4.275C1.28345 4.08111 1.50978 3.98765 1.66301 4.10847L5.93021 7.47302C6.88341 8.22458 8.22759 8.22458 9.18079 7.47302L13.4479 4.10855C13.6011 3.98773 13.8274 4.08119 13.8495 4.27508C13.9519 5.17663 14.033 6.09923 14.033 7.03804C14.033 8.31389 13.8833 9.55982 13.7336 10.7636C13.6145 11.7214 12.8412 12.4778 11.8813 12.578C11.8368 12.5827 11.7923 12.5873 11.7478 12.592C10.3938 12.7336 8.99166 12.8802 7.55545 12.8802C6.11924 12.8802 4.71712 12.7336 3.36313 12.592C3.31856 12.5873 3.27404 12.5827 3.22957 12.578ZM13.3357 2.32679C13.4108 2.4273 13.3839 2.56715 13.2854 2.64486L8.40684 6.49143C7.90755 6.88511 7.20345 6.88511 6.70416 6.49143L1.82555 2.64481C1.72698 2.56709 1.70007 2.42724 1.77526 2.32673C2.1156 1.87179 2.63702 1.55991 3.22957 1.49802C3.27403 1.49337 3.31854 1.48872 3.36311 1.48406C4.71711 1.34247 6.11923 1.19586 7.55545 1.19586C8.99166 1.19586 10.3938 1.34247 11.7478 1.48406C11.7923 1.48872 11.8368 1.49337 11.8813 1.49802C12.4739 1.55991 12.9953 1.87182 13.3357 2.32679Z" fill="white"/>
</g>
<defs>
<clipPath id="clip0_1459_3677">
<rect width="14" height="14" fill="white" transform="translate(0.55542 0.0380249)"/>
</clipPath>
</defs>
</svg>
