<svg width="15" height="15" viewBox="0 0 15 15" fill="currentColor" xmlns="http://www.w3.org/2000/svg">
<g clip-path="url(#clip0_1459_3681)">
<path fill-rule="evenodd" clip-rule="evenodd" d="M2.25854 5.58506C2.25854 2.65958 4.63011 0.288025 7.55558 0.288025C10.4811 0.288025 12.8526 2.65958 12.8526 5.58506C12.8526 7.34466 12.0524 8.97755 11.1294 10.2828C10.2019 11.5942 9.11453 12.6254 8.46064 13.192C7.93756 13.6453 7.17361 13.6453 6.65053 13.192C5.99664 12.6254 4.90926 11.5942 3.98179 10.2827C3.05874 8.97756 2.25854 7.34466 2.25854 5.58506ZM4.80445 5.53194C4.82292 4.2828 6.22628 3.12402 7.55542 4.75486C8.88455 3.12402 10.2879 4.2828 10.3064 5.53194C10.3064 7.39156 8.08137 8.91794 7.55542 8.91794C7.02946 8.91794 4.80445 7.39156 4.80445 5.53194Z" fill="white"/>
</g>
<defs>
<clipPath id="clip0_1459_3681">
<rect width="14" height="14" fill="white" transform="translate(0.55542 0.0380249)"/>
</clipPath>
</defs>
</svg>
