<svg width="15" height="14" viewBox="0 0 15 14" fill="currentColor" xmlns="http://www.w3.org/2000/svg">
<g clip-path="url(#clip0_1459_3547)">
<path fill-rule="evenodd" clip-rule="evenodd" d="M14.0543 0.534977C13.7614 0.242084 13.2865 0.242084 12.9936 0.534977L11.1818 2.34681C11.0582 2.30101 10.9316 2.26409 10.807 2.23369C10.4199 2.13928 9.97927 2.09102 9.54303 2.06927C8.66919 2.02571 7.7478 2.08578 7.17139 2.13767C6.67585 2.18228 6.21783 2.38793 5.85098 2.70716C4.26469 4.08751 2.80643 5.51543 1.40732 7.05993C0.589877 7.96232 0.572513 9.32225 1.30746 10.2678C1.72749 10.8082 2.18105 11.3671 2.70157 11.8876C3.2221 12.4081 3.78096 12.8617 4.32135 13.2817C5.2669 14.0166 6.62684 13.9993 7.52923 13.1818C9.07373 11.7827 10.5016 10.3245 11.882 8.73818C12.2012 8.37133 12.4069 7.91331 12.4515 7.41777C12.5034 6.84135 12.5634 5.91996 12.5199 5.04612C12.4981 4.60989 12.4499 4.16924 12.3554 3.78216C12.3251 3.65759 12.2882 3.531 12.2424 3.40751L14.0543 1.59564C14.3472 1.30274 14.3472 0.82787 14.0543 0.534977ZM9.64571 3.84016C9.88978 3.59608 10.2855 3.59608 10.5296 3.84016C10.7736 4.08424 10.7736 4.47997 10.5296 4.72405L10.2095 5.04416C9.9654 5.28823 9.56967 5.28823 9.32559 5.04416C9.08152 4.80008 9.08152 4.40435 9.32559 4.16027L9.64571 3.84016Z" fill="white"/>
</g>
<defs>
<clipPath id="clip0_1459_3547">
<rect width="14" height="14" fill="white" transform="translate(0.55542 0.00830078)"/>
</clipPath>
</defs>
</svg>
