<svg width="15" height="14" viewBox="0 0 15 14" fill="currentColor" xmlns="http://www.w3.org/2000/svg">
<g clip-path="url(#clip0_1459_3549)">
<path fill-rule="evenodd" clip-rule="evenodd" d="M6.93042 0.755302C6.93042 0.607935 6.80335 0.492144 6.65734 0.51214C3.46078 0.94993 0.998169 3.69156 0.998169 7.00836C0.998169 10.6298 3.93393 13.5656 7.55537 13.5656C9.51678 13.5656 11.277 12.7044 12.4787 11.3395C12.5762 11.2288 12.5497 11.0588 12.4266 10.9774L8.10793 8.12277C7.3727 7.63678 6.93042 6.81426 6.93042 5.93293V0.755302ZM13.1171 9.93545C13.2401 10.0167 13.4067 9.97468 13.4705 9.84179C13.882 8.98417 14.1126 8.02319 14.1126 7.00836C14.1126 3.69159 11.65 0.949983 8.4535 0.512153C8.30749 0.492154 8.18042 0.607945 8.18042 0.755314V5.93293C8.18042 6.39458 8.41209 6.82542 8.79721 7.07999L13.1171 9.93545Z" fill="white"/>
</g>
<defs>
<clipPath id="clip0_1459_3549">
<rect width="14" height="14" fill="white" transform="translate(0.55542 0.00830078)"/>
</clipPath>
</defs>
</svg>
