<svg width="15" height="14" viewBox="0 0 15 14" fill="none" xmlns="http://www.w3.org/2000/svg">
<g clip-path="url(#clip0_1459_3545)">
<path fill-rule="evenodd" clip-rule="evenodd" d="M5.30047 2.22004L6.17912 4.21479C5.0466 4.40058 4.09587 4.84833 3.37675 5.56379C2.40121 6.53436 1.92017 7.92964 1.92017 9.62552C1.92017 10.4687 2.03847 11.1619 2.30148 11.7199C2.5706 12.2909 2.97821 12.6924 3.49881 12.9629C4.00599 13.2265 4.60504 13.3582 5.25611 13.4278C5.90863 13.4976 6.65023 13.5083 7.45567 13.5083C8.2611 13.5083 9.00271 13.4976 9.65522 13.4278C10.3063 13.3582 10.9053 13.2265 11.4125 12.9629C11.9331 12.6924 12.3407 12.2909 12.6098 11.7199C12.8728 11.1619 12.9911 10.4687 12.9911 9.62552C12.9911 7.9561 12.5251 6.57782 11.5793 5.60891C10.8944 4.9073 9.99179 4.45507 8.9169 4.24772L8.92812 4.22283L9.81031 2.22004C9.88241 2.05635 9.9524 1.83171 9.93772 1.59654C9.92126 1.33284 9.79046 1.03913 9.46428 0.886332L9.25218 1.33912L9.46428 0.886332C9.21858 0.771238 8.90478 0.69941 8.59015 0.654595C8.26734 0.608614 7.90911 0.586426 7.55539 0.586426C7.20166 0.586426 6.84343 0.608614 6.52062 0.654595C6.20599 0.69941 5.89219 0.771238 5.64649 0.886332C5.32031 1.03913 5.18952 1.33284 5.17306 1.59654C5.15838 1.83171 5.22837 2.05635 5.30047 2.22004Z" fill="white"/>
</g>
<defs>
<clipPath id="clip0_1459_3545">
<rect width="14" height="14" fill="white" transform="translate(0.55542 0.00830078)"/>
</clipPath>
</defs>
</svg>
