<svg width="15" height="15" viewBox="0 0 15 15" fill="currentColor" xmlns="http://www.w3.org/2000/svg">
<g clip-path="url(#clip0_1459_3683)">
<path fill-rule="evenodd" clip-rule="evenodd" d="M11.1699 3.53225L11.3861 2.23497C11.4907 1.60791 11.0045 1.00551 10.3733 1.08035C9.63655 1.16769 8.80925 1.42211 8.25124 2.15205C7.91486 2.09537 7.56803 2.06574 7.21359 2.06574C5.71669 2.06574 4.35556 2.59418 3.3436 3.45704C3.31937 3.4334 3.29326 3.41113 3.2653 3.39044C2.83546 3.07234 2.45338 2.65069 2.25805 2.12725C2.11323 1.73918 1.68124 1.54198 1.29317 1.68679C0.905095 1.83161 0.707894 2.2636 0.852709 2.65167C1.17519 3.51585 1.77389 4.14788 2.35015 4.57917C1.84539 5.34882 1.55541 6.24839 1.55541 7.20953C1.55541 8.17361 1.84716 9.07573 2.35477 9.84692C2.31092 9.94753 2.2757 10.0536 2.2502 10.1644L1.98107 11.3341C1.75812 12.303 2.3629 13.2693 3.33187 13.4922C4.30085 13.7152 5.26709 13.1104 5.49004 12.1414L5.49676 12.1123C6.03823 12.2688 6.61506 12.3533 7.21359 12.3533C7.64416 12.3533 8.0635 12.3096 8.46653 12.2268C8.72504 13.1456 9.66268 13.7086 10.6029 13.4922C11.5527 13.2737 12.1525 12.341 11.966 11.3917L13.589 10.5801C13.9375 10.4059 14.1577 10.0496 14.1577 9.66V7.20953C14.1577 6.64137 13.6971 6.18078 13.1289 6.18078H12.7586C12.5292 5.1537 11.9633 4.23775 11.1699 3.53225ZM7.72796 4.91345C8.07314 4.91345 8.35296 4.63363 8.35296 4.28845C8.35296 3.94327 8.07314 3.66345 7.72796 3.66345H6.16552C5.82034 3.66345 5.54052 3.94327 5.54052 4.28845C5.54052 4.63363 5.82034 4.91345 6.16552 4.91345H7.72796ZM10.557 5.61029C10.9022 5.61029 11.182 5.89011 11.182 6.23529V7.20945C11.182 7.55463 10.9022 7.83445 10.557 7.83445C10.2119 7.83445 9.93206 7.55463 9.93206 7.20945V6.23529C9.93206 5.89011 10.2119 5.61029 10.557 5.61029Z" fill="white"/>
</g>
<defs>
<clipPath id="clip0_1459_3683">
<rect width="14" height="14" fill="white" transform="translate(0.55542 0.0380249)"/>
</clipPath>
</defs>
</svg>
