<svg width="15" height="14" viewBox="0 0 15 14" fill="currentColor" xmlns="http://www.w3.org/2000/svg">
<g clip-path="url(#clip0_1459_3551)">
<path fill-rule="evenodd" clip-rule="evenodd" d="M2.05542 1.66976C2.05542 0.284711 3.77223 -0.360353 4.68429 0.682001L6.24449 2.46509C6.60502 2.40573 7.03627 2.36768 7.55542 2.36768C8.07457 2.36768 8.50582 2.40573 8.86635 2.46509L10.4265 0.682001C11.3386 -0.360353 13.0554 0.284711 13.0554 1.66976V5.74072L14.3327 6.59228C14.4718 6.68501 14.5554 6.84113 14.5554 7.0083C14.5554 8.97644 13.9348 10.6204 12.7086 11.769C11.4865 12.9138 9.7255 13.5083 7.55542 13.5083C5.38534 13.5083 3.62428 12.9138 2.40226 11.769C1.17604 10.6204 0.55542 8.97644 0.55542 7.0083C0.55542 6.84113 0.638971 6.68501 0.77807 6.59228L2.05542 5.74072V1.66976ZM6.83493 7.9493C6.52619 7.79493 6.15077 7.92007 5.9964 8.22881C5.84203 8.53754 5.96718 8.91296 6.27591 9.06733L6.93042 9.39459V9.81908L6.71201 10.1467C6.58075 10.3436 6.30216 10.3712 6.13483 10.2038L5.99736 10.0664C5.75328 9.8223 5.35756 9.8223 5.11348 10.0664C4.8694 10.3105 4.8694 10.7062 5.11348 10.9503L5.25095 11.0877C5.90073 11.7375 6.93767 11.709 7.55542 11.0821C8.17317 11.709 9.21011 11.7375 9.85989 11.0877L9.99736 10.9503C10.2414 10.7062 10.2414 10.3105 9.99736 10.0664C9.75328 9.8223 9.35756 9.8223 9.11348 10.0664L8.97601 10.2038C8.80868 10.3712 8.53009 10.3436 8.39883 10.1467L8.18042 9.81908V9.39459L8.83493 9.06733C9.14367 8.91296 9.26881 8.53754 9.11444 8.22881C8.96007 7.92007 8.58465 7.79493 8.27591 7.9493L7.55542 8.30954L6.83493 7.9493ZM5.05542 5.38332C5.4006 5.38332 5.68042 5.66314 5.68042 6.00832V6.50832C5.68042 6.85349 5.4006 7.13332 5.05542 7.13332C4.71024 7.13332 4.43042 6.85349 4.43042 6.50832V6.00832C4.43042 5.66314 4.71024 5.38332 5.05542 5.38332ZM10.6804 6.00832C10.6804 5.66314 10.4006 5.38332 10.0554 5.38332C9.71024 5.38332 9.43042 5.66314 9.43042 6.00832V6.50832C9.43042 6.85349 9.71024 7.13332 10.0554 7.13332C10.4006 7.13332 10.6804 6.85349 10.6804 6.50832V6.00832Z" fill="white"/>
</g>
<defs>
<clipPath id="clip0_1459_3551">
<rect width="14" height="14" fill="white" transform="translate(0.55542 0.00830078)"/>
</clipPath>
</defs>
</svg>
