<svg width="15" height="15" viewBox="0 0 15 15" fill="currentColor" xmlns="http://www.w3.org/2000/svg">
<g clip-path="url(#clip0_1459_3685)">
<path fill-rule="evenodd" clip-rule="evenodd" d="M5.08653 0.52012C5.95301 0.284726 6.84837 0.170837 7.5555 0.170837C8.26263 0.170837 9.158 0.284726 10.0245 0.52012C10.8844 0.753752 11.7641 1.11999 12.4032 1.65454C12.8192 2.00242 13.2443 2.54741 13.6003 3.15662C13.9588 3.77012 14.2672 4.48306 14.4287 5.18628C14.588 5.8796 14.6183 6.62496 14.3425 7.25739C14.1747 7.64211 13.9065 7.95613 13.5396 8.1819C13.3697 8.28646 13.1636 8.16238 13.1433 7.96389L13.1424 7.95615C13.0095 6.91133 12.7792 5.88466 12.584 5.12406C12.4862 4.7425 12.3964 4.42507 12.3308 4.20228C12.2981 4.09083 12.2713 4.00291 12.2526 3.94232L12.2307 3.87238L12.2248 3.85364L12.2224 3.8462C12.1164 3.51769 11.7642 3.33729 11.4357 3.44326C11.1072 3.54922 10.927 3.90206 11.0329 4.23055L11.034 4.23398L11.0389 4.24918L11.0584 4.31168C11.0755 4.36715 11.1006 4.44952 11.1317 4.55504C11.1938 4.76618 11.2795 5.0694 11.3733 5.43468C11.5608 6.16584 11.7773 7.13447 11.9014 8.10619L12.0263 9.33218C12.0278 9.40118 12.0285 9.46984 12.0285 9.53808C12.0285 11.1116 11.6338 12.182 10.7601 12.8174C9.9297 13.4214 8.77887 13.538 7.52856 13.538C6.27824 13.538 5.12742 13.4214 4.29697 12.8174C3.42326 12.182 3.02856 11.1116 3.02856 9.53808C3.02856 9.4506 3.02981 9.36243 3.03223 9.27373L3.17574 8.11386L3.17588 8.1128C3.29981 7.13886 3.51683 6.1675 3.70483 5.43468C3.79854 5.0694 3.88432 4.76618 3.94643 4.55504C3.97747 4.44952 4.00256 4.36715 4.01971 4.31168L4.03923 4.24918L4.04406 4.23398L4.04535 4.22995C4.1513 3.90145 3.97091 3.54923 3.64241 3.44326C3.3139 3.33729 2.96144 3.51847 2.85547 3.84698L2.85498 3.84849L2.85333 3.85364L2.84738 3.87238L2.82553 3.94232C2.80679 4.00291 2.78002 4.09083 2.74724 4.20228C2.6817 4.42507 2.59193 4.7425 2.49404 5.12406C2.29891 5.88466 2.06861 6.91133 1.93573 7.95615C1.91165 8.15074 1.70691 8.2687 1.5416 8.16327C1.18992 7.93898 0.931697 7.63164 0.768483 7.25739C0.492676 6.62496 0.522962 5.8796 0.682239 5.18628C0.843791 4.48306 1.15223 3.77012 1.51069 3.15662C1.86666 2.54741 2.2918 2.00242 2.70775 1.65454C3.3469 1.11999 4.22654 0.753752 5.08653 0.52012ZM5.96955 9.25857C6.12392 8.94983 6.49934 8.82469 6.80807 8.97906L7.30496 9.2275C7.44572 9.29788 7.61141 9.29788 7.75217 9.2275L8.24906 8.97906C8.55779 8.82469 8.93321 8.94983 9.08758 9.25857C9.24195 9.5673 9.11681 9.94272 8.80807 10.0971L7.80807 10.5971C7.63212 10.685 7.42501 10.685 7.24906 10.5971L6.24906 10.0971C5.94032 9.94272 5.81518 9.5673 5.96955 9.25857ZM6.15356 6.03808C6.15356 5.6929 5.87374 5.41308 5.52856 5.41308C5.18339 5.41308 4.90356 5.6929 4.90356 6.03808V6.53808C4.90356 6.88325 5.18339 7.16308 5.52856 7.16308C5.87374 7.16308 6.15356 6.88325 6.15356 6.53808V6.03808ZM10.1536 6.03808C10.1536 5.6929 9.87374 5.41308 9.52856 5.41308C9.18339 5.41308 8.90356 5.6929 8.90356 6.03808V6.53808C8.90356 6.88325 9.18339 7.16308 9.52856 7.16308C9.87374 7.16308 10.1536 6.88325 10.1536 6.53808V6.03808Z" fill="white"/>
</g>
<defs>
<clipPath id="clip0_1459_3685">
<rect width="14" height="14" fill="white" transform="translate(0.55542 0.0380249)"/>
</clipPath>
</defs>
</svg>
