<svg width="15" height="14" viewBox="0 0 15 14" fill="currentColor" xmlns="http://www.w3.org/2000/svg">
<g clip-path="url(#clip0_1459_3553)">
<path fill-rule="evenodd" clip-rule="evenodd" d="M7.66685 0.2959C7.59663 0.260905 7.51405 0.260905 7.44383 0.2959C5.70992 1.16 4.14099 2.7199 3.29007 4.49842C3.17384 4.74135 3.22599 4.99485 3.37263 5.17633C3.51587 5.3536 3.74517 5.46151 3.99791 5.46151H4.50985C4.65007 5.46151 4.74108 5.53132 4.78057 5.60496C4.81819 5.67512 4.8162 5.7566 4.74916 5.831C3.80289 6.88108 3.14017 7.83309 2.27189 9.3288C2.00886 9.78189 2.3323 10.2722 2.80494 10.3553C6.03026 10.922 9.08042 10.922 12.3057 10.3553C12.7784 10.2722 13.1018 9.78189 12.8388 9.3288C11.9705 7.83309 11.3078 6.88108 10.3615 5.831C10.2945 5.7566 10.2925 5.67512 10.3301 5.60496C10.3696 5.53132 10.4606 5.46151 10.6008 5.46151H11.1127C11.3655 5.46151 11.5948 5.3536 11.738 5.17633C11.8847 4.99485 11.9368 4.74135 11.8206 4.49842C10.9697 2.7199 9.40076 1.16 7.66685 0.2959ZM6.86108 12.3583C6.86108 12.2159 6.97978 12.1025 7.12208 12.1066C7.26772 12.1109 7.41149 12.1131 7.55257 12.1132H7.55498H7.55806C7.73456 12.1131 7.91526 12.1095 8.09861 12.103C8.24146 12.0979 8.36108 12.2116 8.36108 12.3545V13.196C8.36108 13.6103 8.0253 13.946 7.61108 13.946C7.19687 13.946 6.86108 13.6103 6.86108 13.196V12.3583Z" fill="white"/>
</g>
<defs>
<clipPath id="clip0_1459_3553">
<rect width="14" height="14" fill="white" transform="translate(0.55542 0.00830078)"/>
</clipPath>
</defs>
</svg>
