<svg width="15" height="14" viewBox="0 0 15 14" fill="currentColor" xmlns="http://www.w3.org/2000/svg">
<g clip-path="url(#clip0_1459_3515)">
<path fill-rule="evenodd" clip-rule="evenodd" d="M9.66991 1.79499C9.86925 1.80738 10.0697 1.8215 10.2715 1.83735C10.841 1.88206 11.3126 2.35302 11.3656 2.9687C11.4799 4.29748 11.5943 5.63882 11.5943 7.00834C11.5943 8.37787 11.4799 9.71921 11.3656 11.048C11.3126 11.6637 10.841 12.1346 10.2715 12.1793C8.42138 12.3246 6.68933 12.3246 4.8392 12.1793C4.26966 12.1346 3.79808 11.6637 3.74512 11.048C3.6308 9.71921 3.51636 8.37787 3.51636 7.00834C3.51636 5.63882 3.6308 4.29748 3.74511 2.9687C3.79808 2.35302 4.26966 1.88206 4.8392 1.83735C5.04104 1.8215 5.24148 1.80738 5.44082 1.79499C5.47851 2.2193 5.51426 2.63971 5.54477 3.02832C5.58226 3.50564 5.94679 3.89832 6.42406 3.93641C7.19202 3.99771 7.91871 3.99771 8.68666 3.93641C9.16394 3.89832 9.52847 3.50564 9.56595 3.02832C9.59647 2.63971 9.63222 2.21931 9.66991 1.79499ZM10.3889 0.341949C8.46064 0.190542 6.65007 0.190542 4.72178 0.341949C3.37466 0.447724 2.36245 1.54032 2.25063 2.84013C2.13707 4.16029 2.01636 5.56441 2.01636 7.00834C2.01636 8.45228 2.13707 9.85639 2.25063 11.1766C2.36245 12.4764 3.37466 13.569 4.72178 13.6747C6.65007 13.8261 8.46064 13.8261 10.3889 13.6747C11.736 13.569 12.7482 12.4764 12.8601 11.1766C12.9736 9.85639 13.0943 8.45228 13.0943 7.00834C13.0943 5.56441 12.9736 4.16029 12.8601 2.84013C12.7482 1.54032 11.736 0.447724 10.3889 0.341949Z" fill="white"/>
</g>
<defs>
<clipPath id="clip0_1459_3515">
<rect width="14" height="14" fill="white" transform="translate(0.55542 0.00830078)"/>
</clipPath>
</defs>
</svg>
