<svg width="15" height="15" viewBox="0 0 15 15" fill="currentColor" xmlns="http://www.w3.org/2000/svg">
<g clip-path="url(#clip0_1459_3687)">
<path d="M5.11921 0.903646C4.40468 0.313799 3.33969 0.394299 2.79713 1.14537C2.62095 1.38925 2.43065 1.66773 2.05334 2.1397C0.950768 3.5189 0.950772 5.51594 2.05944 6.89025C2.87787 7.90479 3.73598 8.9285 4.69525 9.88777C5.65452 10.8471 6.67824 11.7052 7.69278 12.5236C9.06709 13.6323 11.0642 13.6323 12.4434 12.5297C12.9408 12.132 13.2207 11.9448 13.4726 11.7619C14.1966 11.2362 14.2954 10.2117 13.7333 9.51554C13.2044 8.86038 12.6035 8.23905 12.0292 7.63334C11.645 7.22813 11.005 7.20347 10.5798 7.56538C10.3143 7.79129 10.1054 7.96153 9.62882 8.40832C8.0512 7.47087 7.09507 6.50306 6.17471 4.95421C6.62395 4.47502 6.79447 4.26557 7.02243 3.99786C7.38403 3.57319 7.35961 2.93452 6.95211 2.55368C6.35716 1.99766 5.75113 1.42529 5.11921 0.903646Z" fill="white"/>
</g>
<defs>
<clipPath id="clip0_1459_3687">
<rect width="14" height="14" fill="white" transform="translate(0.55542 0.0380249)"/>
</clipPath>
</defs>
</svg>
