<svg width="15" height="15" viewBox="0 0 15 15" fill="currentColor" xmlns="http://www.w3.org/2000/svg">
<g clip-path="url(#clip0_1459_3691)">
<path fill-rule="evenodd" clip-rule="evenodd" d="M11.0816 5.98492C11.1061 6.23786 11.3207 6.42843 11.5748 6.42843H13.0362C13.2613 6.42843 13.4586 6.27807 13.5183 6.06108C13.7365 5.268 13.8963 4.0519 13.7049 2.96417C13.6086 2.41737 13.4178 1.86979 13.0695 1.42617C12.7121 0.971067 12.206 0.648557 11.5381 0.544663C11.5175 0.541448 11.4966 0.539533 11.4757 0.53893C11.41 0.537034 11.3422 0.538088 11.2729 0.542374C11.2337 0.5448 11.1943 0.542699 11.155 0.540601L11.1309 0.539352C11.1228 0.538957 11.1146 0.538757 11.1064 0.538757H4.14657C4.09522 0.538757 4.04417 0.546669 3.99522 0.562214C3.40461 0.749787 2.94235 1.05611 2.597 1.4649C2.25463 1.87017 2.04721 2.35222 1.92618 2.86446C1.68844 3.87065 1.76799 5.07409 1.8855 6.23403C1.91157 6.49127 1.93953 6.74682 1.96722 6.99983C2.06814 7.92204 2.1654 8.81075 2.15346 9.62673C2.13822 10.6685 1.94257 11.4576 1.45753 11.9694C1.36353 12.0686 1.31422 12.2019 1.32106 12.3384C1.32791 12.4749 1.39032 12.6026 1.49377 12.6919L1.49493 12.6929C1.51975 12.7141 1.54605 12.7338 1.57269 12.7526C1.6139 12.7818 1.67044 12.8188 1.74402 12.8608C1.89133 12.9449 2.10597 13.0485 2.40137 13.149C2.99238 13.3502 3.90209 13.538 5.23787 13.538C6.55766 13.538 7.47846 13.4152 8.07984 13.2872C8.38055 13.2232 8.60129 13.1579 8.75196 13.106C8.82728 13.0801 8.88505 13.0576 8.92648 13.0403C8.9472 13.0316 8.96383 13.0243 8.97652 13.0185L8.99262 13.011L8.9985 13.0081L9.0009 13.007L9.00196 13.0064L9.00294 13.0059C9.06289 12.9761 9.11625 12.9346 9.15984 12.8837C9.93452 11.9804 10.1528 10.813 10.1635 9.64188C10.1672 9.23919 10.146 8.82391 10.1111 8.40586C10.075 8.07929 10.0327 7.74605 9.98974 7.40785L9.98637 7.38138C9.85907 6.38035 9.72467 5.32352 9.78513 4.38968C9.84662 3.44002 10.1163 2.4965 10.9113 1.84533C11.1783 1.62661 11.5721 1.66579 11.7908 1.93283C12.0096 2.19988 11.9704 2.59366 11.7033 2.81237C11.2932 3.14826 11.0837 3.67948 11.0325 4.47045C11.0027 4.93092 11.0288 5.43818 11.0816 5.98492ZM4.48523 3.3518C4.14005 3.3518 3.86023 3.63162 3.86023 3.9768C3.86023 4.32198 4.14005 4.6018 4.48523 4.6018H6.79231C7.13749 4.6018 7.41731 4.32198 7.41731 3.9768C7.41731 3.63162 7.13749 3.3518 6.79231 3.3518H4.48523ZM4.15869 7.03802C4.15869 6.69284 4.43851 6.41302 4.78369 6.41302H7.09077C7.43595 6.41302 7.71577 6.69284 7.71577 7.03802C7.71577 7.3832 7.43595 7.66302 7.09077 7.66302H4.78369C4.43851 7.66302 4.15869 7.3832 4.15869 7.03802ZM4.78369 9.47425C4.43851 9.47425 4.15869 9.75406 4.15869 10.0992C4.15869 10.4444 4.43851 10.7242 4.78369 10.7242H7.09077C7.43595 10.7242 7.71577 10.4444 7.71577 10.0992C7.71577 9.75406 7.43595 9.47425 7.09077 9.47425H4.78369Z" fill="white"/>
</g>
<defs>
<clipPath id="clip0_1459_3691">
<rect width="14" height="14" fill="white" transform="translate(0.55542 0.0380249)"/>
</clipPath>
</defs>
</svg>
