<svg width="15" height="14" viewBox="0 0 15 14" fill="none" xmlns="http://www.w3.org/2000/svg">
<g clip-path="url(#clip0_1459_3555)">
<path fill-rule="evenodd" clip-rule="evenodd" d="M7.55514 0.519775C6.77556 0.519775 6.01551 0.595441 5.30866 0.665811L5.09429 0.687071C4.45662 0.749815 3.92171 1.19928 3.73564 1.80306L3.70629 1.89821V1.89822C3.4109 2.85542 2.93713 4.39064 2.86323 5.76131C2.86063 5.80939 2.86056 5.8567 2.86287 5.90314H1.55542C1.14121 5.90314 0.80542 6.23892 0.80542 6.65314C0.80542 7.06735 1.14121 7.40314 1.55542 7.40314H13.5554C13.9696 7.40314 14.3054 7.06735 14.3054 6.65314C14.3054 6.23892 13.9696 5.90314 13.5554 5.90314H12.2474C12.2497 5.8567 12.2496 5.80939 12.247 5.76131C12.1731 4.39064 11.6994 2.85542 11.404 1.89822L11.3746 1.80306C11.1885 1.19928 10.6536 0.749815 10.016 0.687071L9.8016 0.665811C9.09476 0.595441 8.33471 0.519775 7.55514 0.519775ZM7.87743 11.2637C7.66691 11.2073 7.44418 11.2073 7.23366 11.2636C7.1265 12.6781 5.94488 13.7924 4.50299 13.7924C2.99051 13.7924 1.7644 12.5663 1.7644 11.0538C1.7644 9.54132 2.99051 8.31522 4.50299 8.31522C5.56059 8.31522 6.47816 8.91471 6.93442 9.79243C7.34271 9.69769 7.76835 9.69771 8.17663 9.79247C8.63289 8.91474 9.55048 8.31522 10.6081 8.31522C12.1205 8.31522 13.3467 9.54132 13.3467 11.0538C13.3467 12.5663 12.1205 13.7924 10.6081 13.7924C9.16622 13.7924 7.98461 12.6781 7.87743 11.2637ZM4.50299 9.81522C3.81894 9.81522 3.2644 10.3697 3.2644 11.0538C3.2644 11.7379 3.81894 12.2924 4.50299 12.2924C5.18704 12.2924 5.74157 11.7379 5.74157 11.0538C5.74157 10.3697 5.18704 9.81522 4.50299 9.81522ZM9.36951 11.0538C9.36951 10.3697 9.92404 9.81522 10.6081 9.81522C11.2921 9.81522 11.8467 10.3697 11.8467 11.0538C11.8467 11.7379 11.2921 12.2924 10.6081 12.2924C9.92404 12.2924 9.36951 11.7379 9.36951 11.0538Z" fill="white"/>
</g>
<defs>
<clipPath id="clip0_1459_3555">
<rect width="14" height="14" fill="white" transform="translate(0.55542 0.00830078)"/>
</clipPath>
</defs>
</svg>
