<svg width="15" height="15" viewBox="0 0 15 15" fill="none" xmlns="http://www.w3.org/2000/svg">
<g clip-path="url(#clip0_1459_3689)">
<path fill-rule="evenodd" clip-rule="evenodd" d="M6.36486 0.538025C5.99305 0.538025 5.6278 0.635994 5.3059 0.822065C4.98399 1.00814 4.7168 1.27574 4.53122 1.59793C4.34564 1.92013 4.24824 2.28552 4.24881 2.65733C4.2491 2.84573 4.27389 2.98887 4.32927 3.12923C4.33457 3.14267 4.34015 3.15605 4.34599 3.16939L2.41204 3.34045C2.1025 3.3435 1.8063 3.46778 1.5872 3.68689C1.36533 3.90875 1.2406 4.20967 1.2406 4.52343L1.2699 5.59459C1.27867 5.91498 1.44095 6.17588 1.65103 6.36421C1.85979 6.55136 2.12761 6.67916 2.38942 6.74252C2.67736 6.8122 2.94428 6.95716 3.15399 7.16688C3.45706 7.46995 3.62733 7.88101 3.62733 8.30962C3.62733 8.73822 3.45706 9.14927 3.15399 9.45234C2.94428 9.66206 2.67736 9.80702 2.38942 9.87671C2.12757 9.94007 1.85963 10.0677 1.65064 10.2548C1.44034 10.443 1.27774 10.7037 1.26847 11.0242L1.24069 11.9804V11.9876C1.24069 12.3014 1.36533 12.6023 1.5872 12.8242C1.59906 12.836 1.6121 12.8467 1.6261 12.8559C1.82868 12.9899 2.10474 13.0952 2.41837 13.18C2.73553 13.2658 3.10723 13.3346 3.51188 13.3882C4.32135 13.4953 5.27837 13.5433 6.22603 13.5375C7.17374 13.5318 8.11883 13.4723 8.90465 13.3623C9.29741 13.3073 9.6544 13.2392 9.95397 13.1574C10.2487 13.077 10.5073 12.9784 10.6892 12.8535C10.7018 12.8448 10.7136 12.835 10.7245 12.8242C10.9438 12.6049 11.0681 12.3083 11.0709 11.9985L11.2087 10.3211C11.2288 10.3295 11.2491 10.3376 11.2695 10.3451C11.4155 10.3986 11.5651 10.4237 11.7535 10.4237C12.1247 10.4238 12.4895 10.3262 12.8111 10.1408C13.1327 9.95534 13.3999 9.68851 13.5858 9.36714C13.7716 9.04576 13.8697 8.68061 13.8701 8.30935C13.8697 7.93809 13.7716 7.57346 13.5858 7.25208C13.3999 6.9307 13.1327 6.66389 12.8111 6.47843C12.4895 6.29295 12.1247 6.19536 11.7535 6.19547C11.5648 6.19552 11.4151 6.22097 11.2691 6.27477C11.2493 6.28207 11.2296 6.28986 11.2102 6.29809L11.0709 4.51311C11.0682 4.20307 10.9439 3.90632 10.7245 3.68689C10.506 3.46838 10.2108 3.34417 9.90216 3.34047L8.37722 3.17651C8.38398 3.16169 8.39043 3.14684 8.3965 3.13194C8.45379 2.99158 8.48063 2.8477 8.48092 2.65733C8.48149 2.28552 8.38408 1.92013 8.19851 1.59793C8.01293 1.27574 7.74574 1.00814 7.42383 0.822065C7.10193 0.635994 6.73668 0.538025 6.36486 0.538025Z" fill="white"/>
</g>
<defs>
<clipPath id="clip0_1459_3689">
<rect width="14" height="14" fill="white" transform="translate(0.55542 0.0380249)"/>
</clipPath>
</defs>
</svg>
