<svg width="15" height="14" viewBox="0 0 15 14" fill="none" xmlns="http://www.w3.org/2000/svg">
<g clip-path="url(#clip0_1459_3557)">
<path fill-rule="evenodd" clip-rule="evenodd" d="M5.30568 0.345726C5.50718 0.345726 5.62589 0.571875 5.51145 0.737715L4.78136 1.79573C4.5963 2.06391 4.64833 2.42927 4.90088 2.63514L6.20398 3.69737C6.30101 3.77647 6.32458 3.91514 6.25912 4.02186L5.71111 4.91529C5.53063 5.20953 5.62285 5.59436 5.91708 5.77484C6.21132 5.95532 6.59615 5.8631 6.77663 5.56887L7.72473 4.02318C7.88837 3.75639 7.82945 3.4097 7.58686 3.21195L6.31676 2.17662C6.21573 2.09427 6.19493 1.94813 6.26895 1.84085L7.23233 0.444754C7.27169 0.387714 7.3328 0.345726 7.4021 0.345726H10.8677C11.7244 0.341038 12.2914 1.0707 12.3618 1.77408L12.3624 1.77924C12.4732 3.01415 12.5335 4.73267 12.5335 5.24212C12.5335 6.80419 11.9896 8.04377 11.0648 8.88922C10.3203 9.56983 9.35864 9.96812 8.30548 10.0944V12.1703C8.61128 12.2006 8.91351 12.2432 9.16976 12.2837C9.41052 12.3217 9.6213 12.3597 9.77214 12.3882C9.84768 12.4025 9.90849 12.4144 9.95087 12.4229L10.0002 12.4329L10.0137 12.4357L10.0175 12.4365L10.0186 12.4367L10.019 12.4368H10.0192C10.0192 12.4368 10.0193 12.4368 9.86542 13.1709L10.0193 12.4368C10.4247 12.5218 10.6844 12.9193 10.5995 13.3248C10.5145 13.7301 10.117 13.9899 9.71167 13.905H9.71166H9.71165L9.71157 13.9049H9.71131L9.70907 13.9044L9.6988 13.9023L9.65634 13.8937C9.61874 13.8862 9.56326 13.8753 9.49355 13.8621C9.3539 13.8357 9.15833 13.8005 8.93568 13.7653C8.47949 13.6932 7.95013 13.6281 7.55542 13.6281C7.16071 13.6281 6.63135 13.6932 6.17516 13.7653C5.95251 13.8005 5.75695 13.8357 5.61729 13.8621C5.54758 13.8753 5.49211 13.8862 5.45451 13.8937L5.41205 13.9023L5.40177 13.9044L5.39953 13.9049H5.39928L5.3992 13.905C4.99382 13.9899 4.59634 13.7301 4.51137 13.3248C4.4264 12.9193 4.68616 12.5218 5.09157 12.4368L5.2454 13.1708C5.09157 12.4368 5.09162 12.4368 5.09168 12.4368H5.09182L5.0922 12.4367L5.09335 12.4365L5.09714 12.4357L5.11063 12.4329L5.15998 12.4229C5.20235 12.4144 5.26316 12.4025 5.3387 12.3882C5.48955 12.3597 5.70033 12.3217 5.94108 12.2837C6.19737 12.2432 6.49964 12.2006 6.80548 12.1703V10.0944C5.75226 9.96816 4.79059 9.56987 4.04603 8.88922C3.12119 8.04377 2.57727 6.80419 2.57727 5.24212C2.57727 4.73373 2.63755 2.95946 2.74864 1.77715L2.74893 1.77408C2.8194 1.07069 3.38638 0.341038 4.2431 0.345726H5.30568Z" fill="white"/>
</g>
<defs>
<clipPath id="clip0_1459_3557">
<rect width="14" height="14" fill="white" transform="translate(0.55542 0.00830078)"/>
</clipPath>
</defs>
</svg>
