<svg width="15" height="15" viewBox="0 0 15 15" fill="none" xmlns="http://www.w3.org/2000/svg">
<g clip-path="url(#clip0_1459_3697)">
<path fill-rule="evenodd" clip-rule="evenodd" d="M10.852 1.24344C11.7806 1.78093 12.4461 2.65871 12.291 3.86404L12.2905 3.86761L11.8529 7.08449C11.8354 7.21364 11.7215 7.3076 11.5914 7.30056C10.2378 7.22737 8.84837 7.17095 7.43345 7.17095C6.03679 7.17095 4.66524 7.22592 3.32842 7.29771C3.32791 7.29774 3.32746 7.29738 3.32738 7.29688L2.82353 3.89161C2.65477 2.6863 3.31064 1.80328 4.2348 1.26007C5.14209 0.726776 6.35899 0.477299 7.53964 0.474451C8.72042 0.471603 9.93958 0.715252 10.852 1.24344ZM3.78561 8.52553C3.63845 8.53299 3.52993 8.66573 3.55149 8.81149L3.75373 10.1782C3.76821 10.2761 3.83883 10.3563 3.93433 10.3821C5.08023 10.692 6.47494 10.9913 7.55547 10.9913C8.66079 10.9913 10.0949 10.6782 11.255 10.3608C11.3512 10.3345 11.4219 10.253 11.4354 10.1542L11.6163 8.82423C11.636 8.67958 11.528 8.54889 11.3823 8.54115C10.0849 8.47231 8.76801 8.42095 7.43345 8.42095C6.20212 8.42095 4.98564 8.46468 3.78561 8.52553ZM3.97598 11.6881C3.97654 11.6883 3.97708 11.6878 3.977 11.6872C3.97691 11.6866 3.97744 11.6861 3.978 11.6863C5.0915 11.9716 6.43524 12.2413 7.55547 12.2413C8.70842 12.2413 10.0981 11.9556 11.2299 11.6613C11.2301 11.6612 11.2303 11.6614 11.2303 11.6616C11.2303 11.6619 11.2305 11.6621 11.2307 11.662C11.7444 11.5213 12.1935 11.3827 12.5209 11.277C12.6969 11.2202 12.8371 11.173 12.9327 11.1402C12.9805 11.1238 13.0171 11.1111 13.0413 11.1026L13.0683 11.0931L13.0746 11.0908L13.0759 11.0904C13.4657 10.9505 13.8953 11.1531 14.0352 11.5429C14.1751 11.9328 13.9723 12.3623 13.5824 12.5023L13.5789 12.5035L13.5702 12.5066L13.5382 12.5179C13.5105 12.5276 13.4704 12.5416 13.4188 12.5592C13.3158 12.5945 13.1672 12.6446 12.982 12.7044C12.6121 12.8239 12.0945 12.9831 11.5023 13.1426C10.3365 13.4566 8.81303 13.7905 7.55543 13.7905C6.29783 13.7905 4.7744 13.4566 3.60851 13.1426C3.01635 12.9831 2.49873 12.8239 2.12883 12.7044C1.94368 12.6446 1.79504 12.5945 1.692 12.5592C1.64046 12.5416 1.6003 12.5276 1.57264 12.5179L1.54065 12.5066L1.53195 12.5035L1.52825 12.5022C1.13838 12.3623 0.935746 11.9328 1.07565 11.5429C1.21555 11.1531 1.64506 10.9505 2.0349 11.0903L2.03625 11.0908L2.04253 11.0931L2.06952 11.1026C2.09377 11.1111 2.13035 11.1238 2.17813 11.1402C2.27372 11.173 2.41398 11.2202 2.58993 11.277C2.9375 11.3893 3.42238 11.5385 3.97598 11.6881Z" fill="white"/>
</g>
<defs>
<clipPath id="clip0_1459_3697">
<rect width="14" height="14" fill="white" transform="translate(0.55542 0.0380249)"/>
</clipPath>
</defs>
</svg>
