<svg width="15" height="15" viewBox="0 0 15 15" fill="none" xmlns="http://www.w3.org/2000/svg">
<g clip-path="url(#clip0_1459_3695)">
<path fill-rule="evenodd" clip-rule="evenodd" d="M6.45292 0.902005C6.80417 1.12153 6.91095 1.58425 6.69142 1.9355L4.75236 5.038H10.3585L8.41942 1.9355C8.19989 1.58425 8.30667 1.12153 8.65792 0.902005C9.00917 0.682472 9.47189 0.789252 9.69142 1.1405L12.1273 5.038H12.5553C13.3799 5.038 14.0679 5.71217 14.0212 6.56447C13.9534 7.80078 13.7721 9.74154 13.3746 11.4541C13.1543 12.4034 12.4383 13.1678 11.4215 13.3153C10.5809 13.4372 9.32405 13.538 7.55537 13.538C5.78668 13.538 4.52986 13.4372 3.68918 13.3153C2.67241 13.1678 1.9564 12.4034 1.73607 11.4541C1.33861 9.74154 1.15733 7.80078 1.08953 6.56447C1.04279 5.71217 1.73078 5.038 2.55537 5.038H2.98348L5.41942 1.1405C5.63895 0.789252 6.10167 0.682472 6.45292 0.902005Z" fill="white"/>
</g>
<defs>
<clipPath id="clip0_1459_3695">
<rect width="14" height="14" fill="white" transform="translate(0.55542 0.0380249)"/>
</clipPath>
</defs>
</svg>
