<svg width="15" height="14" viewBox="0 0 15 14" fill="none" xmlns="http://www.w3.org/2000/svg">
<g clip-path="url(#clip0_1459_3559)">
<path fill-rule="evenodd" clip-rule="evenodd" d="M3.38731 2.80699C3.28916 2.20177 2.76655 1.75708 2.15342 1.75708H1.60522C1.19101 1.75708 0.855225 1.42129 0.855225 1.00708C0.855225 0.592867 1.19101 0.25708 1.60522 0.25708H2.15342C3.39532 0.25708 4.46843 1.08639 4.79934 2.25708H13.3294C13.8817 2.25708 14.3336 2.70598 14.2858 3.25618C14.1646 4.64958 13.8112 5.83556 13.4812 6.6454C13.2396 7.2382 12.7296 7.66171 12.1023 7.78965C11.4477 7.92318 10.4492 8.05846 9.09005 8.05846C8.11699 8.05846 7.29717 7.98912 6.64739 7.90073C6.28238 7.85107 5.95383 7.71801 5.67154 7.52226L5.82314 8.45717C5.92129 9.06238 6.4439 9.50708 7.05703 9.50708H12.6052C13.0194 9.50708 13.3552 9.84287 13.3552 10.2571C13.3552 10.6713 13.0194 11.0071 12.6052 11.0071H7.05703C5.70816 11.0071 4.5584 10.0288 4.34249 8.69727L3.38731 2.80699ZM5.95874 13.7512C6.57683 13.7512 7.07789 13.2502 7.07789 12.6321C7.07789 12.014 6.57683 11.5129 5.95874 11.5129C5.34066 11.5129 4.8396 12.014 4.8396 12.6321C4.8396 13.2502 5.34066 13.7512 5.95874 13.7512ZM13.7244 12.6321C13.7244 13.2502 13.2233 13.7512 12.6052 13.7512C11.9871 13.7512 11.4861 13.2502 11.4861 12.6321C11.4861 12.014 11.9871 11.5129 12.6052 11.5129C13.2233 11.5129 13.7244 12.014 13.7244 12.6321Z" fill="white"/>
</g>
<defs>
<clipPath id="clip0_1459_3559">
<rect width="14" height="14" fill="white" transform="translate(0.55542 0.00830078)"/>
</clipPath>
</defs>
</svg>
