<svg width="15" height="14" viewBox="0 0 15 14" fill="currentColor" xmlns="http://www.w3.org/2000/svg">
<g clip-path="url(#clip0_1459_3561)">
<path fill-rule="evenodd" clip-rule="evenodd" d="M5.39724 2.82694C5.04789 2.26473 4.21079 2.29339 3.90067 2.87567C3.67734 3.29499 3.84548 3.81861 4.28345 4.03053L4.882 4.32013C4.91161 4.33446 4.94411 4.34246 4.97695 4.34043C5.26276 4.32278 5.55886 4.30855 5.86628 4.29761C6.05945 4.29074 6.17439 4.07762 6.07237 3.91344L5.39724 2.82694ZM9.03832 3.91344C8.9363 4.07762 9.05124 4.29074 9.24441 4.29761C9.55183 4.30855 9.84793 4.32278 10.1337 4.34043C10.1666 4.34246 10.1991 4.33446 10.2287 4.32013L10.8272 4.03053C11.2652 3.81861 11.4333 3.29499 11.21 2.87567C10.8999 2.29339 10.0628 2.26473 9.71344 2.82694L9.03832 3.91344ZM12.1984 5.23543C12.1006 5.12331 12.1032 4.9508 12.203 4.8404C12.8441 4.13136 13.013 3.07008 12.5339 2.17055C11.6797 0.566602 9.39794 0.492618 8.43938 2.03527L7.76769 3.11624C7.66988 3.27365 7.4408 3.27365 7.34301 3.11624L6.6713 2.03527C5.71274 0.492618 3.43101 0.566602 2.57675 2.17055C2.09765 3.07008 2.26657 4.13136 2.90761 4.84041C3.00743 4.95081 3.01011 5.12332 2.91224 5.23543C2.55395 5.64585 2.32247 6.17177 2.27533 6.75217C2.26602 6.8668 2.25745 6.98183 2.24966 7.09727C2.23999 7.24058 2.3542 7.36133 2.49783 7.36133H6.68036C6.81843 7.36133 6.93036 7.2494 6.93036 7.11133V5.82617C6.93036 5.48099 7.21018 5.20117 7.55536 5.20117C7.90054 5.20117 8.18036 5.48099 8.18036 5.82617V7.11133C8.18036 7.2494 8.29229 7.36133 8.43036 7.36133H12.6128C12.7565 7.36133 12.8707 7.24058 12.861 7.09727C12.8532 6.98183 12.8446 6.8668 12.8353 6.75217C12.7882 6.17177 12.5567 5.64584 12.1984 5.23543ZM6.93036 8.86133C6.93036 8.72326 6.81843 8.61133 6.68036 8.61133H2.23934C2.21545 8.61133 2.19607 8.63069 2.19604 8.65458C2.19604 9.30183 2.22484 9.93532 2.27534 10.5571C2.37944 11.8388 3.38248 12.8549 4.66506 12.9479C5.28323 12.9927 5.95024 13.0205 6.67748 13.0325C6.81664 13.0348 6.93036 12.9223 6.93036 12.7831V8.86133ZM8.43324 13.0325C8.29408 13.0348 8.18036 12.9223 8.18036 12.7831V8.86133C8.18036 8.72326 8.29229 8.61133 8.43036 8.61133H12.8713C12.8952 8.61133 12.9146 8.63069 12.9146 8.65458C12.9146 9.30183 12.8858 9.93532 12.8353 10.5571C12.7312 11.8388 11.7282 12.8549 10.4456 12.9479C9.82747 12.9927 9.16047 13.0205 8.43324 13.0325Z" fill="white"/>
</g>
<defs>
<clipPath id="clip0_1459_3561">
<rect width="14" height="14" fill="white" transform="translate(0.55542 0.00830078)"/>
</clipPath>
</defs>
</svg>
