<svg width="15" height="15" viewBox="0 0 15 15" fill="currentColor" xmlns="http://www.w3.org/2000/svg">
<g clip-path="url(#clip0_1459_3693)">
<path fill-rule="evenodd" clip-rule="evenodd" d="M3.64433 3.13768C2.80378 3.97822 2.30542 5.2631 2.30542 7.0433C2.30542 8.82351 2.80378 10.1084 3.64433 10.9489C4.48488 11.7895 5.76976 12.2878 7.54996 12.2878C9.33016 12.2878 10.615 11.7895 11.4556 10.9489C12.2961 10.1084 12.7945 8.82351 12.7945 7.0433C12.7945 6.6291 13.1303 6.2933 13.5445 6.2933C13.9587 6.2933 14.2945 6.6291 14.2945 7.0433C14.2945 9.09962 13.7138 10.812 12.5162 12.0096C11.3186 13.2072 9.60627 13.7878 7.54996 13.7878C5.49366 13.7878 3.78126 13.2072 2.58367 12.0096C1.38608 10.812 0.80542 9.09962 0.80542 7.0433C0.80542 4.98701 1.38608 3.27462 2.58367 2.07702C3.78126 0.879424 5.49366 0.298767 7.54996 0.298767C7.96417 0.298767 8.29996 0.634554 8.29996 1.04877C8.29996 1.46299 7.96417 1.79877 7.54996 1.79877C5.76976 1.79877 4.48488 2.29713 3.64433 3.13768ZM7.3223 3.85995C7.41397 4.26389 7.16083 4.66566 6.75689 4.75734C6.21547 4.88021 5.84408 5.13129 5.59902 5.47232C5.34784 5.82187 5.18286 6.33165 5.18286 7.04286C5.18286 7.9023 5.42226 8.46784 5.77365 8.81923C6.12505 9.17064 6.69058 9.41002 7.55002 9.41002C8.29607 9.41002 8.82033 9.22872 9.17172 8.95564C9.51548 8.68849 9.76651 8.2775 9.86842 7.66867C9.93681 7.26015 10.3234 6.98441 10.7319 7.05279C11.1405 7.12117 11.4162 7.50779 11.3478 7.91632C11.1946 8.83169 10.7813 9.60448 10.0922 10.14C9.41065 10.6696 8.53343 10.91 7.55002 10.91C6.41448 10.91 5.42143 10.5883 4.71299 9.8799C4.00455 9.17146 3.68286 8.17841 3.68286 7.04286C3.68286 6.10556 3.90101 5.26482 4.3809 4.59699C4.86691 3.92066 5.57453 3.48754 6.4249 3.29454C6.82884 3.20287 7.23062 3.45601 7.3223 3.85995ZM10.0411 5.61253L8.08038 7.5732C7.78748 7.8661 7.31261 7.8661 7.01972 7.5732C6.72682 7.2803 6.72683 6.80544 7.01972 6.51255L8.98085 4.55141C8.78132 3.71137 9.02948 2.82247 9.64551 2.20641L11.1672 0.684675C11.2911 0.560715 11.471 0.510726 11.6411 0.552927C11.8112 0.595129 11.9469 0.723356 11.9985 0.890875L12.4002 2.19337L13.7027 2.59505C13.8702 2.64671 13.9984 2.78232 14.0406 2.95247C14.0828 3.12261 14.0329 3.30243 13.9089 3.42639L12.3873 4.94808C11.7709 5.56445 10.8814 5.81256 10.0411 5.61253Z" fill="white"/>
</g>
<defs>
<clipPath id="clip0_1459_3693">
<rect width="14" height="14" fill="white" transform="translate(0.55542 0.0380249)"/>
</clipPath>
</defs>
</svg>
