<svg width="15" height="14" viewBox="0 0 15 14" fill="currentColor" xmlns="http://www.w3.org/2000/svg">
<g clip-path="url(#clip0_1459_3577)">
<path fill-rule="evenodd" clip-rule="evenodd" d="M6.83231 1.21283C6.92798 0.809813 6.67883 0.405549 6.27582 0.309878C5.8728 0.214208 5.46854 0.463358 5.37287 0.866372L5.19003 1.63657C5.08438 2.08164 4.68684 2.39585 4.22941 2.39585C3.0823 2.39585 2.08397 3.18033 1.81266 4.29489L1.63554 5.02252C1.53757 5.42499 1.78441 5.83066 2.18687 5.92863C2.58933 6.0266 2.99501 5.77976 3.09298 5.3773L3.2701 4.64966C3.37779 4.20724 3.77408 3.89585 4.22941 3.89585C5.38181 3.89585 6.3833 3.10427 6.64947 1.98303L6.83231 1.21283ZM3.7752 9.08132C4.01208 8.34357 4.70523 7.76036 5.54504 7.76036H12.4974C13.3372 7.76036 14.0304 8.34357 14.2672 9.08131C14.3667 9.39109 14.4577 9.73788 14.4577 10.2557C14.4577 10.7735 14.3667 11.1203 14.2672 11.4301C14.0304 12.1679 13.3372 12.7511 12.4974 12.7511H5.54504C4.70523 12.7511 4.01208 12.1679 3.7752 11.4301C3.67574 11.1203 3.58472 10.7735 3.58472 10.2557C3.58472 9.73788 3.67574 9.39109 3.7752 9.08132ZM9.45267 0.767352C9.83298 0.931474 10.0082 1.37282 9.84411 1.75314L8.7496 4.28937C8.31472 5.29711 7.32225 5.94975 6.22468 5.94975H5.66626C5.25205 5.94975 4.91626 5.61396 4.91626 5.19975C4.91626 4.78554 5.25205 4.44975 5.66626 4.44975H6.22468C6.72358 4.44975 7.1747 4.15309 7.37238 3.69503L8.46689 1.15879C8.63101 0.778484 9.07236 0.603229 9.45267 0.767352ZM2.2505 8.38542C2.29499 7.9736 1.99722 7.60369 1.5854 7.5592C1.17358 7.5147 0.803672 7.81248 0.75918 8.2243C0.743457 8.36982 0.721807 8.53226 0.698609 8.70631L0.698607 8.70632C0.636372 9.17326 0.562988 9.72384 0.562988 10.256C0.562988 10.7882 0.636372 11.3387 0.698607 11.8057H0.698609C0.721808 11.9797 0.743457 12.1422 0.75918 12.2877C0.803672 12.6995 1.17358 12.9973 1.5854 12.9528C1.99722 12.9083 2.29499 12.5384 2.2505 12.1266C2.22652 11.9046 2.19888 11.6982 2.17232 11.4999C2.11516 11.0731 2.06299 10.6835 2.06299 10.256C2.06299 9.8285 2.11516 9.43894 2.17232 9.01212C2.19888 8.81378 2.22652 8.60739 2.2505 8.38542Z" fill="white"/>
</g>
<defs>
<clipPath id="clip0_1459_3577">
<rect width="14" height="14" fill="white" transform="translate(0.55542 0.00830078)"/>
</clipPath>
</defs>
</svg>
