<svg width="15" height="14" viewBox="0 0 15 14" fill="none" xmlns="http://www.w3.org/2000/svg">
<g clip-path="url(#clip0_1459_3575)">
<path fill-rule="evenodd" clip-rule="evenodd" d="M6.54374 2.06103C6.54374 0.929428 7.46108 0.012085 8.59268 0.012085C9.72428 0.012085 10.6416 0.929428 10.6416 2.06103C10.6416 3.19263 9.72428 4.10997 8.59268 4.10997C7.46108 4.10997 6.54374 3.19263 6.54374 2.06103ZM10.767 8.76653L10.2146 6.25112C10.0355 5.43553 9.31301 4.85446 8.47799 4.85446C7.49603 4.85446 6.69999 5.6505 6.69999 6.63247V8.50652C6.69999 9.47302 7.4835 10.2565 8.44999 10.2565H10.1616C10.9934 10.2565 11.404 10.3066 11.6828 10.5601C11.9583 10.8106 12.2961 11.4571 12.2961 13.2583C12.2961 13.6725 12.6319 14.0083 13.0461 14.0083C13.4603 14.0083 13.7961 13.6725 13.7961 13.2583C13.7961 11.3869 13.4696 10.1575 12.6919 9.45028C12.1151 8.9258 11.3957 8.79774 10.767 8.76653ZM2.31732 10.1223C2.16928 8.68544 3.21405 7.40065 4.65088 7.25261C5.06292 7.21016 5.36252 6.84172 5.32007 6.42969C5.27762 6.01766 4.90918 5.71806 4.49715 5.76051C2.23626 5.99345 0.592274 8.0151 0.825216 10.276C1.05816 12.5369 3.07981 14.1809 5.34071 13.9479C6.6249 13.8156 7.71033 13.1053 8.36455 12.1048C8.59124 11.7581 8.49396 11.2933 8.14728 11.0666C7.80059 10.8399 7.33579 10.9372 7.10911 11.2839C6.69162 11.9224 6.0026 12.3718 5.18698 12.4558C3.75015 12.6039 2.46536 11.5591 2.31732 10.1223Z" fill="white"/>
</g>
<defs>
<clipPath id="clip0_1459_3575">
<rect width="14" height="14" fill="white" transform="translate(0.55542 0.00830078)"/>
</clipPath>
</defs>
</svg>
