<svg width="15" height="15" viewBox="0 0 15 15" fill="currentColor" xmlns="http://www.w3.org/2000/svg">
<g clip-path="url(#clip0_1459_3699)">
<path fill-rule="evenodd" clip-rule="evenodd" d="M7.55542 1.78802C5.6533 1.78802 3.97436 2.80219 2.79474 3.90381C2.20025 4.45899 1.71529 5.05189 1.37535 5.58345C1.20547 5.84906 1.06741 6.10623 0.970233 6.34163C0.876851 6.56782 0.80542 6.81121 0.80542 7.03802C0.80542 7.26483 0.876851 7.50822 0.970233 7.73442C1.06741 7.96982 1.20547 8.22698 1.37535 8.49261C1.71529 9.02417 2.20025 9.61706 2.79474 10.1722C3.97436 11.2738 5.6533 12.288 7.55542 12.288C9.45754 12.288 11.1365 11.2738 12.3161 10.1722C12.9106 9.61706 13.3955 9.02417 13.7355 8.49261C13.9053 8.22698 14.0434 7.96982 14.1406 7.73442C14.234 7.50822 14.3054 7.26483 14.3054 7.03802C14.3054 6.81121 14.234 6.56782 14.1406 6.34163C14.0434 6.10623 13.9053 5.84906 13.7355 5.58345C13.3955 5.05189 12.9106 4.45899 12.3161 3.90381C11.1365 2.80219 9.45754 1.78802 7.55542 1.78802ZM5.86315 6.22964C5.74602 6.47441 5.68042 6.74855 5.68042 7.03802C5.68042 8.07355 6.51989 8.91302 7.55542 8.91302C7.84489 8.91302 8.11903 8.84742 8.3638 8.7303L5.86315 6.22964ZM6.74704 5.34576L9.24769 7.84641C9.36483 7.60163 9.43042 7.3275 9.43042 7.03802C9.43042 6.00249 8.59095 5.16302 7.55542 5.16302C7.26595 5.16302 6.99181 5.22863 6.74704 5.34576ZM4.43042 7.03802C4.43042 5.31213 5.82953 3.91302 7.55542 3.91302C9.28131 3.91302 10.6804 5.31213 10.6804 7.03802C10.6804 8.76392 9.28131 10.163 7.55542 10.163C5.82953 10.163 4.43042 8.76392 4.43042 7.03802Z" fill="white"/>
</g>
<defs>
<clipPath id="clip0_1459_3699">
<rect width="14" height="14" fill="white" transform="translate(0.55542 0.0380249)"/>
</clipPath>
</defs>
</svg>
