<svg width="15" height="14" viewBox="0 0 15 14" fill="currentColor" xmlns="http://www.w3.org/2000/svg">
<g clip-path="url(#clip0_1459_3517)">
<path fill-rule="evenodd" clip-rule="evenodd" d="M9.875 2.96631C9.68715 2.96631 9.50927 3.0508 9.39058 3.19639C9.27188 3.34199 9.22497 3.53325 9.26282 3.71724L9.61714 5.4396L7.59463 6.99963L6.53408 5.43494H6.60781C6.95299 5.43494 7.23281 5.15511 7.23281 4.80994C7.23281 4.46476 6.95299 4.18494 6.60781 4.18494H4.31987C3.9747 4.18494 3.69487 4.46476 3.69487 4.80994C3.69487 5.15511 3.9747 5.43494 4.31987 5.43494H5.024L6.603 7.76452L5.78869 8.39262C5.25227 7.93583 4.55689 7.66016 3.79713 7.66016C2.09968 7.66016 0.723633 9.03621 0.723633 10.7336C0.723633 12.4311 2.09968 13.8071 3.79713 13.8071C5.49457 13.8071 6.87062 12.4311 6.87062 10.7336C6.87062 10.2474 6.75772 9.78757 6.55669 9.37888L7.70452 8.49352C7.74163 8.47783 7.77776 8.4583 7.81238 8.43484C7.86921 8.39632 7.91769 8.35009 7.95737 8.29849L9.89742 6.80206L10.1231 7.89926C9.01695 8.36448 8.24023 9.45836 8.24023 10.7336C8.24023 12.4311 9.61628 13.8071 11.3137 13.8071C13.0112 13.8071 14.3872 12.4311 14.3872 10.7336C14.3872 9.04837 13.0308 7.67989 11.3501 7.66037L10.6416 4.21631H10.643H10.6461H10.6493H10.6524H10.6555H10.6587H10.6618H10.665H10.6682H10.6714H10.6746H10.6778H10.6811H10.6843H10.6876H10.6908H10.6941H10.6974H10.7007H10.704H10.7074H10.7107H10.7141H10.7175H10.7208H10.7242H10.7276H10.7311H10.7345H10.738H10.7414H10.7449H10.7484H10.7519H10.7554H10.7589H10.7625H10.7661H10.7696H10.7732H10.7768H10.7804H10.7841H10.7877H10.7914H10.795H10.7987H10.8024H10.8062H10.8099H10.8136H10.8174H10.8212H10.825H10.8288H10.8326H10.8364H10.8403H10.8442H10.8481H10.852H10.8559H10.8598H10.8638H10.8677H10.8717H10.8757H10.8797H10.8837H10.8878H10.8918H10.8959H10.9H10.9041H10.9083H10.9124H10.9166H10.9207H10.9249H10.9291H10.9334H10.9376H10.9419H10.9462H10.9505H10.9548H10.9591H10.9635H10.9678H10.9722H10.9766H10.9811H10.9855H10.99H10.9944H10.9989H11.0034H11.008H11.0125H11.0171H11.0217H11.0263H11.0309H11.0356H11.0402H11.0449H11.0496H11.0543H11.0591H11.0638H11.0686H11.0734H11.0782H11.083H11.0879H11.0928H11.0977H11.1026H11.1075H11.1125H11.1175H11.1225H11.1275H11.1325H11.1376H11.1426H11.1477H11.1529H11.158H11.1632H11.1683H11.1735H11.1788H11.184H11.1893H11.1946H11.1999H11.2052H11.2105H11.2159H11.2213H11.2267H11.2322H11.2376H11.2431H11.2486H11.2541H11.2597H11.2652H11.2708H11.2764H11.2821H11.2877H11.2934H11.2991H11.3048H11.3106H11.3164H11.3221H11.328H11.3338H11.3397H11.3456H11.3515H11.3574H11.3634H11.3693H11.3753H11.3814H11.3874H11.3935H11.3996H11.4057H11.4119H11.418H11.4242H11.4304H11.4367H11.4429H11.4492H11.4556H11.4619H11.4683H11.4747H11.4811H11.4875H11.494H11.5005H11.507H11.5135H11.5201H11.5267H11.5333H11.5399H11.5466H11.5533H11.56H11.5668H11.5735H11.5803H11.5872H11.594H11.6009H11.6078H11.6147H11.6217H11.6286H11.6356H11.6427C12.0607 4.21631 12.2149 4.36313 12.2865 4.46611C12.3836 4.60577 12.4123 4.79541 12.4015 4.91772C12.3711 5.26156 12.6253 5.56491 12.9691 5.59527C13.3129 5.62563 13.6163 5.3715 13.6466 5.02766C13.6765 4.68951 13.6159 4.18846 13.3128 3.75254C12.9842 3.27995 12.4274 2.96631 11.6427 2.96631H11.6356H11.6286H11.6217H11.6147H11.6078H11.6009H11.594H11.5872H11.5803H11.5735H11.5668H11.56H11.5533H11.5466H11.5399H11.5333H11.5267H11.5201H11.5135H11.507H11.5005H11.494H11.4875H11.4811H11.4747H11.4683H11.4619H11.4556H11.4492H11.4429H11.4367H11.4304H11.4242H11.418H11.4119H11.4057H11.3996H11.3935H11.3874H11.3814H11.3753H11.3693H11.3634H11.3574H11.3515H11.3456H11.3397H11.3338H11.328H11.3221H11.3164H11.3106H11.3048H11.2991H11.2934H11.2877H11.2821H11.2764H11.2708H11.2652H11.2597H11.2541H11.2486H11.2431H11.2376H11.2322H11.2267H11.2213H11.2159H11.2105H11.2052H11.1999H11.1946H11.1893H11.184H11.1788H11.1735H11.1683H11.1632H11.158H11.1529H11.1477H11.1426H11.1376H11.1325H11.1275H11.1225H11.1175H11.1125H11.1075H11.1026H11.0977H11.0928H11.0879H11.083H11.0782H11.0734H11.0686H11.0638H11.0591H11.0543H11.0496H11.0449H11.0402H11.0356H11.0309H11.0263H11.0217H11.0171H11.0125H11.008H11.0034H10.9989H10.9944H10.99H10.9855H10.9811H10.9766H10.9722H10.9678H10.9635H10.9591H10.9548H10.9505H10.9462H10.9419H10.9376H10.9334H10.9291H10.9249H10.9207H10.9166H10.9124H10.9083H10.9041H10.9H10.8959H10.8918H10.8878H10.8837H10.8797H10.8757H10.8717H10.8677H10.8638H10.8598H10.8559H10.852H10.8481H10.8442H10.8403H10.8364H10.8326H10.8288H10.825H10.8212H10.8174H10.8136H10.8099H10.8062H10.8024H10.7987H10.795H10.7914H10.7877H10.7841H10.7804H10.7768H10.7732H10.7696H10.7661H10.7625H10.7589H10.7554H10.7519H10.7484H10.7449H10.7414H10.738H10.7345H10.7311H10.7276H10.7242H10.7208H10.7175H10.7141H10.7107H10.7074H10.704H10.7007H10.6974H10.6941H10.6908H10.6876H10.6843H10.6811H10.6778H10.6746H10.6714H10.6682H10.665H10.6618H10.6587H10.6555H10.6524H10.6493H10.6461H10.643H10.6399H10.6369H10.6338H10.6307H10.6277H10.6246H10.6216H10.6186H10.6156H10.6126H10.6096H10.6066H10.6037H10.6007H10.5978H10.5948H10.5919H10.589H10.5861H10.5832H10.5803H10.5775H10.5746H10.5717H10.5689H10.5661H10.5632H10.5604H10.5576H10.5548H10.552H10.5493H10.5465H10.5437H10.541H10.5382H10.5355H10.5328H10.53H10.5273H10.5246H10.5219H10.5192H10.5166H10.5139H10.5112H10.5086H10.5059H10.5033H10.5006H10.498H10.4954H10.4928H10.4902H10.4876H10.485H10.4824H10.4799H10.4773H10.4747H10.4722H10.4696H10.4671H10.4646H10.462H10.4595H10.457H10.4545H10.452H10.4495H10.447H10.4445H10.4421H10.4396H10.4371H10.4347H10.4322H10.4298H10.4273H10.4249H10.4225H10.42H10.4176H10.4152H10.4128H10.4104H10.408H10.4056H10.4032H10.4008H10.3984H10.396H10.3937H10.3913H10.3889H10.3866H10.3842H10.3819H10.3795H10.3772H10.3748H10.3725H10.3702H10.3678H10.3655H10.3632H10.3609H10.3586H10.3562H10.3539H10.3516H10.3493H10.347H10.3447H10.3424H10.3401H10.3378H10.3356H10.3333H10.331H10.3287H10.3265H10.3242H10.3219H10.3196H10.3174H10.3151H10.3128H10.3106H10.3083H10.3061H10.3038H10.3015H10.2993H10.297H10.2948H10.2925H10.2903H10.288H10.2858H10.2835H10.2813H10.279H10.2768H10.2746H10.2723H10.2701H10.2678H10.2656H10.2633H10.2611H10.2589H10.2566H10.2544H10.2521H10.2499H10.2477H10.2454H10.2432H10.2409H10.2387H10.2365H10.2342H10.2319H10.2297H10.2275H10.2252H10.223H10.2207H10.2185H10.2162H10.214H10.2117H10.2094H10.2072H10.2049H10.2027H10.2004H10.1981H10.1959H10.1936H10.1913H10.189H10.1867H10.1845H10.1822H10.1799H10.1776H10.1753H10.173H10.1707H10.1684H10.1661H10.1638H10.1615H10.1592H10.1569H10.1546H10.1523H10.1499H10.1476H10.1453H10.143H10.1406H10.1383H10.1359H10.1336H10.1312H10.1289H10.1265H10.1241H10.1217H10.1194H10.117H10.1146H10.1122H10.1098H10.1074H10.105H10.1026H10.1002H10.0978H10.0954H10.0929H10.0905H10.088H10.0856H10.0832H10.0807H10.0782H10.0758H10.0733H10.0708H10.0683H10.0658H10.0633H10.0608H10.0583H10.0558H10.0533H10.0507H10.0482H10.0457H10.0431H10.0406H10.038H10.0354H10.0329H10.0303H10.0277H10.0251H10.0225H10.0198H10.0172H10.0146H10.012H10.0093H10.0067H10.004H10.0013H9.99867H9.99598H9.99329H9.99059H9.98788H9.98517H9.98244H9.97971H9.97696H9.97421H9.97145H9.96869H9.96591H9.96312H9.96033H9.95752H9.95471H9.95188H9.94905H9.94621H9.94336H9.9405H9.93763H9.93475H9.93186H9.92896H9.92605H9.92313H9.9202H9.91726H9.91431H9.91135H9.90838H9.9054H9.90241H9.89941H9.89639H9.89337H9.89034H9.88729H9.88423H9.88117H9.87809H9.875ZM3.79713 8.91016C4.15098 8.91016 4.48129 9.01094 4.76091 9.18538L3.46007 10.1888C3.18676 10.3996 3.13609 10.7921 3.34691 11.0654C3.55773 11.3387 3.9502 11.3894 4.22352 11.1785L5.53168 10.1695C5.58942 10.3471 5.62062 10.5368 5.62062 10.7336C5.62062 11.7407 4.80422 12.5571 3.79713 12.5571C2.79004 12.5571 1.97363 11.7407 1.97363 10.7336C1.97363 9.72656 2.79004 8.91016 3.79713 8.91016ZM10.3835 9.16494L10.7255 10.8276C10.7951 11.1657 11.1255 11.3834 11.4636 11.3138C11.8017 11.2443 12.0194 10.9138 11.9499 10.5757L11.6123 8.93447C12.4773 9.07694 13.1372 9.82823 13.1372 10.7336C13.1372 11.7407 12.3208 12.5571 11.3137 12.5571C10.3066 12.5571 9.49023 11.7407 9.49023 10.7336C9.49023 10.0664 9.84867 9.48277 10.3835 9.16494Z" fill="white"/>
</g>
<defs>
<clipPath id="clip0_1459_3517">
<rect width="14" height="14" fill="white" transform="translate(0.55542 0.00830078)"/>
</clipPath>
</defs>
</svg>
