<svg width="15" height="15" viewBox="0 0 15 15" fill="currentColor" xmlns="http://www.w3.org/2000/svg">
<g clip-path="url(#clip0_1459_3709)">
<path fill-rule="evenodd" clip-rule="evenodd" d="M11.4016 0.457214C10.6942 0.457214 10.0709 0.657723 9.62496 1.10367C9.17903 1.5496 8.97852 2.17288 8.97852 2.8803C8.97852 3.58772 9.17903 4.21099 9.62496 4.65693C10.0709 5.10286 10.6942 5.30337 11.4016 5.30337C12.109 5.30337 12.7323 5.10286 13.1782 4.65693C13.6241 4.21099 13.8246 3.58772 13.8246 2.8803C13.8246 2.17288 13.6241 1.5496 13.1782 1.10367C12.7323 0.657723 12.109 0.457214 11.4016 0.457214ZM3.70921 0.510903C3.00179 0.510903 2.37852 0.711411 1.93258 1.15735C1.48664 1.60329 1.28613 2.22657 1.28613 2.93398C1.28613 3.6414 1.48664 4.26468 1.93258 4.71061C2.37852 5.15655 3.00179 5.35706 3.70921 5.35706C4.41663 5.35706 5.0399 5.15655 5.48584 4.71061C5.93178 4.26468 6.13229 3.6414 6.13229 2.93398C6.13229 2.22657 5.93178 1.60329 5.48584 1.15735C5.0399 0.711411 4.41663 0.510903 3.70921 0.510903ZM6.25772 6.55944C5.31707 6.27524 4.54307 6.11625 3.74254 6.11302C2.94181 6.1098 2.14635 6.26248 1.16117 6.55933C0.94997 6.62297 0.805421 6.81749 0.805421 7.03807V7.08258V7.08259C0.805389 8.54035 0.805353 10.1528 1.12113 11.4033C1.28189 12.0399 1.53626 12.6356 1.9584 13.0765C2.39628 13.5338 2.98013 13.7881 3.70928 13.7881C4.43843 13.7881 5.02229 13.5338 5.46016 13.0765C5.8823 12.6356 6.13667 12.0399 6.29742 11.4033C6.61318 10.1528 6.61315 8.5404 6.61312 7.08266L6.61311 7.03807C6.61311 6.81763 6.46875 6.6232 6.25772 6.55944ZM13.9293 13.3976C12.9681 13.6437 12.1907 13.7713 11.4006 13.77C10.6111 13.7686 9.8346 13.6384 8.87602 13.3982C8.65357 13.3425 8.49756 13.1426 8.49756 12.9132V12.8707C8.49753 11.4111 8.4975 9.77328 8.81263 8.49755C8.97277 7.84928 9.22585 7.24139 9.64577 6.79046C10.082 6.322 10.667 6.05726 11.4014 6.05726C12.1357 6.05726 12.7208 6.322 13.157 6.79046C13.5769 7.24139 13.83 7.84928 13.9902 8.49755C14.3053 9.77328 14.3053 11.4111 14.3052 12.8707V12.9132C14.3052 13.1416 14.1505 13.341 13.9293 13.3976Z" fill="white"/>
</g>
<defs>
<clipPath id="clip0_1459_3709">
<rect width="14" height="14" fill="white" transform="translate(0.55542 0.0380249)"/>
</clipPath>
</defs>
</svg>
