<svg width="15" height="14" viewBox="0 0 15 14" fill="none" xmlns="http://www.w3.org/2000/svg">
<g clip-path="url(#clip0_1459_3565)">
<path fill-rule="evenodd" clip-rule="evenodd" d="M11.3322 1.93744C9.23127 1.66295 7.95528 1.75851 5.98681 1.90591L5.62157 1.93317C5.20849 1.96379 4.89844 2.32347 4.92905 2.73655C4.95967 3.14964 5.31936 3.45968 5.73244 3.42907L6.07761 3.40334C8.05115 3.25584 9.192 3.17057 11.1379 3.4248C11.8035 3.51176 12.2758 3.86176 12.4207 4.42816L12.5459 5.31832H9.39112H9.39042C7.64469 5.31996 5.6792 5.35742 4.02198 6.55254C2.8464 7.4003 1.89357 8.5098 1.23377 9.78542C0.636976 10.9392 1.55509 12.095 2.65631 12.1588L2.94751 12.1757C6.26497 12.3684 8.38518 12.4915 12.1813 12.2687C12.6179 12.2431 13.033 12.0522 13.3445 11.8279C13.6436 11.6125 13.9755 11.2728 14.0987 10.8388C14.5209 9.35206 14.5596 7.62477 14.1749 6.13617C14.1738 6.12544 14.1726 6.11468 14.1711 6.1039L13.9009 4.18258C13.8978 4.16046 13.8937 4.1385 13.8887 4.11675C13.572 2.75815 12.4406 2.08225 11.3322 1.93744Z" fill="white"/>
</g>
<defs>
<clipPath id="clip0_1459_3565">
<rect width="14" height="14" fill="white" transform="translate(0.55542 0.00830078)"/>
</clipPath>
</defs>
</svg>
