<svg width="15" height="14" viewBox="0 0 15 14" fill="currentColor" xmlns="http://www.w3.org/2000/svg">
<g clip-path="url(#clip0_1459_3563)">
<path fill-rule="evenodd" clip-rule="evenodd" d="M6.62164 2.57289C6.84994 2.38244 7.18437 2.2583 7.55542 2.2583C7.92647 2.2583 8.2609 2.38244 8.4892 2.57289C8.71352 2.76002 8.80542 2.98155 8.80542 3.17672V3.63147C8.39281 3.61999 7.97627 3.61401 7.55542 3.61401C7.13601 3.61401 6.71913 3.61958 6.30542 3.63048V3.17672C6.30542 2.98155 6.39732 2.76002 6.62164 2.57289ZM4.80542 4.06148V3.17672C4.80542 2.48691 5.13495 1.8597 5.66077 1.42105C6.18262 0.985724 6.86561 0.758301 7.55542 0.758301C8.24523 0.758301 8.92822 0.985723 9.45007 1.42105C9.97589 1.8597 10.3054 2.48691 10.3054 3.17672V4.14124C10.3059 4.15027 10.3061 4.15936 10.3061 4.16851V13.1997C10.3061 13.4639 10.1006 13.6828 9.83682 13.6965C9.08924 13.7354 8.32891 13.7572 7.55542 13.7572C6.77657 13.7572 6.00851 13.7216 5.25714 13.671C4.9961 13.6535 4.79443 13.4358 4.79443 13.1741V4.16614C4.79443 4.13029 4.79822 4.09527 4.80542 4.06148ZM11.9346 13.5437C11.7311 13.5625 11.5561 13.4018 11.5561 13.1974V4.20501C11.5561 3.98135 11.7476 3.80551 11.9703 3.82647C13.0294 3.92614 13.9209 4.7125 14.0838 5.79034C14.225 6.72429 14.3054 7.69545 14.3054 8.68561C14.3054 9.66903 14.2175 10.6226 14.0791 11.5443C13.9151 12.6363 13.0144 13.444 11.9346 13.5437ZM3.54443 4.22091C3.54443 3.98632 3.3436 3.80186 3.11008 3.82419C2.0673 3.92391 1.18654 4.69505 1.02421 5.75924C0.88001 6.70452 0.80542 7.68783 0.80542 8.68561C0.80542 9.64913 0.879813 10.5855 1.01398 11.4962C1.18099 12.6298 2.14346 13.4179 3.23264 13.51L3.47288 13.5303C3.51138 13.5336 3.54443 13.5032 3.54443 13.4646V4.22091Z" fill="white"/>
</g>
<defs>
<clipPath id="clip0_1459_3563">
<rect width="14" height="14" fill="white" transform="translate(0.55542 0.00830078)"/>
</clipPath>
</defs>
</svg>
