<svg width="15" height="14" viewBox="0 0 15 14" fill="currentColor" xmlns="http://www.w3.org/2000/svg">
<path fill-rule="evenodd" clip-rule="evenodd" d="M6.35436 3.66122C6.3647 3.64952 6.37547 3.63806 6.38666 3.62686L6.48158 3.53195L5.54759 2.59796C5.25469 2.30506 5.25469 1.83019 5.54759 1.5373C5.84048 1.2444 6.31535 1.2444 6.60825 1.5373L7.54224 2.47129L8.47623 1.5373C8.76912 1.2444 9.24399 1.2444 9.53689 1.5373C9.82978 1.83019 9.82978 2.30506 9.53689 2.59796L8.6029 3.53195L8.64154 3.57059C11.5265 5.81776 13.1188 9.45714 13.9677 13.0115C14.021 13.2348 13.9691 13.4702 13.8269 13.6504C13.6846 13.8306 13.4677 13.9357 13.2382 13.9357H13.2355H13.2275H13.1963H13.076H12.6314H11.1466H8.68042C8.40428 13.9357 8.18042 13.7119 8.18042 13.4357V10.0083C8.18042 9.66309 7.9006 9.38327 7.55542 9.38327C7.21024 9.38327 6.93042 9.66309 6.93042 10.0083V13.4357C6.93042 13.7118 6.70655 13.9357 6.4304 13.9357L3.96409 13.9356L2.47927 13.9355H2.03469H1.91437H1.88314H1.87519H1.87251C1.64296 13.9355 1.42606 13.8303 1.28384 13.6501C1.14162 13.4699 1.08976 13.2345 1.14308 13.0113C1.98052 9.50449 3.54178 5.91461 6.35436 3.66122Z" fill="white"/>
</svg>
