<svg width="15" height="14" viewBox="0 0 15 14" fill="none" xmlns="http://www.w3.org/2000/svg">
<g clip-path="url(#clip0_1459_3567)">
<path fill-rule="evenodd" clip-rule="evenodd" d="M2.10986 7.00836C2.10986 4.00083 4.54795 1.56274 7.55548 1.56274C7.88055 1.56274 8.19897 1.59123 8.50838 1.64583V2.95738C8.50838 3.39977 8.33264 3.82405 8.01982 4.13687C7.707 4.44969 7.28273 4.62543 6.84033 4.62543C6.39794 4.62543 5.97366 4.80117 5.66084 5.11399C5.34802 5.42681 5.17228 5.85108 5.17228 6.29348V7.72324C5.17228 8.16563 4.99654 8.58991 4.68372 8.90273C4.3709 9.21555 3.94662 9.39129 3.50423 9.39129H2.65754C2.30671 8.67153 2.10986 7.86294 2.10986 7.00836ZM11.3582 10.9063C12.3718 9.91734 13.0011 8.53634 13.0011 7.00836C13.0011 6.88028 12.9967 6.75323 12.988 6.62735C12.7331 6.56553 12.471 6.53325 12.2069 6.5318H10.1766C9.73422 6.5318 9.30994 6.70754 8.99712 7.02036C8.6843 7.33318 8.50856 7.75746 8.50856 8.19985C8.50856 8.64224 8.6843 9.06652 8.99712 9.37934C9.30994 9.69216 9.73422 9.8679 10.1766 9.8679C10.4926 9.8679 10.7956 9.99343 11.0191 10.2169C11.2061 10.4039 11.3246 10.6468 11.3582 10.9063ZM7.55548 0.0627441C3.71952 0.0627441 0.609863 3.1724 0.609863 7.00836C0.609863 10.8443 3.71952 13.954 7.55548 13.954C11.3914 13.954 14.5011 10.8443 14.5011 7.00836C14.5011 3.1724 11.3914 0.0627441 7.55548 0.0627441Z" fill="white"/>
</g>
<defs>
<clipPath id="clip0_1459_3567">
<rect width="14" height="14" fill="white" transform="translate(0.55542 0.00830078)"/>
</clipPath>
</defs>
</svg>
