<svg width="15" height="14" viewBox="0 0 15 14" fill="currentColor" xmlns="http://www.w3.org/2000/svg">
<g clip-path="url(#clip0_1459_3573)">
<path fill-rule="evenodd" clip-rule="evenodd" d="M8.30542 1.53101C8.30542 1.11679 7.96963 0.781006 7.55542 0.781006C7.14121 0.781006 6.80542 1.11679 6.80542 1.53101V2.84693C6.03936 2.87985 5.42798 2.96798 4.73317 3.11313C4.34275 3.19469 3.98303 3.43676 3.78143 3.81302C3.49717 4.34356 3.29267 4.90748 3.18106 5.48754C3.14136 5.69382 2.98955 5.86363 2.78515 5.91204C2.65348 5.94323 2.52128 5.97522 2.38841 6.00793C1.83508 6.14414 1.42276 6.57954 1.27844 7.10512L1.26254 7.16299L1.25527 7.18943C1.114 7.70301 0.94751 8.30827 0.94751 8.93989C0.94751 9.54597 1.10025 10.1246 1.23639 10.6216C1.32719 10.953 1.73708 10.825 1.86299 10.5052C2.23525 9.55967 3.15664 8.8905 4.23432 8.8905C5.64129 8.8905 6.78186 10.0311 6.78186 11.4381C6.78186 11.6945 6.9702 11.9308 7.22661 11.9326C7.33591 11.9334 7.44546 11.9338 7.55526 11.9338C7.66513 11.9338 7.77475 11.9334 7.88411 11.9326C8.14052 11.9308 8.32886 11.6945 8.32886 11.4381C8.32886 10.0311 9.46943 8.8905 10.8764 8.8905C11.9541 8.8905 12.8755 9.55971 13.2477 10.5052C13.3736 10.8249 13.7833 10.9529 13.8741 10.6216C14.0103 10.1246 14.163 9.54597 14.163 8.93989C14.163 8.30828 13.9965 7.70303 13.8552 7.18945L13.848 7.163L13.8358 7.11878C13.6883 6.58193 13.2623 6.1437 12.6993 6.01325C12.5773 5.98498 12.4547 5.95679 12.3316 5.92885C12.1252 5.88202 11.9718 5.71097 11.9318 5.50316C11.8211 4.92716 11.6174 4.36941 11.3356 3.83305C11.1313 3.44431 10.7604 3.19422 10.357 3.1133C9.64462 2.97038 9.05234 2.88233 8.30542 2.84828V1.53101ZM12.4239 11.4381C12.4239 11.5521 12.4116 11.6633 12.3882 11.7704C12.2361 12.4654 11.617 12.9856 10.8764 12.9856C10.1809 12.9856 9.59262 12.5268 9.39756 11.8954C9.3529 11.7509 9.32886 11.5973 9.32886 11.4381C9.32886 10.5834 10.0217 9.8905 10.8764 9.8905C11.7311 9.8905 12.4239 10.5834 12.4239 11.4381ZM2.72254 11.7704C2.87463 12.4654 3.49371 12.9856 4.23432 12.9856C4.92978 12.9856 5.5181 12.5268 5.71316 11.8954C5.75782 11.7509 5.78186 11.5973 5.78186 11.4381C5.78186 10.5834 5.089 9.8905 4.23432 9.8905C3.37963 9.8905 2.68677 10.5834 2.68677 11.4381C2.68677 11.5521 2.69912 11.6633 2.72254 11.7704Z" fill="white"/>
</g>
<defs>
<clipPath id="clip0_1459_3573">
<rect width="14" height="14" fill="white" transform="translate(0.55542 0.00830078)"/>
</clipPath>
</defs>
</svg>
