<svg width="15" height="14" viewBox="0 0 15 14" fill="none" xmlns="http://www.w3.org/2000/svg">
<g clip-path="url(#clip0_1459_3579)">
<path fill-rule="evenodd" clip-rule="evenodd" d="M7.5554 0.437256C6.84798 0.437256 6.22471 0.637765 5.77877 1.0837C5.33283 1.52964 5.13232 2.15291 5.13232 2.86033C5.13232 3.56775 5.33283 4.19102 5.77877 4.63696C6.22471 5.0829 6.84798 5.28341 7.5554 5.28341C8.26282 5.28341 8.88609 5.0829 9.33203 4.63696C9.77797 4.19102 9.97848 3.56775 9.97848 2.86033C9.97848 2.15291 9.77797 1.52964 9.33203 1.0837C8.88609 0.637765 8.26282 0.437256 7.5554 0.437256ZM10.5866 13.2419C9.47 13.536 8.55447 13.7145 7.60876 13.726C6.6599 13.7375 5.70852 13.5808 4.51411 13.2392C4.29953 13.1778 4.15161 12.9816 4.15161 12.7584C4.15161 11.2546 4.27579 9.62561 4.7315 8.3563C4.96052 7.71843 5.28493 7.13765 5.75057 6.71272C6.22724 6.27773 6.82929 6.02766 7.55546 6.02766C8.28163 6.02766 8.88368 6.27773 9.36034 6.71272C9.82599 7.13765 10.1504 7.71843 10.3794 8.3563C10.8351 9.62561 10.9593 11.2546 10.9593 12.7584C10.9593 12.9855 10.8062 13.1841 10.5866 13.2419Z" fill="white"/>
</g>
<defs>
<clipPath id="clip0_1459_3579">
<rect width="14" height="14" fill="white" transform="translate(0.55542 0.00830078)"/>
</clipPath>
</defs>
</svg>
