<svg width="15" height="15" viewBox="0 0 15 15" fill="none" xmlns="http://www.w3.org/2000/svg">
<g clip-path="url(#clip0_1459_3705)">
<path fill-rule="evenodd" clip-rule="evenodd" d="M5.2037 2.03055C3.83973 0.501425 2.14958 0.377019 1.35139 0.643083C1.22985 0.683596 1.15861 0.809426 1.1864 0.934487L2.00767 4.63019H1.43042C1.01621 4.63019 0.68042 4.96598 0.68042 5.38019C0.68042 5.79441 1.01621 6.13019 1.43042 6.13019H1.89666L1.1865 9.32588C1.15871 9.45094 1.22995 9.57677 1.35149 9.61728C2.0932 9.86452 3.60318 9.77425 4.90656 8.53677C4.92964 8.51484 4.94765 8.48953 4.9605 8.46232C5.9708 9.26859 7.27592 9.9479 8.90286 10.1286C10.7659 10.3357 12.1578 9.81888 13.0822 8.89437C14.0009 7.97561 14.4304 6.68183 14.4304 5.3801C14.4305 4.07835 14.001 2.78461 13.0822 1.86586C12.1578 0.941373 10.7659 0.424613 8.90286 0.631618C7.42218 0.796137 6.20807 1.37361 5.24016 2.08391C5.23057 2.065 5.21842 2.04705 5.2037 2.03055ZM6.40364 10.7646C6.06807 10.6253 5.67976 10.8485 5.70716 11.2108C5.73053 11.5199 5.77993 11.8228 5.85486 12.1454C5.93659 12.4972 6.15107 12.8028 6.44977 13.0008C6.76631 13.2107 7.12475 13.4127 7.56853 13.4992C8.01822 13.5868 8.50963 13.5475 9.08851 13.3546C9.81518 13.1123 10.1874 12.5156 10.3616 11.9294C10.4426 11.6567 10.2033 11.4124 9.91894 11.4206C9.54791 11.4314 9.16287 11.4153 8.76482 11.3711C7.89798 11.2748 7.1121 11.0587 6.40364 10.7646Z" fill="white"/>
</g>
<defs>
<clipPath id="clip0_1459_3705">
<rect width="14" height="14" fill="white" transform="translate(0.55542 0.0380249)"/>
</clipPath>
</defs>
</svg>
