<svg width="15" height="15" viewBox="0 0 15 15" fill="none" xmlns="http://www.w3.org/2000/svg">
<g clip-path="url(#clip0_1459_3701)">
<path fill-rule="evenodd" clip-rule="evenodd" d="M5.48814 1.12201C4.99437 1.12201 4.58281 1.38608 4.31099 1.74306C4.03948 2.09964 3.88599 2.57025 3.88599 3.06947C3.88599 3.56868 4.03948 4.0393 4.31099 4.39587C4.58281 4.75285 4.99437 5.01692 5.48814 5.01692C5.98191 5.01692 6.39346 4.75285 6.66528 4.39587C6.9368 4.0393 7.09029 3.56868 7.09029 3.06947C7.09029 2.57025 6.9368 2.09964 6.66528 1.74306C6.39346 1.38608 5.98191 1.12201 5.48814 1.12201ZM9.6229 1.12201C9.12914 1.12201 8.71758 1.38608 8.44576 1.74306C8.17425 2.09964 8.02075 2.57025 8.02075 3.06947C8.02075 3.56868 8.17425 4.0393 8.44576 4.39587C8.71758 4.75285 9.12914 5.01692 9.6229 5.01692C10.1167 5.01692 10.5282 4.75285 10.8 4.39587C11.0715 4.0393 11.225 3.56868 11.225 3.06947C11.225 2.57025 11.0715 2.09964 10.8 1.74306C10.5282 1.38608 10.1167 1.12201 9.6229 1.12201ZM12.6083 4.79694C11.5943 4.79694 10.9502 5.77864 10.9502 6.74439C10.9502 7.71014 11.5943 8.69185 12.6083 8.69185C13.6224 8.69185 14.2665 7.71014 14.2665 6.74439C14.2665 5.77864 13.6224 4.79694 12.6083 4.79694ZM2.50215 4.79694C1.48809 4.79694 0.843994 5.77864 0.843994 6.74439C0.843994 7.71014 1.48809 8.69185 2.50215 8.69185C3.5162 8.69185 4.1603 7.71014 4.1603 6.74439C4.1603 5.77864 3.5162 4.79694 2.50215 4.79694ZM7.5553 6.64673C6.38949 6.64673 5.52785 7.27186 4.97677 8.04612C4.43354 8.80936 4.1604 9.75521 4.1604 10.5241C4.1604 11.424 4.70149 12.0489 5.36183 12.4234C6.01209 12.7921 6.82606 12.954 7.5553 12.954C8.28455 12.954 9.09852 12.7921 9.74878 12.4234C10.4091 12.0489 10.9502 11.424 10.9502 10.5241C10.9502 9.75521 10.677 8.80936 10.1338 8.04612C9.58276 7.27186 8.72112 6.64673 7.5553 6.64673Z" fill="white"/>
</g>
<defs>
<clipPath id="clip0_1459_3701">
<rect width="14" height="14" fill="white" transform="translate(0.55542 0.0380249)"/>
</clipPath>
</defs>
</svg>
