<svg width="15" height="15" viewBox="0 0 15 15" fill="none" xmlns="http://www.w3.org/2000/svg">
<g clip-path="url(#clip0_1459_3707)">
<path fill-rule="evenodd" clip-rule="evenodd" d="M7.5554 0.519348C6.84798 0.519348 6.22471 0.719857 5.77877 1.1658C5.33283 1.61174 5.13232 2.23501 5.13232 2.94243C5.13232 3.64985 5.33283 4.27312 5.77877 4.71906C6.22471 5.165 6.84798 5.36551 7.5554 5.36551C8.26282 5.36551 8.88609 5.165 9.33203 4.71906C9.77797 4.27312 9.97848 3.64985 9.97848 2.94243C9.97848 2.23501 9.77797 1.61174 9.33203 1.1658C8.88609 0.719857 8.26282 0.519348 7.5554 0.519348ZM10.574 6.55138C9.4191 6.27914 8.49268 6.14003 7.55468 6.14161C6.6173 6.14319 5.69169 6.28525 4.53933 6.55082C4.31239 6.60312 4.15161 6.80515 4.15161 7.03804C4.15161 8.54193 4.27582 10.1753 4.73129 11.449C4.96014 12.089 5.2843 12.6721 5.74965 13.0989C6.22611 13.5359 6.82844 13.7878 7.55546 13.7878C8.28249 13.7878 8.88482 13.5359 9.36128 13.0989C9.82663 12.6721 10.1508 12.089 10.3796 11.449C10.8351 10.1753 10.9593 8.54193 10.9593 7.03804C10.9593 6.8061 10.7998 6.6046 10.574 6.55138Z" fill="white"/>
</g>
<defs>
<clipPath id="clip0_1459_3707">
<rect width="14" height="14" fill="white" transform="translate(0.55542 0.0380249)"/>
</clipPath>
</defs>
</svg>
