<svg width="15" height="15" viewBox="0 0 15 15" fill="currentColor" xmlns="http://www.w3.org/2000/svg">
<g clip-path="url(#clip0_1459_3703)">
<path fill-rule="evenodd" clip-rule="evenodd" d="M7.55557 0.412903C3.8966 0.412903 0.93042 3.37908 0.93042 7.03804C0.93042 10.697 3.8966 13.6632 7.55557 13.6632C11.2145 13.6632 14.1807 10.697 14.1807 7.03804C14.1807 3.37908 11.2145 0.412903 7.55557 0.412903ZM10.8206 4.15668C10.9369 5.30166 10.5475 6.49263 9.95595 7.57785C9.80195 7.86037 9.42103 7.90363 9.1935 7.67608L6.91732 5.39981C6.6898 5.17227 6.73305 4.79136 7.01558 4.63736C8.10077 4.04585 9.29175 3.65634 10.4367 3.77267C10.6401 3.79335 10.8 3.95322 10.8206 4.15668ZM5.15489 6.4982C4.56337 7.58342 4.1739 8.77439 4.29017 9.91936C4.31084 10.1228 4.47069 10.2827 4.67415 10.3033C5.81909 10.4197 7.01007 10.0302 8.09526 9.43868C8.37779 9.28468 8.42104 8.90378 8.19352 8.67624L5.91734 6.39996C5.68981 6.17242 5.30889 6.21567 5.15489 6.4982Z" fill="white"/>
</g>
<defs>
<clipPath id="clip0_1459_3703">
<rect width="14" height="14" fill="white" transform="translate(0.55542 0.0380249)"/>
</clipPath>
</defs>
</svg>
