<svg width="15" height="14" viewBox="0 0 15 14" fill="none" xmlns="http://www.w3.org/2000/svg">
<g clip-path="url(#clip0_1459_3571)">
<path fill-rule="evenodd" clip-rule="evenodd" d="M8.30542 1.15747C8.30542 0.743257 7.96963 0.407471 7.55542 0.407471C7.14121 0.407471 6.80542 0.743257 6.80542 1.15747V13.1053C6.80542 13.5195 7.14121 13.8553 7.55542 13.8553C7.96963 13.8553 8.30542 13.5195 8.30542 13.1053V1.15747ZM5.55542 1.16676C5.55542 0.882874 5.31933 0.655867 5.03576 0.669418C4.70665 0.685145 4.38357 0.702701 4.0611 0.720225H4.06109L4.05682 0.720457C3.66246 0.741887 3.26956 0.763234 2.86534 0.781361C2.52485 0.79663 2.18386 0.925549 1.92087 1.17706C1.63695 1.44859 1.31383 1.79095 1.05839 2.1608C0.811493 2.51827 0.581299 2.96713 0.581299 3.43951C0.581299 3.91193 0.805567 4.33669 1.04903 4.67876C1.29673 5.02679 1.61485 5.35719 1.88845 5.63886C2.15906 5.91747 2.52613 6.08219 2.91362 6.09985C3.30094 6.1175 3.6782 6.138 4.05681 6.15857L4.0612 6.15881L4.06133 6.15882H4.06145C4.3838 6.17634 4.70677 6.19389 5.03576 6.20961C5.31933 6.22316 5.55542 5.99616 5.55542 5.71227V1.16676ZM9.55542 9.94514C9.55542 10.2289 9.79137 10.4559 10.0748 10.4425C10.4129 10.4264 10.7444 10.4084 11.0753 10.3904H11.0755L11.0799 10.3902C11.4585 10.3696 11.8358 10.3491 12.2231 10.3315C12.6106 10.3138 12.9776 10.1491 13.2483 9.87047C13.5218 9.5888 13.84 9.25839 14.0877 8.91037C14.3311 8.5683 14.5554 8.14353 14.5554 7.67112C14.5554 7.19873 14.3252 6.74988 14.0783 6.39241C13.8229 6.02256 13.4998 5.6802 13.2158 5.40867C12.9528 5.15716 12.6118 5.02824 12.2714 5.01297C11.8671 4.99484 11.4742 4.97349 11.0799 4.95206L11.0756 4.95183L11.0755 4.95182C10.7445 4.93384 10.4129 4.91582 10.0748 4.89978C9.79137 4.88633 9.55542 5.11331 9.55542 5.3971V9.94514Z" fill="white"/>
</g>
<defs>
<clipPath id="clip0_1459_3571">
<rect width="14" height="14" fill="white" transform="translate(0.55542 0.00830078)"/>
</clipPath>
</defs>
</svg>
