<svg width="15" height="14" viewBox="0 0 15 14" fill="currentColor" xmlns="http://www.w3.org/2000/svg">
<g clip-path="url(#clip0_1459_3581)">
<path fill-rule="evenodd" clip-rule="evenodd" d="M6.33044 2.35121C7.51625 2.03925 8.81825 2.17692 9.96319 2.83795C12.2664 4.16771 13.0555 7.11282 11.7258 9.41603L11.6457 9.55477L11.2498 9.32622C11.069 9.22182 10.8423 9.24078 10.6813 9.37377C10.5204 9.50675 10.459 9.72577 10.5274 9.92304L11.0502 11.4307C11.1316 11.6655 11.373 11.8048 11.6169 11.7579L13.184 11.4569C13.3891 11.4175 13.5481 11.2548 13.5828 11.0489C13.6174 10.843 13.5205 10.6372 13.3397 10.5328L12.9447 10.3048L13.0248 10.166C14.7688 7.14538 13.7338 3.28288 10.7132 1.53891C9.21207 0.672237 7.50149 0.492095 5.94881 0.90057C5.54822 1.00595 5.30892 1.41612 5.4143 1.8167C5.51969 2.21729 5.92985 2.45659 6.33044 2.35121ZM2.05534 3.90433L1.64246 3.66595C1.46163 3.56155 1.36472 3.35577 1.3994 3.14987C1.43409 2.94398 1.59307 2.78131 1.79812 2.74191L3.39196 2.4357C3.63593 2.38882 3.87731 2.52818 3.95871 2.7629L4.49043 4.29632C4.55884 4.4936 4.49746 4.71261 4.33649 4.8456C4.17552 4.97859 3.94886 4.99755 3.76803 4.89315L3.35446 4.65437C2.0677 6.94945 2.86239 9.85919 5.14769 11.1786C6.30633 11.8476 7.62591 11.9806 8.8231 11.6539C9.2227 11.5449 9.63503 11.7805 9.74406 12.1801C9.85309 12.5797 9.61752 12.992 9.21792 13.101C7.65049 13.5287 5.91687 13.3548 4.39769 12.4777C1.39494 10.744 0.354426 6.91689 2.05534 3.90433ZM6.59308 5.0281C5.64684 5.0281 4.87976 5.79518 4.87976 6.74142C4.87976 7.46522 5.3183 8.0862 5.82688 8.57482C6.3406 9.06838 6.96758 9.46682 7.42636 9.74329C7.50573 9.79112 7.60506 9.79112 7.68443 9.74329C8.14321 9.46682 8.77019 9.06838 9.28391 8.57482C9.79249 8.0862 10.231 7.46522 10.231 6.74142C10.231 5.79518 9.46395 5.0281 8.51771 5.0281C8.16116 5.0281 7.82969 5.13723 7.5554 5.32371C7.2811 5.13723 6.94963 5.0281 6.59308 5.0281Z" fill="white"/>
</g>
<defs>
<clipPath id="clip0_1459_3581">
<rect width="14" height="14" fill="white" transform="translate(0.55542 0.00830078)"/>
</clipPath>
</defs>
</svg>
