<svg  viewBox="0 0 24 24" fill="none" xmlns="http://www.w3.org/2000/svg">
<path d="M3.35288 8.95043C4.00437 6.17301 6.17301 4.00437 8.95043 3.35288C10.9563 2.88237 13.0437 2.88237 15.0496 3.35288C17.827 4.00437 19.9956 6.17301 20.6471 8.95044C21.1176 10.9563 21.1176 13.0437 20.6471 15.0496C19.9956 17.827 17.827 19.9956 15.0496 20.6471C13.0437 21.1176 10.9563 21.1176 8.95044 20.6471C6.17301 19.9956 4.00437 17.827 3.35288 15.0496C2.88237 13.0437 2.88237 10.9563 3.35288 8.95043Z" stroke="#0095FF" stroke-width="1.5" stroke-linejoin="round"/>
<path d="M20.6471 15.0496C21.1176 13.0437 21.1176 10.9563 20.6471 8.95044C19.9956 6.17301 17.827 4.00437 15.0496 3.35288C13.0437 2.88237 10.9563 2.88237 8.95043 3.35288C6.17301 4.00437 4.00437 6.17301 3.35288 8.95043C2.88237 10.9563 2.88237 13.0437 3.35288 15.0496C4.00437 17.827 6.17301 19.9956 8.95044 20.6471" stroke="#363853" stroke-width="1.5" stroke-linecap="round" stroke-linejoin="round"/>
<path d="M12 7.83887C10.5637 7.83887 9.39929 9.00323 9.39929 10.4395C9.39929 11.3415 9.85849 12.1363 10.5559 12.6028L9.84194 14.7992C9.62346 15.4714 10.1245 16.161 10.8313 16.161H13.1687C13.8755 16.161 14.3765 15.4714 14.158 14.7992L13.4441 12.6028C14.1415 12.1363 14.6007 11.3415 14.6007 10.4395C14.6007 9.00323 13.4363 7.83887 12 7.83887Z" stroke="#0095FF" stroke-width="1.5" stroke-linejoin="round"/>
</svg>
