<svg width="15" height="15" viewBox="0 0 15 15" fill="currentColor" xmlns="http://www.w3.org/2000/svg">
<path fill-rule="evenodd" clip-rule="evenodd" d="M11.375 5.00688C10.4444 6.30192 9.5125 7.44495 8.4314 8.6173C8.10395 8.97239 7.56399 9.04313 7.15643 8.77105C6.1619 8.10708 5.29505 7.40033 4.4444 6.55988C4.09582 6.21548 4.05636 5.67233 4.33824 5.28007C5.26885 3.98503 6.20077 2.842 7.28187 1.66966C7.60932 1.31456 8.14929 1.24382 8.55684 1.51591C9.55137 2.17987 10.4182 2.88663 11.2688 3.72707C11.6174 4.07148 11.6569 4.61462 11.375 5.00688ZM2.82359 6.56084L2.62035 6.56855C1.92628 6.59539 1.32116 7.10352 1.22322 7.81769C1.03302 9.2047 1.03302 10.5255 1.22322 11.9125C1.32115 12.6266 1.92628 13.1348 2.62035 13.1616C5.96631 13.291 9.05719 13.291 12.4031 13.1616C13.0972 13.1348 13.7023 12.6266 13.8003 11.9125C13.9905 10.5255 13.9905 9.2047 13.8003 7.8177C13.7023 7.10352 13.0972 6.59539 12.4031 6.56855C12.2424 6.56234 12.0823 6.55642 11.9227 6.5508C11.8414 6.54794 11.7639 6.58497 11.7146 6.64971C11.2141 7.30719 10.7033 7.93497 10.1622 8.55794C10.0205 8.72102 10.1354 8.97712 10.3515 8.97712H10.698C11.0432 8.97712 11.323 9.25694 11.323 9.60212C11.323 9.9473 11.0432 10.2271 10.698 10.2271H4.32568C3.98051 10.2271 3.70068 9.9473 3.70068 9.60212C3.70068 9.25694 3.98051 8.97712 4.32568 8.97712H4.57487C4.81298 8.97712 4.91928 8.6719 4.73703 8.51866C4.33718 8.18246 3.94954 7.82817 3.56573 7.44896C3.35119 7.237 3.18842 6.99222 3.07774 6.73037C3.03432 6.62764 2.93504 6.55669 2.82359 6.56084Z" fill="black"/>
</svg>
