<svg width="15" height="15" viewBox="0 0 15 15" fill="none" xmlns="http://www.w3.org/2000/svg">
<g clip-path="url(#clip0_1121_925)">
<path fill-rule="evenodd" clip-rule="evenodd" d="M2.83438 3.1628C2.83187 3.12934 2.8422 3.08967 2.88279 3.04912C2.92451 3.00744 2.9935 2.97229 3.08404 2.97229H11.9396C12.0301 2.97229 12.0991 3.00744 12.1408 3.04912C12.1814 3.08967 12.1917 3.12934 12.1892 3.1628L11.7658 8.81481C10.7278 8.8564 9.29489 8.89412 7.51173 8.89412C5.72868 8.89412 4.29576 8.8564 3.25778 8.81482L2.83438 3.1628ZM1.74899 8.75364L1.33857 3.27485C1.26153 2.24643 2.12476 1.47229 3.08404 1.47229H11.9396C12.8989 1.47229 13.7621 2.24642 13.685 3.27485L13.2746 8.75366C13.8206 8.81132 14.2617 9.2712 14.2617 9.84659C14.2617 11.0251 13.3545 12.0146 12.1596 12.0678C11.0901 12.1154 9.51999 12.1628 7.51173 12.1628C5.50347 12.1628 3.93333 12.1154 2.86387 12.0678C1.6689 12.0146 0.761734 11.0251 0.761734 9.84659C0.761734 9.27114 1.20291 8.81122 1.74899 8.75364Z" fill="black"/>
</g>
<defs>
<clipPath id="clip0_1121_925">
<rect width="14" height="14" fill="white" transform="translate(0.511734 0.12854)"/>
</clipPath>
</defs>
</svg>
