<svg width="15" height="15" viewBox="0 0 15 15" fill="currentColor" xmlns="http://www.w3.org/2000/svg">
<g clip-path="url(#clip0_1121_1059)">
<path fill-rule="evenodd" clip-rule="evenodd" d="M5.37647 0.839804C5.37647 0.69305 5.25064 0.577811 5.10455 0.591754C5.00403 0.601348 4.90387 0.611274 4.80409 0.62146C4.4627 0.656311 4.14609 0.808544 3.90504 1.04808L1.43172 3.50594C1.1869 3.74923 1.03182 4.07088 0.997839 4.41771C0.911792 5.29601 0.845581 6.2027 0.845581 7.12865C0.845581 8.55307 1.00205 9.94563 1.14948 11.2577C1.17881 11.5187 1.20778 11.7766 1.23509 12.0309C1.31182 12.7453 1.87768 13.3099 2.59052 13.3879C2.77179 13.4077 2.95495 13.4286 3.13988 13.4499C3.28838 13.467 3.4187 13.3509 3.4187 13.2015V9.67836C3.4187 8.71353 4.201 7.93147 5.16582 7.93176L9.85873 7.93318C10.8231 7.93347 11.6048 8.71536 11.6048 9.67977V13.2014C11.6048 13.3509 11.7351 13.467 11.8836 13.4499C12.0685 13.4286 12.2516 13.4077 12.4329 13.3879C13.1457 13.3099 13.7116 12.7453 13.7883 12.0309C13.8156 11.7766 13.8446 11.5187 13.8739 11.2577C14.0214 9.94563 14.1778 8.55307 14.1778 7.12865C14.1778 5.70424 14.0214 4.31169 13.8739 2.99961V2.9996V2.99959V2.99958C13.8446 2.73854 13.8156 2.48068 13.7883 2.22639C13.7116 1.51198 13.1457 0.947345 12.4329 0.869351C12.3037 0.855218 12.1736 0.840581 12.0425 0.825626C11.894 0.808682 11.7637 0.9247 11.7637 1.07416V3.48007C11.7637 4.37775 11.0359 5.10537 10.1382 5.10507L7.00091 5.104C6.10367 5.1037 5.37647 4.37625 5.37647 3.479V0.839804ZM10.5137 0.876324C10.5137 0.748568 10.4175 0.641296 10.2904 0.628177C9.38777 0.535003 8.45637 0.462524 7.51171 0.462524C7.29527 0.462524 7.07989 0.466325 6.86569 0.473294C6.7319 0.477647 6.62647 0.587921 6.62647 0.721782V3.479C6.62647 3.68606 6.79428 3.85393 7.00134 3.854L10.1386 3.85507C10.3458 3.85514 10.5137 3.68723 10.5137 3.48007V0.876324ZM7.51171 13.7947C6.62267 13.7947 5.74537 13.7305 4.89276 13.6453C4.76538 13.6326 4.6687 13.5252 4.6687 13.3972V9.67836C4.6687 9.40404 4.89113 9.18168 5.16545 9.18176L9.85836 9.18318C10.1326 9.18326 10.3548 9.40557 10.3548 9.67977V13.3972C10.3548 13.5252 10.2581 13.6326 10.1307 13.6453C9.27811 13.7305 8.40078 13.7947 7.51171 13.7947Z" fill="black"/>
</g>
<defs>
<clipPath id="clip0_1121_1059">
<rect width="14" height="14" fill="white" transform="translate(0.511719 0.12854)"/>
</clipPath>
</defs>
</svg>
