<svg width="15" height="15" viewBox="0 0 15 15" fill="none" xmlns="http://www.w3.org/2000/svg">
<g clip-path="url(#clip0_1121_1053)">
<path fill-rule="evenodd" clip-rule="evenodd" d="M3.17164 2.24854C3.17164 1.42011 3.84321 0.748535 4.67164 0.748535H10.3516C11.18 0.748535 11.8516 1.42011 11.8516 2.24854V3.58441C11.8516 3.73112 11.7258 3.84582 11.5792 3.84116C11.5248 3.83943 11.4698 3.83856 11.4143 3.83856H3.6089C3.55342 3.83856 3.49847 3.83943 3.44405 3.84116C3.29742 3.84581 3.17164 3.73112 3.17164 3.58441V2.24854ZM10.104 9.88422C10.223 9.88422 10.3416 9.92428 10.4149 10.018C10.801 10.5114 10.9825 11.5853 11.0495 12.6122C11.0855 13.1634 10.634 13.6115 10.0818 13.6115H4.94176C4.38947 13.6115 3.93798 13.1634 3.97395 12.6122C4.04097 11.5853 4.22252 10.5114 4.60859 10.018C4.68194 9.92428 4.80048 9.88422 4.91949 9.88422H10.104ZM1.0071 8.21074V9.33291C1.0071 10.2295 1.59717 10.9884 2.4102 11.2423C2.65747 11.3195 2.88881 11.1309 2.94388 10.8778C2.9589 10.8088 2.97475 10.7405 2.99149 10.6732C3.11997 10.1567 3.36444 9.41076 3.92343 8.93354C4.14972 8.74035 4.4375 8.63422 4.73504 8.63422H10.2884C10.5859 8.63422 10.8737 8.74035 11.1 8.93354C11.659 9.41076 11.9034 10.1567 12.0319 10.6732C12.0486 10.7405 12.0645 10.8088 12.0795 10.8777C12.1346 11.1309 12.3659 11.3195 12.6132 11.2422C13.4261 10.9883 14.0161 10.2295 14.0161 9.33291V8.21074C14.0161 6.64965 13.4958 5.08856 11.4143 5.08856H3.6089C1.52745 5.08856 1.0071 6.64965 1.0071 8.21074Z" fill="black"/>
</g>
<defs>
<clipPath id="clip0_1121_1053">
<rect width="14" height="14" fill="white" transform="translate(0.511734 0.12854)"/>
</clipPath>
</defs>
</svg>
