<svg width="15" height="15" viewBox="0 0 15 15" fill="none" xmlns="http://www.w3.org/2000/svg">
<g clip-path="url(#clip0_1121_1051)">
<path fill-rule="evenodd" clip-rule="evenodd" d="M3.01849 1.23182C2.05991 1.65619 1.72302 2.18911 1.72302 2.76135C1.72302 3.33358 2.05991 3.8665 3.01849 4.29088C3.9929 4.72226 5.49529 4.97558 7.51132 4.97558C9.52735 4.97558 11.0297 4.72226 12.0041 4.29088C12.9627 3.8665 13.2996 3.33358 13.2996 2.76135C13.2996 2.18911 12.9627 1.65619 12.0041 1.23182C11.0297 0.800437 9.52735 0.547119 7.51132 0.547119C5.49529 0.547119 3.9929 0.800437 3.01849 1.23182ZM12.5101 5.43388C12.7761 5.31611 13.023 5.18197 13.2464 5.03131C13.4204 4.91397 13.6751 5.02215 13.6845 5.23182C13.7038 5.66346 13.7152 6.09953 13.7152 6.53933C13.7152 6.88893 13.7043 7.26043 13.6859 7.63812C13.6819 7.72145 13.636 7.79734 13.5639 7.83921C9.83286 10.0042 5.19987 9.99644 1.46018 7.83896C1.38772 7.79715 1.34165 7.7211 1.33759 7.63754C1.31925 7.26005 1.30835 6.88875 1.30835 6.53933C1.30835 6.13517 1.31794 5.68852 1.33452 5.23448C1.34225 5.02304 1.59981 4.91227 1.7752 5.03062C1.99888 5.18156 2.24606 5.31593 2.51247 5.43388C3.71858 5.96783 5.42284 6.22558 7.51132 6.22558C9.5998 6.22558 11.304 5.96783 12.5101 5.43388ZM1.8587 9.45445C1.68061 9.3713 1.47555 9.51069 1.49478 9.70629C1.52392 10.0026 1.55379 10.282 1.58224 10.5349C1.69308 11.5201 2.24906 12.4495 3.21234 12.8807C4.20316 13.3241 5.73097 13.8366 7.51178 13.8366C9.29259 13.8366 10.8204 13.3241 11.8112 12.8807C12.7745 12.4495 13.3305 11.5201 13.4413 10.5349C13.4697 10.2829 13.4994 10.0045 13.5285 9.70938C13.5477 9.51359 13.3423 9.37418 13.1641 9.45763C9.58992 11.1317 5.43487 11.1242 1.8587 9.45445Z" fill="black"/>
</g>
<defs>
<clipPath id="clip0_1121_1051">
<rect width="14" height="14" fill="white" transform="translate(0.511719 0.12854)"/>
</clipPath>
</defs>
</svg>
