<svg width="15" height="15" viewBox="0 0 15 15" fill="none" xmlns="http://www.w3.org/2000/svg">
<g clip-path="url(#clip0_1121_929)">
<path d="M4.57186 9.14272C4.62574 9.62266 5.00857 10.0053 5.48832 10.0609C6.14146 10.1365 6.81823 10.216 7.51167 10.216C8.20511 10.216 8.88187 10.1365 9.53502 10.0609C10.0148 10.0053 10.3976 9.62266 10.4515 9.14272C10.5244 8.49248 10.5992 7.81877 10.5992 7.12849C10.5992 6.4382 10.5244 5.76449 10.4515 5.11425C10.3976 4.63431 10.0148 4.25172 9.53502 4.19611C8.88187 4.1204 8.20511 4.04089 7.51167 4.04089C6.81823 4.04089 6.14146 4.1204 5.48832 4.19611C5.00857 4.25172 4.62574 4.63431 4.57186 5.11425C4.49887 5.76449 4.42407 6.4382 4.42407 7.12849C4.42407 7.81877 4.49887 8.49248 4.57186 9.14272Z" fill="black"/>
<path fill-rule="evenodd" clip-rule="evenodd" d="M6.47036 0.56034C6.77688 0.476377 7.1333 0.393433 7.51191 0.393433C7.89052 0.393433 8.24694 0.476377 8.55346 0.56034C9.20133 0.737811 9.66905 1.32454 9.69048 1.99957C9.69706 2.20672 9.7039 2.43049 9.71081 2.66553C9.71534 2.81959 9.58064 2.94078 9.42766 2.92202C8.79246 2.84415 8.15048 2.79089 7.51165 2.79089C6.87293 2.79089 6.23115 2.84423 5.59607 2.92201C5.44311 2.94074 5.30844 2.81955 5.31298 2.6655C5.31991 2.43048 5.32676 2.20671 5.33334 1.99957C5.35477 1.32454 5.82248 0.737811 6.47036 0.56034ZM5.59608 11.3349C5.44313 11.3162 5.30848 11.4374 5.313 11.5914C5.31991 11.8265 5.32676 12.0504 5.33334 12.2576C5.35477 12.9326 5.82248 13.5193 6.47036 13.6968C6.77688 13.7808 7.1333 13.8637 7.51191 13.8637C7.89052 13.8637 8.24694 13.7808 8.55346 13.6968C9.20134 13.5193 9.66905 12.9326 9.69048 12.2576C9.69706 12.0504 9.70392 11.8265 9.71084 11.5914C9.71538 11.4374 9.58068 11.3162 9.42769 11.3349C8.79248 11.4128 8.15048 11.466 7.51165 11.466C6.87292 11.466 6.23116 11.4127 5.59608 11.3349Z" fill="black"/>
</g>
<defs>
<clipPath id="clip0_1121_929">
<rect width="14" height="14" fill="white" transform="translate(0.511719 0.12854)"/>
</clipPath>
</defs>
</svg>
