<svg width="15" height="15" viewBox="0 0 15 15" fill="currentColor" xmlns="http://www.w3.org/2000/svg">
<g clip-path="url(#clip0_1121_927)">
<path fill-rule="evenodd" clip-rule="evenodd" d="M9.23494 0.59821C9.52783 0.305317 10.0027 0.305317 10.2956 0.59821C10.5885 0.891103 10.5885 1.36598 10.2956 1.65887L9.06224 2.89223C8.76934 3.18513 8.29447 3.18513 8.00158 2.89223C7.70868 2.59934 7.70868 2.12447 8.00158 1.83157L9.23494 0.59821ZM8.99593 4.24183C9.97555 3.93395 11.3333 3.82519 12.4006 4.90482C12.7352 5.24327 12.9816 5.62988 13.1545 6.04318C13.2223 6.20526 13.2 6.39105 13.0959 6.53255C12.9917 6.67406 12.8209 6.7505 12.646 6.73392C12.5721 6.72692 12.4939 6.72324 12.4113 6.72324C11.8935 6.72324 11.5601 6.86551 11.3565 7.06629C11.1539 7.26603 11.0115 7.59089 11.0115 8.09627C11.0115 8.60165 11.1539 8.92651 11.3565 9.12626C11.5601 9.32703 11.8935 9.4693 12.4113 9.4693C12.4836 9.4693 12.5525 9.46649 12.6181 9.4611C12.7832 9.44752 12.9444 9.51668 13.0484 9.64575C13.1524 9.77482 13.1856 9.94703 13.1372 10.1055C12.8179 11.1505 12.3253 12.0874 11.8595 12.6299C11.0641 13.5562 9.61541 14.0348 8.23569 13.1923C7.89821 12.9862 7.42589 12.9863 7.08842 13.1923C5.7087 14.0348 4.25997 13.5562 3.46459 12.6299C2.86775 11.9348 2.21326 10.5738 1.95048 9.14008C1.68879 7.71227 1.78954 6.05186 2.92346 4.90482C3.99074 3.82519 5.34856 3.93395 6.32818 4.24183C6.58088 4.32125 6.81848 4.42796 7.03964 4.55765C7.40114 4.76963 7.92297 4.76963 8.28447 4.55765C8.50563 4.42796 8.74323 4.32125 8.99593 4.24183Z" fill="black"/>
</g>
<defs>
<clipPath id="clip0_1121_927">
<rect width="14" height="14" fill="white" transform="translate(0.511734 0.12854)"/>
</clipPath>
</defs>
</svg>
