<svg width="15" height="15" viewBox="0 0 15 15" fill="none" xmlns="http://www.w3.org/2000/svg">
<g clip-path="url(#clip0_1121_1055)">
<path fill-rule="evenodd" clip-rule="evenodd" d="M5.65261 2.2509C5.65261 1.22417 6.48494 0.391846 7.51166 0.391846C8.53839 0.391846 9.37071 1.22417 9.37071 2.2509C9.37071 3.01078 8.91481 3.66417 8.26161 3.95248L8.26164 4.94417C9.29106 4.95018 10.3547 4.9816 11.2937 5.1458C12.1216 5.29055 12.7588 5.93073 12.933 6.73733C13.1005 7.51344 13.1005 8.15971 13.1005 9.33489V9.42197C13.1005 10.5971 13.1005 11.2434 12.933 12.0195C12.7588 12.8261 12.1216 13.4663 11.2937 13.611C10.1324 13.8141 8.78049 13.8141 7.53839 13.8141H7.48502C6.24292 13.8141 4.89104 13.8141 3.72963 13.611C2.90176 13.4663 2.26453 12.8261 2.09039 12.0195C1.92284 11.2434 1.92285 10.5971 1.92287 9.422V9.42198V9.33489V9.33487C1.92285 8.1597 1.92284 7.51343 2.09039 6.73733C2.26453 5.93073 2.90176 5.29055 3.72963 5.1458C4.66868 4.98161 5.73225 4.95018 6.76164 4.94417L6.76161 3.95244C6.10847 3.66411 5.65261 3.01074 5.65261 2.2509ZM6.11591 7.68795C6.11591 7.34277 5.83609 7.06295 5.49091 7.06295C5.14573 7.06295 4.86591 7.34277 4.86591 7.68795V8.29028C4.8659 8.63546 5.14573 8.91528 5.4909 8.91528C5.83608 8.91528 6.1159 8.63546 6.11591 8.29028V7.68795ZM9.53253 7.06295C9.87771 7.06295 10.1575 7.34277 10.1575 7.68795V8.29028C10.1575 8.63546 9.87771 8.91528 9.53253 8.91528C9.18735 8.91528 8.90753 8.63546 8.90753 8.29028V7.68795C8.90753 7.34277 9.18736 7.06295 9.53253 7.06295ZM5.80019 10.5079C5.56167 10.2584 5.16604 10.2495 4.91653 10.488C4.66702 10.7265 4.65811 11.1222 4.89663 11.3717L5.05725 11.5397C5.36383 11.8604 5.7882 12.0418 6.23187 12.0418H8.79149C9.23515 12.0418 9.65953 11.8604 9.96611 11.5397L10.1267 11.3717C10.3652 11.1222 10.3563 10.7265 10.1068 10.488C9.85732 10.2495 9.46169 10.2584 9.22317 10.5079L9.06255 10.6759C8.9918 10.7499 8.89387 10.7918 8.79149 10.7918H6.23187C6.12949 10.7918 6.03155 10.7499 5.9608 10.6759L5.80019 10.5079Z" fill="black"/>
</g>
<defs>
<clipPath id="clip0_1121_1055">
<rect width="14" height="14" fill="white" transform="translate(0.511734 0.12854)"/>
</clipPath>
</defs>
</svg>
