<svg width="15" height="15" viewBox="0 0 15 15" fill="none" xmlns="http://www.w3.org/2000/svg">
<g clip-path="url(#clip0_1121_1061)">
<path fill-rule="evenodd" clip-rule="evenodd" d="M5.16587 1.11448C5.79724 0.650427 6.6286 0.393677 7.49354 0.393677C8.35802 0.393677 9.19698 0.650123 9.83626 1.11211C10.479 1.57659 10.9409 2.26901 10.9623 3.11666C10.9672 3.31198 10.9764 3.53064 10.9862 3.76167C11.0026 4.14837 11.0205 4.56971 11.0218 4.97421C11.024 5.63649 10.9849 6.33914 10.8185 6.98341C10.6513 7.63092 10.3471 8.25142 9.79665 8.70691C9.2422 9.1657 8.49423 9.41061 7.53016 9.41061C6.56594 9.41061 5.81663 9.16565 5.25941 8.70812C4.70612 8.2538 4.39675 7.63454 4.22443 6.98696C3.9479 5.94779 3.99909 4.70336 4.04011 3.70615C4.04869 3.49744 4.05683 3.29956 4.06143 3.11666C4.0826 2.27417 4.53043 1.58153 5.16587 1.11448ZM7.47389 10.7475C7.46596 10.7473 7.45799 10.7472 7.44999 10.7472C7.44351 10.7472 7.43705 10.7472 7.43061 10.7474C5.94799 10.7389 4.82541 10.309 4.06307 9.67083C3.29577 9.02846 2.85003 8.14058 2.77456 7.13191C2.74365 6.71885 2.38375 6.40905 1.97069 6.43996C1.55763 6.47086 1.24783 6.83077 1.27874 7.24383C1.38347 8.64366 2.01277 9.91062 3.10018 10.8209C4.02453 11.5948 5.24817 12.0857 6.69999 12.214V13.3791C6.69999 13.7933 7.03577 14.1291 7.44999 14.1291C7.8642 14.1291 8.19999 13.7933 8.19999 13.3791V12.2148C11.2462 11.9354 13.3348 9.89775 13.738 7.303C13.8016 6.8937 13.5213 6.51035 13.112 6.44676C12.7027 6.38317 12.3193 6.66342 12.2557 7.07273C11.9434 9.08347 10.2293 10.7475 7.47565 10.7475C7.47506 10.7475 7.47448 10.7475 7.47389 10.7475Z" fill="black"/>
</g>
<defs>
<clipPath id="clip0_1121_1061">
<rect width="14" height="14" fill="white" transform="translate(0.511719 0.12854)"/>
</clipPath>
</defs>
</svg>
