<svg width="15" height="15" viewBox="0 0 15 15" fill="none" xmlns="http://www.w3.org/2000/svg">
<g clip-path="url(#clip0_1121_1057)">
<path fill-rule="evenodd" clip-rule="evenodd" d="M1.14063 2.24765C1.27306 1.36564 2.04454 0.701369 2.95308 0.733019C4.42217 0.784197 5.94302 0.826296 7.51174 0.826296C9.08025 0.826296 10.5996 0.804815 12.0496 0.744749C12.9617 0.706968 13.7507 1.36836 13.8852 2.26364L13.921 2.50051C14.0621 3.43147 14.218 4.45989 14.218 5.51773C14.218 6.57569 14.0621 7.60449 13.9209 8.53574L13.8835 8.78305C13.7505 9.66905 12.9737 10.3325 12.0641 10.2989C10.9854 10.259 9.88855 10.2294 8.76172 10.2164V12.2412H9.88624C10.3004 12.2412 10.6362 12.577 10.6362 12.9912C10.6362 13.4054 10.3004 13.7412 9.88624 13.7412H5.13709C4.72287 13.7412 4.38709 13.4054 4.38709 12.9912C4.38709 12.577 4.72287 12.2412 5.13709 12.2412H6.26172V10.2199C5.37831 10.2344 4.51296 10.2614 3.65292 10.2883H3.65285H3.65198H3.65121C3.41344 10.2958 3.17607 10.3032 2.93884 10.3103C2.03293 10.3376 1.27322 9.67158 1.14225 8.79855L1.1027 8.5368C0.961464 7.60515 0.80542 6.57584 0.80542 5.51773C0.80542 4.45973 0.961402 3.43078 1.10259 2.49941L1.14063 2.24765ZM2.90085 2.23211C2.77127 2.2276 2.64582 2.32513 2.62401 2.47036L2.58809 2.70851C2.44449 3.65842 2.30542 4.57838 2.30542 5.51773C2.30542 6.45697 2.44443 7.37656 2.58797 8.32611L2.62565 8.576C2.64743 8.72118 2.77053 8.81475 2.89376 8.81105C3.12716 8.80403 3.36183 8.79669 3.59783 8.78932L3.60071 8.78923C4.86209 8.74979 6.16169 8.70917 7.51173 8.70917C9.10567 8.70917 10.6321 8.74499 12.1194 8.79992C12.2518 8.80481 12.3784 8.7055 12.4002 8.56027L12.4353 8.32733C12.5789 7.37725 12.718 6.45713 12.718 5.51773C12.718 4.57822 12.5789 3.65774 12.4352 2.70728V2.70726L12.4019 2.48659C12.38 2.34132 12.251 2.2377 12.1117 2.24346C10.6342 2.30467 9.09291 2.3263 7.51174 2.3263C5.91726 2.3263 4.3763 2.28351 2.90085 2.23211Z" fill="black"/>
</g>
<defs>
<clipPath id="clip0_1121_1057">
<rect width="14" height="14" fill="white" transform="translate(0.511719 0.12854)"/>
</clipPath>
</defs>
</svg>
