<svg width="15" height="15" viewBox="0 0 15 15" fill="none" xmlns="http://www.w3.org/2000/svg">
<g clip-path="url(#clip0_1121_1049)">
<path fill-rule="evenodd" clip-rule="evenodd" d="M8.84806 0.463745C7.2907 0.463745 6.0282 1.72624 6.0282 3.28361C6.0282 4.58124 6.9047 5.67416 8.09795 6.00261V8.50026C7.9032 8.49827 7.70776 8.49719 7.5117 8.49719C6.11752 8.49719 4.75452 8.55162 3.44957 8.60373H3.44951H3.44943H3.44939L3.44934 8.60374H3.44932H3.44928C3.12076 8.61686 2.79592 8.62983 2.47519 8.64175C1.81808 8.66617 1.25045 9.10946 1.05191 9.72615C0.919789 10.1365 0.773193 10.6264 0.773193 11.1453C0.773193 11.6642 0.919789 12.1541 1.05191 12.5645C1.25045 13.1811 1.81808 13.6244 2.47519 13.6489C2.79601 13.6608 3.12093 13.6738 3.44954 13.6869C4.7545 13.739 6.1175 13.7934 7.5117 13.7934C8.9059 13.7934 10.2689 13.739 11.5739 13.6869H11.574C11.9025 13.6737 12.2274 13.6608 12.5482 13.6489C13.2053 13.6244 13.7729 13.1811 13.9715 12.5645C14.1036 12.1541 14.2502 11.6642 14.2502 11.1453C14.2502 10.6264 14.1036 10.1365 13.9715 9.72615C13.7729 9.10946 13.2053 8.66617 12.5482 8.64175C12.2274 8.62983 11.9025 8.61686 11.574 8.60373H11.5739H11.5738C10.9283 8.57795 10.2686 8.55161 9.59795 8.53157V6.00268C10.7913 5.67429 11.6679 4.58132 11.6679 3.28361C11.6679 1.72624 10.4054 0.463745 8.84806 0.463745ZM4.18616 7.52617C4.60037 7.52617 4.93616 7.19039 4.93616 6.77617C4.93616 6.36196 4.60037 6.02617 4.18616 6.02617H2.73601C2.32179 6.02617 1.98601 6.36196 1.98601 6.77617C1.98601 7.19039 2.32179 7.52617 2.73601 7.52617H4.18616Z" fill="black"/>
</g>
<defs>
<clipPath id="clip0_1121_1049">
<rect width="14" height="14" fill="white" transform="translate(0.511719 0.12854)"/>
</clipPath>
</defs>
</svg>
