<svg width="15" height="15" viewBox="0 0 15 15" fill="currentColor" xmlns="http://www.w3.org/2000/svg">
<g clip-path="url(#clip0_1121_923)">
<path fill-rule="evenodd" clip-rule="evenodd" d="M2.63337 2.73806C1.86439 2.80511 1.2395 3.38844 1.12852 4.13478C0.984722 5.1018 0.836182 6.10307 0.836182 7.12863C0.836182 8.15419 0.984722 9.15546 1.12851 10.1225C1.2395 10.8688 1.86439 11.4521 2.63337 11.5192L2.86168 11.5391C4.12674 11.6499 5.43816 11.7647 6.78221 11.7647C8.12624 11.7647 9.43763 11.6499 10.7027 11.5391L10.931 11.5192C11.7 11.4521 12.3249 10.8688 12.4359 10.1225C12.457 9.9807 12.4781 9.83819 12.4989 9.69498C12.6333 9.68233 12.7665 9.66602 12.8984 9.64806C13.4064 9.57884 13.8003 9.16249 13.8435 8.66316C13.8865 8.16584 13.9271 7.65291 13.9271 7.12864C13.9271 6.60436 13.8865 6.09143 13.8435 5.59411C13.8003 5.09479 13.4064 4.67843 12.8984 4.60921C12.7665 4.59125 12.6333 4.57494 12.4989 4.56229C12.4781 4.41907 12.457 4.27656 12.4359 4.13478C12.3249 3.38844 11.7 2.80511 10.931 2.73806L10.7027 2.71809C9.43765 2.60735 8.12624 2.49255 6.78221 2.49255C5.43817 2.49255 4.12676 2.60735 2.8617 2.71809L2.63337 2.73806ZM7.15695 4.20098C7.47348 3.89131 8.00661 4.11557 8.00661 4.55839V6.65871H8.94174C9.38984 6.65871 9.6117 7.20276 9.2914 7.51612L6.69506 10.0561C6.37853 10.3658 5.84541 10.1415 5.84541 9.69873V7.59841H4.91028C4.46218 7.59841 4.24031 7.05437 4.56062 6.741L7.15695 4.20098Z" fill="black"/>
</g>
<defs>
<clipPath id="clip0_1121_923">
<rect width="14" height="14" fill="white" transform="translate(0.511719 0.12854)"/>
</clipPath>
</defs>
</svg>
