<svg width="15" height="15" viewBox="0 0 15 15" fill="none" xmlns="http://www.w3.org/2000/svg">
<g clip-path="url(#clip0_1121_932)">
<path fill-rule="evenodd" clip-rule="evenodd" d="M10.8632 8.70985C11.7652 7.83491 12.3258 6.60991 12.3258 5.25398C12.3258 2.59526 10.1705 0.439941 7.51178 0.439941C4.85306 0.439941 2.69775 2.59526 2.69775 5.25398V10.1097C2.69775 12.1572 4.35762 13.8171 6.40518 13.8171C8.36241 13.8171 9.93158 12.2418 10.0959 10.3997C10.152 9.77135 10.4103 9.1491 10.8632 8.70985ZM7.51172 3.57652C6.60717 3.57652 5.87389 4.3098 5.87389 5.21435V7.10339H5.99074C7.01904 7.10339 7.89979 7.83968 8.08208 8.85169L8.12687 9.10033C8.18806 9.44004 7.96228 9.76504 7.62257 9.82623C7.28286 9.88742 6.95786 9.66164 6.89667 9.32193L6.85188 9.07328C6.77682 8.65657 6.41416 8.35339 5.99074 8.35339H5.24865C4.90347 8.35339 4.62365 8.07357 4.62365 7.72839C4.62365 7.72249 4.62373 7.71661 4.62389 7.71075V5.21435C4.62389 3.61945 5.91682 2.32652 7.51172 2.32652C9.10662 2.32652 10.3996 3.61945 10.3996 5.21435C10.3996 5.55953 10.1197 5.83935 9.77455 5.83935C9.42937 5.83935 9.14955 5.55953 9.14955 5.21435C9.14955 4.3098 8.41627 3.57652 7.51172 3.57652Z" fill="black"/>
</g>
<defs>
<clipPath id="clip0_1121_932">
<rect width="14" height="14" fill="white" transform="translate(0.511719 0.12854)"/>
</clipPath>
</defs>
</svg>
