<svg width="15" height="15" viewBox="0 0 15 15" fill="none" xmlns="http://www.w3.org/2000/svg">
<g clip-path="url(#clip0_1121_934)">
<path fill-rule="evenodd" clip-rule="evenodd" d="M4.00298 2.08521H4.59702V3.97733C4.59702 4.19849 4.53835 4.41569 4.42699 4.60676L1.43476 9.74079C0.778444 10.8669 1.29437 12.3127 2.51533 12.7689C5.73746 13.9729 9.28597 13.9729 12.5081 12.7689C13.729 12.3127 14.245 10.8669 13.5886 9.74078L10.5964 4.60676C10.4851 4.41569 10.4264 4.19849 10.4264 3.97733V2.08521H11.0205C11.4347 2.08521 11.7705 1.74942 11.7705 1.33521C11.7705 0.920991 11.4347 0.585205 11.0205 0.585205H9.6764H5.34702H4.00298C3.58877 0.585205 3.25298 0.920991 3.25298 1.33521C3.25298 1.74942 3.58877 2.08521 4.00298 2.08521ZM6.09702 3.97733V2.08521H8.9264V3.97733C8.9264 4.46387 9.05549 4.94171 9.30048 5.36207L9.91663 6.41924C8.35171 6.57509 6.84077 6.55751 5.14142 6.35984L5.72294 5.36207C5.96794 4.94171 6.09702 4.46388 6.09702 3.97733Z" fill="black"/>
</g>
<defs>
<clipPath id="clip0_1121_934">
<rect width="14" height="14" fill="white" transform="translate(0.511719 0.12854)"/>
</clipPath>
</defs>
</svg>
