<svg width="15" height="15" viewBox="0 0 15 15" fill="none" xmlns="http://www.w3.org/2000/svg">
<g clip-path="url(#clip0_1121_1063)">
<path fill-rule="evenodd" clip-rule="evenodd" d="M4.92795 4.70309C4.83595 4.69303 4.7443 4.68301 4.65303 4.67316C4.17299 4.62137 3.78918 4.24214 3.74322 3.7615C3.66839 2.97907 3.5845 2.04266 3.54398 1.22878C3.5249 0.845666 3.93356 0.605038 4.26689 0.794872L5.91596 1.73404L7.18693 0.647107C7.37403 0.487097 7.64977 0.487097 7.83687 0.647107L9.10784 1.73404L10.7569 0.794872C11.0902 0.605038 11.4989 0.845665 11.4798 1.22878C11.4393 2.04266 11.3554 2.97907 11.2806 3.7615C11.2346 4.24214 10.8508 4.62137 10.3708 4.67317C10.2795 4.68301 10.1879 4.69303 10.0959 4.70309C9.26132 4.79433 8.39712 4.88881 7.5119 4.88881C6.62669 4.88881 5.76249 4.79433 4.92795 4.70309ZM4.51894 5.91591C4.60939 5.92568 4.70132 5.93575 4.79461 5.94597H4.79463H4.79464C5.62121 6.03654 6.55419 6.13877 7.51191 6.13877C8.46964 6.13877 9.40262 6.03654 10.2292 5.94597H10.2292C10.3225 5.93575 10.4144 5.92568 10.5049 5.91592C11.0109 5.86131 11.4724 5.64063 11.8272 5.3058C11.9123 5.22548 12.04 5.20156 12.1383 5.26503C12.8432 5.7201 13.3389 6.46321 13.4279 7.34444C13.5594 8.64603 13.6487 10.0804 13.6438 11.3885C13.6382 12.84 12.2968 14.0808 11.0686 13.3073C10.2973 12.8216 9.88737 12.0952 9.73361 11.381C9.70749 11.2597 9.60323 11.1685 9.47915 11.1685H5.54423C5.42015 11.1685 5.31589 11.2597 5.28977 11.381C5.136 12.0952 4.72605 12.8216 3.95478 13.3073C2.72654 14.0808 1.38511 12.84 1.37959 11.3885C1.37462 10.0804 1.46393 8.64603 1.59542 7.34444C1.68445 6.46309 2.18031 5.7199 2.88534 5.26485C2.98366 5.20139 3.11136 5.22532 3.19645 5.30565C3.55122 5.64056 4.01285 5.86131 4.51894 5.91591ZM3.48718 8.454C3.48718 8.10882 3.76701 7.829 4.11218 7.829H4.30896V7.63222C4.30896 7.28704 4.58878 7.00722 4.93396 7.00722C5.27914 7.00722 5.55896 7.28704 5.55896 7.63222V7.829H5.75604C6.10122 7.829 6.38104 8.10882 6.38104 8.454C6.38104 8.79918 6.10122 9.079 5.75604 9.079H5.55896V9.27608C5.55896 9.62126 5.27914 9.90108 4.93396 9.90108C4.58878 9.90108 4.30896 9.62126 4.30896 9.27608V9.079H4.11218C3.76701 9.079 3.48718 8.79918 3.48718 8.454ZM9.8523 7.72036C10.1975 7.72036 10.4773 8.00018 10.4773 8.34536V8.56276C10.4773 8.90794 10.1975 9.18776 9.8523 9.18776C9.50712 9.18776 9.2273 8.90794 9.2273 8.56276V8.34536C9.2273 8.00018 9.50712 7.72036 9.8523 7.72036Z" fill="black"/>
</g>
<defs>
<clipPath id="clip0_1121_1063">
<rect width="14" height="14" fill="white" transform="translate(0.511719 0.12854)"/>
</clipPath>
</defs>
</svg>
