<svg width="15" height="15" viewBox="0 0 15 15" fill="none" xmlns="http://www.w3.org/2000/svg">
<g clip-path="url(#clip0_1121_940)">
<path d="M7.51311 5.2287C7.06907 5.22869 6.63214 5.25155 6.22272 5.29549C6.42249 5.60226 6.53857 5.96853 6.53857 6.36191C6.53857 6.74091 6.43082 7.09475 6.24428 7.39445C6.64798 7.43696 7.07754 7.45899 7.5134 7.45899C7.94712 7.45898 8.37561 7.43716 8.77949 7.39499C8.59275 7.09517 8.48486 6.74114 8.48486 6.36191C8.48486 5.96832 8.60107 5.60188 8.80103 5.29501C8.39118 5.25137 7.95513 5.22871 7.51311 5.2287Z" fill="black"/>
<path d="M4.58179 5.65509C4.19144 5.65509 3.875 5.97153 3.875 6.36188C3.875 6.75222 4.19144 7.06866 4.58179 7.06866C4.97213 7.06866 5.28857 6.75222 5.28857 6.36188C5.28857 5.97153 4.97213 5.65509 4.58179 5.65509Z" fill="black"/>
<path d="M9.73486 6.36188C9.73486 5.97153 10.0513 5.65509 10.4417 5.65509C10.832 5.65509 11.1484 5.97153 11.1484 6.36188C11.1484 6.75222 10.832 7.06866 10.4417 7.06866C10.0513 7.06866 9.73486 6.75222 9.73486 6.36188Z" fill="black"/>
<path fill-rule="evenodd" clip-rule="evenodd" d="M7.51172 1.89221C5.96888 1.89221 4.47239 2.0155 3.04161 2.17846C2.01767 2.29508 1.13926 3.0517 0.983114 4.11463C0.830852 5.1511 0.761719 6.28353 0.761719 7.53215C0.761719 8.78078 0.830853 9.91327 0.983117 10.9497C1.13926 12.0127 2.01767 12.7693 3.04161 12.8859C3.21186 12.9053 3.3648 12.7829 3.39626 12.6145C3.50918 12.01 3.72946 11.3974 3.87812 10.8108C3.93942 10.5688 4.13878 10.3865 4.38523 10.3471C6.78643 9.96295 8.18284 9.96814 10.6529 10.3465C10.9121 10.3862 11.119 10.5835 11.1709 10.8407C11.2835 11.3988 11.4418 11.9699 11.536 12.5382C11.5716 12.7531 11.7654 12.9106 11.9818 12.8859C13.0058 12.7693 13.8842 12.0127 14.0403 10.9497C14.1926 9.91327 14.2617 8.78078 14.2617 7.53215C14.2617 6.28353 14.1926 5.1511 14.0403 4.11463C13.8842 3.0517 13.0058 2.29508 11.9818 2.17846C10.551 2.0155 9.05456 1.89221 7.51172 1.89221ZM10.7716 4.43282C10.7679 4.43146 10.7641 4.43014 10.7604 4.42885C9.86717 4.12059 8.66992 3.97872 7.51314 3.9787C6.35923 3.97867 5.16808 4.11978 4.28348 4.42771C3.34436 4.57136 2.625 5.38263 2.625 6.36191C2.625 7.39765 3.42971 8.24544 4.44802 8.31419C5.31082 8.58394 6.42704 8.709 7.51342 8.70899C8.603 8.70898 9.7254 8.58314 10.5962 8.31267C11.6047 8.23386 12.3984 7.39058 12.3984 6.36191C12.3984 5.39365 11.6952 4.58966 10.7716 4.43282Z" fill="black"/>
<path d="M7.51169 13.1722C6.72499 13.1722 5.95034 13.1401 5.19031 13.0871C4.88223 13.0656 4.67129 12.7694 4.74714 12.4701L4.90628 11.842C4.95586 11.6464 5.11831 11.4992 5.31833 11.4721C6.90917 11.2568 8.04686 11.2578 9.68209 11.4707C9.89218 11.498 10.0604 11.6572 10.1023 11.8649L10.2299 12.4972C10.2891 12.7906 10.0791 13.0703 9.78045 13.0907C9.03729 13.1416 8.28024 13.1722 7.51169 13.1722Z" fill="black"/>
</g>
<defs>
<clipPath id="clip0_1121_940">
<rect width="14" height="14" fill="white" transform="translate(0.511719 0.12854)"/>
</clipPath>
</defs>
</svg>
