<svg width="15" height="15" viewBox="0 0 15 15" fill="none" xmlns="http://www.w3.org/2000/svg">
<g clip-path="url(#clip0_1121_946)">
<path fill-rule="evenodd" clip-rule="evenodd" d="M6.0117 0.354126C5.05099 0.354126 3.96427 0.685655 3.10955 1.40168C2.24124 2.12909 1.63159 3.23879 1.63159 4.73423C1.63159 6.20894 2.13214 7.2089 2.80883 7.9215C3.2743 8.41166 3.82059 8.75856 4.28439 9.02608L3.94447 9.45037C3.41999 10.105 3.88606 11.0756 4.72489 11.0756H5.23002C5.19155 11.6001 5.28175 12.2645 5.67439 12.8559C6.19064 13.6334 7.12314 14.1285 8.5117 14.1285C9.34325 14.1285 9.94972 13.99 10.4319 13.7209C10.8619 13.4809 11.14 13.1595 11.3351 12.934L11.3886 12.8724C11.5909 12.6412 11.7417 12.4889 11.9951 12.3696C12.2603 12.2448 12.7031 12.1285 13.5117 12.1285C13.9259 12.1285 14.2617 11.7927 14.2617 11.3785C14.2617 10.9643 13.9259 10.6285 13.5117 10.6285C12.5703 10.6285 11.8881 10.7622 11.3564 11.0124C10.8129 11.2681 10.495 11.6158 10.2598 11.8846L10.2304 11.9182C10.0094 12.1709 9.89343 12.3036 9.70086 12.4111C9.51118 12.517 9.18014 12.6285 8.5117 12.6285C7.50026 12.6285 7.09942 12.2903 6.924 12.0261C6.72928 11.7329 6.69454 11.3537 6.73823 11.0756H7.29851C8.13734 11.0756 8.60341 10.105 8.07893 9.45037L7.73901 9.02608C8.20281 8.75856 8.7491 8.41166 9.21457 7.9215C9.89126 7.2089 10.3918 6.20894 10.3918 4.73423C10.3918 1.73886 7.9153 0.354126 6.0117 0.354126Z" fill="black"/>
</g>
<defs>
<clipPath id="clip0_1121_946">
<rect width="14" height="14" fill="white" transform="translate(0.511719 0.12854)"/>
</clipPath>
</defs>
</svg>
