<svg width="15" height="15" viewBox="0 0 15 15" fill="none" xmlns="http://www.w3.org/2000/svg">
<g clip-path="url(#clip0_1121_938)">
<path fill-rule="evenodd" clip-rule="evenodd" d="M7.51159 0.459961C3.82864 0.459961 0.843018 3.44558 0.843018 7.12854C0.843018 10.8114 3.82864 13.7971 7.51159 13.7971C11.1945 13.7971 14.1802 10.8114 14.1802 7.12854C14.1802 3.44558 11.1945 0.459961 7.51159 0.459961ZM6.09025 7.41791C5.05891 7.41791 4.22284 8.25397 4.22284 9.28532C4.22284 10.3166 5.05891 11.1527 6.09025 11.1527C7.1184 11.1527 7.95248 10.3218 7.95763 9.29489L7.9577 9.28532V4.36999C7.99703 4.37186 8.03635 4.37388 8.07568 4.37604C9.22564 4.43921 10.1938 5.38021 10.2349 6.47612C10.2388 6.57868 10.2408 6.681 10.2408 6.78316C10.2408 7.12833 10.5206 7.40816 10.8658 7.40816C11.211 7.40816 11.4908 7.12833 11.4908 6.78316C11.4908 6.6641 11.4884 6.54608 11.484 6.42921C11.4166 4.63385 9.88322 3.22345 8.14424 3.12792C7.87823 3.11331 7.60738 3.10435 7.33258 3.10435C6.9874 3.10435 6.70758 3.38417 6.70758 3.72935C6.70758 3.73352 6.70762 3.73768 6.7077 3.74182V7.5224C6.51443 7.45471 6.30664 7.41791 6.09025 7.41791Z" fill="black"/>
</g>
<defs>
<clipPath id="clip0_1121_938">
<rect width="14" height="14" fill="white" transform="translate(0.511719 0.12854)"/>
</clipPath>
</defs>
</svg>
