<svg width="15" height="15" viewBox="0 0 15 15" fill="currentColor" xmlns="http://www.w3.org/2000/svg">
<g clip-path="url(#clip0_1121_936)">
<path fill-rule="evenodd" clip-rule="evenodd" d="M4.14617 0.471313C2.59473 0.471313 1.33704 1.729 1.33704 3.28045C1.33704 4.83189 2.59473 6.08958 4.14617 6.08958C5.69761 6.08958 6.9553 4.83189 6.9553 3.28045C6.9553 1.729 5.69761 0.471313 4.14617 0.471313ZM10.448 1.89575C9.28991 1.89575 8.35108 2.83459 8.35108 3.9927C8.35108 5.15081 9.28991 6.08964 10.448 6.08964C11.6061 6.08964 12.5449 5.15081 12.5449 3.9927C12.5449 2.83459 11.6061 1.89575 10.448 1.89575ZM13.6421 7.87295C13.5006 7.78064 13.322 7.76605 13.1674 7.83414L12.9547 7.92792C12.8211 7.98682 12.6332 8.06979 12.4154 8.16608C12.1577 8.28004 11.8581 8.41273 11.5575 8.54629L11.5384 8.41747C11.4339 7.71417 10.8569 7.16899 10.1471 7.10753L9.89257 7.08533H9.89255C9.0893 7.01501 8.23328 6.94006 7.35318 6.94006C6.47308 6.94006 5.61705 7.01501 4.8138 7.08533L4.55931 7.10753C3.84944 7.16899 3.27242 7.71417 3.16795 8.41747C3.07862 9.01882 2.98242 9.67961 2.98242 10.3628C2.98242 11.0461 3.07862 11.7068 3.16795 12.3082C3.27242 13.0115 3.84944 13.5567 4.55931 13.6181L4.8044 13.6395L4.81379 13.6403C5.61704 13.7107 6.47308 13.7856 7.35318 13.7856C8.23328 13.7856 9.08931 13.7107 9.89256 13.6403L10.1471 13.6181C10.8569 13.5567 11.4339 13.0115 11.5384 12.3082L11.5574 12.1795C11.8581 12.313 12.1577 12.4457 12.4154 12.5597C12.6332 12.656 12.8211 12.7389 12.9547 12.7978L13.1674 12.8916C13.322 12.9597 13.5006 12.9451 13.6421 12.8528C13.7836 12.7605 13.8689 12.603 13.8689 12.434V8.29173C13.8689 8.12278 13.7836 7.96525 13.6421 7.87295Z" fill="black"/>
</g>
<defs>
<clipPath id="clip0_1121_936">
<rect width="14" height="14" fill="white" transform="translate(0.511719 0.12854)"/>
</clipPath>
</defs>
</svg>
