<svg width="15" height="15" viewBox="0 0 15 15" fill="currentColor" xmlns="http://www.w3.org/2000/svg">
<g clip-path="url(#clip0_1121_950)">
<path fill-rule="evenodd" clip-rule="evenodd" d="M8.93112 2.66931C8.89856 1.87319 8.50094 1.20035 7.88031 0.923336C7.22215 0.629563 6.48143 0.853025 5.97442 1.52729C5.79191 1.77 5.61603 2.02488 5.45004 2.28535C5.12419 2.79666 4.582 3.12736 3.99308 3.16549C3.66472 3.18675 3.38279 3.21618 3.13748 3.25109C1.95804 3.41896 1.11037 4.38716 0.916322 5.49918C0.828586 6.00197 0.761734 6.57099 0.761734 7.12853C0.761734 7.68607 0.828586 8.25509 0.916322 8.75788C1.11037 9.8699 1.95804 10.8381 3.13748 11.0059C3.38279 11.0408 3.66472 11.0703 3.99308 11.0915L4.02539 10.5926L3.99308 11.0915C4.582 11.1297 5.12419 11.4604 5.45004 11.9717C5.61603 12.2321 5.79191 12.487 5.97442 12.7297C6.48143 13.404 7.22215 13.6275 7.88032 13.3337C8.50094 13.0567 8.89856 12.3838 8.93112 11.5877C8.97587 10.4936 9.01173 9.02523 9.01173 7.12853C9.01173 5.23183 8.97587 3.76342 8.93112 2.66931ZM12.7211 2.90796C12.4112 2.63314 11.9372 2.6616 11.6623 2.97152C11.3875 3.28144 11.416 3.75546 11.7259 4.03027C12.4629 4.6838 13.0126 5.72293 13.0126 7.12845C13.0126 8.53397 12.4629 9.5731 11.7259 10.2266C11.416 10.5014 11.3875 10.9754 11.6623 11.2853C11.9372 11.5953 12.4112 11.6237 12.7211 11.3489C13.7873 10.4034 14.5126 8.95201 14.5126 7.12845C14.5126 5.30489 13.7873 3.85342 12.7211 2.90796ZM11.2657 5.55602C10.9591 5.27753 10.4848 5.30033 10.2063 5.60695C9.92781 5.91358 9.95061 6.3879 10.2572 6.66639C10.344 6.74518 10.4328 6.88767 10.4328 7.12859C10.4328 7.3695 10.344 7.512 10.2572 7.59078C9.95061 7.86927 9.92781 8.3436 10.2063 8.65022C10.4848 8.95684 10.9591 8.97964 11.2657 8.70115C11.6737 8.33058 11.9327 7.78109 11.9327 7.12859C11.9327 6.47608 11.6737 5.9266 11.2657 5.55602Z" fill="black"/>
</g>
<defs>
<clipPath id="clip0_1121_950">
<rect width="14" height="14" fill="white" transform="translate(0.511734 0.12854)"/>
</clipPath>
</defs>
</svg>
