<svg width="15" height="15" viewBox="0 0 15 15" fill="currentColor" xmlns="http://www.w3.org/2000/svg">
<g clip-path="url(#clip0_1121_948)">
<path fill-rule="evenodd" clip-rule="evenodd" d="M3.42561 0.731758C4.72469 0.581022 6.10361 0.421021 7.51175 0.421021C8.9199 0.421021 10.2988 0.581022 11.5979 0.731758V0.731763C11.8933 0.76604 12.1846 0.799837 12.4711 0.831167C13.184 0.909104 13.7499 1.47375 13.8266 2.1882C13.8542 2.44598 13.8836 2.70739 13.9134 2.97205C14.0618 4.293 14.2193 5.69477 14.2193 7.12857C14.2193 8.56237 14.0618 9.96414 13.9134 11.2851L13.9133 11.2852C13.8836 11.5498 13.8542 11.8112 13.8266 12.0689C13.7499 12.7834 13.184 13.348 12.4711 13.4259C12.1846 13.4573 11.8933 13.4911 11.5978 13.5253C10.2988 13.6761 8.91989 13.8361 7.51175 13.8361C6.10362 13.8361 4.72471 13.6761 3.42564 13.5253H3.42563H3.42562H3.42545C3.13008 13.4911 2.83885 13.4573 2.55234 13.4259C1.83946 13.348 1.27359 12.7834 1.1969 12.0689C1.16924 11.8111 1.13987 11.5498 1.11013 11.2851H1.11013H1.11012C0.961702 9.96413 0.804199 8.56237 0.804199 7.12857C0.804199 5.69477 0.961701 4.293 1.11012 2.97205L1.11013 2.97199C1.13987 2.70735 1.16924 2.44596 1.1969 2.1882C1.27359 1.47375 1.83946 0.909103 2.55234 0.831165C2.8389 0.799836 3.13019 0.766037 3.42561 0.731758ZM5.17305 9.47231C5.06131 8.74203 4.93724 7.78368 4.93724 7.12856C4.93724 6.47342 5.06136 5.51503 5.17314 4.78476C5.26008 4.21677 5.81946 3.8532 6.36577 4.03128C7.95193 4.54833 9.43966 5.36279 10.4439 6.61125C10.6874 6.9141 10.6874 7.34301 10.4438 7.64585C9.43954 8.89428 7.95186 9.70877 6.36569 10.2258C5.81936 10.4039 5.25996 10.0403 5.17305 9.47231Z" fill="black"/>
</g>
<defs>
<clipPath id="clip0_1121_948">
<rect width="14" height="14" fill="white" transform="translate(0.511719 0.12854)"/>
</clipPath>
</defs>
</svg>
