<svg width="15" height="15" viewBox="0 0 15 15" fill="currentColor" xmlns="http://www.w3.org/2000/svg">
<g clip-path="url(#clip0_1121_952)">
<path fill-rule="evenodd" clip-rule="evenodd" d="M6.95565 1.1844C7.12446 0.806145 6.95468 0.362659 6.57643 0.193842C6.19818 0.025026 5.7547 0.194806 5.58588 0.573057L5.24821 1.32964C4.33676 1.42945 3.62757 2.20184 3.62757 3.13986C3.62757 4.14565 4.44292 4.96099 5.44871 4.96099C6.45449 4.96099 7.26984 4.14565 7.26984 3.13986C7.26984 2.60947 7.0431 2.13203 6.68126 1.7992L6.95565 1.1844ZM7.52505 5.83972H7.49854H7.49853C6.71672 5.83971 4.6254 5.83969 3.05688 6.17088C2.22224 6.34711 1.6798 7.02433 1.46682 7.74564L1.46486 7.75229C1.36111 8.10366 1.29477 8.32831 1.26308 8.64312C1.25933 8.68033 1.25607 8.71883 1.25323 8.75905C1.248 8.83303 1.29424 8.90174 1.36677 8.91726C3.41897 9.35652 6.36934 9.35913 7.51191 9.35913C8.65448 9.35913 11.6048 9.35652 13.657 8.91726C13.7294 8.90177 13.7756 8.83319 13.7704 8.75935C13.7675 8.71902 13.7642 8.68042 13.7605 8.64312C13.7288 8.32831 13.6625 8.10366 13.5587 7.7523L13.5567 7.74564C13.3438 7.02433 12.8013 6.34711 11.9667 6.17088C10.3982 5.83969 8.30687 5.83971 7.52506 5.83972H7.52505ZM1.23714 10.7781C1.23225 10.4621 1.52367 10.2249 1.83585 10.2747C3.93345 10.6091 6.48811 10.6091 7.49364 10.6091H7.49365H7.51191H7.53016H7.53017C8.53567 10.6091 11.0902 10.6091 13.1877 10.2747C13.4999 10.225 13.7913 10.4621 13.7864 10.7782C13.783 11.0009 13.7757 11.1737 13.7605 11.3251C13.7288 11.6399 13.6625 11.8646 13.5587 12.2159L13.5567 12.2226C13.3438 12.9439 12.8013 13.6211 11.9667 13.7974C10.3982 14.1285 8.30685 14.1285 7.52505 14.1285H7.49854C6.71674 14.1285 4.6254 14.1285 3.05688 13.7974C2.22224 13.6211 1.6798 12.9439 1.46682 12.2226L1.46486 12.2159C1.36111 11.8646 1.29477 11.6399 1.26308 11.3251C1.24783 11.1737 1.24058 11.0009 1.23714 10.7781Z" fill="black"/>
</g>
<defs>
<clipPath id="clip0_1121_952">
<rect width="14" height="14" fill="white" transform="translate(0.511734 0.12854)"/>
</clipPath>
</defs>
</svg>
