<svg width="15" height="15" viewBox="0 0 15 15" fill="currentColor" xmlns="http://www.w3.org/2000/svg">
<g clip-path="url(#clip0_1121_954)">
<path fill-rule="evenodd" clip-rule="evenodd" d="M7.19212 0.897583C7.19212 0.483369 6.85633 0.147583 6.44212 0.147583C6.02791 0.147583 5.69212 0.483369 5.69212 0.897583V2.06588C5.69212 2.48009 6.02791 2.81588 6.44212 2.81588C6.85633 2.81588 7.19212 2.48009 7.19212 2.06588V0.897583ZM9.82774 3.73522C7.64944 3.60389 5.40767 3.60389 3.22936 3.73522C2.50572 3.77884 1.90373 4.34768 1.86768 5.0961C1.83679 5.73738 1.83881 6.40044 1.84082 7.06315C1.84132 7.2271 1.84182 7.39103 1.84182 7.55461C1.84182 7.83287 1.85369 8.10706 1.87308 8.37625C1.99595 10.0827 3.43632 11.4188 5.10908 11.5413C5.57165 11.5752 6.04582 11.5984 6.52855 11.5984C7.01129 11.5984 7.48545 11.5752 7.94802 11.5413C9.10478 11.4566 10.1504 10.7915 10.726 9.82496C10.9099 9.82021 11.0959 9.81209 11.2811 9.80195C12.6266 9.72831 14.0014 8.67318 14.0014 7.13361C14.0014 5.59268 12.6248 4.54172 11.2815 4.46727C11.1876 4.46206 11.0939 4.45735 11.0009 4.45328C10.7622 4.04151 10.3235 3.7651 9.82774 3.73522ZM11.1991 8.3042L11.189 8.30475C11.2054 8.05855 11.2153 7.80827 11.2153 7.55461C11.2153 7.39114 11.2158 7.22732 11.2163 7.06348V7.06341V7.06334V7.06328V7.06321V7.06315V7.06303C11.2174 6.69618 11.2185 6.32922 11.214 5.96591C11.957 6.01449 12.5014 6.58086 12.5014 7.13361C12.5014 7.69158 11.9481 8.2632 11.1991 8.3042ZM14.2869 13.3593C14.2869 13.7735 13.9512 14.1093 13.5369 14.1093H1.48657C1.07236 14.1093 0.736572 13.7735 0.736572 13.3593C0.736572 12.9451 1.07236 12.6093 1.48657 12.6093H13.5369C13.9512 12.6093 14.2869 12.9451 14.2869 13.3593ZM3.40721 0.147583C3.82142 0.147583 4.15721 0.483369 4.15721 0.897583V2.06588C4.15721 2.48009 3.82142 2.81588 3.40721 2.81588C2.993 2.81588 2.65721 2.48009 2.65721 2.06588V0.897583C2.65721 0.483369 2.993 0.147583 3.40721 0.147583ZM10.227 0.897583C10.227 0.483369 9.89125 0.147583 9.47703 0.147583C9.06282 0.147583 8.72703 0.483369 8.72703 0.897583V2.06588C8.72703 2.48009 9.06282 2.81588 9.47703 2.81588C9.89125 2.81588 10.227 2.48009 10.227 2.06588V0.897583Z" fill="black"/>
</g>
<defs>
<clipPath id="clip0_1121_954">
<rect width="14" height="14" fill="white" transform="translate(0.511719 0.12854)"/>
</clipPath>
</defs>
</svg>
