<svg width="15" height="15" viewBox="0 0 15 15" fill="none" xmlns="http://www.w3.org/2000/svg">
<g clip-path="url(#clip0_1121_1065)">
<path fill-rule="evenodd" clip-rule="evenodd" d="M10.2722 1.71938C10.3727 1.10843 10.2997 0.427352 9.65121 0.21106C8.77973 -0.0796089 8.00411 1.16064 7.43577 2.4804C7.37754 2.61561 7.45153 2.76998 7.58993 2.82018C8.62933 3.1972 9.49217 3.8754 10.1108 4.49401C10.7407 5.12393 11.4324 6.00706 11.805 7.07199C11.8539 7.21199 12.0092 7.28773 12.1456 7.2295C13.4732 6.66277 14.7555 5.89335 14.4661 5.02574C14.2498 4.37725 13.5687 4.30421 12.9578 4.40476C12.8611 4.42067 12.6974 4.12924 12.7638 4.0572C13.4011 3.36648 13.8947 2.3909 13.0904 1.58667C12.2862 0.78243 11.3105 1.27607 10.6197 1.91334C10.5477 1.97979 10.2563 1.81609 10.2722 1.71938ZM0.561069 12.8728C0.363059 11.0074 0.736222 7.6252 3.37374 4.98768C5.60369 2.75773 7.889 4.04003 9.22686 5.37789C10.5647 6.71574 11.847 9.00105 9.61707 11.231C6.97955 13.8685 3.59728 14.2416 1.73194 14.0436C1.10594 13.9772 0.62752 13.4988 0.561069 12.8728ZM4.35518 5.70857C4.59926 5.46449 4.99498 5.46449 5.23906 5.70857L6.36038 6.82989C6.60446 7.07397 6.60446 7.4697 6.36038 7.71377C6.1163 7.95785 5.72058 7.95785 5.4765 7.71377L4.35518 6.59245C4.1111 6.34838 4.1111 5.95265 4.35518 5.70857ZM5.29973 10.0118C5.05565 9.76772 4.65993 9.76772 4.41585 10.0118C4.17177 10.2558 4.17177 10.6516 4.41585 10.8956L5.43422 11.914C5.6783 12.1581 6.07402 12.1581 6.3181 11.914C6.56218 11.6699 6.56218 11.2742 6.3181 11.0301L5.29973 10.0118Z" fill="black"/>
</g>
<defs>
<clipPath id="clip0_1121_1065">
<rect width="14" height="14" fill="white" transform="translate(0.511719 0.12854)"/>
</clipPath>
</defs>
</svg>
