<svg width="15" height="15" viewBox="0 0 15 15" fill="none" xmlns="http://www.w3.org/2000/svg">
<g clip-path="url(#clip0_1121_956)">
<path fill-rule="evenodd" clip-rule="evenodd" d="M4.39401 0.484038C6.03811 0.0906072 7.60244 0.090607 9.24655 0.484038C10.0697 0.681023 11.039 1.34999 11.039 2.43167C11.039 3.04484 10.6804 3.48456 10.2412 3.75781C10.0629 3.8687 9.93988 4.05831 9.94593 4.26817C9.94911 4.37879 9.95086 4.49022 9.95086 4.60237L9.95056 4.6832C9.94848 4.96571 9.70253 5.18029 9.42081 5.15912C8.59265 5.09687 7.71716 5.04626 6.82028 5.04626C5.92333 5.04626 5.04777 5.09688 4.21956 5.15913C3.93784 5.18031 3.69189 4.96573 3.68981 4.68322L3.68951 4.60237C3.68951 4.49019 3.69126 4.37872 3.69445 4.26806C3.70049 4.05822 3.57748 3.86862 3.39923 3.75772C2.96004 3.48447 2.60153 3.04477 2.60153 2.43167C2.60153 1.34999 3.57083 0.681024 4.39401 0.484038ZM3.40144 6.47867C4.49273 6.38805 5.64131 6.29626 6.8203 6.29626C7.9993 6.29626 9.14788 6.38805 10.2392 6.47867C11.2068 6.55902 12.0435 7.18011 12.4106 8.05151H13.6406C13.9857 8.05151 14.2656 8.33134 14.2656 8.67651C14.2656 9.02169 13.9857 9.30151 13.6406 9.30151H12.687C12.7207 9.52849 12.7431 9.75542 12.7526 9.98421C12.7607 10.1817 12.641 10.3655 12.4483 10.4096C12.3554 10.4308 12.2602 10.4448 12.1634 10.451L11.7959 10.4749C10.0896 10.5856 8.34541 10.6987 6.56195 10.6987C4.77849 10.6987 3.03434 10.5856 1.32797 10.4749L1.32016 10.4744C1.07153 10.4585 0.878227 10.2595 0.887529 10.0105C0.899123 9.70025 0.934092 9.39218 0.989078 9.08417C1.0114 8.95915 1.03532 8.82514 1.05884 8.66487C1.23244 7.48209 2.21924 6.57683 3.40144 6.47867ZM1.67397 11.7498C1.35598 11.7294 1.09901 12.0109 1.22005 12.3057C1.58283 13.1891 2.42053 13.8355 3.40144 13.9169C4.49273 14.0075 5.64131 14.0993 6.8203 14.0993C7.9993 14.0993 9.14788 14.0075 10.2392 13.9169C11.231 13.8346 12.029 13.1983 12.4005 12.3294C12.5357 12.0133 12.2372 11.6996 11.8941 11.7211L11.868 11.7228C10.1701 11.833 8.38916 11.9487 6.56195 11.9487C4.93039 11.9487 3.30161 11.8541 1.67397 11.7498Z" fill="black"/>
</g>
<defs>
<clipPath id="clip0_1121_956">
<rect width="14" height="14" fill="white" transform="translate(0.511719 0.12854)"/>
</clipPath>
</defs>
</svg>
