<svg width="15" height="15" viewBox="0 0 15 15" fill="none" xmlns="http://www.w3.org/2000/svg">
<g clip-path="url(#clip0_1121_1067)">
<path fill-rule="evenodd" clip-rule="evenodd" d="M5.51467 3.87854C4.39541 3.87854 3.74155 4.5248 3.3298 5.21939C3.12573 5.56364 2.97632 5.92652 2.85519 6.23597L2.79888 6.3806C2.70149 6.63146 2.62802 6.82072 2.55425 6.94367C2.44561 7.12474 2.31552 7.21465 2.14701 7.2475C1.96316 7.28333 1.70761 7.25595 1.34984 7.13669C1.27638 7.1122 1.19573 7.12314 1.13144 7.1663C1.06715 7.20946 1.02649 7.27997 1.02134 7.35723C0.887409 9.36584 2.17093 10.6547 3.68692 10.9579C5.06735 11.234 6.64052 10.6944 7.51174 9.18123C8.38296 10.6944 9.95613 11.234 11.3365 10.9579C12.8525 10.6547 14.1361 9.36584 14.0021 7.35723C13.997 7.27997 13.9563 7.20946 13.892 7.1663C13.8277 7.12314 13.7471 7.1122 13.6736 7.13669C13.3159 7.25595 13.0603 7.28333 12.8765 7.2475C12.7079 7.21465 12.5779 7.12474 12.4692 6.94367C12.3955 6.82072 12.322 6.63147 12.2246 6.38061V6.38059L12.1683 6.23597C12.0472 5.92652 11.8977 5.56364 11.6937 5.21939C11.2819 4.5248 10.6281 3.87854 9.50882 3.87854C8.68995 3.87854 8.15731 4.18094 7.81457 4.5569C7.68763 4.69615 7.58899 4.84317 7.51174 4.98314C7.4345 4.84317 7.33586 4.69613 7.20891 4.55688C6.86617 4.18092 6.33354 3.87854 5.51467 3.87854Z" fill="black"/>
</g>
<defs>
<clipPath id="clip0_1121_1067">
<rect width="14" height="14" fill="white" transform="translate(0.511719 0.12854)"/>
</clipPath>
</defs>
</svg>
