<svg width="15" height="15" viewBox="0 0 15 15" fill="currentColor" xmlns="http://www.w3.org/2000/svg">
<g clip-path="url(#clip0_1121_958)">
<path fill-rule="evenodd" clip-rule="evenodd" d="M9.83744 2.7665C9.83744 4.05101 8.79613 5.09232 7.51161 5.09232C6.2271 5.09232 5.18579 4.05101 5.18579 2.7665C5.18579 1.48198 6.2271 0.440674 7.51161 0.440674C8.79613 0.440674 9.83744 1.48198 9.83744 2.7665ZM8.3882 6.83119C8.27623 6.9171 8.2632 7.07951 8.35614 7.18571L11.291 10.5392L11.4316 10.6799C11.5387 10.787 11.7161 10.775 11.8037 10.6515C12.8252 9.21035 13.2639 7.60271 12.1049 6.50207C10.9321 5.38891 9.50979 5.97054 8.3882 6.83119ZM6.63529 6.83081C6.74727 6.91673 6.76031 7.07914 6.66736 7.18535L3.73214 10.5392L3.59198 10.6794C3.48488 10.7865 3.30753 10.7746 3.21995 10.651C2.1987 9.21 1.76014 7.60259 2.91903 6.50207C4.09172 5.38907 5.51377 5.97037 6.63529 6.83081ZM4.3879 12.002C4.28938 11.9064 4.29018 11.749 4.38726 11.6519L4.63072 11.4084C4.64052 11.3986 4.64998 11.3885 4.6591 11.3781L7.32346 8.3337C7.42306 8.21989 7.60012 8.21989 7.69972 8.3337L10.3641 11.3781C10.3732 11.3885 10.3827 11.3986 10.3925 11.4084L10.6363 11.6523C10.7334 11.7494 10.7342 11.9068 10.6356 12.0024C9.59108 13.016 8.38603 13.7766 7.55216 13.9317C7.52535 13.9367 7.49862 13.9367 7.47181 13.9317C6.63783 13.7766 5.43258 13.0158 4.3879 12.002Z" fill="black"/>
</g>
<defs>
<clipPath id="clip0_1121_958">
<rect width="14" height="14" fill="white" transform="translate(0.511719 0.12854)"/>
</clipPath>
</defs>
</svg>
