<svg width="15" height="15" viewBox="0 0 15 15" fill="none" xmlns="http://www.w3.org/2000/svg">
<g clip-path="url(#clip0_1121_960)">
<path fill-rule="evenodd" clip-rule="evenodd" d="M4.7686 1.28264C4.85659 1.12325 5.02426 1.02429 5.20632 1.02429H9.81711C9.99917 1.02429 10.1668 1.12325 10.2548 1.28264L11.27 3.12163L11.6133 3.15121L11.6795 3.15693C12.8654 3.25935 13.8409 4.17091 14.015 5.3513C14.1424 6.21472 14.2617 7.13159 14.2617 8.0757C14.2617 9.01981 14.1424 9.93668 14.015 10.8001C13.8409 11.9805 12.8654 12.892 11.6795 12.9944C10.3107 13.1127 8.91527 13.2329 7.51172 13.2329C6.10817 13.2329 4.71274 13.1127 3.34389 12.9944C2.15803 12.892 1.18255 11.9805 1.00839 10.8001C0.880991 9.93668 0.761719 9.01981 0.761719 8.0757C0.761719 7.13159 0.880991 6.21472 1.00839 5.3513C1.18255 4.1709 2.15803 3.25934 3.34389 3.15693L3.42332 3.15007L3.75337 3.12163L4.7686 1.28264ZM10.1247 7.78077C10.1247 9.22388 8.95484 10.3937 7.51173 10.3937C6.06862 10.3937 4.89874 9.22388 4.89874 7.78077C4.89874 6.33766 6.06862 5.16779 7.51173 5.16779C8.95484 5.16779 10.1247 6.33766 10.1247 7.78077Z" fill="black"/>
</g>
<defs>
<clipPath id="clip0_1121_960">
<rect width="14" height="14" fill="white" transform="translate(0.511719 0.12854)"/>
</clipPath>
</defs>
</svg>
