<svg width="15" height="15" viewBox="0 0 15 15" fill="none" xmlns="http://www.w3.org/2000/svg">
<g clip-path="url(#clip0_1121_1069)">
<path fill-rule="evenodd" clip-rule="evenodd" d="M4.33605 0.711765C5.34874 0.598886 6.41551 0.498657 7.5119 0.498657C8.60829 0.498657 9.67506 0.598886 10.6877 0.711765C12.3904 0.901557 13.7576 2.26699 13.9402 3.97387C14.0481 4.98162 14.1419 6.04065 14.1419 7.12872C14.1419 8.21678 14.0481 9.27582 13.9402 10.2835C13.7576 11.9904 12.3904 13.3558 10.6877 13.5456C9.67506 13.6585 8.60829 13.7587 7.5119 13.7587C6.41551 13.7587 5.34874 13.6585 4.33605 13.5456C2.63334 13.3558 1.26615 11.9904 1.08354 10.2835C0.975719 9.27582 0.881836 8.21678 0.881836 7.12872C0.881836 6.04065 0.975719 4.98162 1.08354 3.97387C1.26615 2.26699 2.63333 0.901557 4.33605 0.711765ZM11.0593 4.38056C11.0593 5.17938 10.4117 5.82695 9.61289 5.82695C8.81407 5.82695 8.16651 5.17938 8.16651 4.38056C8.16651 3.58174 8.81407 2.93417 9.61289 2.93417C10.4117 2.93417 11.0593 3.58174 11.0593 4.38056ZM4.86384 12.0917C3.7047 11.945 2.77196 10.8857 2.64788 9.5688C2.58566 8.90832 2.53001 8.23588 2.50072 7.55351C2.49011 7.30633 2.66602 7.08909 2.91223 7.06484C3.09998 7.04636 3.28846 7.03737 3.47712 7.03795C4.88144 7.00188 6.25136 7.53361 7.34245 8.53824C8.22581 9.35161 8.87988 10.4321 9.23447 11.646C9.31766 11.9308 9.11324 12.212 8.81753 12.2364C8.38629 12.2719 7.95026 12.2943 7.51011 12.2943C6.60882 12.2943 5.72482 12.2007 4.86384 12.0917ZM10.6007 11.988C10.4645 12.0349 10.3268 11.9392 10.2996 11.7978C10.1597 11.0725 9.8695 10.1762 9.34243 9.39343C9.24349 9.24648 9.31006 9.04037 9.48296 9.00177C9.89 8.9109 10.305 8.86529 10.7219 8.86632C11.2275 8.86599 11.7306 8.93501 12.2203 9.07134C12.3332 9.10274 12.4052 9.21146 12.3946 9.32809C12.3873 9.40852 12.3798 9.48877 12.3723 9.56885C12.2645 10.7125 11.5469 11.6619 10.6007 11.988Z" fill="black"/>
</g>
<defs>
<clipPath id="clip0_1121_1069">
<rect width="14" height="14" fill="white" transform="translate(0.511719 0.12854)"/>
</clipPath>
</defs>
</svg>
