<svg width="15" height="15" viewBox="0 0 15 15" fill="currentColor" xmlns="http://www.w3.org/2000/svg">
<g clip-path="url(#clip0_1121_980)">
<path fill-rule="evenodd" clip-rule="evenodd" d="M0.787285 4.30993C0.818576 3.79319 0.849264 3.28638 0.877036 2.7958C0.945344 1.58917 1.8036 0.374974 3.1447 0.190072C3.34618 0.162294 3.55788 0.144165 3.7773 0.144165C3.99672 0.144165 4.20842 0.162294 4.4099 0.190071C5.751 0.374973 6.60926 1.58917 6.67756 2.7958L6.69397 3.082C6.95727 3.0407 7.22462 3.01924 7.49605 3.01924C7.77816 3.01924 8.05586 3.04242 8.32917 3.08697L8.34586 2.79589C8.41417 1.58926 9.27243 0.375071 10.6135 0.190168C10.815 0.162392 11.0267 0.144261 11.2461 0.144261C11.4655 0.144261 11.6772 0.162391 11.8787 0.190168C13.2198 0.37507 14.0781 1.58926 14.1464 2.79589C14.1741 3.28638 14.2048 3.7931 14.2361 4.30975C14.3636 6.4158 14.5012 8.68723 14.492 10.6979C14.4947 10.7525 14.4961 10.8075 14.4961 10.8629C14.4961 12.6578 13.041 14.1129 11.2461 14.1129C9.45117 14.1129 7.9961 12.6578 7.9961 10.8629C7.9961 10.8071 7.9975 10.7518 8.00027 10.6967C7.99529 9.60444 8.03361 8.43529 8.0901 7.25753C8.10584 6.92915 8.43061 6.71196 8.71188 6.88216C8.84196 6.96087 8.97527 7.05297 9.11208 7.15948C9.38445 7.37152 9.77714 7.32262 9.98919 7.05025C10.2012 6.77789 10.1523 6.38519 9.87996 6.17315C9.12896 5.58847 8.33489 5.25355 7.4961 5.25354C6.65729 5.25353 5.86318 5.58845 5.11215 6.17315C4.83978 6.38519 4.79088 6.77789 5.00293 7.05025C5.21497 7.32262 5.60767 7.37152 5.88004 7.15948C6.02942 7.04318 6.17463 6.94406 6.31602 6.86079C6.5968 6.69543 6.91675 6.91289 6.93242 7.23837C6.9894 8.42257 7.02816 9.5984 7.02316 10.6965C7.02594 10.7516 7.02734 10.8071 7.02734 10.8629C7.02734 12.6578 5.57227 14.1129 3.77734 14.1129C1.98242 14.1129 0.527344 12.6578 0.527344 10.8629C0.527344 10.8076 0.528722 10.7527 0.531447 10.6981C0.522206 8.68751 0.659745 6.41617 0.787285 4.30993ZM3.77734 9.11292C2.81085 9.11292 2.02734 9.89642 2.02734 10.8629C2.02734 11.8294 2.81085 12.6129 3.77734 12.6129C4.74384 12.6129 5.52734 11.8294 5.52734 10.8629C5.52734 9.89642 4.74384 9.11292 3.77734 9.11292ZM11.2461 9.11292C12.2126 9.11292 12.9961 9.89642 12.9961 10.8629C12.9961 11.8294 12.2126 12.6129 11.2461 12.6129C10.2796 12.6129 9.4961 11.8294 9.4961 10.8629C9.4961 9.89642 10.2796 9.11292 11.2461 9.11292Z" fill="black"/>
</g>
<defs>
<clipPath id="clip0_1121_980">
<rect width="14" height="14" fill="white" transform="translate(0.511719 0.12854)"/>
</clipPath>
</defs>
</svg>
