<svg width="15" height="15" viewBox="0 0 15 15" fill="currentColor" xmlns="http://www.w3.org/2000/svg">
<g clip-path="url(#clip0_1121_997)">
<path fill-rule="evenodd" clip-rule="evenodd" d="M0.512207 2.18616C0.512207 1.08159 1.40764 0.186157 2.51221 0.186157H3.51221C4.61678 0.186157 5.51221 1.08159 5.51221 2.18616C5.51221 3.29073 4.61678 4.18616 3.51221 4.18616H2.51221C1.40764 4.18616 0.512207 3.29073 0.512207 2.18616ZM0.512207 7.68616C0.512207 6.58159 1.40764 5.68616 2.51221 5.68616H3.51221C4.61678 5.68616 5.51221 6.58159 5.51221 7.68616C5.51221 8.79073 4.61678 9.68616 3.51221 9.68616H2.51221C1.40764 9.68616 0.512207 8.79073 0.512207 7.68616ZM9.01221 0.186157C7.90764 0.186157 7.01221 1.08159 7.01221 2.18616L7.01242 2.21522C7.01739 2.56426 7.43199 2.66989 7.7414 2.50826C8.13534 2.30246 8.5834 2.1861 9.05864 2.1861C9.8469 2.1861 10.5604 2.50625 11.0762 3.02361C11.31 3.25818 11.7105 3.29379 11.8438 2.9906C11.9521 2.74445 12.0122 2.47232 12.0122 2.18616C12.0122 1.08159 11.1168 0.186157 10.0122 0.186157H9.01221ZM7.09494 9.15029C5.36809 9.8702 5.01488 12.1622 6.44487 13.3686L6.57867 13.4815C7.02966 13.8619 7.60068 14.0706 8.19072 14.0706H12.6773C13.1907 14.0706 13.7099 13.806 13.9613 13.3013C14.3058 12.6098 14.5113 11.8653 14.5113 10.873C14.5113 9.51482 13.8358 8.64026 12.9474 8.10882C12.239 7.68502 11.397 7.47735 10.6574 7.36943V5.03493C10.6574 4.15191 9.94164 3.43608 9.05862 3.43608C8.1756 3.43608 7.45977 4.15191 7.45977 5.03493V8.99819L7.09494 9.15029Z" fill="black"/>
</g>
<defs>
<clipPath id="clip0_1121_997">
<rect width="14" height="14" fill="white" transform="translate(0.511719 0.12854)"/>
</clipPath>
</defs>
</svg>
