<svg width="15" height="15" viewBox="0 0 15 15" fill="currentColor" xmlns="http://www.w3.org/2000/svg">
<g clip-path="url(#clip0_1121_1075)">
<path fill-rule="evenodd" clip-rule="evenodd" d="M6.38661 0.145151L4.76171 0.145155C4.68409 0.145155 4.60754 0.163228 4.53811 0.197941C3.42644 0.753778 2.6174 1.71024 2.09569 2.4928C1.83185 2.88857 1.63417 3.25096 1.50201 3.5153C1.48601 3.54729 1.46916 3.57979 1.45209 3.61272L1.45207 3.61276L1.45206 3.61279C1.34843 3.81273 1.49653 4.02014 1.72173 4.02014H6.38661C6.66275 4.02014 6.88661 3.79628 6.88661 3.52014V0.645151C6.88661 0.369008 6.66275 0.14515 6.38661 0.145151ZM8.13661 0.645146C8.13661 0.369004 8.36046 0.145146 8.63661 0.145146L10.2617 0.145142C10.3393 0.145142 10.4159 0.163214 10.4853 0.197928C11.597 0.753765 12.406 1.71023 12.9277 2.49279C13.1916 2.88856 13.3892 3.25095 13.5214 3.51528C13.6428 3.7581 13.4642 4.02014 13.1927 4.02014H8.63661C8.36047 4.02014 8.13661 3.79628 8.13661 3.52014V0.645146ZM1.45071 5.27014C1.2048 5.27014 0.994552 5.44891 0.962636 5.69274C0.677956 7.86763 0.868331 9.87174 1.05069 11.0716C1.19465 12.0188 2.02084 12.6451 2.93288 12.6451H3.08223C3.45839 12.6451 3.71336 12.2261 3.70921 11.85C3.70626 11.5829 3.76439 11.3138 3.88587 11.0645C4.17903 10.4627 4.78975 10.0809 5.45912 10.0809C5.48811 10.0809 5.51161 10.0574 5.51161 10.0284V8.33481C5.51161 7.23024 6.40704 6.33481 7.51161 6.33481C8.61618 6.33481 9.51161 7.23024 9.51161 8.33481V10.0284C9.51161 10.0574 9.53514 10.0809 9.56417 10.0809C10.2335 10.0809 10.8442 10.4627 11.1374 11.0645C11.2589 11.3138 11.317 11.5829 11.314 11.85C11.3099 12.2261 11.5649 12.6451 11.941 12.6451H12.0905C13.0026 12.6451 13.8288 12.0188 13.9727 11.0716C14.1551 9.87173 14.3454 7.86763 14.0608 5.69274C14.0289 5.44891 13.8186 5.27014 13.5727 5.27014H7.51161H1.45071ZM6.76161 11.3309H5.45912C5.26787 11.3309 5.09338 11.44 5.00962 11.6119C4.92587 11.7838 4.94752 11.9885 5.0654 12.1391C5.72092 12.9765 6.17846 13.3761 6.83665 13.8803C7.24007 14.1893 7.78323 14.1893 8.18664 13.8803C8.84484 13.3761 9.30237 12.9765 9.95789 12.1391C10.0758 11.9885 10.0974 11.7838 10.0137 11.6119C9.92991 11.44 9.75542 11.3309 9.56417 11.3309H8.26161V8.33481C8.26161 7.9206 7.92582 7.58481 7.51161 7.58481C7.09739 7.58481 6.76161 7.9206 6.76161 8.33481V11.3309Z" fill="black"/>
</g>
<defs>
<clipPath id="clip0_1121_1075">
<rect width="14" height="14" fill="white" transform="translate(0.511734 0.12854)"/>
</clipPath>
</defs>
</svg>
