<svg width="15" height="15" viewBox="0 0 15 15" fill="none" xmlns="http://www.w3.org/2000/svg">
<g clip-path="url(#clip0_1121_1071)">
<path fill-rule="evenodd" clip-rule="evenodd" d="M7.51172 0.69104C7.23865 0.69104 6.98797 0.842038 6.86031 1.08342C6.85687 1.08992 6.85358 1.09649 6.85043 1.10313L4.58511 5.885C4.40956 6.20336 3.96352 6.23259 3.74736 5.94299L2.21647 3.23415C2.20903 3.22097 2.20099 3.20814 2.19238 3.1957C2.02887 2.95933 1.75114 2.86052 1.49569 2.91407C1.23194 2.96936 1.0074 3.18612 0.974423 3.49432C0.860127 4.56262 0.761719 5.67568 0.761719 6.81604C0.761719 7.95639 0.860127 9.06945 0.974423 10.1377C1.15363 11.8127 2.49704 13.155 4.16899 13.3413C5.24284 13.461 6.3634 13.566 7.51172 13.566C8.66004 13.566 9.7806 13.461 10.8544 13.3413C12.5264 13.155 13.8698 11.8127 14.049 10.1377C14.1633 9.06945 14.2617 7.95639 14.2617 6.81604C14.2617 5.67568 14.1633 4.56262 14.049 3.49432C14.016 3.18612 13.7915 2.96936 13.5277 2.91407C13.2723 2.86052 12.9945 2.95933 12.831 3.1957C12.8224 3.20814 12.8144 3.22097 12.8069 3.23415L11.2761 5.94299C11.0599 6.23259 10.6139 6.20336 10.4383 5.885L8.17301 1.10313C8.16986 1.09649 8.16657 1.08992 8.16313 1.08342C8.03547 0.842037 7.78478 0.69104 7.51172 0.69104Z" fill="black"/>
</g>
<defs>
<clipPath id="clip0_1121_1071">
<rect width="14" height="14" fill="white" transform="translate(0.511719 0.12854)"/>
</clipPath>
</defs>
</svg>
