<svg width="15" height="15" viewBox="0 0 15 15" fill="currentColor" xmlns="http://www.w3.org/2000/svg">
<g clip-path="url(#clip0_1121_1077)">
<path fill-rule="evenodd" clip-rule="evenodd" d="M12.9923 1.69103C11.9329 0.631587 10.1878 0.728243 9.25181 1.8982L6.26866 5.62715C6.16537 5.75625 6.21377 5.94831 6.3605 6.0245C6.77901 6.24181 7.15769 6.52337 7.48193 6.84761C7.9158 7.28148 8.27325 7.81282 8.50258 8.40663C8.56686 8.57307 8.77565 8.6392 8.91497 8.52774L12.7852 5.43157C13.9551 4.4956 14.0518 2.75048 12.9923 1.69103ZM7.514 9.57773C7.60222 10.3702 7.35006 11.2221 6.59805 11.9742C5.29022 13.282 3.41494 13.517 1.70765 13.139C1.52131 13.0977 1.45887 12.8644 1.55838 12.7015C1.94307 12.0718 1.86105 11.2997 1.7773 10.5112C1.67294 9.5289 1.56588 8.52107 2.35541 7.73155C3.27149 6.81547 4.33591 6.64115 5.2604 6.92029C5.26042 6.92029 5.26043 6.92029 5.26044 6.92027C5.26045 6.92026 5.26046 6.92025 5.26048 6.92025C5.76316 7.07205 6.22446 7.35791 6.59805 7.73149C7.04411 8.17756 7.36511 8.74868 7.48216 9.36598C7.49544 9.43601 7.50609 9.50663 7.514 9.57773Z" fill="black"/>
</g>
<defs>
<clipPath id="clip0_1121_1077">
<rect width="14" height="14" fill="white" transform="translate(0.511719 0.12854)"/>
</clipPath>
</defs>
</svg>
