<svg width="15" height="15" viewBox="0 0 15 15" fill="currentColor" xmlns="http://www.w3.org/2000/svg">
<g clip-path="url(#clip0_1121_969)">
<path fill-rule="evenodd" clip-rule="evenodd" d="M7.95484 1.0707C7.95484 0.826831 7.75803 0.62854 7.51416 0.62854C6.14592 0.62854 5.03988 0.669795 3.89557 0.748471C2.68264 0.831864 1.71765 1.79806 1.64137 3.01338C1.55797 4.34212 1.51416 5.71854 1.51416 7.12854C1.51416 8.53854 1.55797 9.91496 1.64137 11.2437C1.71765 12.459 2.68264 13.4252 3.89557 13.5086C5.03988 13.5872 6.14592 13.6285 7.51416 13.6285C8.88241 13.6285 9.98844 13.5872 11.1327 13.5086C12.3457 13.4252 13.3107 12.459 13.3869 11.2437C13.453 10.1904 13.4943 9.10729 13.5085 8.00117C13.509 7.96095 13.5047 7.9205 13.4951 7.88145C13.2533 6.9044 12.7716 6.38298 12.2429 6.08333C11.6142 5.72706 10.8357 5.63718 10.0825 5.6424C8.93844 5.65032 7.95484 4.79003 7.95484 3.58427V1.0707ZM13.4806 5.43853C13.4854 5.44281 13.493 5.43928 13.4929 5.43283C13.4805 4.9435 13.3218 4.4653 13.0291 4.06657C12.1254 2.83544 11.3928 2.05559 10.1968 1.13248C10.066 1.03155 9.92595 0.945783 9.77933 0.87555C9.49574 0.739703 9.20484 0.978062 9.20484 1.29251V3.58427C9.20484 4.03536 9.56098 4.39598 10.0738 4.39243C10.8976 4.38672 11.9428 4.47653 12.8592 4.99582C13.079 5.12042 13.2872 5.26727 13.4806 5.43853Z" fill="black"/>
</g>
<defs>
<clipPath id="clip0_1121_969">
<rect width="14" height="14" fill="white" transform="translate(0.511719 0.12854)"/>
</clipPath>
</defs>
</svg>
