<svg width="15" height="15" viewBox="0 0 15 15" fill="currentColor" xmlns="http://www.w3.org/2000/svg">
<g clip-path="url(#clip0_1121_967)">
<path fill-rule="evenodd" clip-rule="evenodd" d="M2.03522 0.645526C3.77262 0.581656 5.61669 0.546631 7.51176 0.546631C9.40386 0.546631 11.2113 0.583871 12.9693 0.645739C13.415 0.661425 13.9071 0.880822 14.1456 1.36293C14.323 1.72143 14.4328 2.11209 14.4328 2.52351C14.4328 2.92259 14.3207 3.29299 14.1629 3.62648C13.9182 4.14358 13.3885 4.38382 12.9007 4.38294C11.7765 4.3809 10.6627 4.37506 9.55747 4.36926H9.55742H9.55738H9.55732H9.55727H9.55721H9.55718H9.55716H9.55713C7.03979 4.35605 4.56648 4.34308 2.11369 4.3758C1.64358 4.38208 1.10825 4.16479 0.859784 3.64763C0.691422 3.29721 0.590698 2.92117 0.590698 2.52351C0.590698 2.11094 0.693409 1.71151 0.882354 1.33865C1.12161 0.866507 1.60654 0.661286 2.03522 0.645526ZM1.73427 5.91588C1.76419 5.74104 1.92954 5.63306 2.10691 5.63306H12.5355C12.7209 5.63306 12.8941 5.74553 12.9248 5.92839C13.0916 6.92508 13.1892 7.97402 13.1892 9.04739C13.1892 10.1568 13.0737 11.2246 12.9034 12.2472C12.7946 12.8999 12.2625 13.3911 11.6123 13.4619C10.2397 13.6113 8.81393 13.7103 7.33137 13.7103C6.11873 13.7103 4.93199 13.6033 3.81123 13.5023C3.56832 13.4804 3.32851 13.4588 3.09221 13.4386C2.4354 13.3825 1.86371 12.9032 1.74755 12.2233C1.57301 11.2015 1.47351 10.1438 1.47351 9.04739C1.47351 7.97365 1.56273 6.91805 1.73427 5.91588ZM5.88928 7.56787C5.54411 7.56787 5.26428 7.84769 5.26428 8.19287C5.26428 8.53805 5.54411 8.81787 5.88928 8.81787H8.7739C9.11908 8.81787 9.3989 8.53805 9.3989 8.19287C9.3989 7.84769 9.11908 7.56787 8.7739 7.56787H5.88928Z" fill="black"/>
</g>
<defs>
<clipPath id="clip0_1121_967">
<rect width="14" height="14" fill="white" transform="translate(0.511719 0.12854)"/>
</clipPath>
</defs>
</svg>
