<svg width="15" height="15" viewBox="0 0 15 15" fill="currentColor" xmlns="http://www.w3.org/2000/svg">
<g clip-path="url(#clip0_1121_977)">
<path fill-rule="evenodd" clip-rule="evenodd" d="M6.68334 1.37705C8.05018 0.0102212 10.2662 0.0102212 11.6331 1.37705C12.9999 2.74389 12.9999 4.95997 11.6331 6.3268L7.56723 10.3926C6.68855 11.2713 5.26392 11.2713 4.38524 10.3926C3.50657 9.51399 3.50657 8.08937 4.38525 7.21069L6.86012 4.73581C7.15301 4.44292 7.62789 4.44292 7.92078 4.73581C8.21367 5.02871 8.21367 5.50358 7.92078 5.79647L5.44591 8.27135C5.15301 8.56424 5.15301 9.03911 5.44591 9.33201C5.7388 9.6249 6.21367 9.6249 6.50657 9.33201L10.5724 5.26614C11.3535 4.48509 11.3535 3.21876 10.5724 2.43772C9.79138 1.65667 8.52505 1.65667 7.744 2.43772L3.32458 6.85713C2.05538 8.12634 2.05538 10.1841 3.32458 11.4533C4.59379 12.7225 6.65157 12.7225 7.92078 11.4533L12.8705 6.50358C13.1634 6.21069 13.6383 6.21069 13.9312 6.50358C14.2241 6.79647 14.2241 7.27135 13.9312 7.56424L8.98144 12.5139C7.12645 14.3689 4.11891 14.3689 2.26392 12.5139C0.408934 10.659 0.408934 7.65146 2.26392 5.79647L6.68334 1.37705Z" fill="black"/>
</g>
<defs>
<clipPath id="clip0_1121_977">
<rect width="14" height="14" fill="white" transform="translate(0.511719 0.12854)"/>
</clipPath>
</defs>
</svg>
