<svg width="15" height="15" viewBox="0 0 15 15" fill="none" xmlns="http://www.w3.org/2000/svg">
<g clip-path="url(#clip0_1121_675)">
<path fill-rule="evenodd" clip-rule="evenodd" d="M7.66788 2.32351C8.08745 1.90394 8.5152 1.73407 8.89518 1.73053C9.27202 1.72702 9.70527 1.88602 10.1427 2.32351C10.5802 2.76099 10.7392 3.19424 10.7357 3.57108C10.7322 3.95106 10.5623 4.37881 10.1427 4.79838L9.7892 5.15193C9.4963 5.44483 9.4963 5.9197 9.7892 6.21259C10.0821 6.50549 10.5569 6.50549 10.8498 6.21259L11.2034 5.85904C11.8445 5.21795 12.2278 4.43109 12.2356 3.58504C12.2435 2.73585 11.8722 1.93167 11.2034 1.26285C10.5346 0.594017 9.7304 0.222688 8.88122 0.230592C8.03517 0.238467 7.24831 0.621752 6.60722 1.26285L6.32437 1.54569L5.54656 2.32351C4.84324 3.02682 4.26623 3.75397 4.26623 4.6216C4.26623 5.48923 4.84324 6.21638 5.54656 6.9197C5.83945 7.21259 6.31432 7.21259 6.60722 6.9197C6.90011 6.62681 6.90011 6.15193 6.60722 5.85904C5.89632 5.14814 5.76623 4.81463 5.76623 4.6216C5.76623 4.42857 5.89632 4.09506 6.60722 3.38417L7.38503 2.60635L7.66788 2.32351ZM7.31414 11.8694C6.89194 12.2916 6.46607 12.4625 6.0895 12.4669C5.71693 12.4713 5.28409 12.3142 4.83926 11.8694C4.39444 11.4246 4.23734 10.9918 4.24174 10.6192C4.24618 10.2426 4.41707 9.81672 4.83926 9.39453L5.19282 9.04097C5.48571 8.74808 5.48571 8.27321 5.19282 7.98031C4.89992 7.68742 4.42505 7.68742 4.13216 7.98031L3.7786 8.33387C3.14014 8.97233 2.75183 9.75504 2.74184 10.6015C2.73181 11.4519 3.10504 12.2565 3.7786 12.9301C4.45216 13.6036 5.25675 13.9769 6.1072 13.9668C6.95362 13.9569 7.73633 13.5685 8.3748 12.9301L8.65764 12.6472L9.43546 11.8694C10.1388 11.1661 10.7158 10.439 10.7158 9.5713C10.7158 8.70368 10.1388 7.97652 9.43546 7.27321C9.14256 6.98031 8.66769 6.98031 8.3748 7.27321C8.0819 7.5661 8.0819 8.04097 8.3748 8.33387C9.08569 9.04476 9.21579 9.37827 9.21579 9.5713C9.21579 9.76434 9.08569 10.0978 8.3748 10.8088L7.59698 11.5866L7.31414 11.8694ZM1.62658 3.37242C1.96315 3.13098 2.43172 3.20809 2.67317 3.54465L3.25306 4.353C3.49451 4.68957 3.4174 5.15814 3.08083 5.39959C2.74427 5.64103 2.2757 5.56392 2.03425 5.22736L1.45435 4.41901C1.21291 4.08244 1.29002 3.61387 1.62658 3.37242ZM1.76933 6.52964C2.11335 6.29894 2.57926 6.3908 2.80996 6.73483C3.04066 7.07885 2.94879 7.54475 2.60477 7.77545L1.77852 8.32953C1.43449 8.56023 0.96859 8.46837 0.737891 8.12435C0.50719 7.78033 0.599056 7.31442 0.943077 7.08372L1.76933 6.52964ZM14.3453 6.41292C14.1735 6.03602 13.7287 5.86977 13.3518 6.04158L12.4465 6.45424C12.0696 6.62606 11.9034 7.07088 12.0752 7.44778C12.247 7.82467 12.6918 7.99093 13.0687 7.81911L13.974 7.40645C14.3509 7.23464 14.5171 6.78982 14.3453 6.41292ZM12.6508 9.08049C12.4672 8.7092 12.0173 8.55708 11.646 8.74071C11.2748 8.92434 11.1226 9.37419 11.3063 9.74547L11.7473 10.6372C11.9309 11.0085 12.3808 11.1606 12.7521 10.977C13.1233 10.7934 13.2755 10.3435 13.0918 9.97223L12.6508 9.08049Z" fill="black"/>
</g>
<defs>
<clipPath id="clip0_1121_675">
<rect width="14" height="14" fill="white" transform="translate(0.511719 0.098877)"/>
</clipPath>
</defs>
</svg>
