<svg width="15" height="15" viewBox="0 0 15 15" fill="currentColor" xmlns="http://www.w3.org/2000/svg">
<g clip-path="url(#clip0_1121_1003)">
<path fill-rule="evenodd" clip-rule="evenodd" d="M12.7122 6.45351C13.6132 7.09241 13.8378 8.37361 12.9598 9.04387C12.1149 9.68894 11.119 10.1273 10.0517 10.3089C8.56992 10.5612 7.05428 10.3009 5.74984 9.58405C5.52972 9.46307 5.31561 9.32909 5.1087 9.18237L5.1086 9.18231C4.90908 9.04084 4.71852 8.88914 4.53751 8.72812L4.53455 8.72547C3.41704 7.73023 2.6636 6.37989 2.41006 4.89047C2.22839 3.8232 2.31256 2.73839 2.64174 1.72759C2.98377 0.677305 4.26711 0.465347 5.16815 1.10425L8.4108 3.40352L9.89213 1.55185C10.1509 1.2284 10.6228 1.17596 10.9463 1.43472C11.2697 1.69348 11.3222 2.16545 11.0634 2.48889L9.63646 4.27261L12.7122 6.45351ZM3.89091 9.8209C3.65515 9.6239 3.29619 9.65654 3.11922 9.90768L1.69309 11.9315C1.22655 12.5936 1.69948 13.5066 2.50943 13.5075L7.5543 13.5131C8.31453 13.5139 8.79763 12.6997 8.43255 12.0329L8.33322 11.8514C8.25348 11.7058 8.10647 11.6103 7.94176 11.5893C6.67198 11.427 5.44889 10.9559 4.38558 10.2019C4.2151 10.0811 4.05012 9.95394 3.89091 9.8209Z" fill="black"/>
</g>
<defs>
<clipPath id="clip0_1121_1003">
<rect width="14" height="14" fill="white" transform="translate(0.511719 0.12854)"/>
</clipPath>
</defs>
</svg>
