<svg width="15" height="15" viewBox="0 0 15 15" fill="none" xmlns="http://www.w3.org/2000/svg">
<g clip-path="url(#clip0_1121_669)">
<path fill-rule="evenodd" clip-rule="evenodd" d="M5.26152 0.973877C5.26152 0.559663 5.59731 0.223877 6.01152 0.223877H7.51152H9.01152C9.42573 0.223877 9.76152 0.559663 9.76152 0.973877C9.76152 1.38809 9.42573 1.72388 9.01152 1.72388H8.26152V3.02459C10.9443 3.39038 13.0115 5.69072 13.0115 8.47388C13.0115 11.5115 10.5491 13.9739 7.51152 13.9739C4.47395 13.9739 2.01152 11.5115 2.01152 8.47388C2.01152 5.69072 4.07876 3.39038 6.76152 3.02459V1.72388H6.01152C5.59731 1.72388 5.26152 1.38809 5.26152 0.973877ZM3.32681 2.82281C3.65947 2.57601 3.72909 2.10627 3.48229 1.7736C3.2355 1.44094 2.76576 1.37133 2.43309 1.61812C1.76963 2.11032 1.1802 2.6965 0.684388 3.35708C0.435739 3.68836 0.502724 4.15849 0.834005 4.40714C1.16528 4.65579 1.63541 4.5888 1.88406 4.25752C2.2931 3.71255 2.77948 3.22885 3.32681 2.82281ZM11.5412 1.7736C11.2944 2.10627 11.364 2.57601 11.6967 2.82281C12.244 3.22885 12.7304 3.71255 13.1394 4.25752C13.3881 4.5888 13.8582 4.65579 14.1895 4.40714C14.5208 4.15849 14.5878 3.68836 14.3391 3.35708C13.8433 2.6965 13.2539 2.11032 12.5904 1.61812C12.2578 1.37133 11.788 1.44094 11.5412 1.7736ZM7.51152 5.85865C7.8567 5.85865 8.13652 6.13847 8.13652 6.48365V8.22476L9.15346 9.2417C9.39754 9.48578 9.39754 9.88151 9.15346 10.1256C8.90938 10.3697 8.51366 10.3697 8.26958 10.1256L7.06958 8.92559C6.95237 8.80838 6.88652 8.64941 6.88652 8.48365V6.48365C6.88652 6.13847 7.16634 5.85865 7.51152 5.85865Z" fill="black"/>
</g>
<defs>
<clipPath id="clip0_1121_669">
<rect width="14" height="14" fill="white" transform="translate(0.511719 0.098877)"/>
</clipPath>
</defs>
</svg>
