<svg width="15" height="15" viewBox="0 0 15 15" fill="none" xmlns="http://www.w3.org/2000/svg">
<g clip-path="url(#clip0_1121_1081)">
<path fill-rule="evenodd" clip-rule="evenodd" d="M13.8575 0.870874C13.08 0.785392 12.2956 0.785392 11.518 0.870874C11.3652 0.887679 11.2286 0.973884 11.1476 1.10462L9.84487 3.20814C9.74321 3.37229 9.50176 3.36414 9.4114 3.19351L8.79774 2.03473C8.67077 1.79497 8.37576 1.70022 8.13292 1.8212C5.88249 2.94234 3.95131 4.37815 3.00934 6.0178C2.53165 6.84929 2.29986 7.74928 2.43257 8.68438C2.46993 8.94762 2.53553 9.20912 2.62972 9.46847C2.6809 9.60941 2.84847 9.66289 2.97652 9.58485C4.04199 8.93553 5.01458 8.22099 5.67761 7.57094C5.92408 7.32928 6.31979 7.33319 6.56145 7.57967C6.76645 7.78876 6.79473 8.10525 6.64812 8.34398C6.63916 8.35857 6.62809 8.37161 6.61581 8.38354C6.14634 8.83957 5.54877 9.33465 4.8696 9.82694C4.68211 9.96284 4.49045 10.097 4.29602 10.2287C4.00178 10.4223 3.69774 10.6121 3.38818 10.7959C3.38493 10.7978 3.38411 10.8021 3.38643 10.8051C3.38873 10.8081 3.38795 10.8124 3.38474 10.8143C2.60369 11.2902 1.81282 11.706 1.09521 12.0088C0.713583 12.1698 0.534756 12.6097 0.695791 12.9913C0.856826 13.373 1.29674 13.5518 1.67837 13.3908C2.53039 13.0312 3.45537 12.5379 4.35056 11.9812C4.43608 11.928 4.54492 11.9312 4.62979 11.9855C6.47383 13.1641 8.9773 12.615 10.9148 10.9811C13.1506 9.09581 14.7897 5.69301 14.2998 1.31231C14.2738 1.07982 14.09 0.896439 13.8575 0.870874Z" fill="black"/>
</g>
<defs>
<clipPath id="clip0_1121_1081">
<rect width="14" height="14" fill="white" transform="translate(0.511719 0.12854)"/>
</clipPath>
</defs>
</svg>
