<svg width="15" height="15" viewBox="0 0 15 15" fill="none" xmlns="http://www.w3.org/2000/svg">
<g clip-path="url(#clip0_1121_971)">
<path fill-rule="evenodd" clip-rule="evenodd" d="M6.50273 0.383301C6.34491 0.383301 6.19003 0.426038 6.05453 0.506974C6.0357 0.518224 6.01763 0.5307 6.00043 0.544323C5.8567 0.658204 5.75972 0.820838 5.72785 1.00142C5.6965 1.17908 5.73031 1.36199 5.82289 1.5166C6.62726 2.91193 6.94349 4.63121 6.52149 5.96001C6.43302 6.23858 6.22779 6.36666 6.00688 6.38031C5.77662 6.39453 5.51312 6.28226 5.35027 6.00676C5.25392 5.84375 5.16706 5.67476 5.09031 5.5006C5.03362 5.37195 4.92539 5.27311 4.79213 5.2283C4.65887 5.1835 4.51291 5.19686 4.39 5.26512C3.71438 5.64036 3.15445 6.19351 2.77102 6.86452C2.38759 7.53553 2.1953 8.29875 2.21502 9.07134H2.21497L2.21527 9.0788C2.26992 10.4284 2.73508 11.6392 3.64618 12.5126C4.55847 13.3871 5.86593 13.8738 7.50964 13.8738C9.16061 13.8738 10.466 13.3585 11.3743 12.4733C12.2798 11.5909 12.7465 10.3841 12.8039 9.08055V9.08022C12.9383 5.97972 10.7625 2.27517 6.92354 0.491273C6.79474 0.42052 6.65002 0.383301 6.50273 0.383301Z" fill="black"/>
</g>
<defs>
<clipPath id="clip0_1121_971">
<rect width="14" height="14" fill="white" transform="translate(0.511734 0.12854)"/>
</clipPath>
</defs>
</svg>
