<svg width="15" height="15" viewBox="0 0 15 15" fill="currentColor" xmlns="http://www.w3.org/2000/svg">
<g clip-path="url(#clip0_1121_685)">
<path fill-rule="evenodd" clip-rule="evenodd" d="M6.32961 0.987718C6.91587 0.190129 8.10755 0.190129 8.69381 0.987718C9.22261 1.70712 10.1106 2.07383 10.9944 1.93879C11.975 1.78898 12.8214 2.63543 12.6716 3.61605C12.5366 4.49987 12.9033 5.38784 13.6227 5.91664C14.4203 6.50289 14.4203 7.69458 13.6227 8.28084C12.9033 8.80964 12.5366 9.6976 12.6716 10.5815C12.8214 11.5621 11.975 12.4085 10.9944 12.2587C10.1106 12.1237 9.22261 12.4904 8.69381 13.2098C8.10755 14.0074 6.91587 14.0074 6.32961 13.2098C5.80081 12.4904 4.91285 12.1237 4.02903 12.2587C3.04841 12.4085 2.20195 11.5621 2.35177 10.5815C2.4868 9.6976 2.1201 8.80964 1.4007 8.28084C0.603108 7.69458 0.603108 6.50289 1.4007 5.91664C2.1201 5.38784 2.4868 4.49987 2.35177 3.61605C2.20195 2.63543 3.04841 1.78898 4.02903 1.93879C4.91285 2.07383 5.80081 1.70712 6.32961 0.987718ZM4.4712 7.09858C4.4712 5.4193 5.83253 4.05798 7.51181 4.05798C9.19108 4.05798 10.5524 5.4193 10.5524 7.09858C10.5524 8.77786 9.19108 10.1392 7.51181 10.1392C5.83253 10.1392 4.4712 8.77786 4.4712 7.09858Z" fill="black"/>
</g>
<defs>
<clipPath id="clip0_1121_685">
<rect width="14" height="14" fill="white" transform="translate(0.511734 0.0987549)"/>
</clipPath>
</defs>
</svg>
