<svg width="15" height="15" viewBox="0 0 15 15" fill="currentColor" xmlns="http://www.w3.org/2000/svg">
<g clip-path="url(#clip0_1121_1085)">
<path fill-rule="evenodd" clip-rule="evenodd" d="M13.8658 0.765595C13.0861 -0.0140891 11.8147 0.0100319 11.0652 0.818731L7.75172 4.39372C7.60648 4.55042 7.49639 4.73634 7.42882 4.93904L6.92951 6.43697C6.66893 7.21873 7.41266 7.96247 8.19442 7.70188L9.69235 7.20257C9.89505 7.13501 10.081 7.02492 10.2377 6.87968L13.8126 3.56618C14.6213 2.81664 14.6455 1.54528 13.8658 0.765595ZM6.8349 3.544C6.56863 3.83129 6.3668 4.17215 6.24293 4.54376L5.74362 6.04169C5.1573 7.80064 6.83071 9.47405 8.58967 8.88774L10.0876 8.38843C10.4592 8.26456 10.8 8.06273 11.0873 7.79645L12.9414 6.07799C13.0942 5.93639 13.3423 6.03283 13.3562 6.24067C13.3873 6.70499 13.4068 7.17841 13.4068 7.65779C13.4068 7.90371 13.4016 8.14806 13.3924 8.39041C13.3918 8.40834 13.3931 8.42627 13.3958 8.44402C13.4055 8.5088 13.4089 8.5755 13.4055 8.64344C13.3632 9.48654 13.2755 10.3082 13.1888 11.0849C13.0904 11.9653 12.6201 12.7303 11.9478 13.2251C11.5221 13.5451 11.009 13.7592 10.4507 13.8238C9.62068 13.9198 8.73603 14.019 7.82746 14.0599C7.76928 14.0625 7.71203 14.0601 7.65615 14.0531C7.64103 14.0512 7.62579 14.0502 7.61056 14.0507C7.41158 14.0573 7.21131 14.0609 7.01 14.0609C5.7987 14.0609 4.62506 13.9302 3.54423 13.8052C2.1242 13.6409 0.990403 12.51 0.831217 11.0849C0.710797 10.0069 0.588182 8.84179 0.588182 7.63916C0.588182 7.39324 0.593309 7.14889 0.602496 6.90654C0.603175 6.88861 0.601832 6.87068 0.599172 6.85293C0.589461 6.78815 0.586005 6.72145 0.589414 6.65351C0.63171 5.81041 0.719421 4.98873 0.806186 4.21199C0.904529 3.3316 1.37484 2.5666 2.04714 2.07182C2.47293 1.75182 2.98599 1.53769 3.54423 1.47311C4.37429 1.37709 5.25894 1.27792 6.1675 1.23699C6.22568 1.23437 6.28293 1.23678 6.33882 1.24383C6.35394 1.24573 6.36917 1.24669 6.3844 1.24618C6.58338 1.23959 6.78365 1.23597 6.98496 1.23597C7.45685 1.23597 7.92302 1.25582 8.38021 1.28743C8.58767 1.30178 8.68354 1.54948 8.54217 1.702L6.8349 3.544Z" fill="black"/>
</g>
<defs>
<clipPath id="clip0_1121_1085">
<rect width="14" height="14" fill="white" transform="translate(0.511719 0.12854)"/>
</clipPath>
</defs>
</svg>
