<svg width="15" height="15" viewBox="0 0 15 15" fill="currentColor" xmlns="http://www.w3.org/2000/svg">
<g clip-path="url(#clip0_1121_991)">
<path fill-rule="evenodd" clip-rule="evenodd" d="M6.0057 0.746394C4.55017 0.680153 3.66405 0.697862 2.49162 0.780405C1.76088 0.831851 1.19188 1.40551 1.11034 2.11526C0.770187 5.07581 0.655221 8.06375 1.01274 11.0577C1.16238 12.3108 2.18495 13.1975 3.37044 13.3266C6.16982 13.6314 8.92889 13.6235 11.7262 13.3189C12.9167 13.1893 13.8714 12.2484 14.0136 11.0577C14.2347 9.20628 14.2929 7.31183 14.1562 4.99829C14.0855 3.80294 13.1479 2.84005 11.9533 2.74115C10.7643 2.64271 9.88763 2.62515 8.59128 2.59917H8.59107C8.40092 2.59536 8.20175 2.59136 7.99124 2.58691C7.78734 2.5826 7.60603 2.45359 7.53498 2.26174L7.33452 1.72043C7.12752 1.16149 6.60713 0.773765 6.0057 0.746394Z" fill="black"/>
</g>
<defs>
<clipPath id="clip0_1121_991">
<rect width="14" height="14" fill="white" transform="translate(0.511719 0.12854)"/>
</clipPath>
</defs>
</svg>
