<svg width="15" height="15" viewBox="0 0 15 15" fill="currentColor" xmlns="http://www.w3.org/2000/svg">
<g clip-path="url(#clip0_1121_1005)">
<path fill-rule="evenodd" clip-rule="evenodd" d="M3.07765 3.27796C2.37433 3.98128 1.95752 5.05621 1.95752 6.54508C1.95752 8.40737 2.47936 9.77402 3.38104 10.6757C4.28273 11.5773 5.64939 12.0992 7.51168 12.0992C9.37397 12.0992 10.7406 11.5773 11.6423 10.6756C12.544 9.77399 13.0658 8.40733 13.0658 6.54504C13.0658 6.19987 13.3457 5.92004 13.6908 5.92004C14.036 5.92004 14.3158 6.19987 14.3158 6.54504C14.3158 8.63742 13.7254 10.3603 12.5262 11.5595C11.327 12.7588 9.60406 13.3492 7.51168 13.3492C5.41931 13.3492 3.69639 12.7588 2.49716 11.5595C1.29793 10.3603 0.70752 8.63746 0.70752 6.54508C0.70752 4.82612 1.19291 3.39493 2.19376 2.39408C3.19461 1.39323 4.6258 0.907837 6.34477 0.907837C8.06372 0.907837 9.49491 1.39322 10.4957 2.39406C11.4966 3.3949 11.9819 4.82609 11.9819 6.54504C11.9819 7.88759 11.6024 9.02471 10.8015 9.82559C10.0007 10.6264 8.86356 11.006 7.52101 11.006C6.17848 11.006 5.04136 10.6265 4.24047 9.82565C3.43959 9.02479 3.06006 7.88769 3.06006 6.54514C3.06006 5.58944 3.33078 4.75455 3.92615 4.15918C4.52152 3.56382 5.35641 3.29309 6.31211 3.29309C7.2678 3.29309 8.10267 3.56378 8.69802 4.15913C9.29337 4.75449 9.56406 5.58936 9.56406 6.54504C9.56406 7.12623 9.39867 7.66854 9.00226 8.06495C8.60585 8.46136 8.06354 8.62676 7.48235 8.62676C6.90116 8.62676 6.35885 8.46136 5.96244 8.06495C5.56603 7.66854 5.40064 7.12623 5.40064 6.54504C5.40064 6.19987 5.68046 5.92004 6.02564 5.92004C6.37081 5.92004 6.65064 6.19987 6.65064 6.54504C6.65064 6.89615 6.74745 7.0822 6.84632 7.18107C6.9452 7.27994 7.13124 7.37676 7.48235 7.37676C7.83345 7.37676 8.0195 7.27994 8.11837 7.18107C8.21725 7.0822 8.31406 6.89615 8.31406 6.54504C8.31406 5.81941 8.11193 5.34081 7.81414 5.04302C7.51634 4.74522 7.03774 4.54309 6.31211 4.54309C5.5865 4.54309 5.10787 4.74524 4.81004 5.04307C4.5122 5.3409 4.31006 5.81953 4.31006 6.54514C4.31006 7.65761 4.62101 8.43843 5.12434 8.94175C5.62768 9.44507 6.40854 9.756 7.52101 9.756C8.63347 9.756 9.41433 9.44505 9.91768 8.94171C10.421 8.43836 10.7319 7.65751 10.7319 6.54504C10.7319 5.05616 10.3152 3.98124 9.61186 3.27794C8.90856 2.57464 7.83365 2.15784 6.34477 2.15784C4.85589 2.15784 3.78096 2.57465 3.07765 3.27796Z" fill="black"/>
</g>
<defs>
<clipPath id="clip0_1121_1005">
<rect width="14" height="14" fill="white" transform="translate(0.511719 0.12854)"/>
</clipPath>
</defs>
</svg>
