<svg width="15" height="15" viewBox="0 0 15 15" fill="none" xmlns="http://www.w3.org/2000/svg">
<g clip-path="url(#clip0_1121_1099)">
<path fill-rule="evenodd" clip-rule="evenodd" d="M6.03211 0.37854C5.05262 0.37854 4.09329 0.413141 3.16147 0.479467C1.92543 0.567449 0.924907 1.50026 0.865257 2.69933C0.794223 4.12723 0.756836 5.60908 0.756836 7.12854C0.756836 8.648 0.794223 10.1298 0.865257 11.5577C0.924908 12.7568 1.92543 13.6896 3.16147 13.7776C4.09329 13.8439 5.05262 13.8785 6.03211 13.8785C7.01159 13.8785 7.97093 13.8439 8.90274 13.7776C10.1388 13.6896 11.1393 12.7568 11.1989 11.5577C11.2282 10.969 11.2518 10.371 11.2694 9.76514C11.2775 9.48456 11.0517 9.25354 10.771 9.25354H8.90514C8.69807 9.25354 8.5302 9.4214 8.5302 9.62848C8.5302 10.3048 8.14041 10.9207 7.52907 11.2101C6.91774 11.4996 6.19433 11.4108 5.67112 10.9821C4.48702 10.012 3.85447 9.38072 2.92157 8.23146C2.39984 7.58874 2.39984 6.66836 2.92157 6.02563C3.85446 4.87638 4.48702 4.24509 5.67112 3.27494C6.19433 2.84627 6.91773 2.7575 7.52907 3.04695C8.14041 3.33639 8.5302 3.95222 8.5302 4.62862C8.5302 4.83568 8.69806 5.00354 8.90512 5.00354H10.771C11.0517 5.00354 11.2775 4.77251 11.2694 4.49193C11.2518 3.88599 11.2282 3.28807 11.1989 2.69933C11.1393 1.50026 10.1388 0.567449 8.90274 0.479467C7.97093 0.413141 7.01159 0.37854 6.03211 0.37854ZM6.99424 10.0804C7.1689 9.99768 7.28027 9.82173 7.28027 9.62847V8.12854H13.2667C13.819 8.12854 14.2667 7.68082 14.2667 7.12854C14.2667 6.57625 13.819 6.12854 13.2667 6.12854H7.28027V4.62862C7.28027 4.43536 7.1689 4.25941 6.99424 4.17671C6.81957 4.09401 6.61288 4.11938 6.46339 4.24185C5.34162 5.16093 4.76942 5.7327 3.89215 6.81343C3.74308 6.99706 3.74308 7.26003 3.89215 7.44366C4.76942 8.5244 5.34162 9.09616 6.46339 10.0152C6.61288 10.1377 6.81957 10.163 6.99424 10.0804Z" fill="black"/>
</g>
<defs>
<clipPath id="clip0_1121_1099">
<rect width="14" height="14" fill="white" transform="translate(0.511719 0.12854)"/>
</clipPath>
</defs>
</svg>
