<svg width="15" height="15" viewBox="0 0 15 15" fill="none" xmlns="http://www.w3.org/2000/svg">
<g clip-path="url(#clip0_1121_1105)">
<path fill-rule="evenodd" clip-rule="evenodd" d="M13.0189 1.78748C13.018 1.78698 13.0171 1.78649 12.6471 2.43884L13.0171 1.78649C12.9959 1.77445 12.9741 1.76346 12.9518 1.75354L12.6471 2.43884C12.9518 1.75354 12.9518 1.75351 12.9517 1.75347L12.9514 1.75336L12.9507 1.75304L12.9483 1.75199L12.9399 1.74826L12.9086 1.73453C12.8815 1.72268 12.8422 1.70557 12.7919 1.68394C12.6912 1.6407 12.5464 1.57934 12.3677 1.50589C12.0108 1.35921 11.5161 1.16327 10.966 0.966874C9.90558 0.588336 8.50543 0.157593 7.51166 0.157593C6.51789 0.157593 5.11774 0.588336 4.05734 0.966874C3.50716 1.16327 3.01247 1.35921 2.65558 1.50589C2.47688 1.57934 2.3321 1.6407 2.23144 1.68394C2.1811 1.70557 2.14175 1.72268 2.11467 1.73453L2.08341 1.74826L2.07496 1.75199L2.07259 1.75304L2.07187 1.75336L2.07163 1.75347C2.07154 1.75351 2.07147 1.75354 2.3762 2.43884L2.07147 1.75354C2.04917 1.76346 2.02737 1.77445 2.00615 1.78649L2.3762 2.43884C2.00615 1.78649 2.00529 1.78698 2.00442 1.78748L2.00267 1.78848L1.99909 1.79055L1.99167 1.79492L1.97575 1.80463C1.96467 1.81155 1.9527 1.81936 1.9399 1.82814C1.91429 1.84571 1.8855 1.86709 1.8541 1.89289C1.79118 1.94461 1.71872 2.01335 1.64101 2.1036C1.48524 2.28451 1.31264 2.54688 1.15223 2.9238C0.833425 3.67293 0.558472 4.88406 0.558472 6.85102C0.558472 9.30074 1.72039 10.9911 3.13735 12.1153C4.53106 13.221 6.18054 13.7914 7.25853 14.0749C7.38357 14.1078 7.51499 14.1078 7.64003 14.0749C8.7145 13.7923 10.393 13.2232 11.8167 12.1207C13.2628 11.0007 14.4648 9.30988 14.4648 6.85102C14.4648 4.88406 14.1899 3.67293 13.8711 2.92381C13.7107 2.54688 13.5381 2.28451 13.3823 2.1036C13.3046 2.01335 13.2321 1.94461 13.1692 1.89289C13.1378 1.86709 13.109 1.84571 13.0834 1.82814C13.0706 1.81936 13.0586 1.81155 13.0475 1.80463L13.0316 1.79492L13.0242 1.79055L13.0206 1.78848L13.0189 1.78748ZM12.2456 3.08231L12.245 3.08163L12.1998 3.06215C12.1055 3.02165 11.9681 2.96338 11.7975 2.89328C11.4558 2.75285 10.9839 2.56598 10.4617 2.37956C9.37737 1.99249 8.20982 1.65761 7.51172 1.65759V12.555C8.48849 12.2774 9.80385 11.7823 10.8982 10.9347C12.0679 10.0289 12.9648 8.74245 12.9648 6.85102C12.9648 5.01148 12.7059 4.01652 12.4909 3.51118C12.3843 3.26087 12.29 3.13392 12.2456 3.08231Z" fill="black"/>
</g>
<defs>
<clipPath id="clip0_1121_1105">
<rect width="14" height="14" fill="white" transform="translate(0.511719 0.12854)"/>
</clipPath>
</defs>
</svg>
