<svg width="15" height="15" viewBox="0 0 15 15" fill="currentColor" xmlns="http://www.w3.org/2000/svg">
<g clip-path="url(#clip0_1121_677)">
<path fill-rule="evenodd" clip-rule="evenodd" d="M7.51151 0.223877C6.53905 0.223877 5.60642 0.610185 4.91878 1.29782C4.23115 1.98545 3.84484 2.91809 3.84484 3.89055V5.01469C2.80274 5.5148 2.03877 6.52544 1.90245 7.72809C1.84447 8.2396 1.80334 8.76762 1.80334 9.30717C1.80334 9.84673 1.84447 10.3748 1.90245 10.8863C2.09307 12.568 3.51092 13.8742 5.20035 13.9341C5.93848 13.9603 6.69598 13.9739 7.51167 13.9739C8.32736 13.9739 9.08487 13.9603 9.823 13.9341C11.5124 13.8742 12.9303 12.568 13.1209 10.8863C13.1789 10.3748 13.22 9.84673 13.22 9.30717C13.22 8.76762 13.1789 8.2396 13.1209 7.72809C12.9303 6.04641 11.5124 4.74017 9.823 4.68022C9.08487 4.65403 8.32736 4.64051 7.51167 4.64051C6.74911 4.64051 6.0374 4.65232 5.34484 4.67526V3.89055C5.34484 3.31591 5.57311 2.76481 5.97944 2.35848C6.38577 1.95215 6.93687 1.72388 7.51151 1.72388C8.08614 1.72388 8.63725 1.95215 9.04358 2.35848C9.33647 2.65138 9.81135 2.65138 10.1042 2.35848C10.3971 2.06559 10.3971 1.59071 10.1042 1.29782C9.4166 0.610185 8.48397 0.223877 7.51151 0.223877ZM7.51159 8.05719C7.9258 8.05719 8.26159 8.39298 8.26159 8.80719V9.80713C8.26159 10.2214 7.9258 10.5572 7.51159 10.5572C7.09737 10.5572 6.76159 10.2214 6.76159 9.80713V8.80719C6.76159 8.39298 7.09737 8.05719 7.51159 8.05719Z" fill="black"/>
</g>
<defs>
<clipPath id="clip0_1121_677">
<rect width="14" height="14" fill="white" transform="translate(0.511719 0.098877)"/>
</clipPath>
</defs>
</svg>
