<svg width="15" height="15" viewBox="0 0 15 15" fill="none" xmlns="http://www.w3.org/2000/svg">
<g clip-path="url(#clip0_1121_1007)">
<path fill-rule="evenodd" clip-rule="evenodd" d="M11.8061 0.684205C8.36573 0.319897 6.46614 0.304892 3.21231 0.684799C2.51375 0.766363 1.86167 1.04437 1.40843 1.50904C0.942986 1.98623 0.709777 2.64147 0.851971 3.38475C1.34604 5.96732 2.76742 8.16679 5.17998 9.03029V12.2897C5.17998 13.4131 6.33131 14.1684 7.36177 13.721L8.90474 13.0512C9.47487 12.8037 9.84373 12.2414 9.84373 11.6199V9.0303C12.2563 8.16681 13.6777 5.96733 14.1717 3.38475C14.3143 2.63935 14.0755 1.9809 13.6098 1.50347C13.1552 1.03749 12.5024 0.757939 11.8061 0.684205Z" fill="black"/>
</g>
<defs>
<clipPath id="clip0_1121_1007">
<rect width="14" height="14" fill="white" transform="translate(0.511719 0.12854)"/>
</clipPath>
</defs>
</svg>
