<svg width="15" height="15" viewBox="0 0 15 15" fill="none" xmlns="http://www.w3.org/2000/svg">
<g clip-path="url(#clip0_1121_1079)">
<path fill-rule="evenodd" clip-rule="evenodd" d="M13.4092 3.68179C14.0792 2.15041 12.513 0.727369 11.045 1.36077C10.5639 1.56831 10.0871 1.79861 9.5548 2.07809C9.45631 2.1298 9.33547 2.11091 9.25746 2.03162C8.79256 1.55908 8.37489 1.16353 7.94321 0.793972C6.7278 -0.246518 4.84255 0.668625 5.03577 2.31191C5.1022 2.8769 5.2073 3.44724 5.35848 4.10381C5.35903 4.10622 5.3589 4.10863 5.35757 4.11146C5.35626 4.11425 5.35473 4.11548 5.35311 4.11629C4.58264 4.50083 3.96023 4.8513 3.36648 5.23602C2.02101 6.1078 2.34888 8.18853 3.97467 8.50008C4.53004 8.6065 5.09269 8.67611 5.73477 8.72085C5.86255 8.72975 5.96388 8.83263 5.97093 8.96052C6.00759 9.62614 6.07365 10.2059 6.18315 10.7765C6.49739 12.414 8.57294 12.6787 9.42981 11.3597C9.82708 10.7482 10.1849 10.1198 10.5821 9.34631C10.5828 9.34501 10.5838 9.3437 10.5863 9.34251C10.589 9.34128 10.5913 9.34113 10.5937 9.34167C11.2265 9.48554 11.7777 9.58654 12.3181 9.65247C13.9867 9.85602 14.8899 7.93662 13.8447 6.71771C13.4928 6.30746 13.1214 5.90913 12.6859 5.46991C12.6053 5.38862 12.5896 5.26322 12.6472 5.16431C12.952 4.64107 13.1973 4.16621 13.4092 3.68179ZM0.951603 12.6246L3.73822 9.83799C3.7964 9.7798 3.87947 9.75413 3.96052 9.76832C4.16917 9.80485 4.37877 9.83668 4.59197 9.8644C4.70793 9.87948 4.79893 9.97157 4.81275 10.0877C4.83555 10.2794 4.86197 10.4681 4.89247 10.6557C4.90551 10.736 4.87973 10.8178 4.82226 10.8752L2.01227 13.6852C1.71937 13.9781 1.2445 13.9781 0.951604 13.6852C0.658711 13.3923 0.65871 12.9175 0.951603 12.6246Z" fill="black"/>
</g>
<defs>
<clipPath id="clip0_1121_1079">
<rect width="14" height="14" fill="white" transform="translate(0.511719 0.12854)"/>
</clipPath>
</defs>
</svg>
