<svg width="15" height="15" viewBox="0 0 15 15" fill="currentColor" xmlns="http://www.w3.org/2000/svg">
<g clip-path="url(#clip0_1121_1013)">
<path fill-rule="evenodd" clip-rule="evenodd" d="M5.61862 2.5516C6.43772 2.04929 7.40653 1.83804 8.3638 1.9518C9.32113 2.06556 10.2114 2.49781 10.8856 3.17865C11.5123 3.81159 11.917 4.6239 12.0419 5.49707C12.7045 5.69524 13.2851 6.10514 13.6883 6.66675C14.1309 7.28314 14.3285 8.03878 14.2417 8.79032C14.155 9.54177 13.7904 10.2338 13.2199 10.7364C11.9169 11.8844 9.69807 12.3636 7.58641 12.3342C5.47235 12.3048 3.27142 11.7632 1.98791 10.6632C1.2732 10.0507 0.833751 9.18272 0.769821 8.24924C0.727298 7.62833 0.853371 7.01405 1.12665 6.46582C1.14332 6.4406 1.15836 6.41386 1.17157 6.38567C1.29035 6.13211 1.57315 5.80865 1.99319 5.54598C2.40576 5.28798 2.90321 5.11902 3.41231 5.11902C3.9214 5.11902 4.41881 5.28798 4.83135 5.54597C5.25135 5.80864 5.53413 6.13209 5.65293 6.38567C5.79936 6.69824 6.17147 6.83292 6.48404 6.68649C6.79662 6.54005 6.9313 6.16794 6.78486 5.85537C6.53986 5.33241 6.06412 4.84262 5.49415 4.48616C5.122 4.25342 4.68898 4.06434 4.2192 3.95931C4.56248 3.38954 5.0413 2.90564 5.61862 2.5516Z" fill="black"/>
</g>
<defs>
<clipPath id="clip0_1121_1013">
<rect width="14" height="14" fill="white" transform="translate(0.511734 0.12854)"/>
</clipPath>
</defs>
</svg>
