<svg width="15" height="15" viewBox="0 0 15 15" fill="none" xmlns="http://www.w3.org/2000/svg">
<g clip-path="url(#clip0_1121_964)">
<path fill-rule="evenodd" clip-rule="evenodd" d="M6.01514 2.15689C6.64915 2.12526 7.17197 2.1134 7.51176 2.1134C7.85031 2.1134 8.37056 2.12517 9.00147 2.15654V1.04358C9.00147 0.629366 9.33725 0.293579 9.75147 0.293579C10.1657 0.293579 10.5015 0.629365 10.5015 1.04358V2.25701C10.7371 2.27687 10.9787 2.29921 11.2239 2.32425C12.7734 2.48252 13.9962 3.70242 14.129 5.26545C14.2304 6.45812 14.2617 7.54368 14.2617 8.03965C14.2617 8.53555 14.2304 9.61989 14.1291 10.8116C13.9962 12.3746 12.7734 13.5945 11.2239 13.7528C9.63412 13.9151 8.19878 13.9635 7.51175 13.9635C6.82473 13.9635 5.38939 13.9151 3.79959 13.7528C2.25006 13.5945 1.0273 12.3746 0.894367 10.8116C0.79301 9.61991 0.761719 8.53556 0.761719 8.03965C0.761719 7.54366 0.793021 6.4581 0.894423 5.26544C1.02731 3.70242 2.25006 2.48252 3.79958 2.32425C4.04241 2.29945 4.28163 2.27731 4.51514 2.25759V1.04358C4.51514 0.629366 4.85092 0.293579 5.26514 0.293579C5.67935 0.293579 6.01514 0.629365 6.01514 1.04358V2.15689ZM4.01172 5.7179C3.66654 5.7179 3.38672 5.99772 3.38672 6.3429C3.38672 6.68807 3.66654 6.9679 4.01172 6.9679H4.51172C4.8569 6.9679 5.13672 6.68807 5.13672 6.3429C5.13672 5.99772 4.8569 5.7179 4.51172 5.7179H4.01172ZM3.38672 9.3429C3.38672 8.99772 3.66654 8.7179 4.01172 8.7179H4.51172C4.8569 8.7179 5.13672 8.99772 5.13672 9.3429C5.13672 9.68807 4.8569 9.9679 4.51172 9.9679H4.01172C3.66654 9.9679 3.38672 9.68807 3.38672 9.3429ZM7.26172 5.7179C6.91654 5.7179 6.63672 5.99772 6.63672 6.3429C6.63672 6.68807 6.91654 6.9679 7.26172 6.9679H7.76172C8.1069 6.9679 8.38672 6.68807 8.38672 6.3429C8.38672 5.99772 8.1069 5.7179 7.76172 5.7179H7.26172ZM9.88672 6.3429C9.88672 5.99772 10.1665 5.7179 10.5117 5.7179H11.0117C11.3569 5.7179 11.6367 5.99772 11.6367 6.3429C11.6367 6.68807 11.3569 6.9679 11.0117 6.9679H10.5117C10.1665 6.9679 9.88672 6.68807 9.88672 6.3429ZM7.26172 8.7179C6.91654 8.7179 6.63672 8.99772 6.63672 9.3429C6.63672 9.68807 6.91654 9.9679 7.26172 9.9679H7.76172C8.1069 9.9679 8.38672 9.68807 8.38672 9.3429C8.38672 8.99772 8.1069 8.7179 7.76172 8.7179H7.26172Z" fill="black"/>
</g>
<defs>
<clipPath id="clip0_1121_964">
<rect width="14" height="14" fill="white" transform="translate(0.511719 0.12854)"/>
</clipPath>
</defs>
</svg>
