<svg width="15" height="15" viewBox="0 0 15 15" fill="none" xmlns="http://www.w3.org/2000/svg">
<g clip-path="url(#clip0_1121_679)">
<path fill-rule="evenodd" clip-rule="evenodd" d="M6.3866 0.15455C6.66274 0.15455 6.8866 0.378408 6.8866 0.65455V3.52954C6.8866 3.80569 6.66274 4.02954 6.3866 4.02954H1.72172C1.49651 4.02954 1.34841 3.82213 1.45205 3.62219L1.45206 3.62217L1.45208 3.62213C1.46915 3.5892 1.48599 3.5567 1.50199 3.5247C1.63416 3.26036 1.83184 2.89797 2.09568 2.50221C2.61739 1.71965 3.42643 0.763178 4.5381 0.207341C4.60753 0.172627 4.68408 0.154555 4.7617 0.154554L6.3866 0.15455ZM8.1366 3.52954C8.1366 3.80569 8.36046 4.02954 8.6366 4.02954H13.1927C13.4642 4.02954 13.6428 3.7675 13.5214 3.52469C13.3892 3.26035 13.1916 2.89796 12.9277 2.50219C12.406 1.71963 11.597 0.763164 10.4853 0.207327C10.4159 0.172613 10.3393 0.154541 10.2617 0.154541L8.6366 0.154545C8.36045 0.154546 8.1366 0.378403 8.1366 0.654545V3.52954ZM1.4507 5.27954H7.5116H13.5727C13.8186 5.27954 14.0289 5.45831 14.0608 5.70215C14.3454 7.87703 14.1551 9.88113 13.9727 11.081C13.8288 12.0283 13.0026 12.6546 12.0905 12.6546H10.0116C9.73546 12.6546 9.5116 12.4307 9.5116 12.1546V11.5999C9.5116 11.5709 9.53513 11.5474 9.56416 11.5474C10.2335 11.5474 10.8442 11.1656 11.1374 10.5638C11.4305 9.96203 11.3548 9.24577 10.9422 8.71869C10.2071 7.77961 9.66774 7.30789 8.94676 6.75561C8.09482 6.10302 6.92844 6.10302 6.07651 6.75561C5.35553 7.30789 4.81617 7.77961 4.08108 8.71869C3.6685 9.24577 3.59271 9.96203 3.88586 10.5638C4.17902 11.1656 4.78974 11.5474 5.45911 11.5474C5.4881 11.5474 5.5116 11.5709 5.5116 11.5999V12.1546C5.5116 12.4307 5.28774 12.6546 5.0116 12.6546H2.93287C2.02083 12.6546 1.19464 12.0283 1.05068 11.0811C0.868316 9.88114 0.677941 7.87703 0.962621 5.70215C0.994537 5.45831 1.20478 5.27954 1.4507 5.27954ZM6.7616 10.2974H5.45911C5.26786 10.2974 5.09337 10.1883 5.00961 10.0163C4.92586 9.84441 4.94751 9.63977 5.06539 9.48917C5.72091 8.65174 6.17845 8.25211 6.83664 7.74793C7.24006 7.43891 7.78322 7.43891 8.18663 7.74793C8.84483 8.25211 9.30236 8.65174 9.95788 9.48917C10.0758 9.63977 10.0974 9.84441 10.0137 10.0163C9.9299 10.1883 9.75541 10.2974 9.56416 10.2974H8.2616V13.2935C8.2616 13.7077 7.92581 14.0435 7.5116 14.0435C7.09738 14.0435 6.7616 13.7077 6.7616 13.2935V10.2974Z" fill="black"/>
</g>
<defs>
<clipPath id="clip0_1121_679">
<rect width="14" height="14" fill="white" transform="translate(0.511719 0.098877)"/>
</clipPath>
</defs>
</svg>
