<svg width="15" height="15" viewBox="0 0 15 15" fill="currentColor" xmlns="http://www.w3.org/2000/svg">
<g clip-path="url(#clip0_1121_999)">
<path fill-rule="evenodd" clip-rule="evenodd" d="M6.15711 0.37854C5.17762 0.37854 4.21829 0.413141 3.28647 0.479467C2.05043 0.567449 1.04991 1.50026 0.990257 2.69933C0.919223 4.12723 0.881836 5.60908 0.881836 7.12854C0.881836 8.648 0.919223 10.1298 0.990257 11.5577C1.04991 12.7568 2.05043 13.6896 3.28647 13.7776C4.21829 13.8439 5.17762 13.8785 6.15711 13.8785C7.13659 13.8785 8.09593 13.8439 9.02774 13.7776C10.2638 13.6896 11.2643 12.7568 11.3239 11.5577C11.3289 11.4581 11.2433 11.3783 11.1435 11.3785C10.8886 11.3788 10.6321 11.3234 10.3928 11.2101C9.7815 10.9207 9.3917 10.3048 9.3917 9.62848C9.3917 9.4214 9.22384 9.25354 9.01677 9.25354H5.90527C4.73167 9.25354 3.78027 8.30214 3.78027 7.12853C3.78027 5.95493 4.73167 5.00354 5.90527 5.00354H9.01679C9.22385 5.00354 9.39171 4.83568 9.39171 4.62862C9.39171 3.95222 9.7815 3.33639 10.3928 3.04695C10.6321 2.93364 10.8886 2.87829 11.1435 2.8786C11.2433 2.87873 11.3289 2.79896 11.3239 2.69933C11.2643 1.50026 10.2638 0.567449 9.02774 0.479467C8.09593 0.413141 7.13659 0.37854 6.15711 0.37854ZM10.9276 10.0804C10.753 9.99768 10.6416 9.82173 10.6416 9.62847V8.12854H5.90517C5.35289 8.12854 4.90517 7.68082 4.90517 7.12854C4.90517 6.57625 5.35289 6.12854 5.90517 6.12854H10.6416V4.62862C10.6416 4.43536 10.753 4.25941 10.9276 4.17671C11.1023 4.09401 11.309 4.11938 11.4585 4.24185C12.5802 5.16093 13.1524 5.7327 14.0297 6.81343C14.1788 6.99706 14.1788 7.26003 14.0297 7.44366C13.1524 8.5244 12.5802 9.09616 11.4585 10.0152C11.309 10.1377 11.1023 10.163 10.9276 10.0804Z" fill="black"/>
</g>
<defs>
<clipPath id="clip0_1121_999">
<rect width="14" height="14" fill="white" transform="translate(0.511719 0.12854)"/>
</clipPath>
</defs>
</svg>
