<svg width="15" height="15" viewBox="0 0 15 15" fill="none" xmlns="http://www.w3.org/2000/svg">
<g clip-path="url(#clip0_1121_1091)">
<path fill-rule="evenodd" clip-rule="evenodd" d="M2.08629 7.36905L2.04768 6.93847C1.83695 4.38887 3.8234 1.70544 7.51149 1.70544C11.1996 1.70544 13.1862 4.38891 12.9755 6.93847L12.9372 7.36583C12.6198 7.18311 12.2584 7.06499 11.8695 7.03097C10.4414 6.90602 9.18236 7.96247 9.05741 9.39063L8.89654 11.2293C8.7716 12.6575 9.82805 13.9165 11.2562 14.0415C12.6843 14.1664 13.9434 13.11 14.0683 11.6818L14.2292 9.8431C14.2351 9.77595 14.2383 9.70918 14.2391 9.64288L14.4697 7.0699L14.4701 7.0651C14.7578 3.60666 12.0439 0.205444 7.51149 0.205444C2.97897 0.205444 0.265382 3.6067 0.553036 7.0651H0.553021L0.553451 7.0699L0.784287 9.64483L0.789988 9.64432C0.790755 9.71014 0.794013 9.77644 0.799845 9.8431L0.960715 11.6818C1.08566 13.11 2.3447 14.1664 3.77285 14.0415C5.201 13.9165 6.25746 12.6575 6.13251 11.2293L5.97164 9.39063C5.84669 7.96247 4.58766 6.90602 3.15951 7.03097C2.76833 7.06519 2.40505 7.18449 2.08629 7.36905Z" fill="black"/>
</g>
<defs>
<clipPath id="clip0_1121_1091">
<rect width="14" height="14" fill="white" transform="translate(0.511719 0.12854)"/>
</clipPath>
</defs>
</svg>
