<svg width="15" height="15" viewBox="0 0 15 15" fill="none" xmlns="http://www.w3.org/2000/svg">
<g clip-path="url(#clip0_1121_663)">
<path fill-rule="evenodd" clip-rule="evenodd" d="M3.17136 1.8231C3.20613 1.78833 3.25328 1.7688 3.30245 1.7688H6.7616V12.4287H4.62879C4.21457 12.4287 3.87879 12.7645 3.87879 13.1787C3.87879 13.5929 4.21457 13.9287 4.62879 13.9287H7.50156L7.5116 13.9288L7.52164 13.9287H10.3942C10.8084 13.9287 11.1442 13.5929 11.1442 13.1787C11.1442 12.7645 10.8084 12.4287 10.3942 12.4287H8.2616V1.7688H11.7209C11.77 1.7688 11.8172 1.78833 11.852 1.8231C11.8867 1.85787 11.9063 1.90502 11.9063 1.95418V3.35726C11.9063 3.77147 12.242 4.10726 12.6563 4.10726C13.0705 4.10726 13.4063 3.77147 13.4063 3.35726V1.95418C13.4063 1.50719 13.2287 1.07851 12.9126 0.762436C12.5966 0.446366 12.1679 0.268799 11.7209 0.268799H7.5116H3.30245C2.85546 0.268799 2.42677 0.446365 2.1107 0.762436C1.79463 1.07851 1.61707 1.50719 1.61707 1.95418V3.35726C1.61707 3.77147 1.95285 4.10726 2.36707 4.10726C2.78128 4.10726 3.11707 3.77147 3.11707 3.35726V1.95418C3.11707 1.90502 3.1366 1.85787 3.17136 1.8231Z" fill="black"/>
</g>
<defs>
<clipPath id="clip0_1121_663">
<rect width="14" height="14" fill="white" transform="translate(0.511719 0.098877)"/>
</clipPath>
</defs>
</svg>
