<svg width="15" height="15" viewBox="0 0 15 15" fill="currentColor" xmlns="http://www.w3.org/2000/svg">
<g clip-path="url(#clip0_1121_1097)">
<path fill-rule="evenodd" clip-rule="evenodd" d="M8.2618 0.87854C8.2618 0.464326 7.92601 0.12854 7.5118 0.12854C7.09759 0.12854 6.7618 0.464326 6.7618 0.87854V1.39937C6.7618 1.81359 7.09759 2.14937 7.5118 2.14937C7.92601 2.14937 8.2618 1.81359 8.2618 1.39937V0.87854ZM3.6227 2.17878C3.3298 1.88588 2.85493 1.88588 2.56204 2.17878C2.26914 2.47167 2.26914 2.94654 2.56204 3.23944L2.93032 3.60772C3.22322 3.90061 3.69809 3.90061 3.99098 3.60772C4.28388 3.31483 4.28388 2.83995 3.99098 2.54706L3.6227 2.17878ZM14.5118 7.12854C14.5118 7.54275 14.176 7.87854 13.7618 7.87854H13.2409C12.8267 7.87854 12.4909 7.54275 12.4909 7.12854C12.4909 6.71433 12.8267 6.37854 13.2409 6.37854H13.7618C14.176 6.37854 14.5118 6.71433 14.5118 7.12854ZM1.78255 7.87854C2.19677 7.87854 2.53255 7.54275 2.53255 7.12854C2.53255 6.71433 2.19677 6.37854 1.78255 6.37854H1.26172C0.847505 6.37854 0.511719 6.71433 0.511719 7.12854C0.511719 7.54275 0.847505 7.87854 1.26172 7.87854H1.78255ZM12.4615 2.17878C12.7544 2.47167 12.7544 2.94654 12.4615 3.23944L12.0933 3.60772C11.8004 3.90061 11.3255 3.90061 11.0326 3.60772C10.7397 3.31483 10.7397 2.83995 11.0326 2.54706L11.4009 2.17878C11.6938 1.88588 12.1687 1.88588 12.4615 2.17878ZM7.43737 3.48863C8.12399 3.47537 8.80164 3.64613 9.39998 3.9832C9.99832 4.32026 10.4955 4.81134 10.84 5.40545C11.1843 5.99936 11.3635 6.67459 11.3589 7.36109C11.3557 8.07367 11.154 8.77128 10.7764 9.37556C10.6626 9.55751 10.5564 9.71662 10.4624 9.85731L10.4612 9.85917C10.1211 10.3682 9.95452 10.6272 9.90326 11.1179C9.87666 11.3726 9.662 11.566 9.40596 11.566H5.61823C5.36121 11.566 5.14606 11.3711 5.12068 11.1154C5.07026 10.6074 4.90269 10.3495 4.53367 9.8034L4.53292 9.80229L4.53291 9.80227L4.53283 9.80214C4.45853 9.69219 4.37652 9.57082 4.28909 9.43677C3.91396 8.86153 3.69964 8.19637 3.66838 7.51034C3.63712 6.8243 3.79006 6.1424 4.11132 5.53543C4.43258 4.92846 4.91045 4.41855 5.49532 4.05863C6.0802 3.69871 6.75075 3.5019 7.43737 3.48863ZM8.66805 14.1285C9.08226 14.1285 9.41805 13.7927 9.41805 13.3785C9.41805 12.9643 9.08226 12.6285 8.66805 12.6285H6.35559C5.94138 12.6285 5.60559 12.9643 5.60559 13.3785C5.60559 13.7927 5.94138 14.1285 6.35559 14.1285H8.66805Z" fill="black"/>
</g>
<defs>
<clipPath id="clip0_1121_1097">
<rect width="14" height="14" fill="white" transform="translate(0.511719 0.12854)"/>
</clipPath>
</defs>
</svg>
