<svg width="15" height="15" viewBox="0 0 15 15" fill="currentColor" xmlns="http://www.w3.org/2000/svg">
<g clip-path="url(#clip0_1121_1009)">
<path fill-rule="evenodd" clip-rule="evenodd" d="M6.81608 0.193346C7.19461 0.361547 7.36511 0.804755 7.19691 1.18328C7.05624 1.49985 6.91939 1.99036 6.80799 2.61403C8.83345 2.54568 10.8593 2.30368 12.8652 1.90435C13.2715 1.82347 13.6663 2.08724 13.7472 2.49348C13.8281 2.89972 13.5643 3.29461 13.1581 3.37548C10.9975 3.80561 8.8093 4.06088 6.61758 4.12052C6.5663 4.74751 6.54216 5.4211 6.55194 6.10995C7.28501 6.01728 7.99747 6.02656 8.61684 6.14107C8.91071 6.1954 9.19853 6.26507 9.47792 6.3491C9.513 6.14668 9.52437 5.96406 9.5135 5.80459C9.48532 5.39133 9.79749 5.03348 10.2107 5.00531C10.624 4.97713 10.9818 5.2893 11.01 5.70255C11.037 6.09834 10.9893 6.51458 10.8871 6.93444C11.8595 7.46725 12.6261 8.20368 13.0319 9.07863C13.3854 9.84066 13.4534 10.6952 13.1322 11.5397C12.8162 12.3703 12.1518 13.1203 11.17 13.7576C10.8226 13.9831 10.3582 13.8843 10.1326 13.5369C9.9071 13.1894 10.0059 12.725 10.3534 12.4994C11.1529 11.9805 11.5588 11.4571 11.7301 11.0064C11.8962 10.5697 11.8685 10.1352 11.6712 9.70976C11.4475 9.22759 10.995 8.74797 10.356 8.35887C10.0107 9.06097 9.5478 9.76656 9.01144 10.4168C8.61941 10.8921 8.17512 11.353 7.69415 11.7669C7.93085 12.2018 8.20043 12.5528 8.49962 12.8092C8.81411 13.0788 8.85054 13.5523 8.58097 13.8668C8.3114 14.1813 7.83793 14.2177 7.52343 13.9481C7.10861 13.5926 6.76224 13.1508 6.47324 12.6554C5.81189 13.0513 5.11288 13.3327 4.40655 13.436C3.82097 13.5217 3.11087 13.4811 2.49166 13.2177C1.84828 12.9441 1.25815 12.4003 1.13166 11.513C0.824598 9.35915 2.13441 7.85612 3.68856 7.01277C4.11961 6.77886 4.583 6.58661 5.05851 6.43693C5.03642 5.64234 5.05713 4.8606 5.11218 4.13047C3.88005 4.11303 2.64856 4.03228 1.42198 3.88453C1.01074 3.83499 0.717517 3.46146 0.767054 3.05022C0.816592 2.63898 1.19013 2.34576 1.60137 2.3953C2.82374 2.54254 4.05275 2.62036 5.2838 2.63241C5.41364 1.8131 5.59589 1.09234 5.82615 0.574173C5.99435 0.195648 6.43756 0.025146 6.81608 0.193346ZM5.15778 7.98863C4.898 8.0864 4.64471 8.20053 4.40398 8.33116C3.16265 9.00477 2.43103 9.9993 2.61664 11.3013C2.65141 11.5451 2.79141 11.7152 3.07875 11.8374C3.39026 11.9699 3.81146 12.0071 4.18946 11.9518C4.71856 11.8744 5.28525 11.6363 5.84794 11.2786C5.8103 11.1717 5.77438 11.0638 5.7401 10.9553C5.44874 10.0324 5.26246 9.01429 5.15778 7.98863ZM7.10216 10.2776C7.363 10.0254 7.61534 9.75206 7.85428 9.46237C8.30767 8.9127 8.69159 8.32893 8.97635 7.76443C8.77443 7.70647 8.56351 7.65663 8.34415 7.61607C7.85291 7.52526 7.25402 7.52368 6.62865 7.61314C6.71282 8.5519 6.86682 9.46431 7.10216 10.2776Z" fill="black"/>
</g>
<defs>
<clipPath id="clip0_1121_1009">
<rect width="14" height="14" fill="white" transform="translate(0.511719 0.12854)"/>
</clipPath>
</defs>
</svg>
