<svg width="15" height="15" viewBox="0 0 15 15" fill="currentColor" xmlns="http://www.w3.org/2000/svg">
<g clip-path="url(#clip0_1121_1001)">
<path fill-rule="evenodd" clip-rule="evenodd" d="M12.2888 1.03632C11.9345 0.91891 11.5923 1.0141 11.3951 1.07533L11.5433 1.55283L11.3951 1.07533L2.5811 3.81141C0.235989 4.53938 0.235988 7.85865 2.5811 8.58662L11.3951 11.3227C11.5923 11.3839 11.9345 11.4791 12.2888 11.3617C12.6889 11.229 12.9972 10.9366 13.2306 10.5962C13.465 10.2544 13.6471 9.83135 13.787 9.37291C14.0669 8.45538 14.2012 7.3182 14.2012 6.19902C14.2012 5.07983 14.0669 3.94265 13.787 3.02512C13.6471 2.56668 13.465 2.14363 13.2306 1.80178C12.9972 1.46135 12.6889 1.16894 12.2888 1.03632ZM3.06327 10.0451C2.80293 9.96434 2.52042 10.1073 2.48636 10.3777C2.47312 10.4828 2.46631 10.5898 2.46631 10.6983C2.46631 12.1222 3.6382 13.2765 5.0838 13.2765C6.085 13.2765 6.9549 12.7228 7.39513 11.9094C7.52644 11.6668 7.37498 11.3836 7.11151 11.3018L3.06327 10.0451Z" fill="black"/>
</g>
<defs>
<clipPath id="clip0_1121_1001">
<rect width="14" height="14" fill="white" transform="translate(0.511719 0.12854)"/>
</clipPath>
</defs>
</svg>
