<svg width="15" height="15" viewBox="0 0 15 15" fill="none" xmlns="http://www.w3.org/2000/svg">
<g clip-path="url(#clip0_1121_985)">
<path fill-rule="evenodd" clip-rule="evenodd" d="M7.51831 0.55188C7.0974 0.55188 6.68051 0.563036 6.2683 0.58181C3.40558 0.712191 0.768311 3.01697 0.768311 5.97366C0.768311 6.69379 0.81071 7.39528 1.02092 8.14542C1.44566 9.66109 2.6653 11.2618 4.8957 11.4532C4.9611 11.9366 5.07266 12.371 5.24335 12.7171C5.46506 13.1668 5.84777 13.571 6.43258 13.571C6.71348 13.571 6.9299 13.4092 7.04259 13.3161C7.14721 13.2297 7.25606 13.1195 7.345 13.0294H7.34503H7.34504H7.34505L7.39722 12.9767C7.50793 12.8658 7.59333 12.7867 7.66884 12.7356C7.68066 12.7276 7.691 12.7211 7.69992 12.7159C7.71033 12.7241 7.72214 12.7336 7.73545 12.7447C7.79794 12.797 7.85519 12.8502 7.92419 12.9144H7.9242C7.97544 12.962 8.03315 13.0157 8.10429 13.0794C8.25086 13.2108 8.43161 13.3623 8.63523 13.4814C8.83915 13.6007 9.0953 13.705 9.38865 13.705C9.69056 13.705 9.94904 13.591 10.1509 13.4618C10.352 13.3332 10.5267 13.1703 10.6665 13.0297C10.7438 12.952 10.8014 12.8912 10.852 12.8378C10.8884 12.7994 10.9211 12.7649 10.9548 12.7307C10.9958 12.7785 11.042 12.8356 11.0956 12.9026L11.1128 12.924C11.1992 13.032 11.3069 13.1666 11.4142 13.2738C11.4725 13.3321 11.5465 13.3986 11.6331 13.4529C11.7162 13.5051 11.8501 13.571 12.019 13.571C12.5316 13.571 12.9402 13.3281 13.232 12.9559C13.5107 12.6004 13.686 12.1271 13.7933 11.6149C14.2027 9.66026 14.3414 7.78931 14.2032 5.93648C13.9753 2.88033 11.6631 0.713651 8.76832 0.58181C8.35611 0.563036 7.93922 0.55188 7.51831 0.55188ZM7.64357 12.6762C7.64133 12.6749 7.64023 12.6744 7.64023 12.6745L7.64104 12.675L7.64357 12.6762ZM11.1042 12.5952C11.1042 12.5953 11.1029 12.5962 11.1003 12.5976C11.1029 12.5958 11.1042 12.5951 11.1042 12.5952ZM7.80518 5.33997C8.15036 5.33997 8.43018 5.61979 8.43018 5.96497V7.05835C8.43018 7.40353 8.15036 7.68335 7.80518 7.68335C7.46 7.68335 7.18018 7.40353 7.18018 7.05835V5.96497C7.18018 5.61979 7.46 5.33997 7.80518 5.33997ZM11.6489 5.96497C11.6489 5.61979 11.3691 5.33997 11.0239 5.33997C10.6787 5.33997 10.3989 5.61979 10.3989 5.96497V7.05835C10.3989 7.40353 10.6787 7.68335 11.0239 7.68335C11.3691 7.68335 11.6489 7.40353 11.6489 7.05835V5.96497Z" fill="black"/>
</g>
<defs>
<clipPath id="clip0_1121_985">
<rect width="14" height="14" fill="white" transform="translate(0.511719 0.12854)"/>
</clipPath>
</defs>
</svg>
