<svg width="15" height="15" viewBox="0 0 15 15" fill="currentColor" xmlns="http://www.w3.org/2000/svg">
<g clip-path="url(#clip0_1121_1101)">
<path fill-rule="evenodd" clip-rule="evenodd" d="M3.76331 0.37854C3.2259 0.37854 2.70565 0.434041 2.22554 0.489258C1.5152 0.570951 0.947417 1.13737 0.868387 1.85026C0.815322 2.32894 0.763306 2.84525 0.763306 3.37854C0.763306 3.91183 0.815322 4.42814 0.868387 4.90682C0.947417 5.61971 1.51521 6.18613 2.22554 6.26782C2.70565 6.32304 3.2259 6.37854 3.76331 6.37854C4.30071 6.37854 4.82097 6.32304 5.30108 6.26782C6.01141 6.18613 6.5792 5.61971 6.65823 4.90682C6.71129 4.42814 6.76331 3.91183 6.76331 3.37854C6.76331 2.84525 6.71129 2.32894 6.65823 1.85026C6.5792 1.13737 6.01141 0.570951 5.30108 0.489258C4.82097 0.434041 4.30071 0.37854 3.76331 0.37854ZM11.6197 0.557678C11.5258 0.445404 11.3873 0.379941 11.241 0.378562C11.0946 0.377184 10.9549 0.440028 10.8589 0.550512C9.64869 1.94273 8.76553 2.96121 8.07765 4.35757C7.5865 5.35458 8.38956 6.37854 9.39455 6.37854H13.0445C14.0648 6.37854 14.8645 5.32879 14.3526 4.33036C13.6789 3.01657 12.8565 2.03456 11.7756 0.743879V0.743872V0.743861L11.6197 0.557678ZM8.09546 8.37708C8.09546 8.0319 8.37528 7.75208 8.72046 7.75208H13.7204C14.0656 7.75208 14.3454 8.0319 14.3454 8.37708C14.3454 8.72225 14.0656 9.00208 13.7204 9.00208H8.72046C8.37528 9.00208 8.09546 8.72225 8.09546 8.37708ZM8.09546 13.377C8.09546 13.0319 8.37528 12.752 8.72046 12.752H13.7204C14.0656 12.752 14.3454 13.0319 14.3454 13.377C14.3454 13.7222 14.0656 14.002 13.7204 14.002H8.72046C8.37528 14.002 8.09546 13.7222 8.09546 13.377ZM8.72046 10.252C8.37528 10.252 8.09546 10.5319 8.09546 10.877C8.09546 11.2222 8.37528 11.502 8.72046 11.502H13.7204C14.0656 11.502 14.3454 11.2222 14.3454 10.877C14.3454 10.5319 14.0656 10.252 13.7204 10.252H8.72046ZM3.76328 7.62561C1.96749 7.62561 0.511719 9.08138 0.511719 10.8771C0.511719 12.6729 1.96749 14.1287 3.76328 14.1287C5.55907 14.1287 7.01485 12.6729 7.01485 10.8771C7.01485 9.08138 5.55907 7.62561 3.76328 7.62561Z" fill="black"/>
</g>
<defs>
<clipPath id="clip0_1121_1101">
<rect width="14" height="14" fill="white" transform="translate(0.511719 0.12854)"/>
</clipPath>
</defs>
</svg>
