<svg width="15" height="15" viewBox="0 0 15 15" fill="currentColor" xmlns="http://www.w3.org/2000/svg">
<g clip-path="url(#clip0_1121_683)">
<path fill-rule="evenodd" clip-rule="evenodd" d="M7.86525 0.370202C7.66999 0.174939 7.3534 0.174939 7.15814 0.370202L5.64091 1.88743C5.47868 2.04966 5.22685 2.08066 5.03011 1.96262L3.6303 1.12273C3.45855 1.01969 3.24187 1.02908 3.07968 1.14659C2.91749 1.26411 2.84108 1.46708 2.8855 1.66239L3.59159 4.7663C3.64336 4.99391 3.84572 5.1554 4.07913 5.1554H10.9442C11.1777 5.1554 11.38 4.99391 11.4318 4.7663L12.1379 1.66239C12.1823 1.46708 12.1059 1.26411 11.9437 1.14659C11.7815 1.02908 11.5648 1.01969 11.3931 1.12273L9.99328 1.96262C9.79654 2.08066 9.54472 2.04966 9.38248 1.88743L7.86525 0.370202ZM12.0664 6.68996C11.9928 6.51356 11.8166 6.4054 11.6255 6.4054H3.398C3.20687 6.4054 3.03067 6.51356 2.95707 6.68996C2.61548 7.50868 2.43652 8.49542 2.43652 9.64864C2.43652 11.0716 3.02562 12.1886 3.99937 12.9291C4.94825 13.6506 6.20464 13.9739 7.51175 13.9739C8.81886 13.9739 10.0753 13.6506 11.0241 12.9291C11.9979 12.1886 12.587 11.0716 12.587 9.64864C12.587 8.49543 12.408 7.50869 12.0664 6.68996ZM8.28457 8.65055C8.08499 8.46011 7.77203 8.43898 7.54793 8.59982C7.46267 8.66101 7.37537 8.71992 7.28624 8.77641C6.48473 9.2844 5.50546 9.61874 4.45893 9.67558C4.17461 9.69103 3.93338 9.92003 3.98194 10.2006C4.0991 10.8775 4.43569 11.3764 4.90734 11.7351C5.52388 12.2039 6.4301 12.4739 7.51175 12.4739C8.59339 12.4739 9.49961 12.2039 10.1162 11.7351C10.4924 11.449 10.7827 11.0736 10.9442 10.5898C11.0267 10.3427 10.855 10.0977 10.6067 10.0188C9.71801 9.736 8.91905 9.25597 8.28457 8.65055Z" fill="black"/>
</g>
<defs>
<clipPath id="clip0_1121_683">
<rect width="14" height="14" fill="white" transform="translate(0.511719 0.0987549)"/>
</clipPath>
</defs>
</svg>
