<svg width="15" height="15" viewBox="0 0 15 15" fill="currentColor" xmlns="http://www.w3.org/2000/svg">
<g clip-path="url(#clip0_1121_671)">
<path fill-rule="evenodd" clip-rule="evenodd" d="M2.22327 0.098877C1.80905 0.098877 1.47327 0.434663 1.47327 0.848877C1.47327 1.26309 1.80905 1.59888 2.22327 1.59888H3.50313C3.45035 1.7561 3.39754 1.91566 3.3475 2.07519C3.2003 2.54445 3.06853 3.03939 3.02064 3.5384C2.97233 4.04172 3.00798 4.56145 3.20523 5.0744C3.40329 5.58943 3.75223 6.06626 4.28342 6.50035C4.57211 6.73627 4.89294 6.93655 5.23647 7.09888C4.89294 7.26121 4.57211 7.46149 4.28342 7.69741C3.75223 8.1315 3.40329 8.60833 3.20523 9.12336C3.00798 9.63631 2.97233 10.1561 3.02064 10.6594C3.06853 11.1584 3.2003 11.6533 3.3475 12.1226C3.39754 12.2821 3.45035 12.4417 3.50313 12.5989H2.22327C1.80905 12.5989 1.47327 12.9347 1.47327 13.3489C1.47327 13.7631 1.80905 14.0989 2.22327 14.0989H12.8002C13.2144 14.0989 13.5502 13.7631 13.5502 13.3489C13.5502 12.9347 13.2144 12.5989 12.8002 12.5989H11.5205C11.5733 12.4417 11.6261 12.2821 11.6761 12.1226C11.8233 11.6533 11.9551 11.1584 12.003 10.6594C12.0513 10.1561 12.0156 9.63631 11.8184 9.12336C11.6203 8.60833 11.2714 8.1315 10.7402 7.69741C10.4515 7.46149 10.1307 7.26121 9.78716 7.09888C10.1307 6.93655 10.4515 6.73627 10.7402 6.50035C11.2714 6.06626 11.6203 5.58943 11.8184 5.0744C12.0156 4.56145 12.0513 4.04172 12.003 3.5384C11.9551 3.03939 11.8233 2.54445 11.6761 2.07519C11.6261 1.91566 11.5733 1.7561 11.5205 1.59888H12.8002C13.2144 1.59888 13.5502 1.26309 13.5502 0.848877C13.5502 0.434663 13.2144 0.098877 12.8002 0.098877H2.22327ZM10.1574 10.3122C10.3636 10.4081 10.5049 10.6165 10.4628 10.84C10.4149 11.0945 10.3399 11.3706 10.2448 11.6737C10.2097 11.7857 10.1732 11.8972 10.1362 12.0086C10.0685 12.2122 9.87733 12.3489 9.66278 12.3489H5.36068C5.14613 12.3489 4.95497 12.2122 4.88727 12.0086C4.85023 11.8972 4.81378 11.7857 4.77865 11.6737C4.6836 11.3706 4.60858 11.0946 4.56064 10.84C4.51855 10.6165 4.65984 10.4081 4.86607 10.3122C5.16423 10.1737 5.45442 9.99982 5.74587 9.82519C6.14923 9.58352 6.55503 9.34038 6.98777 9.1874C7.147 9.13112 7.32131 9.09888 7.51175 9.09888C7.70218 9.09888 7.8765 9.13112 8.03572 9.1874C8.46846 9.34038 8.87426 9.58352 9.27763 9.82519C9.56907 9.99981 9.85924 10.1737 10.1574 10.3122Z" fill="black"/>
</g>
<defs>
<clipPath id="clip0_1121_671">
<rect width="14" height="14" fill="white" transform="translate(0.511719 0.098877)"/>
</clipPath>
</defs>
</svg>
