<svg width="15" height="15" viewBox="0 0 15 15" fill="none" xmlns="http://www.w3.org/2000/svg">
<g clip-path="url(#clip0_1121_1011)">
<path fill-rule="evenodd" clip-rule="evenodd" d="M7.15804 0.525231C7.35331 0.329969 7.66989 0.329969 7.86515 0.525231L9.65843 2.31851L11.393 1.27777C11.5647 1.17472 11.7814 1.18411 11.9436 1.30163C12.1058 1.41915 12.1822 1.62212 12.1378 1.81742L11.3432 5.31018H3.67995L2.8854 1.81742C2.84098 1.62212 2.91739 1.41915 3.07958 1.30163C3.24177 1.18411 3.45845 1.17472 3.6302 1.27777L5.36476 2.31851L7.15804 0.525231ZM2.8525 6.56018C2.39739 7.11938 2.1023 7.69569 1.9131 8.27281C1.60391 9.21592 1.58721 10.1381 1.57335 10.9036L1.57291 10.9276C1.5637 11.4353 1.55472 11.854 1.48626 12.2174C1.41999 12.5691 1.30443 12.8283 1.10849 13.0289C0.967943 13.1728 0.927324 13.3869 1.0054 13.5723C1.08348 13.7577 1.26505 13.8782 1.4662 13.8782H13.5572C13.7584 13.8782 13.9399 13.7577 14.018 13.5723C14.0961 13.3869 14.0555 13.1728 13.9149 13.0289C13.719 12.8283 13.6034 12.5691 13.5372 12.2174C13.4687 11.854 13.4597 11.4353 13.4505 10.9276L13.4501 10.9054C13.4362 10.1395 13.4195 9.21659 13.1098 8.27269C12.9205 7.69561 12.6252 7.11934 12.1701 6.56018H2.8525ZM10.5754 10.2751C10.6228 10.6121 10.5707 10.9723 10.469 11.3191C10.1087 12.5471 8.79136 13.1148 7.51159 13.1148C6.23182 13.1148 4.91446 12.5471 4.55419 11.3191C4.45245 10.9723 4.40033 10.6121 4.44773 10.2751C4.51157 9.82113 4.642 9.38752 4.81055 8.98085C5.83709 8.826 6.80753 8.33617 7.5116 7.73279C8.21566 8.33617 9.1861 8.82599 10.2126 8.98084C10.3812 9.38752 10.5116 9.82113 10.5754 10.2751Z" fill="black"/>
</g>
<defs>
<clipPath id="clip0_1121_1011">
<rect width="14" height="14" fill="white" transform="translate(0.511719 0.12854)"/>
</clipPath>
</defs>
</svg>
