<svg width="15" height="15" viewBox="0 0 15 15" fill="none" xmlns="http://www.w3.org/2000/svg">
<g clip-path="url(#clip0_1121_1103)">
<path fill-rule="evenodd" clip-rule="evenodd" d="M2.52857 6.14526C2.52857 3.93612 4.31943 2.14526 6.52857 2.14526C8.7377 2.14526 10.5285 3.93612 10.5285 6.14526C10.5285 8.3544 8.7377 10.1452 6.52857 10.1452C4.31943 10.1452 2.52857 8.3544 2.52857 6.14526ZM6.52857 0.145264C3.21486 0.145264 0.528564 2.83156 0.528564 6.14526C0.528564 9.45897 3.21486 12.1452 6.52857 12.1452C7.8244 12.1452 9.02428 11.7344 10.0051 11.036L12.7881 13.819C13.1786 14.2095 13.8118 14.2095 14.2023 13.819C14.5928 13.4284 14.5928 12.7953 14.2023 12.4048L11.4193 9.6218C12.1178 8.64098 12.5285 7.44109 12.5285 6.14526C12.5285 2.83156 9.84227 0.145264 6.52857 0.145264Z" fill="black"/>
</g>
<defs>
<clipPath id="clip0_1121_1103">
<rect width="14" height="14" fill="white" transform="translate(0.511719 0.12854)"/>
</clipPath>
</defs>
</svg>
