<svg width="15" height="15" viewBox="0 0 15 15" fill="currentColor" xmlns="http://www.w3.org/2000/svg">
<g clip-path="url(#clip0_1121_995)">
<path fill-rule="evenodd" clip-rule="evenodd" d="M7.51153 0.25354C6.53907 0.25354 5.60644 0.639848 4.9188 1.32748C4.23117 2.01511 3.84486 2.94775 3.84486 3.92021V5.04441C2.80276 5.54452 2.03879 6.55516 1.90247 7.75782C1.84449 8.26932 1.80336 8.79734 1.80336 9.33689C1.80336 9.87645 1.84449 10.4044 1.90247 10.9159C2.09309 12.5976 3.51094 13.9039 5.20037 13.9638C5.9385 13.99 6.696 14.0035 7.51169 14.0035C8.32738 14.0035 9.08488 13.99 9.82301 13.9638C11.5124 13.9039 12.9303 12.5976 13.1209 10.9159C13.1789 10.4044 13.22 9.87645 13.22 9.33689C13.22 8.79734 13.1789 8.26932 13.1209 7.75782C12.9845 6.55503 12.2204 5.54431 11.1782 5.04426V3.92021C11.1782 2.94775 10.7919 2.01511 10.1042 1.32748C9.41662 0.639848 8.48399 0.25354 7.51153 0.25354ZM9.67819 4.70497V3.92021C9.67819 3.34557 9.44992 2.79447 9.04359 2.38814C8.63726 1.98181 8.08616 1.75354 7.51153 1.75354C6.93689 1.75354 6.38579 1.98181 5.97946 2.38814C5.57313 2.79447 5.34486 3.34557 5.34486 3.92021V4.70498C6.03742 4.68204 6.74913 4.67023 7.51169 4.67023C8.27413 4.67023 8.98574 4.68204 9.67819 4.70497ZM7.51161 8.0036C7.92582 8.0036 8.26161 8.33939 8.26161 8.7536V9.75354C8.26161 10.1677 7.92582 10.5035 7.51161 10.5035C7.09739 10.5035 6.76161 10.1677 6.76161 9.75354V8.7536C6.76161 8.33939 7.09739 8.0036 7.51161 8.0036Z" fill="black"/>
</g>
<defs>
<clipPath id="clip0_1121_995">
<rect width="14" height="14" fill="white" transform="translate(0.511734 0.12854)"/>
</clipPath>
</defs>
</svg>
