<svg width="15" height="15" viewBox="0 0 15 15" fill="currentColor" xmlns="http://www.w3.org/2000/svg">
<g clip-path="url(#clip0_1121_975)">
<path fill-rule="evenodd" clip-rule="evenodd" d="M1.26172 0.219849C0.847505 0.219849 0.511719 0.555635 0.511719 0.969849C0.511719 1.38406 0.847505 1.71985 1.26172 1.71985H1.5542C1.38658 5.26887 1.70982 8.82466 2.51523 12.2863C2.75376 13.3116 3.66749 14.0371 4.7201 14.0371H7.51172H9.85283C11.1716 14.0371 12.3048 13.1008 12.5535 11.8057L12.7224 10.926C12.9694 9.6395 13.1665 8.34437 13.3132 7.04361C13.3233 6.99616 13.3289 6.94706 13.3295 6.89677C13.4789 5.53672 13.5733 4.17064 13.6123 2.80186L13.6431 1.71985H13.7617C14.1759 1.71985 14.5117 1.38406 14.5117 0.969849C14.5117 0.555635 14.1759 0.219849 13.7617 0.219849H12.9142H7.51172H2.34634H1.26172ZM12.1425 1.71985H8.26172V6.13684H11.9003C12.0098 5.01415 12.0807 3.88758 12.1129 2.75912L12.1425 1.71985ZM6.76172 1.71985H3.05594C2.98353 3.19344 2.99917 4.66838 3.1022 6.13684H6.76172V1.71985ZM11.7307 7.63684H8.26172V12.5371H9.85283C10.4523 12.5371 10.9673 12.1115 11.0804 11.5228L11.2493 10.6432C11.4408 9.6459 11.6013 8.6433 11.7307 7.63684ZM6.76172 7.63684H3.2381C3.39898 9.08486 3.64524 10.5239 3.97621 11.9464C4.05669 12.2923 4.36496 12.5371 4.7201 12.5371H6.76172V7.63684Z" fill="black"/>
</g>
<defs>
<clipPath id="clip0_1121_975">
<rect width="14" height="14" fill="white" transform="translate(0.511719 0.12854)"/>
</clipPath>
</defs>
</svg>
