<svg width="15" height="15" viewBox="0 0 15 15" fill="none" xmlns="http://www.w3.org/2000/svg">
<g clip-path="url(#clip0_1121_962)">
<path fill-rule="evenodd" clip-rule="evenodd" d="M4.42053 1.65894C5.24036 0.839115 6.35228 0.37854 7.5117 0.37854C8.67111 0.37854 9.78303 0.839116 10.6028 1.65894C11.4227 2.47877 11.8832 3.5907 11.8832 4.75012C11.8832 5.29342 11.9719 5.81264 12.1135 6.36364C12.1497 6.47556 12.1891 6.58072 12.2311 6.67951C12.2878 6.8128 12.4024 6.9279 12.6226 7.06878C12.7086 7.12381 12.7966 7.17439 12.8966 7.23186L12.9901 7.28573C13.1232 7.36281 13.273 7.45227 13.4161 7.55817C13.9333 7.94112 14.1235 8.53122 14.0978 9.06324C14.0728 9.58094 13.8407 10.1206 13.4076 10.4462C13.4017 10.4509 13.395 10.456 13.3876 10.4615C13.37 10.4747 13.348 10.4901 13.321 10.5074C13.2671 10.5421 13.1933 10.5844 13.0949 10.6315C12.8984 10.7256 12.6021 10.8395 12.1663 10.9497C11.2964 11.1695 9.85562 11.3785 7.5117 11.3785C5.16778 11.3785 3.72693 11.1695 2.85708 10.9497C2.42129 10.8395 2.12501 10.7256 1.92846 10.6315C1.83005 10.5844 1.75629 10.5421 1.70237 10.5074C1.6754 10.4901 1.6534 10.4747 1.63576 10.4615C1.62835 10.456 1.6217 10.4509 1.61579 10.4462C1.18268 10.1206 0.950611 9.58094 0.925611 9.06324C0.89992 8.53122 1.09004 7.94112 1.60732 7.55817L1.90482 7.96003L1.60732 7.55817C1.75038 7.45226 1.90015 7.36281 2.03324 7.28574L2.12677 7.23185L2.12679 7.23184C2.2268 7.17438 2.31482 7.12382 2.40081 7.0688C2.62096 6.92793 2.73554 6.81284 2.79221 6.67955C2.99451 6.2038 3.14012 5.57536 3.14012 4.75012C3.14012 3.5907 3.6007 2.47877 4.42053 1.65894ZM6.34999 12.1131C6.15553 12.0469 5.94041 12.1064 5.80758 12.2631C5.67476 12.4198 5.65126 12.6418 5.74834 12.8228C6.08479 13.4501 6.74784 13.8785 7.51173 13.8785C8.27561 13.8785 8.93867 13.4501 9.27511 12.8228C9.37219 12.6418 9.3487 12.4198 9.21587 12.2631C9.08305 12.1064 8.86792 12.0469 8.67347 12.1131C8.4202 12.1992 8.04603 12.2651 7.51173 12.2651C6.97742 12.2651 6.60326 12.1992 6.34999 12.1131Z" fill="black"/>
</g>
<defs>
<clipPath id="clip0_1121_962">
<rect width="14" height="14" fill="white" transform="translate(0.511719 0.12854)"/>
</clipPath>
</defs>
</svg>
