<svg width="15" height="15" viewBox="0 0 15 15" fill="none" xmlns="http://www.w3.org/2000/svg">
<g clip-path="url(#clip0_1121_665)">
<path fill-rule="evenodd" clip-rule="evenodd" d="M1.51173 0.473877C1.16656 0.473877 0.886734 0.753699 0.886734 1.09888C0.886734 1.44406 1.16656 1.72388 1.51173 1.72388H13.5117C13.8569 1.72388 14.1367 1.44406 14.1367 1.09888C14.1367 0.753699 13.8569 0.473877 13.5117 0.473877H1.51173ZM1.51173 3.47388C1.16656 3.47388 0.886734 3.7537 0.886734 4.09888C0.886734 4.44406 1.16656 4.72388 1.51173 4.72388H2.51173C2.85691 4.72388 3.13673 4.44406 3.13673 4.09888C3.13673 3.7537 2.85691 3.47388 2.51173 3.47388H1.51173ZM11.8867 4.09888C11.8867 3.7537 12.1665 3.47388 12.5117 3.47388H13.5117C13.8569 3.47388 14.1367 3.7537 14.1367 4.09888C14.1367 4.44406 13.8569 4.72388 13.5117 4.72388H12.5117C12.1665 4.72388 11.8867 4.44406 11.8867 4.09888ZM1.51173 9.47388C1.16656 9.47388 0.886734 9.7537 0.886734 10.0989C0.886734 10.4441 1.16656 10.7239 1.51173 10.7239H2.51173C2.85691 10.7239 3.13673 10.4441 3.13673 10.0989C3.13673 9.7537 2.85691 9.47388 2.51173 9.47388H1.51173ZM11.8867 10.0989C11.8867 9.7537 12.1665 9.47388 12.5117 9.47388H13.5117C13.8569 9.47388 14.1367 9.7537 14.1367 10.0989C14.1367 10.4441 13.8569 10.7239 13.5117 10.7239H12.5117C12.1665 10.7239 11.8867 10.4441 11.8867 10.0989ZM1.51173 6.47388C1.16656 6.47388 0.886734 6.7537 0.886734 7.09888C0.886734 7.44406 1.16656 7.72388 1.51173 7.72388H2.51173C2.85691 7.72388 3.13673 7.44406 3.13673 7.09888C3.13673 6.7537 2.85691 6.47388 2.51173 6.47388H1.51173ZM11.8867 7.09888C11.8867 6.7537 12.1665 6.47388 12.5117 6.47388H13.5117C13.8569 6.47388 14.1367 6.7537 14.1367 7.09888C14.1367 7.44406 13.8569 7.72388 13.5117 7.72388H12.5117C12.1665 7.72388 11.8867 7.44406 11.8867 7.09888ZM1.51173 12.4739C1.16656 12.4739 0.886734 12.7537 0.886734 13.0989C0.886734 13.4441 1.16656 13.7239 1.51173 13.7239H13.5117C13.8569 13.7239 14.1367 13.4441 14.1367 13.0989C14.1367 12.7537 13.8569 12.4739 13.5117 12.4739H1.51173ZM7.51173 3.59888C6.94562 3.59888 6.3961 3.65063 5.87842 3.70833C4.95524 3.81123 4.21436 4.55095 4.1153 5.47679C4.06017 5.99207 4.01173 6.53737 4.01173 7.09888C4.01173 7.66039 4.06017 8.20568 4.1153 8.72096C4.21436 9.64681 4.95524 10.3865 5.87842 10.4895C6.3961 10.5472 6.94562 10.5989 7.51173 10.5989C8.07784 10.5989 8.62736 10.5472 9.14504 10.4895C10.0682 10.3865 10.8091 9.64681 10.9081 8.72097C10.9633 8.20568 11.0117 7.66039 11.0117 7.09888C11.0117 6.53737 10.9633 5.99207 10.9081 5.47679C10.8091 4.55095 10.0682 3.81123 9.14504 3.70833C8.62736 3.65063 8.07784 3.59888 7.51173 3.59888Z" fill="black"/>
</g>
<defs>
<clipPath id="clip0_1121_665">
<rect width="14" height="14" fill="white" transform="translate(0.511734 0.098877)"/>
</clipPath>
</defs>
</svg>
