<svg width="15" height="15" viewBox="0 0 15 15" fill="currentColor" xmlns="http://www.w3.org/2000/svg">
<g clip-path="url(#clip0_1121_661)">
<path fill-rule="evenodd" clip-rule="evenodd" d="M7.90457 0.348877H7.12064C6.82715 0.349251 6.53995 0.438083 6.2977 0.603779C6.05576 0.769266 5.86925 1.00375 5.76243 1.2767L5.40392 2.18396L4.30942 2.81757L3.34525 2.67055C3.05466 2.6267 2.7576 2.67152 2.49289 2.79915C2.22829 2.92673 2.00811 3.13146 1.86146 3.38597L1.47075 4.06212C1.32372 4.31656 1.25686 4.60945 1.27889 4.9025C1.30093 5.19546 1.41096 5.47518 1.5943 5.70473L2.20368 6.46828V7.72948L1.59413 8.49324C1.41079 8.7228 1.30093 9.0023 1.27889 9.29527C1.25686 9.58831 1.32373 9.8812 1.47076 10.1357L1.86183 10.8125C2.00848 11.0668 2.22839 11.2711 2.49289 11.3986C2.7576 11.5263 3.05524 11.571 3.34583 11.5271L4.31224 11.3802L5.40362 12.0102L5.76028 12.9201C5.86704 13.1935 6.0537 13.4283 6.29592 13.594C6.53816 13.7597 6.82536 13.8485 7.11886 13.8489H7.90164C8.19513 13.8485 8.48169 13.7597 8.72394 13.594C8.966 13.4284 9.15282 13.1932 9.25961 12.92L9.61623 12.0102L10.7076 11.3802L11.6746 11.5272C11.9652 11.5711 12.2622 11.5263 12.5269 11.3986C12.7914 11.2711 13.0117 11.0662 13.1584 10.8118L13.5491 10.1357C13.6961 9.8812 13.763 9.58831 13.7409 9.29527C13.7189 9.00245 13.6087 8.72252 13.4255 8.49303L12.8197 7.72988V6.46828L13.4291 5.70473C13.6125 5.47514 13.7225 5.19555 13.7445 4.90249C13.7665 4.60944 13.6997 4.31656 13.5526 4.06211L13.1617 3.38548C13.015 3.13104 12.7951 2.92671 12.5305 2.79915C12.2658 2.67152 11.9682 2.62679 11.6776 2.67064L10.7112 2.81763L9.62146 2.18852L9.26291 1.27705C9.15612 1.00395 8.96956 0.769337 8.72751 0.603779C8.48527 0.438083 8.19806 0.349252 7.90457 0.348877ZM7.51172 9.97644C8.88632 9.97644 10.0358 9.0126 10.3212 7.72388H7.77073L5.9673 9.5273C6.41352 9.81168 6.94338 9.97644 7.51172 9.97644ZM5.08339 8.64345L6.76791 6.95893L5.81074 4.77764C5.09729 5.30133 4.63416 6.14602 4.63416 7.09888C4.63416 7.66729 4.79896 8.1972 5.08339 8.64345ZM6.95526 4.27508L7.92011 6.47388H10.3212C10.0358 5.18516 8.88632 4.22132 7.51172 4.22132C7.32135 4.22132 7.1353 4.2398 6.95526 4.27508Z" fill="black"/>
</g>
<defs>
<clipPath id="clip0_1121_661">
<rect width="14" height="14" fill="white" transform="translate(0.511719 0.098877)"/>
</clipPath>
</defs>
</svg>
