<svg width="15" height="15" viewBox="0 0 15 15" fill="currentColor" xmlns="http://www.w3.org/2000/svg">
<g clip-path="url(#clip0_1121_1087)">
<path fill-rule="evenodd" clip-rule="evenodd" d="M3.76099 2.01086C3.76099 1.97087 3.72628 1.93927 3.68659 1.9442C3.6546 1.94818 3.62256 1.95214 3.59044 1.95608C2.88354 2.04293 2.31242 2.61188 2.26105 3.3416C2.05361 6.28832 2.05361 9.07365 2.26105 12.0203C2.3122 12.7468 2.88401 13.3295 3.61164 13.3905C6.28718 13.6148 8.73627 13.6148 11.4118 13.3905C12.1394 13.3295 12.7112 12.7468 12.7624 12.0203C12.9698 9.07365 12.9698 6.28832 12.7624 3.3416C12.711 2.61188 12.1399 2.04293 11.433 1.95608C11.4008 1.95213 11.3687 1.94817 11.3367 1.94419C11.297 1.93925 11.2623 1.97086 11.2623 2.01086C11.2623 3.42609 10.115 4.57336 8.6998 4.57336H6.32349C4.90826 4.57336 3.76099 3.4261 3.76099 2.01086ZM5.03765 1.74635C5.16004 1.14827 5.68922 0.698364 6.32349 0.698364H8.6998C9.36017 0.698364 9.90663 1.18606 9.99866 1.82092C10.0076 1.88294 10.0123 1.94636 10.0123 2.01086C10.0123 2.73574 9.42468 3.32336 8.6998 3.32336H6.32349C5.59862 3.32336 5.01099 2.73574 5.01099 2.01086C5.01099 1.94636 5.01564 1.88294 5.02463 1.82092C5.02827 1.79583 5.03262 1.77096 5.03765 1.74635Z" fill="black"/>
</g>
<defs>
<clipPath id="clip0_1121_1087">
<rect width="14" height="14" fill="white" transform="translate(0.511719 0.12854)"/>
</clipPath>
</defs>
</svg>
