<svg width="15" height="15" viewBox="0 0 15 15" fill="currentColor" xmlns="http://www.w3.org/2000/svg">
<g clip-path="url(#clip0_1121_667)">
<path fill-rule="evenodd" clip-rule="evenodd" d="M7.51173 0.348877C5.98834 0.348877 4.49839 0.429606 3.0717 0.579456C2.0195 0.689971 1.15115 1.48356 0.997174 2.54987C0.842086 3.6239 0.761734 4.74428 0.761734 5.88193C0.761734 6.98274 0.842224 8.05143 0.986788 9.08989C1.14565 10.2311 2.10282 11.0419 3.20393 11.1444L3.42112 11.1646L3.64635 11.1856V13.3489C3.64635 13.5185 3.73232 13.6765 3.87471 13.7687C4.0171 13.8608 4.19649 13.8745 4.35121 13.805C5.75567 13.1742 6.60525 12.5626 7.63076 11.4148C9.0961 11.4102 10.5139 11.3201 11.887 11.1806C12.9745 11.0702 13.8634 10.2423 14.0179 9.14778C14.1665 8.09539 14.2617 7.00605 14.2617 5.88193C14.2617 4.75177 14.1749 3.64384 14.0232 2.58068C13.8691 1.50035 12.9895 0.692431 11.9215 0.582005C10.4956 0.434566 9.03185 0.348877 7.51173 0.348877ZM4.87131 4.46118C4.6649 4.46118 4.49757 4.62851 4.49757 4.83492V6.8324C4.49757 7.03881 4.6649 7.20613 4.87131 7.20613H5.53713C5.69888 7.20613 5.83816 7.10303 5.88976 6.95703C6.00479 6.63158 6.36187 6.46101 6.68732 6.57604C7.01277 6.69107 7.18334 7.04815 7.06831 7.3736C6.8457 8.0034 6.24509 8.45613 5.53713 8.45613H4.87131C3.97454 8.45613 3.24757 7.72916 3.24757 6.8324V4.83492C3.24757 3.93816 3.97454 3.21118 4.87131 3.21118H5.53713C6.2451 3.21118 6.84571 3.66392 7.06832 4.29374C7.18334 4.61919 7.01276 4.97626 6.68732 5.09129C6.36187 5.20632 6.00479 5.03574 5.88976 4.71029C5.83816 4.56429 5.69888 4.46118 5.53713 4.46118H4.87131ZM9.16944 4.83492C9.16944 4.62851 9.33677 4.46118 9.54318 4.46118H10.209C10.3708 4.46118 10.51 4.56429 10.5616 4.71029C10.6766 5.03574 11.0337 5.20632 11.3592 5.09129C11.6846 4.97626 11.8552 4.61919 11.7402 4.29374C11.5176 3.66392 10.9169 3.21118 10.209 3.21118H9.54318C8.64642 3.21118 7.91944 3.93816 7.91944 4.83492V6.8324C7.91944 7.72916 8.64642 8.45613 9.54318 8.45613H10.209C10.9169 8.45613 11.5175 8.0034 11.7402 7.3736C11.8552 7.04815 11.6846 6.69107 11.3592 6.57604C11.0337 6.46101 10.6766 6.63158 10.5616 6.95703C10.51 7.10303 10.3708 7.20613 10.209 7.20613H9.54318C9.33677 7.20613 9.16944 7.03881 9.16944 6.8324V4.83492Z" fill="black"/>
</g>
<defs>
<clipPath id="clip0_1121_667">
<rect width="14" height="14" fill="white" transform="translate(0.511734 0.098877)"/>
</clipPath>
</defs>
</svg>
