<svg width="15" height="15" viewBox="0 0 15 15" fill="none" xmlns="http://www.w3.org/2000/svg">
<g clip-path="url(#clip0_1121_681)">
<path fill-rule="evenodd" clip-rule="evenodd" d="M0.511719 7.09875C0.511719 3.23276 3.64573 0.0987549 7.51172 0.0987549C11.3777 0.0987549 14.5117 3.23276 14.5117 7.09875C14.5117 10.9648 11.3777 14.0988 7.51172 14.0988C3.64573 14.0988 0.511719 10.9648 0.511719 7.09875ZM5.13696 5.6454C5.13696 4.33385 6.20019 3.27063 7.51174 3.27063C8.8233 3.27063 9.88652 4.33385 9.88652 5.6454C9.88652 6.95696 8.8233 8.02018 7.51174 8.02018C6.20019 8.02018 5.13696 6.95696 5.13696 5.6454ZM11.1314 10.7357C11.2547 10.9231 11.2155 11.171 11.0436 11.3152C10.0881 12.1164 8.8563 12.5988 7.51183 12.5988C6.16734 12.5988 4.93552 12.1164 3.98003 11.3152C3.80809 11.171 3.76891 10.9231 3.89224 10.7356C4.13202 10.3712 4.42716 10.0424 4.76985 9.76231C5.54368 9.12982 6.51237 8.7843 7.5118 8.7843C8.51122 8.7843 9.47992 9.12982 10.2537 9.76231C10.5964 10.0424 10.8916 10.3712 11.1314 10.7357Z" fill="black"/>
</g>
<defs>
<clipPath id="clip0_1121_681">
<rect width="14" height="14" fill="white" transform="translate(0.511719 0.0987549)"/>
</clipPath>
</defs>
</svg>
