<svg width="15" height="15" viewBox="0 0 15 15" fill="currentColor" xmlns="http://www.w3.org/2000/svg">
<g clip-path="url(#clip0_1121_673)">
<path fill-rule="evenodd" clip-rule="evenodd" d="M9.08339 0.198968C8.67866 0.110844 8.27912 0.367505 8.191 0.772236C8.10288 1.17697 8.35954 1.57651 8.76427 1.66463C9.29939 1.78115 9.81323 1.97987 10.2875 2.25373C10.6462 2.46086 11.1049 2.33798 11.312 1.97927C11.5192 1.62057 11.3963 1.16187 11.0376 0.954735C10.4291 0.603394 9.76991 0.348448 9.08339 0.198968ZM6.25912 1.66463C6.66385 1.57651 6.92051 1.17697 6.83239 0.772236C6.74427 0.367505 6.34473 0.110844 5.94 0.198968C5.25348 0.348448 4.59426 0.603394 3.9858 0.954735C3.6271 1.16187 3.50422 1.62057 3.71134 1.97927C3.91847 2.33798 4.37717 2.46086 4.73588 2.25373C5.21015 1.97987 5.724 1.78115 6.25912 1.66463ZM2.96617 2.66359C3.29363 2.91725 3.35346 3.38834 3.0998 3.7158C2.7974 4.10618 2.55092 4.53682 2.36747 4.99528C2.21359 5.37984 1.77709 5.56685 1.39251 5.41297C1.00795 5.25909 0.820937 4.82259 0.974819 4.43802C1.21007 3.85009 1.52617 3.29784 1.91397 2.79722C2.16763 2.46976 2.63872 2.40993 2.96617 2.66359ZM5.13892 6.04655C4.7247 6.04655 4.38892 6.38233 4.38892 6.79655C4.38892 7.21076 4.7247 7.54655 5.13892 7.54655H7.04933L8.33806 9.15747C8.59682 9.48091 9.06879 9.53335 9.39224 9.2746C9.71568 9.01584 9.76812 8.54387 9.50937 8.22042L7.99545 6.32803C7.85312 6.15011 7.63763 6.04655 7.4098 6.04655H5.13892ZM13.7623 6.27216C14.1765 6.27576 14.5093 6.61446 14.5057 7.02866C14.4964 8.10465 14.2719 9.16687 13.8468 10.1532C14.103 10.4821 14.2556 10.8957 14.2556 11.3449C14.2556 12.4169 13.3866 13.2858 12.3147 13.2858C11.2427 13.2858 10.3738 12.4169 10.3738 11.3449C10.3738 10.273 11.2427 9.40397 12.3147 9.40397C12.3872 9.40397 12.4588 9.40795 12.5292 9.41569C12.8365 8.65367 12.9986 7.8396 13.0058 7.01561C13.0094 6.60141 13.3481 6.26856 13.7623 6.27216ZM1.26758 6.27213C1.68179 6.27213 2.01758 6.60792 2.01758 7.02213C2.01758 8.47924 2.59641 9.87666 3.62674 10.907C4.13691 11.4172 4.74256 11.8219 5.40913 12.098C6.07569 12.3741 6.79012 12.5162 7.5116 12.5162C7.92581 12.5162 8.2616 12.852 8.2616 13.2662C8.2616 13.6804 7.92581 14.0162 7.5116 14.0162C6.59313 14.0162 5.68366 13.8353 4.8351 13.4838C3.98655 13.1323 3.21554 12.6171 2.56608 11.9677C1.25445 10.656 0.517578 8.87706 0.517578 7.02213C0.517578 6.60792 0.853365 6.27213 1.26758 6.27213ZM12.0573 2.66359C12.3847 2.40993 12.8558 2.46976 13.1095 2.79722C13.4973 3.29784 13.8134 3.85009 14.0486 4.43802C14.2025 4.82259 14.0155 5.25909 13.6309 5.41297C13.2464 5.56685 12.8099 5.37984 12.656 4.99528C12.4725 4.53682 12.2261 4.10618 11.9237 3.7158C11.67 3.38834 11.7298 2.91725 12.0573 2.66359Z" fill="black"/>
</g>
<defs>
<clipPath id="clip0_1121_673">
<rect width="14" height="14" fill="white" transform="translate(0.511719 0.098877)"/>
</clipPath>
</defs>
</svg>
