<svg width="15" height="15" viewBox="0 0 15 15" fill="currentColor" xmlns="http://www.w3.org/2000/svg">
<g clip-path="url(#clip0_1121_989)">
<path fill-rule="evenodd" clip-rule="evenodd" d="M9.67203 0.442502C7.09557 0.247844 4.69683 0.247844 2.12037 0.442502C1.3925 0.497494 0.814253 1.07527 0.75903 1.8033C0.564698 4.36527 0.564698 6.76472 0.75903 9.32669C0.814248 10.0547 1.39233 10.6324 2.12026 10.6874C2.3958 10.7083 2.62623 10.4831 2.6177 10.2069C2.5626 8.42201 2.60455 6.66841 2.74357 4.83571C2.84553 3.49153 3.91357 2.42452 5.25715 2.32301C7.10229 2.1836 8.86069 2.14166 10.6536 2.19719C10.8721 2.20395 11.0499 2.02122 11.0333 1.80321C10.9781 1.07513 10.3998 0.49749 9.67203 0.442502ZM5.35132 3.56946C7.92779 3.3748 10.3265 3.3748 12.903 3.56946C13.6308 3.62445 14.2091 4.20222 14.2643 4.93025C14.4586 7.49223 14.4586 9.89167 14.2643 12.4536C14.2091 13.1816 13.6308 13.7594 12.903 13.8144C10.3265 14.0091 7.92779 14.0091 5.35133 13.8144C4.62346 13.7594 4.04521 13.1816 3.98999 12.4536C3.79566 9.89167 3.79566 7.49223 3.98999 4.93025C4.04521 4.20222 4.62346 3.62445 5.35132 3.56946ZM7.01904 9.31702C6.67387 9.31702 6.39404 9.0372 6.39404 8.69202C6.39404 8.34684 6.67387 8.06702 7.01904 8.06702H8.50195V6.58362C8.50195 6.23844 8.78178 5.95862 9.12695 5.95862C9.47213 5.95862 9.75195 6.23844 9.75195 6.58362V8.06702H11.2354C11.5806 8.06702 11.8604 8.34684 11.8604 8.69202C11.8604 9.0372 11.5806 9.31702 11.2354 9.31702H9.75195V10.8C9.75195 11.1451 9.47213 11.425 9.12695 11.425C8.78178 11.425 8.50195 11.1451 8.50195 10.8V9.31702H7.01904Z" fill="black"/>
</g>
<defs>
<clipPath id="clip0_1121_989">
<rect width="14" height="14" fill="white" transform="translate(0.511719 0.12854)"/>
</clipPath>
</defs>
</svg>
