<svg width="15" height="15" viewBox="0 0 15 15" fill="none" xmlns="http://www.w3.org/2000/svg">
<g clip-path="url(#clip0_1121_993)">
<path fill-rule="evenodd" clip-rule="evenodd" d="M7.51166 1.64758C6.83499 1.64758 6.1687 1.7346 5.54792 1.9107C5.14943 2.02374 4.73475 1.79234 4.6217 1.39385C4.50866 0.995365 4.74006 0.580686 5.13855 0.467642C5.90365 0.250597 6.70865 0.147583 7.51166 0.147583C10.3947 0.147583 13.4394 1.50919 14.2883 4.78394C14.3922 5.1849 14.1514 5.5942 13.7504 5.69812C13.3495 5.80205 12.9402 5.56126 12.8362 5.1603C12.2226 2.79301 10.0034 1.64758 7.51166 1.64758ZM2.07748 2.28843C2.35782 1.98349 2.83227 1.96355 3.1372 2.24389C3.44214 2.52423 3.46208 2.99868 3.18174 3.30361C2.47851 4.06854 2.01161 5.14529 2.01161 6.62035V13.3592C2.01161 13.7734 1.67582 14.1092 1.26161 14.1092C0.847398 14.1092 0.511612 13.7734 0.511612 13.3592V6.62035C0.511612 4.80242 1.09816 3.35367 2.07748 2.28843ZM14.5117 7.70081C14.5117 7.28659 14.1759 6.95081 13.7617 6.95081C13.3474 6.95081 13.0117 7.28659 13.0117 7.70081V13.3593C13.0117 13.7735 13.3474 14.1093 13.7617 14.1093C14.1759 14.1093 14.5117 13.7735 14.5117 13.3593V7.70081ZM3.53039 10.8967C3.46318 10.488 3.74003 10.1022 4.14875 10.035C4.55748 9.96775 4.9433 10.2446 5.01051 10.6533C5.1321 11.3927 5.27396 12.0177 5.385 12.4564C5.44046 12.6754 5.48808 12.8474 5.52139 12.9633C5.53805 13.0212 5.55111 13.065 5.55978 13.0936L5.56938 13.125L5.57152 13.1318L5.57177 13.1326L5.57181 13.1327L5.57188 13.133H5.57189C5.69693 13.5277 5.47845 13.9491 5.08376 14.0743C4.68895 14.1996 4.26733 13.9811 4.14204 13.5863L4.8569 13.3595C4.14204 13.5863 4.14201 13.5862 4.14199 13.5862L4.14193 13.586L4.1418 13.5856L4.14144 13.5844L4.14035 13.581L4.13677 13.5695L4.12424 13.5286C4.1136 13.4935 4.09853 13.4429 4.07984 13.3779C4.04247 13.248 3.9906 13.0604 3.93086 12.8245C3.8115 12.353 3.66014 11.6857 3.53039 10.8967ZM10.5889 5.4084C10.9839 5.28379 11.4052 5.503 11.5298 5.89802C11.6902 6.40649 11.7746 6.98517 11.7746 7.63926C11.7746 9.21413 11.5512 10.697 11.3306 11.7803C11.2199 12.3238 11.109 12.7708 11.0253 13.0838C10.9834 13.2404 10.9482 13.3637 10.9231 13.4489C10.9106 13.4916 10.9006 13.5247 10.8935 13.5478L10.8852 13.5748L10.8827 13.5826L10.882 13.585L10.8817 13.5858L10.8816 13.5861C10.8816 13.5862 10.8816 13.5863 10.1667 13.3595L10.8816 13.5863C10.7563 13.9812 10.3347 14.1996 9.93986 14.0744C9.54518 13.9491 9.32671 13.5277 9.45172 13.133H9.45175L9.45178 13.1329L9.45179 13.1328L9.45185 13.1326L9.4519 13.1325L9.45316 13.1284L9.45917 13.109C9.46467 13.091 9.47309 13.0631 9.48402 13.0259C9.50587 12.9516 9.53773 12.8401 9.57626 12.6961C9.65337 12.4079 9.75698 11.9905 9.86077 11.481C10.0691 10.4583 10.2747 9.08119 10.2747 7.63926C10.2747 7.1135 10.2067 6.68989 10.0993 6.3493C9.97468 5.95427 10.1939 5.53302 10.5889 5.4084ZM8.26169 11.5504C8.26169 11.1362 7.9259 10.8004 7.51169 10.8004C7.09748 10.8004 6.76169 11.1362 6.76169 11.5504V12.5504C6.76169 12.9646 7.09748 13.3004 7.51169 13.3004C7.9259 13.3004 8.26169 12.9646 8.26169 12.5504V11.5504ZM7.51176 4.67737C7.8987 4.67737 8.30392 4.73026 8.67642 4.86084C9.06731 4.99787 9.49528 4.79207 9.6323 4.40118C9.76933 4.01029 9.56353 3.58233 9.17264 3.4453C8.60606 3.24668 8.02663 3.17737 7.51176 3.17737C6.65521 3.17737 5.58569 3.37054 4.71632 4.06653C3.81594 4.78734 3.24894 5.95129 3.24894 7.63926C3.24894 8.05347 3.58473 8.38926 3.99894 8.38926C4.41316 8.38926 4.74894 8.05347 4.74894 7.63926C4.74894 6.31043 5.17794 5.61844 5.65377 5.23751C6.16061 4.83174 6.84749 4.67737 7.51176 4.67737ZM7.08664 8.64327C7.08664 8.31226 7.17821 8.13842 7.24705 8.05916C7.31049 7.98612 7.39391 7.94495 7.51166 7.94495C7.6294 7.94495 7.71282 7.98612 7.77626 8.05916C7.8451 8.13842 7.93667 8.31227 7.93667 8.64327C7.93667 9.05748 8.27246 9.39327 8.68667 9.39327C9.10088 9.39327 9.43667 9.05748 9.43667 8.64327C9.43667 8.03632 9.26521 7.486 8.90877 7.07559C8.54694 6.65896 8.04285 6.44495 7.51166 6.44495C6.98046 6.44495 6.47637 6.65896 6.11454 7.07559C5.7581 7.486 5.58664 8.03632 5.58664 8.64327C5.58664 9.05748 5.92243 9.39327 6.33664 9.39327C6.75085 9.39327 7.08664 9.05748 7.08664 8.64327Z" fill="black"/>
</g>
<defs>
<clipPath id="clip0_1121_993">
<rect width="14" height="14" fill="white" transform="translate(0.511734 0.12854)"/>
</clipPath>
</defs>
</svg>
