<svg width="15" height="15" viewBox="0 0 15 15" fill="none" xmlns="http://www.w3.org/2000/svg">
<g clip-path="url(#clip0_1121_1093)">
<path fill-rule="evenodd" clip-rule="evenodd" d="M7.51173 0.37854C6.7797 0.37854 6.13719 0.585972 5.67818 1.04499C5.21916 1.504 5.01173 2.14651 5.01173 2.87854C5.01173 3.61057 5.21916 4.25308 5.67818 4.71209C5.97227 5.00619 6.3417 5.19701 6.76173 5.29616V6.62854H4.51173C2.99295 6.62854 1.76173 7.85976 1.76173 9.37854V10.0871C1.59092 10.1697 1.43496 10.2782 1.29818 10.4149C0.924166 10.789 0.761734 11.3065 0.761734 11.8785C0.761734 12.4505 0.924166 12.968 1.29818 13.3421C1.67219 13.7161 2.1897 13.8785 2.76173 13.8785C3.33376 13.8785 3.85127 13.7161 4.22528 13.3421C4.5993 12.968 4.76173 12.4505 4.76173 11.8785C4.76173 11.3065 4.5993 10.789 4.22528 10.4149C3.96401 10.1537 3.63272 9.99569 3.26173 9.92416V9.37854C3.26173 8.68818 3.82137 8.12854 4.51173 8.12854H6.76173V9.98767C6.49164 10.0741 6.24919 10.2139 6.04818 10.4149C5.67416 10.789 5.51173 11.3065 5.51173 11.8785C5.51173 12.4505 5.67416 12.968 6.04818 13.3421C6.42219 13.7161 6.9397 13.8785 7.51173 13.8785C8.08376 13.8785 8.60127 13.7161 8.97528 13.3421C9.3493 12.968 9.51173 12.4505 9.51173 11.8785C9.51173 11.3065 9.3493 10.789 8.97528 10.4149C8.77427 10.2139 8.53182 10.0741 8.26173 9.98767V8.12854H10.5117C11.2021 8.12854 11.7617 8.68818 11.7617 9.37854V9.92416C11.3907 9.99569 11.0594 10.1537 10.7981 10.4149C10.4242 10.789 10.2617 11.3065 10.2617 11.8785C10.2617 12.4505 10.4242 12.968 10.7981 13.3421C11.1722 13.7161 11.6897 13.8785 12.2617 13.8785C12.8337 13.8785 13.3512 13.7161 13.7253 13.3421C14.0993 12.968 14.2617 12.4505 14.2617 11.8785C14.2617 11.3065 14.0993 10.789 13.7253 10.4149C13.5885 10.2782 13.4325 10.1697 13.2617 10.0871V9.37854C13.2617 7.85976 12.0305 6.62854 10.5117 6.62854H8.26173V5.29616C8.68176 5.19701 9.05119 5.00619 9.34528 4.71209C9.8043 4.25308 10.0117 3.61057 10.0117 2.87854C10.0117 2.14651 9.8043 1.504 9.34528 1.04499C8.88627 0.585972 8.24376 0.37854 7.51173 0.37854Z" fill="black"/>
</g>
<defs>
<clipPath id="clip0_1121_1093">
<rect width="14" height="14" fill="white" transform="translate(0.511734 0.12854)"/>
</clipPath>
</defs>
</svg>
