<svg width="15" height="15" viewBox="0 0 15 15" fill="none" xmlns="http://www.w3.org/2000/svg">
<g clip-path="url(#clip0_1121_1107)">
<path fill-rule="evenodd" clip-rule="evenodd" d="M2.01172 7.12854C2.01172 4.09097 4.47415 1.62854 7.51172 1.62854C10.5493 1.62854 13.0117 4.09097 13.0117 7.12854C13.0117 7.62589 12.9457 8.10781 12.8219 8.56604H8.97164L11.1214 5.56533C11.3626 5.22861 11.2852 4.76009 10.9485 4.51886C10.6118 4.27762 10.1433 4.35503 9.90204 4.69175L7.12643 8.56604H2.20148C2.07773 8.10781 2.01172 7.62589 2.01172 7.12854ZM5.43013 13.8138C2.58065 12.9275 0.511719 10.2696 0.511719 7.12854C0.511719 3.26255 3.64573 0.12854 7.51172 0.12854C11.3777 0.12854 14.5117 3.26255 14.5117 7.12854C14.5117 10.9945 11.3777 14.1285 7.51172 14.1285" fill="black"/>
</g>
<defs>
<clipPath id="clip0_1121_1107">
<rect width="14" height="14" fill="white" transform="translate(0.511719 0.12854)"/>
</clipPath>
</defs>
</svg>
