<svg width="15" height="15" viewBox="0 0 15 15" fill="currentColor" xmlns="http://www.w3.org/2000/svg">
<g clip-path="url(#clip0_1121_1089)">
<path fill-rule="evenodd" clip-rule="evenodd" d="M3.71654 4.31604C3.71654 2.72822 5.00374 1.44104 6.59155 1.44104C8.17937 1.44104 9.46655 2.72822 9.46655 4.31604C9.46655 4.5419 9.44063 4.76091 9.39186 4.97056C9.31366 5.30677 9.52279 5.64271 9.859 5.72091C10.1952 5.79912 10.5311 5.58997 10.6093 5.25377C10.6796 4.95192 10.7165 4.6379 10.7165 4.31604C10.7165 2.03787 8.86973 0.19104 6.59155 0.19104C4.31337 0.19104 2.46655 2.03787 2.46655 4.31604C2.46655 4.6379 2.50354 4.95192 2.57375 5.25377C2.65196 5.58997 2.9879 5.79912 3.3241 5.72092C3.6603 5.64271 3.86945 5.30677 3.79125 4.97056C3.74248 4.76091 3.71654 4.5419 3.71654 4.31604ZM7.87207 4.31609V7.56604C11.4842 7.31195 12.5569 9.38319 12.5569 11.1326C12.5569 11.7722 12.3344 12.6474 11.973 13.3458C11.7172 13.8402 11.1679 14.066 10.6112 14.066H7.27981C6.44285 14.066 5.62697 13.8035 4.94707 13.3154L4.27359 12.8319C3.00384 11.9203 3.22361 9.96988 4.66438 9.36373L5.37195 9.06604V4.31609C5.37195 3.62571 5.93162 3.06604 6.62201 3.06604C7.3124 3.06604 7.87207 3.62571 7.87207 4.31609Z" fill="black"/>
</g>
<defs>
<clipPath id="clip0_1121_1089">
<rect width="14" height="14" fill="white" transform="translate(0.511719 0.12854)"/>
</clipPath>
</defs>
</svg>
