<svg width="15" height="15" viewBox="0 0 15 15" fill="currentColor" xmlns="http://www.w3.org/2000/svg">
<g clip-path="url(#clip0_1121_1095)">
<path fill-rule="evenodd" clip-rule="evenodd" d="M6.97217 9.19979H8.05083C8.42421 9.39459 8.67911 9.78535 8.67911 10.2356V12.7756C8.67911 13.0517 8.90297 13.2756 9.17911 13.2756H10.6749C11.5912 13.2756 12.3704 12.6072 12.5099 11.7016C12.6375 10.873 12.6906 10.0358 12.6691 9.19979H13.7617C14.055 9.19979 14.3214 9.02884 14.4435 8.76221C14.5657 8.49559 14.5213 8.18222 14.3298 7.96008L8.83721 1.58868C8.1391 0.77887 6.88438 0.778873 6.18627 1.58868L0.693688 7.96008C0.502192 8.18222 0.457745 8.49559 0.579917 8.76221C0.702089 9.02884 0.968463 9.19979 1.26175 9.19979H2.35426C2.33279 10.0358 2.38589 10.873 2.51349 11.7016C2.65294 12.6072 3.43217 13.2756 4.34841 13.2756H5.84389C6.12003 13.2756 6.34389 13.0517 6.34389 12.7756V10.2356C6.34389 9.78535 6.59879 9.39459 6.97217 9.19979Z" fill="black"/>
</g>
<defs>
<clipPath id="clip0_1121_1095">
<rect width="14" height="14" fill="white" transform="translate(0.511734 0.12854)"/>
</clipPath>
</defs>
</svg>
