<svg width="15" height="15" viewBox="0 0 15 15" fill="none" xmlns="http://www.w3.org/2000/svg">
<g clip-path="url(#clip0_1121_1083)">
<path fill-rule="evenodd" clip-rule="evenodd" d="M6.83057 0.331665C5.94818 0.331665 5.0889 0.427708 4.30453 0.515377L4.08433 0.539907C3.25986 0.631116 2.59288 1.2844 2.50937 2.12488C2.46353 2.58632 2.41341 3.10168 2.37364 3.61623C2.36595 3.71565 2.45132 3.79668 2.55096 3.79256C2.79059 3.78264 3.03252 3.77208 3.27832 3.76135L3.27939 3.76131C3.49719 3.7518 3.62262 3.74245 3.75274 3.73275L3.7838 3.73043C3.93535 3.71918 4.09414 3.70816 4.37151 3.69855C5.17439 3.67073 5.85665 4.28042 5.91893 5.08137L5.92182 5.11749C5.92279 5.1293 5.9238 5.14115 5.92483 5.15305C5.93548 5.27575 6.03629 5.37051 6.15935 5.37539C6.25527 5.37919 6.35195 5.3825 6.44333 5.38515C6.59708 5.38961 6.7358 5.39221 6.83055 5.39221C7.00288 5.39221 7.27727 5.3832 7.52892 5.36973C7.6501 5.36325 7.74819 5.2691 7.75862 5.1482C7.76055 5.12577 7.76238 5.1035 7.7641 5.08136C7.82638 4.28042 8.50864 3.67073 9.31152 3.69855C9.58979 3.70819 9.74401 3.71929 9.89121 3.73066L9.91917 3.73282C10.044 3.7425 10.1641 3.75181 10.3817 3.76131L10.3828 3.76135C10.6285 3.77208 10.8705 3.78264 11.1101 3.79256C11.2098 3.79668 11.2952 3.71564 11.2875 3.6162C11.2477 3.10166 11.1976 2.58631 11.1517 2.12488C11.0682 1.2844 10.4013 0.631117 9.57681 0.539907L9.3566 0.515377C8.57224 0.427708 7.71296 0.331665 6.83057 0.331665ZM10.9111 13.7265C12.0054 13.5916 13.044 12.7197 12.9458 11.4648C12.8812 10.6391 12.6746 9.95227 12.4649 9.25513L12.4593 9.23676C12.386 8.99287 12.3122 8.74759 12.2409 8.48789C12.2269 8.43714 12.2117 8.38688 12.1951 8.33717C12.1939 8.33338 12.1926 8.32959 12.1913 8.32581C12.1634 8.243 12.1766 8.15178 12.2249 8.07898C12.413 7.7956 12.5352 7.46197 12.5601 7.09122C12.5769 6.84013 12.5804 6.68568 12.5577 6.51432C12.5478 6.43979 12.5291 6.34479 12.5075 6.23467C12.5038 6.21587 12.5182 6.19836 12.5373 6.19836H12.7989C13.144 6.19836 13.4239 5.91854 13.4239 5.57336V3.88586C13.4239 3.74779 13.5358 3.63586 13.6739 3.63586H13.6895C14.0347 3.63586 14.3145 3.35604 14.3145 3.01086C14.3145 2.66569 14.0347 2.38586 13.6895 2.38586H12.7989C12.4537 2.38586 12.1739 2.66569 12.1739 3.01086V4.69836C12.1739 4.83644 12.0619 4.94836 11.9239 4.94836H11.7376C11.699 4.94836 11.6611 4.93911 11.6259 4.92332C11.4522 4.84532 11.2628 4.79974 11.0688 4.7917C10.8278 4.78173 10.5847 4.77112 10.3392 4.7604L10.3381 4.76036C10.1036 4.75012 9.97028 4.73979 9.84201 4.72984C9.69518 4.71845 9.55492 4.70758 9.2769 4.69795C9.00927 4.68868 8.78185 4.8919 8.76109 5.15889C8.75206 5.27508 8.74059 5.39151 8.7278 5.50891C8.70977 5.67427 8.66434 5.8361 8.58804 5.97223C8.58802 5.97226 8.58804 5.97229 8.58807 5.97229C8.5881 5.97229 8.58812 5.97232 8.58811 5.97235C8.50451 6.12143 8.38389 6.23965 8.2217 6.29786C8.17286 6.31539 8.12025 6.32748 8.06376 6.33333C8.02387 6.33746 7.97957 6.34148 7.93197 6.34534C7.79315 6.35663 7.62629 6.36664 7.45908 6.37449C7.22493 6.38548 6.99007 6.39221 6.83055 6.39221C6.51809 6.39221 5.75163 6.36638 5.43254 6.33334C5.07354 6.29616 5.00061 5.92524 4.95523 5.50891C4.94244 5.39151 4.93097 5.27508 4.92193 5.15889C4.90118 4.8919 4.67376 4.68868 4.40613 4.69795C4.12681 4.70762 3.98025 4.71855 3.82683 4.73H3.82682C3.69412 4.7399 3.55629 4.75018 3.32298 4.76036L3.32192 4.7604L3.32173 4.76041C3.07619 4.77113 2.8332 4.78173 2.59232 4.7917C2.49497 4.79573 2.39882 4.80921 2.30522 4.83149C2.30521 4.83149 2.30521 4.8315 2.30521 4.8315C2.30521 4.83151 2.3052 4.83152 2.3052 4.83152C1.76388 4.96043 1.30825 5.38372 1.20288 5.97616C1.18636 6.06907 1.16928 6.15585 1.15376 6.23474C1.13207 6.34493 1.11341 6.43973 1.10353 6.51431C1.08083 6.68567 1.08433 6.84012 1.10115 7.09121C1.126 7.46196 1.24818 7.79558 1.43633 8.07896C1.48467 8.15176 1.49782 8.24299 1.46988 8.32579C1.45186 8.3792 1.43533 8.43325 1.42033 8.48788C1.349 8.74757 1.27525 8.99286 1.20189 9.23675L1.19636 9.25512C0.986654 9.95226 0.780022 10.6391 0.715433 11.4648C0.613546 12.7672 1.73609 13.657 2.87461 13.7386L2.9152 13.7415C4.16589 13.8312 5.48097 13.9255 6.83069 13.9255C7.16812 13.9255 7.50339 13.9196 7.83602 13.9093C8.83387 13.8786 9.80805 13.8088 10.746 13.7415H10.7462L10.7866 13.7386H10.7868C10.8282 13.7356 10.8697 13.7316 10.9111 13.7265ZM4.1106 10.9723C4.45577 10.9723 4.7356 10.6924 4.7356 10.3473C4.7356 10.0021 4.45577 9.72229 4.1106 9.72229H3.32114C2.97597 9.72229 2.69614 10.0021 2.69614 10.3473C2.69614 10.6924 2.97597 10.9723 3.32114 10.9723H4.1106ZM7.74463 10.3473C7.74463 10.6924 7.46481 10.9723 7.11963 10.9723H6.33018C5.985 10.9723 5.70518 10.6924 5.70518 10.3473C5.70518 10.0021 5.985 9.72229 6.33018 9.72229H7.11963C7.46481 9.72229 7.74463 10.0021 7.74463 10.3473ZM10.3401 10.9723C10.6852 10.9723 10.9651 10.6924 10.9651 10.3473C10.9651 10.0021 10.6852 9.72229 10.3401 9.72229H9.55064C9.20546 9.72229 8.92564 10.0021 8.92564 10.3473C8.92564 10.6924 9.20546 10.9723 9.55064 10.9723H10.3401Z" fill="black"/>
</g>
<defs>
<clipPath id="clip0_1121_1083">
<rect width="14" height="14" fill="white" transform="translate(0.511719 0.12854)"/>
</clipPath>
</defs>
</svg>
