<svg width="15" height="15" viewBox="0 0 15 15" fill="none" xmlns="http://www.w3.org/2000/svg">
<g clip-path="url(#clip0_1121_982)">
<path fill-rule="evenodd" clip-rule="evenodd" d="M8.26145 0.877563C8.26145 0.46335 7.92566 0.127563 7.51145 0.127563C7.09723 0.127563 6.76145 0.46335 6.76145 0.877563V1.08843C5.96389 1.11175 5.18508 1.16911 4.43496 1.22758C3.25844 1.31929 2.25764 2.21352 2.08376 3.3985C2.00968 3.90334 1.95066 4.43492 1.95066 4.98251C1.95066 5.5301 2.00968 6.06169 2.08376 6.56652C2.25764 7.75151 3.25844 8.64574 4.43496 8.73745C5.40959 8.81342 6.43266 8.88751 7.48233 8.88751C8.53201 8.88751 9.55507 8.81342 10.5297 8.73745C11.7062 8.64574 12.707 7.75151 12.8809 6.56652C12.955 6.06169 13.014 5.5301 13.014 4.98251C13.014 4.43492 12.955 3.90334 12.8809 3.3985C12.707 2.21352 11.7062 1.31929 10.5297 1.22758C9.79785 1.17053 9.03868 1.11454 8.26145 1.09019V0.877563ZM5.14666 11.6114H1.80237C1.38815 11.6114 1.05237 11.2756 1.05237 10.8614C1.05237 10.4472 1.38815 10.1115 1.80237 10.1115H13.2209C13.6351 10.1115 13.9709 10.4472 13.9709 10.8614C13.9709 11.2756 13.6351 11.6114 13.2209 11.6114H9.87623L10.7799 12.8646C11.0191 13.1963 10.9531 13.6845 10.6326 13.955C10.312 14.2256 9.85833 14.1761 9.61916 13.8444L8.00894 11.6114H7.01395L5.40373 13.8444C5.16457 14.1761 4.71084 14.2256 4.39031 13.955C4.06977 13.6845 4.00381 13.1963 4.24297 12.8646L5.14666 11.6114Z" fill="black"/>
</g>
<defs>
<clipPath id="clip0_1121_982">
<rect width="14" height="14" fill="white" transform="translate(0.511719 0.12854)"/>
</clipPath>
</defs>
</svg>
