<svg width="15" height="15" viewBox="0 0 15 15" fill="currentColor" xmlns="http://www.w3.org/2000/svg">
<g clip-path="url(#clip0_1121_987)">
<path fill-rule="evenodd" clip-rule="evenodd" d="M6.96113 1.54642C7.24271 1.14564 7.70183 0.907104 8.19163 0.907104C9.10503 0.907104 9.80751 1.71469 9.68098 2.61928L9.48537 4.0177L9.48546 4.01781H9.49036H9.49527H9.50019H9.50511H9.51004H9.51497H9.51992H9.52487H9.52983H9.53479H9.53977H9.54475H9.54973H9.55473H9.55973H9.56473H9.56975H9.57477H9.57979H9.58483H9.58987H9.59491H9.59996H9.60502H9.61009H9.61516H9.62024H9.62532H9.63041H9.63551H9.64061H9.64571H9.65083H9.65595H9.66107H9.6662H9.67134H9.67648H9.68163H9.68678H9.69194H9.6971H9.70227H9.70745H9.71263H9.71781H9.723H9.7282H9.7334H9.7386H9.74381H9.74903H9.75425H9.75947H9.7647H9.76993H9.77517H9.78041H9.78566H9.79091H9.79617H9.80143H9.8067H9.81197H9.81724H9.82252H9.8278H9.83309H9.83838H9.84367H9.84897H9.85427H9.85957H9.86488H9.8702H9.87551H9.88083H9.88616H9.89148H9.89682H9.90215H9.90749H9.91283H9.91817H9.92352H9.92887H9.93422H9.93958H9.94494H9.9503H9.95566H9.96103H9.9664H9.97178H9.97715H9.98253H9.98791H9.9933H9.99868H10.0041H10.0095H10.0148H10.0202H10.0256H10.031H10.0364H10.0418H10.0473H10.0527H10.0581H10.0635H10.0689H10.0743H10.0797H10.0851H10.0906H10.096H10.1014H10.1068H10.1123H10.1177H10.1231H10.1285H10.134H10.1394H10.1448H10.1503H10.1557H10.1612H10.1666H10.172H10.1775H10.1829H10.1883H10.1938H10.1992H10.2047H10.2101H10.2156H10.221H10.2264H10.2319H10.2373H10.2428H10.2482H10.2537H10.2591H10.2645H10.27H10.2754H10.2809H10.2863H10.2918H10.2972H10.3026H10.3081H10.3135H10.319H10.3244H10.3298H10.3353H10.3407H10.3462H10.3516H10.357H10.3625H10.3679H10.3733H10.3788H10.3842H10.3896H10.395H10.4005H10.4059H10.4113H10.4167H10.4222H10.4276H10.433H10.4384H10.4438H10.4492H10.4546H10.46H10.4654H10.4708H10.4762H10.4816H10.487H10.4924H10.4978H10.5032H10.5086H10.514H10.5194H10.5247H10.5301H10.5355H10.5409H10.5462H10.5516H10.557H10.5623H10.5677H10.573H10.5784H10.5837H10.5891H10.5944H10.5998H10.6051H10.6104H10.6158H10.6211H10.6264H10.6317H10.637H10.6424H10.6477H10.653H10.6583H10.6636H10.6689H10.6741H10.6794H10.6847H10.69H10.6953H10.7005H10.7058H10.7111H10.7163H10.7216H10.7268H10.732H10.7373H10.7425H10.7477H10.753H10.7582H10.7634H10.7686H10.7738H10.779H10.7842H10.7894H10.7946H10.7997H10.8049H10.8101H10.8152H10.8204H10.8255H10.8307H10.8358H10.841H10.8461H10.8512H10.8563H10.8614H10.8665H10.8716H10.8767H10.8818H10.8869H10.892H10.8971H10.9021H10.9072H10.9122H10.9173H10.9223H10.9273H10.9324H10.9374H10.9424H10.9474H10.9524H10.9574H10.9624H10.9673H10.9723H10.9773H10.9822H10.9872H10.9921H10.997H11.002H11.0069H11.0118H11.0167H11.0216H11.0265H11.0314H11.0363H11.0411H11.046H11.0508H11.0557H11.0605H11.0653H11.0702H11.075H11.0798H11.0846H11.0894H11.0941H11.0989H11.1037H11.1084H11.1132H11.1179H11.1226H11.1273H11.1321H11.1368H11.1415H11.1461H11.1508H11.1555H11.1601H11.1648H11.1694H11.1741H11.1787H11.1833H11.1879H11.1925H11.1971H11.2016H11.2062H11.2108H11.2153H11.2198H11.2244H11.2289H11.2334H11.2379H11.2424H11.2469H11.2513H11.2558H11.2602H11.2647H11.2691H11.2735H11.2779H11.2823H11.2867H11.2911H11.2954H11.2998H11.3041H11.3085H11.3128H11.3171H11.3214H11.3257H11.33H11.3342H11.3385H11.3427H11.347H11.3512H11.3554H11.3596H11.3638H11.368H11.3722H11.3763H11.3805H11.3846H11.3887H11.3928H11.3969H11.401C11.9677 4.01781 12.7277 4.2862 13.345 4.78005C13.9782 5.28658 14.5117 6.07241 14.5117 7.12852C14.5117 8.11465 14.0343 9.63018 13.3431 10.8833C12.9935 11.5172 12.5719 12.1166 12.0973 12.5643C11.6289 13.0063 11.055 13.3499 10.4105 13.3499C7.98031 13.3499 5.89655 12.7901 4.83812 12.4893C4.81524 12.4828 4.79225 12.4797 4.76847 12.4797C4.62667 12.4797 4.51172 12.3647 4.51172 12.2229V5.34888C4.51172 5.14312 4.57519 4.94236 4.69348 4.774L6.96113 1.54642ZM1.88672 4.6571C1.12733 4.6571 0.511719 5.27271 0.511719 6.0321V11.7821C0.511719 12.5415 1.12733 13.1571 1.88672 13.1571C2.64611 13.1571 3.26172 12.5415 3.26172 11.7821V6.0321C3.26172 5.27271 2.64611 4.6571 1.88672 4.6571Z" fill="black"/>
</g>
<defs>
<clipPath id="clip0_1121_987">
<rect width="14" height="14" fill="white" transform="translate(0.511719 0.12854)"/>
</clipPath>
</defs>
</svg>
