<svg width="15" height="15" viewBox="0 0 15 15" fill="none" xmlns="http://www.w3.org/2000/svg">
<g clip-path="url(#clip0_1121_1017)">
<path fill-rule="evenodd" clip-rule="evenodd" d="M0.761719 7.12854C0.761719 3.40062 3.7838 0.37854 7.51172 0.37854C11.2396 0.37854 14.2617 3.40062 14.2617 7.12854C14.2617 10.8564 11.2396 13.8785 7.51172 13.8785C3.7838 13.8785 0.761719 10.8564 0.761719 7.12854ZM4.94082 7.92269C4.84844 7.5901 4.50393 7.39538 4.17135 7.48777C3.83876 7.58015 3.64404 7.92466 3.73643 8.25724C4.31189 10.3289 6.58554 11.5706 8.64052 10.9998C8.65614 10.9955 8.67159 10.9905 8.68683 10.985C9.91191 10.5395 10.9396 9.53079 11.2877 8.25441C11.3786 7.9214 11.1822 7.57781 10.8492 7.48699C10.5162 7.39617 10.1726 7.5925 10.0818 7.92552C9.85496 8.75727 9.16207 9.47405 8.28269 9.8018C6.8821 10.1765 5.32477 9.30489 4.94082 7.92269ZM4.96362 4.13464C5.3088 4.13464 5.58862 4.41447 5.58862 4.75964V5.45964C5.58862 5.80482 5.3088 6.08464 4.96362 6.08464C4.61845 6.08464 4.33862 5.80482 4.33862 5.45964V4.75964C4.33862 4.41447 4.61845 4.13464 4.96362 4.13464ZM10.6848 4.75964C10.6848 4.41447 10.405 4.13464 10.0598 4.13464C9.71464 4.13464 9.43482 4.41447 9.43482 4.75964V5.45964C9.43482 5.80482 9.71464 6.08464 10.0598 6.08464C10.405 6.08464 10.6848 5.80482 10.6848 5.45964V4.75964Z" fill="black"/>
</g>
<defs>
<clipPath id="clip0_1121_1017">
<rect width="14" height="14" fill="white" transform="translate(0.511719 0.12854)"/>
</clipPath>
</defs>
</svg>
