<svg width="15" height="15" viewBox="0 0 15 15" fill="currentColor" xmlns="http://www.w3.org/2000/svg">
<path fill-rule="evenodd" clip-rule="evenodd" d="M3.18588 12.6685C2.22595 12.5683 1.45267 11.8119 1.33359 10.8541C1.18391 9.65034 1.03419 8.40441 1.03419 7.12856C1.03419 6.18973 1.11526 5.2671 1.21773 4.36552C1.23976 4.17163 1.4661 4.07817 1.61932 4.19899L5.88652 7.56354C6.83972 8.3151 8.1839 8.3151 9.1371 7.56354L13.4042 4.19907C13.5574 4.07825 13.7837 4.17171 13.8058 4.3656C13.9082 5.26715 13.9893 6.18975 13.9893 7.12856C13.9893 8.40441 13.8396 9.65034 13.6899 10.8541C13.5708 11.8119 12.7975 12.5683 11.8376 12.6685C11.7931 12.6732 11.7486 12.6778 11.7041 12.6825C10.3501 12.8241 8.94797 12.9707 7.51176 12.9707C6.07555 12.9707 4.67343 12.8241 3.31944 12.6825C3.27487 12.6778 3.23035 12.6732 3.18588 12.6685ZM13.292 2.41731C13.3671 2.51782 13.3402 2.65767 13.2417 2.73538L8.36315 6.58195C7.86386 6.97563 7.15976 6.97563 6.66047 6.58195L1.78186 2.73533C1.68329 2.65761 1.65638 2.51776 1.73157 2.41725C2.07191 1.96231 2.59333 1.65043 3.18588 1.58854C3.23034 1.58389 3.27485 1.57924 3.31942 1.57458C4.67342 1.43299 6.07554 1.28638 7.51176 1.28638C8.94797 1.28638 10.3501 1.43299 11.7041 1.57458C11.7486 1.57924 11.7931 1.58389 11.8376 1.58854C12.4302 1.65043 12.9516 1.96234 13.292 2.41731Z" fill="black"/>
</svg>
