<svg width="15" height="15" viewBox="0 0 15 15" fill="currentColor" xmlns="http://www.w3.org/2000/svg">
<g clip-path="url(#clip0_1121_687)">
<path fill-rule="evenodd" clip-rule="evenodd" d="M7.76174 0.348755C6.42448 0.348755 4.97478 0.466772 3.66293 0.615439C2.53225 0.743576 1.64609 1.63908 1.52267 2.76773C1.38014 4.07108 1.26178 5.51917 1.26178 6.84875C1.26178 7.92147 1.33882 9.07201 1.44322 10.1603L0.773155 13.2426C0.736643 13.4105 0.788959 13.5855 0.911687 13.7058C1.03441 13.8262 1.21035 13.875 1.37755 13.8352L4.25808 13.1494C5.40411 13.265 6.62346 13.3488 7.76174 13.3488C9.09859 13.3488 10.549 13.2332 11.8618 13.0859C12.9931 12.9589 13.8794 12.0631 14.0023 10.9342C14.1443 9.62907 14.2617 8.17843 14.2617 6.84875C14.2617 5.51937 14.1443 4.07146 14.0024 2.76798C13.8794 1.63911 12.9931 0.743569 11.8624 0.615481C10.5499 0.466793 9.09912 0.348755 7.76174 0.348755ZM4.69923 5.59875C4.69923 5.25357 4.97905 4.97375 5.32423 4.97375H10.1992C10.5444 4.97375 10.8242 5.25357 10.8242 5.59875C10.8242 5.94393 10.5444 6.22375 10.1992 6.22375H5.32423C4.97905 6.22375 4.69923 5.94393 4.69923 5.59875ZM5.32423 7.97375C4.97905 7.97375 4.69923 8.25357 4.69923 8.59875C4.69923 8.94393 4.97905 9.22375 5.32423 9.22375H9.01173C9.35691 9.22375 9.63673 8.94393 9.63673 8.59875C9.63673 8.25357 9.35691 7.97375 9.01173 7.97375H5.32423Z" fill="black"/>
</g>
<defs>
<clipPath id="clip0_1121_687">
<rect width="14" height="14" fill="white" transform="translate(0.511734 0.0987549)"/>
</clipPath>
</defs>
</svg>
