<svg width="15" height="15" viewBox="0 0 15 15" fill="none" xmlns="http://www.w3.org/2000/svg">
<g clip-path="url(#clip0_1121_1019)">
<path fill-rule="evenodd" clip-rule="evenodd" d="M2.21484 5.67558C2.21484 2.7501 4.58641 0.37854 7.51188 0.37854C10.4374 0.37854 12.8089 2.7501 12.8089 5.67558C12.8089 7.43517 12.0087 9.06807 11.0857 10.3733C10.1582 11.6847 9.07082 12.7159 8.41693 13.2825C7.89385 13.7358 7.12991 13.7358 6.60683 13.2825C5.95294 12.7159 4.86556 11.6847 3.93809 10.3732C3.01504 9.06807 2.21484 7.43517 2.21484 5.67558ZM4.76074 5.62246C4.77921 4.37332 6.18257 3.21454 7.51171 4.84538C8.84085 3.21454 10.2442 4.37332 10.2627 5.62246C10.2627 7.48208 8.03766 9.00845 7.51171 9.00845C6.98575 9.00845 4.76074 7.48208 4.76074 5.62246Z" fill="black"/>
</g>
<defs>
<clipPath id="clip0_1121_1019">
<rect width="14" height="14" fill="white" transform="translate(0.511719 0.12854)"/>
</clipPath>
</defs>
</svg>
