<svg width="15" height="15" viewBox="0 0 15 15" fill="currentColor" xmlns="http://www.w3.org/2000/svg">
<g clip-path="url(#clip0_1121_691)">
<path fill-rule="evenodd" clip-rule="evenodd" d="M14.0106 0.625431C13.7177 0.332538 13.2428 0.332538 12.9499 0.625431L11.1381 2.43726C11.0145 2.39146 10.8879 2.35454 10.7633 2.32414C10.3762 2.22973 9.93557 2.18147 9.49933 2.15972C8.62549 2.11616 7.7041 2.17623 7.12769 2.22812C6.63215 2.27273 6.17413 2.47838 5.80728 2.79761C4.22099 4.17796 2.76273 5.60588 1.36362 7.15038C0.546176 8.05277 0.528812 9.4127 1.26376 10.3583C1.68379 10.8987 2.13735 11.4576 2.65787 11.9781C3.1784 12.4986 3.73726 12.9522 4.27765 13.3722C5.2232 14.1071 6.58314 14.0898 7.48553 13.2723C9.03003 11.8732 10.4579 10.415 11.8383 8.82864C12.1575 8.46179 12.3632 8.00376 12.4078 7.50822C12.4597 6.9318 12.5197 6.01041 12.4762 5.13657C12.4544 4.70034 12.4062 4.25969 12.3117 3.87261C12.2814 3.74804 12.2445 3.62145 12.1987 3.49796L14.0106 1.68609C14.3035 1.39319 14.3035 0.918324 14.0106 0.625431ZM9.60201 3.93061C9.84608 3.68653 10.2418 3.68653 10.4859 3.93061C10.7299 4.17469 10.7299 4.57042 10.4859 4.8145L10.1658 5.13461C9.9217 5.37868 9.52597 5.37868 9.28189 5.13461C9.03782 4.89053 9.03782 4.4948 9.28189 4.25072L9.60201 3.93061Z" fill="black"/>
</g>
<defs>
<clipPath id="clip0_1121_691">
<rect width="14" height="14" fill="white" transform="translate(0.511719 0.0987549)"/>
</clipPath>
</defs>
</svg>
