<svg width="15" height="15" viewBox="0 0 15 15" fill="currentColor" xmlns="http://www.w3.org/2000/svg">
<g clip-path="url(#clip0_1121_693)">
<path fill-rule="evenodd" clip-rule="evenodd" d="M6.88672 0.845756C6.88672 0.698389 6.75965 0.582598 6.61364 0.602594C3.41708 1.04038 0.954468 3.78201 0.954468 7.09881C0.954468 10.7203 3.89023 13.6561 7.51167 13.6561C9.47308 13.6561 11.2333 12.7949 12.435 11.43C12.5325 11.3193 12.506 11.1493 12.3829 11.0679L8.06423 8.21322C7.329 7.72723 6.88672 6.90472 6.88672 6.02339V0.845756ZM13.0734 10.0259C13.1964 10.1072 13.363 10.0651 13.4268 9.93225C13.8383 9.07463 14.0689 8.11365 14.0689 7.09881C14.0689 3.78204 11.6063 1.04044 8.4098 0.602607C8.26379 0.582608 8.13672 0.698399 8.13672 0.845768V6.02339C8.13672 6.48503 8.36839 6.91587 8.75351 7.17044L13.0734 10.0259Z" fill="black"/>
</g>
<defs>
<clipPath id="clip0_1121_693">
<rect width="14" height="14" fill="white" transform="translate(0.511719 0.0987549)"/>
</clipPath>
</defs>
</svg>
