<svg width="15" height="15" viewBox="0 0 15 15" fill="currentColor" xmlns="http://www.w3.org/2000/svg">
<g clip-path="url(#clip0_1121_689)">
<path fill-rule="evenodd" clip-rule="evenodd" d="M5.25676 2.31049L6.13542 4.30524C5.0029 4.49103 4.05217 4.93879 3.33304 5.65424C2.3575 6.62481 1.87646 8.02009 1.87646 9.71597C1.87646 10.5592 1.99476 11.2524 2.25777 11.8104C2.52689 12.3814 2.9345 12.7829 3.4551 13.0534C3.96228 13.317 4.56133 13.4487 5.2124 13.5183C5.86492 13.5881 6.60652 13.5988 7.41196 13.5988C8.21739 13.5988 8.959 13.5881 9.61152 13.5183C10.2626 13.4487 10.8616 13.317 11.3688 13.0534C11.8894 12.7829 12.297 12.3814 12.5661 11.8104C12.8291 11.2524 12.9474 10.5592 12.9474 9.71597C12.9474 8.04655 12.4814 6.66827 11.5356 5.69936C10.8507 4.99775 9.94808 4.54552 8.87319 4.33817L8.88441 4.31328L9.76661 2.31049C9.83871 2.1468 9.9087 1.92216 9.89402 1.68699C9.87755 1.42329 9.74676 1.12958 9.42058 0.976786L9.20848 1.42957L9.42058 0.976786C9.17488 0.861692 8.86107 0.789864 8.54644 0.745049C8.22363 0.699068 7.86541 0.67688 7.51168 0.67688C7.15795 0.67688 6.79973 0.699068 6.47691 0.745049C6.16228 0.789864 5.84848 0.861692 5.60279 0.976786C5.27661 1.12958 5.14581 1.42329 5.12935 1.68699C5.11468 1.92216 5.18466 2.1468 5.25676 2.31049Z" fill="black"/>
</g>
<defs>
<clipPath id="clip0_1121_689">
<rect width="14" height="14" fill="white" transform="translate(0.511719 0.0987549)"/>
</clipPath>
</defs>
</svg>
