<svg width="15" height="15" viewBox="0 0 15 15" fill="none" xmlns="http://www.w3.org/2000/svg">
<g clip-path="url(#clip0_1121_1021)">
<path fill-rule="evenodd" clip-rule="evenodd" d="M11.1262 3.62277L11.3424 2.32549C11.447 1.69843 10.9608 1.09602 10.3296 1.17087C9.59285 1.25821 8.76555 1.51263 8.20754 2.24257C7.87116 2.18589 7.52433 2.15626 7.16989 2.15626C5.67299 2.15626 4.31186 2.6847 3.2999 3.54756C3.27567 3.52392 3.24956 3.50165 3.2216 3.48096C2.79176 3.16286 2.40968 2.74121 2.21435 2.21777C2.06953 1.8297 1.63754 1.6325 1.24947 1.77731C0.861394 1.92213 0.664193 2.35412 0.809008 2.74219C1.13149 3.60637 1.73019 4.2384 2.30645 4.66969C1.80169 5.43934 1.51171 6.33891 1.51171 7.30005C1.51171 8.26413 1.80346 9.16625 2.31107 9.93744C2.26722 10.038 2.232 10.1441 2.2065 10.2549L1.93737 11.4246C1.71442 12.3935 2.3192 13.3598 3.28817 13.5827C4.25715 13.8057 5.22339 13.2009 5.44634 12.2319L5.45306 12.2028C5.99453 12.3593 6.57136 12.4438 7.16989 12.4438C7.60046 12.4438 8.0198 12.4001 8.42283 12.3173C8.68134 13.2361 9.61898 13.7991 10.5592 13.5827C11.509 13.3642 12.1088 12.4315 11.9223 11.4822L13.5453 10.6706C13.8938 10.4964 14.114 10.1401 14.114 9.75052V7.30005C14.114 6.73189 13.6534 6.2713 13.0852 6.2713H12.7149C12.4855 5.24422 11.9196 4.32827 11.1262 3.62277ZM7.68426 5.00397C8.02944 5.00397 8.30926 4.72415 8.30926 4.37897C8.30926 4.03379 8.02944 3.75397 7.68426 3.75397H6.12182C5.77664 3.75397 5.49682 4.03379 5.49682 4.37897C5.49682 4.72415 5.77664 5.00397 6.12182 5.00397H7.68426ZM10.5133 5.70081C10.8585 5.70081 11.1383 5.98063 11.1383 6.32581V7.29997C11.1383 7.64515 10.8585 7.92497 10.5133 7.92497C10.1682 7.92497 9.88836 7.64515 9.88836 7.29997V6.32581C9.88836 5.98063 10.1682 5.70081 10.5133 5.70081Z" fill="black"/>
</g>
<defs>
<clipPath id="clip0_1121_1021">
<rect width="14" height="14" fill="white" transform="translate(0.511719 0.12854)"/>
</clipPath>
</defs>
</svg>
