<svg width="15" height="15" viewBox="0 0 15 15" fill="none" xmlns="http://www.w3.org/2000/svg">
<g clip-path="url(#clip0_1121_695)">
<path fill-rule="evenodd" clip-rule="evenodd" d="M2.01172 1.76021C2.01172 0.375165 3.72853 -0.269898 4.64059 0.772456L6.20079 2.55554C6.56132 2.49618 6.99257 2.45813 7.51172 2.45813C8.03087 2.45813 8.46212 2.49618 8.82265 2.55554L10.3828 0.772456C11.2949 -0.269898 13.0117 0.375165 13.0117 1.76021V5.83117L14.289 6.68273C14.4281 6.77546 14.5117 6.93158 14.5117 7.09875C14.5117 9.06689 13.8911 10.7109 12.6649 11.8595C11.4428 13.0043 9.6818 13.5988 7.51172 13.5988C5.34164 13.5988 3.58058 13.0043 2.35856 11.8595C1.13234 10.7109 0.511719 9.06689 0.511719 7.09875C0.511719 6.93158 0.59527 6.77546 0.734369 6.68273L2.01172 5.83117V1.76021ZM6.79123 8.03975C6.48249 7.88538 6.10707 8.01052 5.9527 8.31926C5.79833 8.62799 5.92348 9.00341 6.23221 9.15778L6.88672 9.48504V9.90953L6.66831 10.2372C6.53705 10.4341 6.25846 10.4617 6.09113 10.2943L5.95366 10.1569C5.70958 9.91276 5.31386 9.91276 5.06978 10.1569C4.8257 10.401 4.8257 10.7967 5.06978 11.0408L5.20725 11.1782C5.85703 11.828 6.89397 11.7995 7.51172 11.1726C8.12947 11.7995 9.16641 11.828 9.81619 11.1782L9.95366 11.0408C10.1977 10.7967 10.1977 10.401 9.95366 10.1569C9.70958 9.91276 9.31386 9.91276 9.06978 10.1569L8.93231 10.2943C8.76498 10.4617 8.48639 10.4341 8.35513 10.2372L8.13672 9.90953V9.48504L8.79123 9.15778C9.09997 9.00341 9.22511 8.62799 9.07074 8.31926C8.91637 8.01052 8.54095 7.88538 8.23221 8.03975L7.51172 8.39999L6.79123 8.03975ZM5.01172 5.47377C5.3569 5.47377 5.63672 5.75359 5.63672 6.09877V6.59877C5.63672 6.94394 5.3569 7.22377 5.01172 7.22377C4.66654 7.22377 4.38672 6.94394 4.38672 6.59877V6.09877C4.38672 5.75359 4.66654 5.47377 5.01172 5.47377ZM10.6367 6.09877C10.6367 5.75359 10.3569 5.47377 10.0117 5.47377C9.66654 5.47377 9.38672 5.75359 9.38672 6.09877V6.59877C9.38672 6.94394 9.66654 7.22377 10.0117 7.22377C10.3569 7.22377 10.6367 6.94394 10.6367 6.59877V6.09877Z" fill="black"/>
</g>
<defs>
<clipPath id="clip0_1121_695">
<rect width="14" height="14" fill="white" transform="translate(0.511719 0.0987549)"/>
</clipPath>
</defs>
</svg>
