<svg width="15" height="15" viewBox="0 0 15 15" fill="currentColor" xmlns="http://www.w3.org/2000/svg">
<g clip-path="url(#clip0_1121_1023)">
<path fill-rule="evenodd" clip-rule="evenodd" d="M5.04283 0.610636C5.90931 0.375242 6.80467 0.261353 7.5118 0.261353C8.21893 0.261353 9.1143 0.375242 9.98077 0.610636C10.8407 0.844268 11.7204 1.2105 12.3595 1.74505C12.7755 2.09293 13.2006 2.63792 13.5566 3.24713C13.9151 3.86063 14.2235 4.57357 14.385 5.27679C14.5443 5.97011 14.5746 6.71547 14.2988 7.3479C14.131 7.73262 13.8628 8.04664 13.4959 8.27241C13.326 8.37697 13.1199 8.25289 13.0996 8.0544L13.0987 8.04666C12.9658 7.00184 12.7355 5.97517 12.5403 5.21457C12.4425 4.83301 12.3527 4.51558 12.2871 4.29279C12.2544 4.18134 12.2276 4.09342 12.2089 4.03283L12.187 3.96289L12.1811 3.94415L12.1787 3.93671C12.0727 3.6082 11.7205 3.4278 11.392 3.53377C11.0635 3.63973 10.8833 3.99257 10.9892 4.32106L10.9903 4.32449L10.9952 4.33969L11.0147 4.40219C11.0318 4.45766 11.0569 4.54003 11.088 4.64555C11.1501 4.85669 11.2358 5.15991 11.3296 5.52519C11.5171 6.25635 11.7336 7.22499 11.8577 8.19671L11.9826 9.42269C11.9841 9.49169 11.9848 9.56035 11.9848 9.62859C11.9848 11.2021 11.5901 12.2725 10.7164 12.9079C9.886 13.5119 8.73517 13.6285 7.48486 13.6285C6.23454 13.6285 5.08372 13.5119 4.25327 12.9079C3.37956 12.2725 2.98486 11.2021 2.98486 9.62859C2.98486 9.54111 2.98611 9.45294 2.98853 9.36424L3.13204 8.20437L3.13218 8.20331C3.25611 7.22937 3.47313 6.25801 3.66113 5.52519C3.75484 5.15991 3.84062 4.85669 3.90273 4.64555C3.93377 4.54003 3.95886 4.45766 3.97601 4.40219L3.99553 4.33969L4.00036 4.32449L4.00165 4.32046C4.1076 3.99196 3.92721 3.63974 3.59871 3.53377C3.2702 3.4278 2.91774 3.60898 2.81177 3.93749L2.81128 3.939L2.80963 3.94415L2.80368 3.96289L2.78183 4.03283C2.76309 4.09342 2.73632 4.18134 2.70354 4.29279C2.638 4.51558 2.54823 4.83301 2.45034 5.21457C2.25521 5.97517 2.02491 7.00184 1.89203 8.04666C1.86795 8.24125 1.66321 8.35921 1.4979 8.25378C1.14622 8.02949 0.887996 7.72215 0.724782 7.3479C0.448974 6.71547 0.47926 5.97011 0.638538 5.27679C0.80009 4.57357 1.10853 3.86063 1.46699 3.24713C1.82296 2.63792 2.2481 2.09293 2.66405 1.74505C3.3032 1.2105 4.18284 0.844268 5.04283 0.610636ZM5.92585 9.34908C6.08022 9.04034 6.45564 8.9152 6.76437 9.06957L7.26126 9.31801C7.40202 9.38839 7.56771 9.38839 7.70847 9.31801L8.20536 9.06957C8.51409 8.9152 8.88951 9.04034 9.04388 9.34908C9.19825 9.65781 9.07311 10.0332 8.76437 10.1876L7.76437 10.6876C7.58842 10.7755 7.38131 10.7755 7.20536 10.6876L6.20536 10.1876C5.89662 10.0332 5.77148 9.65781 5.92585 9.34908ZM6.10986 6.12859C6.10986 5.78341 5.83004 5.50359 5.48486 5.50359C5.13969 5.50359 4.85986 5.78341 4.85986 6.12859V6.62859C4.85986 6.97376 5.13969 7.25359 5.48486 7.25359C5.83004 7.25359 6.10986 6.97376 6.10986 6.62859V6.12859ZM10.1099 6.12859C10.1099 5.78341 9.83004 5.50359 9.48486 5.50359C9.13969 5.50359 8.85986 5.78341 8.85986 6.12859V6.62859C8.85986 6.97376 9.13969 7.25359 9.48486 7.25359C9.83004 7.25359 10.1099 6.97376 10.1099 6.62859V6.12859Z" fill="black"/>
</g>
<defs>
<clipPath id="clip0_1121_1023">
<rect width="14" height="14" fill="white" transform="translate(0.511719 0.12854)"/>
</clipPath>
</defs>
</svg>
