<svg width="15" height="15" viewBox="0 0 15 15" fill="none" xmlns="http://www.w3.org/2000/svg">
<g clip-path="url(#clip0_1121_697)">
<path fill-rule="evenodd" clip-rule="evenodd" d="M7.62315 0.386354C7.55293 0.351359 7.47035 0.351359 7.40013 0.386354C5.66622 1.25045 4.09729 2.81035 3.24637 4.58887C3.13014 4.8318 3.18229 5.0853 3.32893 5.26678C3.47217 5.44405 3.70147 5.55196 3.95421 5.55196H4.46615C4.60637 5.55196 4.69738 5.62178 4.73687 5.69542C4.77449 5.76557 4.7725 5.84705 4.70546 5.92145C3.75919 6.97153 3.09647 7.92355 2.22819 9.41926C1.96516 9.87234 2.2886 10.3627 2.76124 10.4458C5.98656 11.0125 9.03672 11.0125 12.262 10.4458C12.7347 10.3627 13.0581 9.87234 12.7951 9.41926C11.9268 7.92355 11.2641 6.97153 10.3178 5.92145C10.2508 5.84705 10.2488 5.76557 10.2864 5.69542C10.3259 5.62178 10.4169 5.55196 10.5571 5.55196H11.069C11.3218 5.55196 11.5511 5.44405 11.6943 5.26678C11.841 5.0853 11.8931 4.8318 11.7769 4.58887C10.926 2.81035 9.35706 1.25045 7.62315 0.386354ZM6.81738 12.4488C6.81738 12.3064 6.93608 12.193 7.07838 12.1971C7.22402 12.2014 7.36779 12.2036 7.50887 12.2037H7.51128H7.51436C7.69086 12.2036 7.87156 12.2 8.05491 12.1935C8.19776 12.1884 8.31738 12.3021 8.31738 12.445V13.2865C8.31738 13.7008 7.9816 14.0365 7.56738 14.0365C7.15317 14.0365 6.81738 13.7008 6.81738 13.2865V12.4488Z" fill="black"/>
</g>
<defs>
<clipPath id="clip0_1121_697">
<rect width="14" height="14" fill="white" transform="translate(0.511719 0.0987549)"/>
</clipPath>
</defs>
</svg>
