<svg width="15" height="15" viewBox="0 0 15 15" fill="none" xmlns="http://www.w3.org/2000/svg">
<g clip-path="url(#clip0_1121_699)">
<path fill-rule="evenodd" clip-rule="evenodd" d="M9.62621 1.88544C9.82555 1.89783 10.026 1.91195 10.2278 1.9278C10.7973 1.97251 11.2689 2.44348 11.3219 3.05915C11.4362 4.38794 11.5506 5.72927 11.5506 7.09879C11.5506 8.46832 11.4362 9.80966 11.3219 11.1385C11.2689 11.7542 10.7973 12.2251 10.2278 12.2698C8.37768 12.4151 6.64563 12.4151 4.7955 12.2698C4.22596 12.2251 3.75438 11.7542 3.70142 11.1385C3.5871 9.80966 3.47266 8.46832 3.47266 7.09879C3.47266 5.72927 3.5871 4.38794 3.70141 3.05915C3.75438 2.44348 4.22596 1.97251 4.7955 1.9278C4.99734 1.91195 5.19778 1.89783 5.39712 1.88544C5.43481 2.30975 5.47056 2.73017 5.50107 3.11877C5.53856 3.59609 5.90309 3.98877 6.38036 4.02686C7.14832 4.08816 7.87501 4.08816 8.64296 4.02686C9.12024 3.98877 9.48477 3.59609 9.52225 3.11877C9.55277 2.73017 9.58852 2.30976 9.62621 1.88544ZM10.3452 0.432403C8.41694 0.280996 6.60637 0.280996 4.67808 0.432403C3.33096 0.538178 2.31875 1.63077 2.20693 2.93058C2.09337 4.25074 1.97266 5.65486 1.97266 7.09879C1.97266 8.54274 2.09337 9.94684 2.20693 11.2671C2.31875 12.5669 3.33096 13.6595 4.67808 13.7652C6.60637 13.9166 8.41694 13.9166 10.3452 13.7652C11.6923 13.6595 12.7045 12.5669 12.8164 11.2671C12.9299 9.94684 13.0506 8.54274 13.0506 7.09879C13.0506 5.65486 12.9299 4.25074 12.8164 2.93058C12.7045 1.63077 11.6923 0.538178 10.3452 0.432403Z" fill="black"/>
</g>
<defs>
<clipPath id="clip0_1121_699">
<rect width="14" height="14" fill="white" transform="translate(0.511719 0.0987549)"/>
</clipPath>
</defs>
</svg>
