<svg width="15" height="15" viewBox="0 0 15 15" fill="none" xmlns="http://www.w3.org/2000/svg">
<g clip-path="url(#clip0_1121_1025)">
<path d="M5.07557 0.994161C4.36104 0.404314 3.29605 0.484814 2.75349 1.23589C2.57731 1.47977 2.38701 1.75825 2.0097 2.23022C0.907128 3.60942 0.907132 5.60646 2.0158 6.98077C2.83423 7.99531 3.69234 9.01902 4.65161 9.97829C5.61088 10.9376 6.6346 11.7957 7.64914 12.6141C9.02345 13.7228 11.0205 13.7228 12.3997 12.6202C12.8971 12.2225 13.177 12.0353 13.4289 11.8524C14.1529 11.3268 14.2517 10.3022 13.6896 9.60606C13.1607 8.9509 12.5598 8.32957 11.9855 7.72386C11.6013 7.31865 10.9613 7.29399 10.5361 7.6559C10.2707 7.88181 10.0617 8.05205 9.58518 8.49884C8.00756 7.56139 7.05143 6.59358 6.13107 5.04473C6.58031 4.56554 6.75083 4.35609 6.97879 4.08838C7.34039 3.66371 7.31597 3.02504 6.90847 2.6442C6.31352 2.08818 5.70749 1.51581 5.07557 0.994161Z" fill="black"/>
</g>
<defs>
<clipPath id="clip0_1121_1025">
<rect width="14" height="14" fill="white" transform="translate(0.511719 0.12854)"/>
</clipPath>
</defs>
</svg>
