<svg width="15" height="15" viewBox="0 0 15 15" fill="currentColor" xmlns="http://www.w3.org/2000/svg">
<g clip-path="url(#clip0_1121_701)">
<path fill-rule="evenodd" clip-rule="evenodd" d="M7.51144 0.610229C6.73186 0.610229 5.97181 0.685895 5.26496 0.756265L5.05059 0.777525C4.41292 0.840269 3.87801 1.28973 3.69194 1.89351L3.66259 1.98866V1.98867C3.3672 2.94587 2.89343 4.48109 2.81953 5.85176C2.81693 5.89984 2.81686 5.94715 2.81917 5.99359H1.51172C1.0975 5.99359 0.761719 6.32937 0.761719 6.74359C0.761719 7.1578 1.0975 7.49359 1.51172 7.49359H13.5117C13.9259 7.49359 14.2617 7.1578 14.2617 6.74359C14.2617 6.32937 13.9259 5.99359 13.5117 5.99359H12.2037C12.206 5.94715 12.2059 5.89984 12.2033 5.85176C12.1294 4.48109 11.6557 2.94587 11.3603 1.98867L11.3309 1.89351C11.1448 1.28973 10.6099 0.840269 9.97228 0.777525L9.7579 0.756265C9.05106 0.685895 8.29101 0.610229 7.51144 0.610229ZM7.83373 11.3542C7.62321 11.2978 7.40048 11.2978 7.18996 11.3541C7.0828 12.7686 5.90118 13.8829 4.45929 13.8829C2.94681 13.8829 1.7207 12.6568 1.7207 11.1443C1.7207 9.63177 2.94681 8.40567 4.45929 8.40567C5.51689 8.40567 6.43446 9.00517 6.89072 9.88288C7.29901 9.78815 7.72465 9.78817 8.13293 9.88293C8.58919 9.00519 9.50678 8.40567 10.5644 8.40567C12.0768 8.40567 13.303 9.63177 13.303 11.1443C13.303 12.6568 12.0768 13.8829 10.5644 13.8829C9.12252 13.8829 7.94091 12.7686 7.83373 11.3542ZM4.45929 9.90567C3.77524 9.90567 3.2207 10.4602 3.2207 11.1443C3.2207 11.8284 3.77524 12.3829 4.45929 12.3829C5.14334 12.3829 5.69787 11.8284 5.69787 11.1443C5.69787 10.4602 5.14334 9.90567 4.45929 9.90567ZM9.32581 11.1443C9.32581 10.4602 9.88034 9.90567 10.5644 9.90567C11.2484 9.90567 11.803 10.4602 11.803 11.1443C11.803 11.8284 11.2484 12.3829 10.5644 12.3829C9.88034 12.3829 9.32581 11.8284 9.32581 11.1443Z" fill="black"/>
</g>
<defs>
<clipPath id="clip0_1121_701">
<rect width="14" height="14" fill="white" transform="translate(0.511719 0.0987549)"/>
</clipPath>
</defs>
</svg>
