<svg width="15" height="15" viewBox="0 0 15 15" fill="currentColor" xmlns="http://www.w3.org/2000/svg">
<g clip-path="url(#clip0_1121_1027)">
<path fill-rule="evenodd" clip-rule="evenodd" d="M6.32116 0.62854C5.94935 0.62854 5.5841 0.726509 5.2622 0.91258C4.94029 1.09865 4.6731 1.36626 4.48752 1.68845C4.30194 2.01064 4.20454 2.37604 4.20511 2.74785C4.2054 2.93625 4.23019 3.07939 4.28557 3.21975C4.29087 3.23319 4.29645 3.24657 4.30229 3.25991L2.36834 3.43097C2.0588 3.43402 1.7626 3.5583 1.5435 3.77741C1.32163 3.99927 1.1969 4.30018 1.1969 4.61394L1.2262 5.68511C1.23496 6.00549 1.39725 6.2664 1.60733 6.45473C1.81609 6.64188 2.08391 6.76968 2.34572 6.83303C2.63366 6.90271 2.90058 7.04768 3.11029 7.2574C3.41336 7.56047 3.58363 7.97152 3.58363 8.40013C3.58363 8.82873 3.41336 9.23978 3.11029 9.54285C2.90058 9.75257 2.63366 9.89754 2.34572 9.96722C2.08387 10.0306 1.81593 10.1582 1.60694 10.3453C1.39664 10.5335 1.23404 10.7942 1.22477 11.1147L1.19699 12.0709V12.0781C1.19699 12.3919 1.32163 12.6928 1.5435 12.9147C1.55536 12.9265 1.5684 12.9372 1.5824 12.9464C1.78498 13.0804 2.06104 13.1857 2.37467 13.2705C2.69183 13.3563 3.06353 13.4251 3.46818 13.4787C4.27765 13.5858 5.23467 13.6338 6.18233 13.628C7.13004 13.6223 8.07513 13.5628 8.86095 13.4528C9.25371 13.3978 9.6107 13.3297 9.91027 13.2479C10.205 13.1675 10.4636 13.0689 10.6455 12.944C10.6581 12.9353 10.6699 12.9255 10.6808 12.9147C10.9001 12.6954 11.0244 12.3988 11.0272 12.089L11.165 10.4116C11.1851 10.42 11.2054 10.4281 11.2258 10.4356C11.3718 10.4891 11.5214 10.5142 11.7098 10.5142C12.081 10.5143 12.4458 10.4167 12.7674 10.2313C13.089 10.0459 13.3562 9.77903 13.5421 9.45765C13.7279 9.13627 13.826 8.77113 13.8264 8.39987C13.826 8.02861 13.7279 7.66398 13.5421 7.3426C13.3562 7.02122 13.089 6.7544 12.7674 6.56894C12.4458 6.38347 12.081 6.28588 11.7098 6.28598C11.5211 6.28603 11.3714 6.31149 11.2254 6.36528C11.2056 6.37259 11.1859 6.38038 11.1665 6.38861L11.0272 4.60363C11.0245 4.29359 10.9002 3.99684 10.6808 3.77741C10.4623 3.5589 10.1671 3.43469 9.85846 3.43099L8.33352 3.26703C8.34028 3.25221 8.34673 3.23736 8.3528 3.22246C8.41009 3.0821 8.43693 2.93822 8.43722 2.74785C8.43779 2.37604 8.34038 2.01064 8.15481 1.68845C7.96923 1.36626 7.70204 1.09865 7.38013 0.91258C7.05823 0.726509 6.69298 0.62854 6.32116 0.62854Z" fill="black"/>
</g>
<defs>
<clipPath id="clip0_1121_1027">
<rect width="14" height="14" fill="white" transform="translate(0.511719 0.12854)"/>
</clipPath>
</defs>
</svg>
