<svg width="15" height="15" viewBox="0 0 15 15" fill="currentColor" xmlns="http://www.w3.org/2000/svg">
<g clip-path="url(#clip0_1121_1029)">
<path fill-rule="evenodd" clip-rule="evenodd" d="M11.0379 6.07544C11.0624 6.32838 11.277 6.51895 11.5311 6.51895H12.9925C13.2176 6.51895 13.4149 6.36859 13.4746 6.1516C13.6928 5.35852 13.8526 4.14242 13.6612 3.05469C13.5649 2.50789 13.3741 1.96031 13.0258 1.51669C12.6684 1.06158 12.1623 0.739072 11.4944 0.635178C11.4738 0.631963 11.4529 0.630048 11.432 0.629445C11.3663 0.627549 11.2985 0.628603 11.2292 0.632889C11.19 0.635315 11.1506 0.633214 11.1113 0.631116L11.0872 0.629867C11.0791 0.629472 11.0709 0.629272 11.0627 0.629272H4.10287C4.05152 0.629272 4.00047 0.637184 3.95152 0.652729C3.36091 0.840302 2.89865 1.14663 2.5533 1.55542C2.21093 1.96069 2.00351 2.44274 1.88248 2.95498C1.64474 3.96117 1.72429 5.1646 1.8418 6.32454C1.86787 6.58179 1.89583 6.83733 1.92352 7.09034C2.02444 8.01256 2.1217 8.90126 2.10976 9.71725C2.09452 10.759 1.89887 11.5481 1.41383 12.0599C1.31983 12.1591 1.27052 12.2924 1.27736 12.4289C1.28421 12.5654 1.34661 12.6931 1.45007 12.7824L1.45123 12.7834C1.47605 12.8046 1.50234 12.8243 1.52899 12.8431C1.5702 12.8723 1.62674 12.9093 1.70032 12.9513C1.84763 13.0354 2.06227 13.139 2.35767 13.2395C2.94868 13.4407 3.85839 13.6285 5.19417 13.6285C6.51396 13.6285 7.43476 13.5057 8.03614 13.3777C8.33685 13.3137 8.55759 13.2484 8.70826 13.1965C8.78358 13.1706 8.84135 13.1481 8.88278 13.1308C8.9035 13.1221 8.92013 13.1148 8.93282 13.109L8.94892 13.1015L8.9548 13.0986L8.9572 13.0975L8.95826 13.0969L8.95924 13.0964C9.01919 13.0666 9.07255 13.0251 9.11614 12.9742C9.89082 12.0709 10.1091 10.9035 10.1198 9.73239C10.1235 9.32971 10.1023 8.91443 10.0674 8.49638C10.0313 8.16981 9.98904 7.83656 9.94604 7.49836L9.94267 7.4719C9.81537 6.47087 9.68097 5.41404 9.74143 4.4802C9.80292 3.53054 10.0726 2.58702 10.8676 1.93585C11.1346 1.71713 11.5284 1.75631 11.7471 2.02335C11.9659 2.2904 11.9267 2.68418 11.6596 2.90289C11.2495 3.23878 11.04 3.77 10.9888 4.56097C10.959 5.02144 10.9851 5.5287 11.0379 6.07544ZM4.44153 3.44232C4.09635 3.44232 3.81653 3.72214 3.81653 4.06732C3.81653 4.4125 4.09635 4.69232 4.44153 4.69232H6.74861C7.09379 4.69232 7.37361 4.4125 7.37361 4.06732C7.37361 3.72214 7.09379 3.44232 6.74861 3.44232H4.44153ZM4.11499 7.12854C4.11499 6.78336 4.39481 6.50354 4.73999 6.50354H7.04707C7.39225 6.50354 7.67207 6.78336 7.67207 7.12854C7.67207 7.47372 7.39225 7.75354 7.04707 7.75354H4.73999C4.39481 7.75354 4.11499 7.47372 4.11499 7.12854ZM4.73999 9.56476C4.39481 9.56476 4.11499 9.84458 4.11499 10.1897C4.11499 10.5349 4.39481 10.8147 4.73999 10.8147H7.04707C7.39225 10.8147 7.67207 10.5349 7.67207 10.1897C7.67207 9.84458 7.39225 9.56476 7.04707 9.56476H4.73999Z" fill="black"/>
</g>
<defs>
<clipPath id="clip0_1121_1029">
<rect width="14" height="14" fill="white" transform="translate(0.511719 0.12854)"/>
</clipPath>
</defs>
</svg>
