<svg width="15" height="15" viewBox="0 0 15 15" fill="none" xmlns="http://www.w3.org/2000/svg">
<g clip-path="url(#clip0_1121_703)">
<path fill-rule="evenodd" clip-rule="evenodd" d="M5.26198 0.43618C5.46348 0.43618 5.58219 0.662329 5.46775 0.828169L4.73766 1.88618C4.5526 2.15436 4.60463 2.51972 4.85718 2.72559L6.16028 3.78782C6.25731 3.86692 6.28088 4.00559 6.21542 4.11231L5.66741 5.00574C5.48693 5.29998 5.57915 5.68481 5.87338 5.86529C6.16762 6.04577 6.55245 5.95355 6.73293 5.65932L7.68103 4.11363C7.84467 3.84684 7.78575 3.50015 7.54316 3.3024L6.27306 2.26707C6.17203 2.18472 6.15123 2.03858 6.22525 1.9313L7.18863 0.535208C7.22799 0.478168 7.2891 0.43618 7.3584 0.43618H10.824C11.6807 0.431492 12.2477 1.16115 12.3181 1.86453L12.3187 1.86969C12.4295 3.1046 12.4898 4.82312 12.4898 5.33257C12.4898 6.89464 11.9459 8.13423 11.0211 8.97968C10.2766 9.66028 9.31494 10.0586 8.26178 10.1849V12.2608C8.56758 12.2911 8.86981 12.3337 9.12606 12.3742C9.36682 12.4122 9.5776 12.4502 9.72844 12.4787C9.80398 12.493 9.86479 12.5049 9.90717 12.5134L9.95652 12.5234L9.97 12.5262L9.9738 12.527L9.97494 12.5272L9.97532 12.5273H9.97547C9.97552 12.5273 9.97558 12.5273 9.82172 13.2614L9.97558 12.5273C10.381 12.6123 10.6407 13.0098 10.5558 13.4153C10.4708 13.8206 10.0733 14.0804 9.66797 13.9955H9.66796H9.66795L9.66787 13.9954H9.66761L9.66537 13.9949L9.6551 13.9928L9.61264 13.9842C9.57504 13.9767 9.51956 13.9658 9.44985 13.9526C9.3102 13.9262 9.11463 13.891 8.89198 13.8558C8.43579 13.7837 7.90643 13.7186 7.51172 13.7186C7.11701 13.7186 6.58765 13.7837 6.13146 13.8558C5.90881 13.891 5.71325 13.9262 5.57359 13.9526C5.50388 13.9658 5.44841 13.9767 5.41081 13.9842L5.36835 13.9928L5.35807 13.9949L5.35583 13.9954H5.35558L5.3555 13.9955C4.95012 14.0804 4.55264 13.8206 4.46767 13.4153C4.3827 13.0098 4.64246 12.6123 5.04787 12.5273L5.2017 13.2613C5.04787 12.5273 5.04792 12.5273 5.04798 12.5273H5.04812L5.0485 12.5272L5.04965 12.527L5.05344 12.5262L5.06693 12.5234L5.11628 12.5134C5.15865 12.5049 5.21946 12.493 5.295 12.4787C5.44585 12.4502 5.65663 12.4122 5.89738 12.3742C6.15367 12.3337 6.45594 12.2911 6.76178 12.2608V10.1849C5.70856 10.0586 4.74689 9.66033 4.00233 8.97968C3.07749 8.13423 2.53357 6.89464 2.53357 5.33257C2.53357 4.82418 2.59385 3.04991 2.70494 1.8676L2.70523 1.86453C2.7757 1.16114 3.34268 0.431492 4.1994 0.43618H5.26198Z" fill="black"/>
</g>
<defs>
<clipPath id="clip0_1121_703">
<rect width="14" height="14" fill="white" transform="translate(0.511719 0.0987549)"/>
</clipPath>
</defs>
</svg>
