<svg width="15" height="15" viewBox="0 0 15 15" fill="none" xmlns="http://www.w3.org/2000/svg">
<g clip-path="url(#clip0_1121_1035)">
<path fill-rule="evenodd" clip-rule="evenodd" d="M10.8083 1.33396C11.7369 1.87145 12.4024 2.74923 12.2473 3.95456L12.2468 3.95813L11.8092 7.175C11.7917 7.30416 11.6778 7.39812 11.5477 7.39108C10.1941 7.31789 8.80468 7.26147 7.38976 7.26147C5.9931 7.26147 4.62155 7.31644 3.28473 7.38823C3.28422 7.38826 3.28377 7.38789 3.28369 7.38739L2.77984 3.98213C2.61108 2.77681 3.26695 1.8938 4.19111 1.35059C5.0984 0.817291 6.3153 0.567814 7.49595 0.564966C8.67673 0.562118 9.89589 0.805767 10.8083 1.33396ZM3.74192 8.61605C3.59476 8.62351 3.48624 8.75624 3.5078 8.902L3.71004 10.2687C3.72452 10.3666 3.79514 10.4468 3.89064 10.4726C5.03654 10.7825 6.43125 11.0818 7.51178 11.0818C8.6171 11.0818 10.0512 10.7687 11.2113 10.4513C11.3075 10.425 11.3782 10.3435 11.3917 10.2447L11.5726 8.91475C11.5923 8.7701 11.4843 8.63941 11.3386 8.63167C10.0412 8.56283 8.72432 8.51147 7.38976 8.51147C6.15843 8.51147 4.94195 8.5552 3.74192 8.61605ZM3.93229 11.7786C3.93285 11.7788 3.93339 11.7783 3.93331 11.7777C3.93322 11.7771 3.93375 11.7766 3.93431 11.7768C5.04781 12.0621 6.39155 12.3318 7.51178 12.3318C8.66473 12.3318 10.0544 12.0461 11.1862 11.7518C11.1864 11.7517 11.1866 11.7519 11.1866 11.7521C11.1866 11.7524 11.1868 11.7526 11.187 11.7525C11.7007 11.6118 12.1498 11.4732 12.4772 11.3675C12.6532 11.3107 12.7934 11.2635 12.889 11.2307C12.9368 11.2143 12.9734 11.2016 12.9976 11.1931L13.0246 11.1836L13.0309 11.1813L13.0322 11.1809C13.422 11.041 13.8516 11.2436 13.9915 11.6334C14.1314 12.0233 13.9286 12.4528 13.5387 12.5928L13.5352 12.594L13.5265 12.5971L13.4945 12.6084C13.4668 12.6181 13.4267 12.6321 13.3751 12.6497C13.2721 12.685 13.1235 12.7351 12.9383 12.7949C12.5684 12.9144 12.0508 13.0736 11.4586 13.2331C10.2928 13.5471 8.76934 13.881 7.51174 13.881C6.25414 13.881 4.73071 13.5471 3.56482 13.2331C2.97266 13.0736 2.45504 12.9144 2.08514 12.7949C1.89999 12.7351 1.75135 12.685 1.64831 12.6497C1.59677 12.6321 1.55661 12.6181 1.52895 12.6084L1.49697 12.5971L1.48827 12.594L1.48456 12.5927C1.09469 12.4528 0.89206 12.0233 1.03197 11.6334C1.17187 11.2436 1.60137 11.041 1.99121 11.1808L1.99256 11.1813L1.99884 11.1836L2.02583 11.1931C2.05008 11.2016 2.08666 11.2143 2.13444 11.2307C2.23003 11.2635 2.37029 11.3107 2.54624 11.3675C2.89381 11.4798 3.37869 11.629 3.93229 11.7786Z" fill="black"/>
</g>
<defs>
<clipPath id="clip0_1121_1035">
<rect width="14" height="14" fill="white" transform="translate(0.511734 0.12854)"/>
</clipPath>
</defs>
</svg>
