<svg width="15" height="15" viewBox="0 0 15 15" fill="currentColor" xmlns="http://www.w3.org/2000/svg">
<path fill-rule="evenodd" clip-rule="evenodd" d="M5.35356 2.91739C5.00421 2.35518 4.16711 2.38384 3.85699 2.96612C3.63366 3.38544 3.8018 3.90906 4.23977 4.12098L4.83832 4.41058C4.86793 4.42491 4.90042 4.43291 4.93326 4.43088C5.21907 4.41323 5.51517 4.399 5.82259 4.38806C6.01576 4.38119 6.1307 4.16807 6.02868 4.00389L5.35356 2.91739ZM8.99464 4.00389C8.89262 4.16807 9.00756 4.38119 9.20073 4.38806C9.50815 4.399 9.80425 4.41323 10.0901 4.43088C10.1229 4.43291 10.1554 4.42491 10.185 4.41058L10.7835 4.12098C11.2215 3.90906 11.3896 3.38544 11.1663 2.96612C10.8562 2.38384 10.0191 2.35518 9.66976 2.91739L8.99464 4.00389ZM12.1547 5.32588C12.0569 5.21376 12.0595 5.04125 12.1593 4.93085C12.8004 4.22181 12.9693 3.16053 12.4902 2.261C11.636 0.657056 9.35426 0.583072 8.3957 2.12572L7.72401 3.20669C7.6262 3.3641 7.39712 3.3641 7.29932 3.20669L6.62762 2.12572C5.66906 0.583072 3.38732 0.657056 2.53306 2.261C2.05396 3.16053 2.22289 4.22181 2.86393 4.93086C2.96375 5.04126 2.96642 5.21377 2.86855 5.32588C2.51026 5.7363 2.27879 6.26222 2.23165 6.84262C2.22234 6.95725 2.21377 7.07228 2.20598 7.18772C2.19631 7.33103 2.31052 7.45178 2.45415 7.45178H6.63668C6.77475 7.45178 6.88668 7.33985 6.88668 7.20178V5.91662C6.88668 5.57144 7.1665 5.29162 7.51168 5.29162C7.85686 5.29162 8.13668 5.57144 8.13668 5.91662V7.20178C8.13668 7.33985 8.24861 7.45178 8.38668 7.45178H12.5691C12.7128 7.45178 12.827 7.33103 12.8173 7.18772C12.8095 7.07228 12.8009 6.95725 12.7916 6.84262C12.7445 6.26222 12.513 5.73629 12.1547 5.32588ZM6.88668 8.95178C6.88668 8.81371 6.77475 8.70178 6.63668 8.70178H2.19566C2.17177 8.70178 2.15239 8.72114 2.15236 8.74503C2.15236 9.39228 2.18116 10.0258 2.23166 10.6476C2.33576 11.9293 3.33879 12.9454 4.62137 13.0384C5.23954 13.0832 5.90656 13.111 6.6338 13.123C6.77296 13.1253 6.88668 13.0128 6.88668 12.8736V8.95178ZM8.38956 13.123C8.2504 13.1253 8.13668 13.0128 8.13668 12.8736V8.95178C8.13668 8.81371 8.24861 8.70178 8.38668 8.70178H12.8276C12.8515 8.70178 12.8709 8.72114 12.8709 8.74503C12.8709 9.39228 12.8421 10.0258 12.7916 10.6476C12.6875 11.9293 11.6845 12.9454 10.402 13.0384C9.78379 13.0832 9.11679 13.111 8.38956 13.123Z" fill="black"/>
</svg>
