<svg width="15" height="15" viewBox="0 0 15 15" fill="currentColor" xmlns="http://www.w3.org/2000/svg">
<g clip-path="url(#clip0_1121_1031)">
<path fill-rule="evenodd" clip-rule="evenodd" d="M3.60063 3.22819C2.76008 4.06874 2.26172 5.35362 2.26172 7.13382C2.26172 8.91402 2.76008 10.1989 3.60063 11.0394C4.44118 11.88 5.72606 12.3783 7.50626 12.3783C9.28646 12.3783 10.5713 11.88 11.4119 11.0394C12.2524 10.1989 12.7508 8.91402 12.7508 7.13382C12.7508 6.71961 13.0866 6.38382 13.5008 6.38382C13.915 6.38382 14.2508 6.71961 14.2508 7.13382C14.2508 9.19013 13.6701 10.9025 12.4725 12.1001C11.2749 13.2977 9.56257 13.8783 7.50626 13.8783C5.44996 13.8783 3.73756 13.2977 2.53997 12.1001C1.34238 10.9025 0.761719 9.19013 0.761719 7.13382C0.761719 5.07752 1.34238 3.36513 2.53997 2.16753C3.73756 0.969939 5.44996 0.389282 7.50626 0.389282C7.92047 0.389282 8.25626 0.725069 8.25626 1.13928C8.25626 1.5535 7.92047 1.88928 7.50626 1.88928C5.72606 1.88928 4.44118 2.38764 3.60063 3.22819ZM7.2786 3.95046C7.37027 4.3544 7.11713 4.75618 6.71319 4.84786C6.17177 4.97073 5.80038 5.22181 5.55532 5.56284C5.30414 5.91238 5.13916 6.42217 5.13916 7.13338C5.13916 7.99282 5.37856 8.55836 5.72995 8.90975C6.08135 9.26115 6.64688 9.50054 7.50632 9.50054C8.25237 9.50054 8.77663 9.31924 9.12802 9.04616C9.47178 8.77901 9.72281 8.36802 9.82472 7.75919C9.89311 7.35066 10.2797 7.07492 10.6882 7.14331C11.0968 7.21169 11.3725 7.59831 11.3041 8.00683C11.1509 8.9222 10.7376 9.69499 10.0485 10.2305C9.36695 10.7601 8.48973 11.0005 7.50632 11.0005C6.37078 11.0005 5.37773 10.6788 4.66929 9.97041C3.96085 9.26197 3.63916 8.26893 3.63916 7.13338C3.63916 6.19608 3.85731 5.35534 4.3372 4.68751C4.82321 4.01118 5.53083 3.57805 6.3812 3.38505C6.78514 3.29338 7.18692 3.54652 7.2786 3.95046ZM9.99736 5.70305L8.03668 7.66372C7.74378 7.95661 7.26891 7.95661 6.97602 7.66372C6.68312 7.37082 6.68313 6.89595 6.97602 6.60306L8.93715 4.64193C8.73762 3.80189 8.98578 2.91298 9.60181 2.29692L11.1235 0.77519C11.2474 0.65123 11.4273 0.601241 11.5974 0.643442C11.7675 0.685644 11.9032 0.813871 11.9548 0.98139L12.3565 2.28388L13.659 2.68556C13.8265 2.73722 13.9547 2.87283 13.9969 3.04298C14.0391 3.21312 13.9892 3.39294 13.8652 3.5169L12.3436 5.0386C11.7272 5.65496 10.8377 5.90308 9.99736 5.70305Z" fill="black"/>
</g>
<defs>
<clipPath id="clip0_1121_1031">
<rect width="14" height="14" fill="white" transform="translate(0.511719 0.12854)"/>
</clipPath>
</defs>
</svg>
