<svg width="15" height="15" viewBox="0 0 15 15" fill="none" xmlns="http://www.w3.org/2000/svg">
<g clip-path="url(#clip0_1121_705)">
<path fill-rule="evenodd" clip-rule="evenodd" d="M3.34362 2.89745C3.24547 2.29223 2.72286 1.84754 2.10973 1.84754H1.56153C1.14733 1.84754 0.811539 1.51175 0.811539 1.09753C0.811539 0.683321 1.14733 0.347534 1.56153 0.347534H2.10973C3.35163 0.347534 4.42474 1.17685 4.75565 2.34754H13.2857C13.838 2.34754 14.2899 2.79644 14.2421 3.34664C14.1209 4.74004 13.7675 5.92602 13.4375 6.73586C13.1959 7.32866 12.6859 7.75217 12.0586 7.88011C11.404 8.01364 10.4055 8.14892 9.04636 8.14892C8.0733 8.14892 7.25348 8.07958 6.6037 7.99119C6.23869 7.94152 5.91014 7.80847 5.62785 7.61272L5.77945 8.54762C5.8776 9.15283 6.40021 9.59754 7.01334 9.59754H12.5615C12.9757 9.59754 13.3115 9.93332 13.3115 10.3476C13.3115 10.7618 12.9757 11.0976 12.5615 11.0976H7.01334C5.66447 11.0976 4.51471 10.1193 4.2988 8.78772L3.34362 2.89745ZM5.91505 13.8417C6.53314 13.8417 7.0342 13.3407 7.0342 12.7226C7.0342 12.1045 6.53314 11.6034 5.91505 11.6034C5.29697 11.6034 4.79591 12.1045 4.79591 12.7226C4.79591 13.3407 5.29697 13.8417 5.91505 13.8417ZM13.6807 12.7226C13.6807 13.3407 13.1796 13.8417 12.5615 13.8417C11.9434 13.8417 11.4424 13.3407 11.4424 12.7226C11.4424 12.1045 11.9434 11.6034 12.5615 11.6034C13.1796 11.6034 13.6807 12.1045 13.6807 12.7226Z" fill="black"/>
</g>
<defs>
<clipPath id="clip0_1121_705">
<rect width="14" height="14" fill="white" transform="translate(0.511734 0.0987549)"/>
</clipPath>
</defs>
</svg>
