<svg width="15" height="15" viewBox="0 0 15 15" fill="currentColor" xmlns="http://www.w3.org/2000/svg">
<g clip-path="url(#clip0_1121_1033)">
<path fill-rule="evenodd" clip-rule="evenodd" d="M6.40923 0.99252C6.76048 1.21205 6.86726 1.67477 6.64773 2.02602L4.70867 5.12852H10.3148L8.37573 2.02602C8.1562 1.67477 8.26298 1.21205 8.61423 0.99252C8.96548 0.772987 9.4282 0.879767 9.64773 1.23102L12.0836 5.12852H12.5116C13.3362 5.12852 14.0242 5.80269 13.9775 6.65499C13.9097 7.8913 13.7284 9.83206 13.3309 11.5446C13.1106 12.4939 12.3946 13.2583 11.3778 13.4058C10.5372 13.5277 9.28036 13.6285 7.51168 13.6285C5.74299 13.6285 4.48617 13.5277 3.64549 13.4058C2.62872 13.2583 1.91271 12.4939 1.69238 11.5446C1.29492 9.83206 1.11364 7.8913 1.04584 6.65499C0.999104 5.80269 1.68709 5.12852 2.51168 5.12852H2.93979L5.37573 1.23102C5.59526 0.879767 6.05798 0.772987 6.40923 0.99252Z" fill="black"/>
</g>
<defs>
<clipPath id="clip0_1121_1033">
<rect width="14" height="14" fill="white" transform="translate(0.511734 0.12854)"/>
</clipPath>
</defs>
</svg>
