<svg width="15" height="15" viewBox="0 0 15 15" fill="currentColor" xmlns="http://www.w3.org/2000/svg">
<g clip-path="url(#clip0_1121_711)">
<path fill-rule="evenodd" clip-rule="evenodd" d="M11.2885 2.0279C9.18757 1.75341 7.91158 1.84897 5.94311 1.99637L5.57787 2.02363C5.16479 2.05425 4.85474 2.41393 4.88535 2.82701C4.91597 3.2401 5.27566 3.55014 5.68874 3.51953L6.03391 3.4938C8.00745 3.3463 9.1483 3.26103 11.0942 3.51526C11.7598 3.60222 12.2321 3.95222 12.377 4.51862L12.5022 5.40878H9.34742H9.34672C7.60099 5.41042 5.6355 5.44788 3.97828 6.643C2.8027 7.49076 1.84987 8.60026 1.19007 9.87588C0.593274 11.0297 1.51139 12.1855 2.61261 12.2493L2.90381 12.2662C6.22127 12.4589 8.34148 12.582 12.1376 12.3592C12.5742 12.3336 12.9893 12.1427 13.3008 11.9184C13.5999 11.703 13.9318 11.3633 14.055 10.9293C14.4772 9.44252 14.5159 7.71523 14.1312 6.22663C14.1301 6.2159 14.1289 6.20514 14.1274 6.19436L13.8572 4.27304C13.8541 4.25092 13.85 4.22896 13.845 4.20721C13.5283 2.84861 12.3969 2.17271 11.2885 2.0279Z" fill="black"/>
</g>
<defs>
<clipPath id="clip0_1121_711">
<rect width="14" height="14" fill="white" transform="translate(0.511719 0.0987549)"/>
</clipPath>
</defs>
</svg>
