<svg width="15" height="15" viewBox="0 0 15 15" fill="currentColor" xmlns="http://www.w3.org/2000/svg">
<g clip-path="url(#clip0_1121_727)">
<path fill-rule="evenodd" clip-rule="evenodd" d="M7.51172 0.52771C6.8043 0.52771 6.18103 0.728219 5.73509 1.17415C5.28915 1.6201 5.08864 2.24336 5.08864 2.95078C5.08864 3.65821 5.28915 4.28148 5.73509 4.72742C6.18103 5.17336 6.8043 5.37386 7.51172 5.37386C8.21914 5.37386 8.84241 5.17336 9.28835 4.72742C9.73429 4.28148 9.9348 3.65821 9.9348 2.95078C9.9348 2.24336 9.73429 1.6201 9.28835 1.17415C8.84241 0.728219 8.21914 0.52771 7.51172 0.52771ZM10.5429 13.3324C9.42632 13.6265 8.51079 13.805 7.56508 13.8165C6.61622 13.828 5.66484 13.6713 4.47043 13.3297C4.25585 13.2683 4.10793 13.0721 4.10793 12.8489C4.10793 11.3451 4.23211 9.71606 4.68782 8.44675C4.91684 7.80888 5.24125 7.22811 5.70689 6.80317C6.18356 6.36819 6.78561 6.11811 7.51178 6.11811C8.23795 6.11811 8.84 6.36819 9.31666 6.80317C9.78231 7.22811 10.1067 7.80888 10.3357 8.44675C10.7914 9.71606 10.9156 11.3451 10.9156 12.8489C10.9156 13.076 10.7625 13.2746 10.5429 13.3324Z" fill="black"/>
</g>
<defs>
<clipPath id="clip0_1121_727">
<rect width="14" height="14" fill="white" transform="translate(0.511734 0.0987549)"/>
</clipPath>
</defs>
</svg>
