<svg width="15" height="15" viewBox="0 0 15 15" fill="currentColor" xmlns="http://www.w3.org/2000/svg">
<g clip-path="url(#clip0_1121_725)">
<path fill-rule="evenodd" clip-rule="evenodd" d="M6.78862 1.30329C6.88429 0.900267 6.63514 0.496003 6.23213 0.400332C5.82911 0.304662 5.42485 0.553812 5.32918 0.956826L5.14634 1.72703C5.04069 2.1721 4.64315 2.48631 4.18572 2.48631C3.03861 2.48631 2.04028 3.27079 1.76897 4.38535L1.59185 5.11298C1.49388 5.51545 1.74072 5.92112 2.14318 6.01909C2.54564 6.11706 2.95132 5.87022 3.04929 5.46776L3.22641 4.74012C3.3341 4.2977 3.73039 3.98631 4.18572 3.98631C5.33812 3.98631 6.33961 3.19473 6.60578 2.07349L6.78862 1.30329ZM3.73151 9.17177C3.96839 8.43402 4.66154 7.85082 5.50135 7.85082H12.4537C13.2935 7.85082 13.9867 8.43403 14.2235 9.17177C14.323 9.48155 14.414 9.82833 14.414 10.3462C14.414 10.864 14.323 11.2108 14.2235 11.5206C13.9867 12.2584 13.2935 12.8416 12.4537 12.8416H5.50135C4.66154 12.8416 3.96839 12.2584 3.73151 11.5206C3.63205 11.2108 3.54103 10.864 3.54103 10.3462C3.54103 9.82833 3.63205 9.48154 3.73151 9.17177ZM9.40898 0.857806C9.78929 1.02193 9.96455 1.46328 9.80042 1.8436L8.70591 4.37983C8.27103 5.38757 7.27856 6.04021 6.18099 6.04021H5.62257C5.20836 6.04021 4.87257 5.70442 4.87257 5.29021C4.87257 4.876 5.20836 4.54021 5.62257 4.54021H6.18099C6.67989 4.54021 7.13101 4.24355 7.32869 3.78549L8.4232 1.24925C8.58732 0.868938 9.02867 0.693683 9.40898 0.857806ZM2.20681 8.47587C2.2513 8.06405 1.95353 7.69415 1.54171 7.64966C1.1299 7.60516 0.759986 7.90294 0.715494 8.31475C0.699771 8.46027 0.678121 8.62271 0.654923 8.79677L0.654921 8.79677C0.592686 9.26371 0.519302 9.81429 0.519302 10.3465C0.519302 10.8787 0.592686 11.4292 0.654921 11.8962H0.654923C0.678122 12.0702 0.699771 12.2327 0.715494 12.3782C0.759986 12.79 1.1299 13.0878 1.54171 13.0433C1.95353 12.9988 2.2513 12.6289 2.20681 12.2171C2.18283 11.9951 2.15519 11.7887 2.12863 11.5904C2.07147 11.1636 2.0193 10.774 2.0193 10.3465C2.0193 9.91895 2.07147 9.5294 2.12863 9.10258C2.15519 8.90423 2.18283 8.69784 2.20681 8.47587Z" fill="black"/>
</g>
<defs>
<clipPath id="clip0_1121_725">
<rect width="14" height="14" fill="white" transform="translate(0.511734 0.0987549)"/>
</clipPath>
</defs>
</svg>
