<svg width="15" height="15" viewBox="0 0 15 15" fill="currentColor" xmlns="http://www.w3.org/2000/svg">
<g clip-path="url(#clip0_1121_1041)">
<path fill-rule="evenodd" clip-rule="evenodd" d="M7.51187 0.503418C3.8529 0.503418 0.886719 3.4696 0.886719 7.12856C0.886719 10.7875 3.8529 13.7537 7.51187 13.7537C11.1708 13.7537 14.137 10.7875 14.137 7.12856C14.137 3.4696 11.1708 0.503418 7.51187 0.503418ZM10.7769 4.2472C10.8932 5.39218 10.5038 6.58314 9.91225 7.66836C9.75825 7.95089 9.37733 7.99414 9.1498 7.7666L6.87362 5.49032C6.6461 5.26278 6.68935 4.88188 6.97188 4.72788C8.05707 4.13637 9.24805 3.74686 10.393 3.86319C10.5964 3.88387 10.7563 4.04374 10.7769 4.2472ZM5.11119 6.58872C4.51967 7.67394 4.1302 8.8649 4.24647 10.0099C4.26714 10.2133 4.42699 10.3732 4.63045 10.3938C5.77539 10.5102 6.96637 10.1207 8.05156 9.5292C8.33409 9.3752 8.37734 8.9943 8.14982 8.76676L5.87364 6.49048C5.64611 6.26294 5.26519 6.30619 5.11119 6.58872Z" fill="black"/>
</g>
<defs>
<clipPath id="clip0_1121_1041">
<rect width="14" height="14" fill="white" transform="translate(0.511719 0.12854)"/>
</clipPath>
</defs>
</svg>
