<svg width="15" height="15" viewBox="0 0 15 15" fill="none" xmlns="http://www.w3.org/2000/svg">
<g clip-path="url(#clip0_1121_713)">
<path fill-rule="evenodd" clip-rule="evenodd" d="M2.06616 7.09881C2.06616 4.09128 4.50425 1.65319 7.51178 1.65319C7.83685 1.65319 8.15527 1.68168 8.46468 1.73628V3.04783C8.46468 3.49022 8.28894 3.91451 7.97612 4.22732C7.6633 4.54014 7.23903 4.71588 6.79663 4.71588C6.35424 4.71588 5.92996 4.89162 5.61714 5.20444C5.30432 5.51726 5.12858 5.94153 5.12858 6.38393V7.81369C5.12858 8.25609 4.95284 8.68036 4.64002 8.99319C4.3272 9.30601 3.90292 9.48174 3.46053 9.48174H2.61384C2.26301 8.76198 2.06616 7.95339 2.06616 7.09881ZM11.3145 10.9968C12.3281 10.0078 12.9574 8.62679 12.9574 7.09881C12.9574 6.97074 12.953 6.84369 12.9443 6.7178C12.6894 6.65598 12.4273 6.6237 12.1632 6.62225H10.1329C9.69052 6.62225 9.26624 6.798 8.95342 7.11082C8.6406 7.42364 8.46486 7.84792 8.46486 8.29031C8.46486 8.7327 8.6406 9.15697 8.95342 9.4698C9.26624 9.78262 9.69052 9.95835 10.1329 9.95835C10.4489 9.95835 10.7519 10.0839 10.9754 10.3074C11.1624 10.4944 11.2809 10.7373 11.3145 10.9968ZM7.51178 0.153198C3.67582 0.153198 0.566162 3.26286 0.566162 7.09881C0.566162 10.9348 3.67582 14.0445 7.51178 14.0445C11.3477 14.0445 14.4574 10.9348 14.4574 7.09881C14.4574 3.26286 11.3477 0.153198 7.51178 0.153198Z" fill="black"/>
</g>
<defs>
<clipPath id="clip0_1121_713">
<rect width="14" height="14" fill="white" transform="translate(0.511719 0.0987549)"/>
</clipPath>
</defs>
</svg>
