<svg width="15" height="15" viewBox="0 0 15 15" fill="currentColor" xmlns="http://www.w3.org/2000/svg">
<g clip-path="url(#clip0_1121_721)">
<path fill-rule="evenodd" clip-rule="evenodd" d="M8.26172 1.62146C8.26172 1.20724 7.92593 0.87146 7.51172 0.87146C7.09751 0.87146 6.76172 1.20724 6.76172 1.62146V2.93738C5.99566 2.9703 5.38428 3.05843 4.68947 3.20358C4.29905 3.28514 3.93933 3.52721 3.73773 3.90347C3.45347 4.43401 3.24897 4.99793 3.13736 5.57799C3.09766 5.78428 2.94585 5.95408 2.74145 6.00249C2.60978 6.03368 2.47758 6.06567 2.34471 6.09838C1.79138 6.23459 1.37906 6.66999 1.23474 7.19557L1.21884 7.25344L1.21157 7.27988C1.0703 7.79346 0.903809 8.39873 0.903809 9.03034C0.903809 9.63643 1.05654 10.2151 1.19269 10.7121C1.28349 11.0435 1.69338 10.9155 1.81929 10.5957C2.19155 9.65012 3.11294 8.98096 4.19062 8.98096C5.59759 8.98096 6.73816 10.1216 6.73816 11.5286C6.73816 11.785 6.9265 12.0213 7.18291 12.0231C7.29221 12.0239 7.40176 12.0243 7.51156 12.0243C7.62143 12.0243 7.73105 12.0239 7.84041 12.0231C8.09682 12.0213 8.28516 11.785 8.28516 11.5286C8.28516 10.1216 9.42573 8.98096 10.8327 8.98096C11.9104 8.98096 12.8318 9.65016 13.204 10.5957C13.3299 10.9154 13.7396 11.0434 13.8304 10.7121C13.9666 10.2151 14.1193 9.63643 14.1193 9.03034C14.1193 8.39874 13.9528 7.79348 13.8115 7.2799L13.8043 7.25345L13.7921 7.20923C13.6446 6.67238 13.2186 6.23415 12.6556 6.1037C12.5336 6.07544 12.411 6.04724 12.2879 6.0193C12.0815 5.97247 11.9281 5.80142 11.8881 5.59362C11.7774 5.01762 11.5737 4.45986 11.2919 3.9235C11.0876 3.53476 10.7167 3.28467 10.3133 3.20375C9.60092 3.06083 9.00864 2.97278 8.26172 2.93873V1.62146ZM12.3802 11.5286C12.3802 11.6426 12.3679 11.7538 12.3445 11.8609C12.1924 12.5559 11.5733 13.0761 10.8327 13.0761C10.1372 13.0761 9.54892 12.6173 9.35386 11.9859C9.3092 11.8414 9.28516 11.6878 9.28516 11.5286C9.28516 10.6739 9.97802 9.98096 10.8327 9.98096C11.6874 9.98096 12.3802 10.6739 12.3802 11.5286ZM2.67884 11.8609C2.83093 12.5559 3.45001 13.0761 4.19062 13.0761C4.88608 13.0761 5.4744 12.6173 5.66946 11.9859C5.71412 11.8414 5.73816 11.6878 5.73816 11.5286C5.73816 10.6739 5.0453 9.98096 4.19062 9.98096C3.33593 9.98096 2.64307 10.6739 2.64307 11.5286C2.64307 11.6426 2.65542 11.7538 2.67884 11.8609Z" fill="black"/>
</g>
<defs>
<clipPath id="clip0_1121_721">
<rect width="14" height="14" fill="white" transform="translate(0.511719 0.0987549)"/>
</clipPath>
</defs>
</svg>
