<svg width="15" height="15" viewBox="0 0 15 15" fill="none" xmlns="http://www.w3.org/2000/svg">
<g clip-path="url(#clip0_1121_715)">
<path fill-rule="evenodd" clip-rule="evenodd" d="M6.31066 3.75168C6.321 3.73998 6.33177 3.72852 6.34296 3.71732L6.43788 3.62241L5.50389 2.68842C5.21099 2.39552 5.21099 1.92065 5.50389 1.62776C5.79678 1.33486 6.27165 1.33486 6.56455 1.62776L7.49854 2.56175L8.43253 1.62776C8.72542 1.33486 9.20029 1.33486 9.49319 1.62776C9.78608 1.92065 9.78608 2.39552 9.49319 2.68842L8.5592 3.62241L8.59784 3.66105C11.4828 5.90822 13.0751 9.5476 13.924 13.102C13.9773 13.3253 13.9254 13.5607 13.7832 13.7409C13.6409 13.9211 13.424 14.0262 13.1945 14.0262H13.1918H13.1838H13.1526H13.0323H12.5877H11.1029H8.63672C8.36058 14.0262 8.13672 13.8024 8.13672 13.5262V10.0987C8.13672 9.75355 7.8569 9.47373 7.51172 9.47373C7.16654 9.47373 6.88672 9.75355 6.88672 10.0987V13.5262C6.88672 13.8023 6.66285 14.0262 6.3867 14.0262L3.92039 14.0261L2.43557 14.026H1.99099H1.87067H1.83944H1.83149H1.82881C1.59926 14.026 1.38236 13.9208 1.24014 13.7406C1.09792 13.5604 1.04606 13.325 1.09938 13.1018C1.93682 9.59495 3.49808 6.00507 6.31066 3.75168Z" fill="black"/>
</g>
<defs>
<clipPath id="clip0_1121_715">
<rect width="14" height="14" fill="white" transform="translate(0.511719 0.0987549)"/>
</clipPath>
</defs>
</svg>
