<svg width="15" height="15" viewBox="0 0 15 15" fill="none" xmlns="http://www.w3.org/2000/svg">
<g clip-path="url(#clip0_1121_709)">
<path fill-rule="evenodd" clip-rule="evenodd" d="M6.57794 2.66334C6.80624 2.47289 7.14067 2.34875 7.51172 2.34875C7.88277 2.34875 8.2172 2.47289 8.4455 2.66334C8.66982 2.85047 8.76172 3.07201 8.76172 3.26717V3.72192C8.34911 3.71044 7.93257 3.70446 7.51172 3.70446C7.09231 3.70446 6.67543 3.71003 6.26172 3.72093V3.26717C6.26172 3.07201 6.35362 2.85047 6.57794 2.66334ZM4.76172 4.15194V3.26717C4.76172 2.57736 5.09125 1.95015 5.61707 1.5115C6.13892 1.07618 6.82191 0.848755 7.51172 0.848755C8.20153 0.848755 8.88452 1.07618 9.40637 1.5115C9.93219 1.95015 10.2617 2.57736 10.2617 3.26717V4.23169C10.2622 4.24072 10.2624 4.24981 10.2624 4.25897V13.2902C10.2624 13.5544 10.0569 13.7733 9.79312 13.787C9.04554 13.8259 8.28521 13.8477 7.51172 13.8477C6.73287 13.8477 5.96481 13.8121 5.21344 13.7615C4.9524 13.744 4.75073 13.5263 4.75073 13.2646V4.25659C4.75073 4.22074 4.75452 4.18573 4.76172 4.15194ZM11.8909 13.6342C11.6874 13.653 11.5124 13.4923 11.5124 13.2879V4.29546C11.5124 4.07181 11.7039 3.89596 11.9266 3.91692C12.9857 4.01659 13.8772 4.80296 14.0401 5.8808C14.1813 6.81474 14.2617 7.7859 14.2617 8.77606C14.2617 9.75949 14.1738 10.7131 14.0354 11.6348C13.8714 12.7268 12.9707 13.5345 11.8909 13.6342ZM3.50073 4.31136C3.50073 4.07677 3.2999 3.89231 3.06638 3.91464C2.0236 4.01436 1.14284 4.7855 0.980505 5.84969C0.836309 6.79497 0.761719 7.77829 0.761719 8.77606C0.761719 9.73958 0.836112 10.676 0.970283 11.5867C1.13729 12.7203 2.09976 13.5084 3.18894 13.6005L3.42918 13.6208C3.46768 13.6241 3.50073 13.5937 3.50073 13.5551V4.31136Z" fill="black"/>
</g>
<defs>
<clipPath id="clip0_1121_709">
<rect width="14" height="14" fill="white" transform="translate(0.511719 0.0987549)"/>
</clipPath>
</defs>
</svg>
