<svg width="15" height="15" viewBox="0 0 15 15" fill="none" xmlns="http://www.w3.org/2000/svg">
<g clip-path="url(#clip0_1121_1039)">
<path fill-rule="evenodd" clip-rule="evenodd" d="M5.44444 1.21252C4.95067 1.21252 4.53911 1.47659 4.26729 1.83357C3.99578 2.19015 3.84229 2.66076 3.84229 3.15998C3.84229 3.65919 3.99578 4.12981 4.26729 4.48638C4.53911 4.84336 4.95067 5.10743 5.44444 5.10743C5.93821 5.10743 6.34976 4.84336 6.62158 4.48638C6.8931 4.12981 7.04659 3.65919 7.04659 3.15998C7.04659 2.66076 6.8931 2.19015 6.62158 1.83357C6.34976 1.47659 5.93821 1.21252 5.44444 1.21252ZM9.5792 1.21252C9.08544 1.21252 8.67388 1.47659 8.40206 1.83357C8.13055 2.19015 7.97705 2.66076 7.97705 3.15998C7.97705 3.65919 8.13055 4.12981 8.40206 4.48638C8.67388 4.84336 9.08544 5.10743 9.5792 5.10743C10.073 5.10743 10.4845 4.84336 10.7563 4.48638C11.0278 4.12981 11.1813 3.65919 11.1813 3.15998C11.1813 2.66076 11.0278 2.19015 10.7563 1.83357C10.4845 1.47659 10.073 1.21252 9.5792 1.21252ZM12.5646 4.88745C11.5506 4.88745 10.9065 5.86915 10.9065 6.8349C10.9065 7.80065 11.5506 8.78236 12.5646 8.78236C13.5787 8.78236 14.2228 7.80065 14.2228 6.8349C14.2228 5.86915 13.5787 4.88745 12.5646 4.88745ZM2.45845 4.88745C1.44439 4.88745 0.800293 5.86915 0.800293 6.8349C0.800293 7.80065 1.44439 8.78236 2.45845 8.78236C3.4725 8.78236 4.1166 7.80065 4.1166 6.8349C4.1166 5.86915 3.4725 4.88745 2.45845 4.88745ZM7.5116 6.73724C6.34579 6.73724 5.48415 7.36237 4.93307 8.13663C4.38984 8.89987 4.1167 9.84573 4.1167 10.6146C4.1167 11.5145 4.65779 12.1394 5.31813 12.5139C5.96839 12.8826 6.78236 13.0445 7.5116 13.0445C8.24085 13.0445 9.05482 12.8826 9.70508 12.5139C10.3654 12.1394 10.9065 11.5145 10.9065 10.6146C10.9065 9.84573 10.6333 8.89987 10.0901 8.13663C9.53906 7.36237 8.67742 6.73724 7.5116 6.73724Z" fill="black"/>
</g>
<defs>
<clipPath id="clip0_1121_1039">
<rect width="14" height="14" fill="white" transform="translate(0.511719 0.12854)"/>
</clipPath>
</defs>
</svg>
