<svg width="15" height="15" viewBox="0 0 15 15" fill="currentColor" xmlns="http://www.w3.org/2000/svg">
<g clip-path="url(#clip0_1121_717)">
<path fill-rule="evenodd" clip-rule="evenodd" d="M8.26172 1.24792C8.26172 0.833711 7.92593 0.497925 7.51172 0.497925C7.09751 0.497925 6.76172 0.833711 6.76172 1.24792V13.1958C6.76172 13.61 7.09751 13.9458 7.51172 13.9458C7.92593 13.9458 8.26172 13.61 8.26172 13.1958V1.24792ZM5.51172 1.25721C5.51172 0.973328 5.27563 0.746321 4.99206 0.759872C4.66295 0.775599 4.33987 0.793155 4.0174 0.810679H4.01739L4.01312 0.810911C3.61876 0.832341 3.22586 0.853688 2.82164 0.871815C2.48115 0.887084 2.14016 1.016 1.87717 1.26751C1.59325 1.53904 1.27013 1.8814 1.01469 2.25125C0.767792 2.60872 0.537598 3.05759 0.537598 3.52996C0.537598 4.00238 0.761866 4.42715 1.00532 4.76922C1.25303 5.11725 1.57115 5.44764 1.84475 5.72931C2.11536 6.00793 2.48243 6.17264 2.86992 6.1903C3.25724 6.20795 3.6345 6.22846 4.01311 6.24902L4.0175 6.24926L4.01763 6.24927H4.01775C4.3401 6.26679 4.66307 6.28435 4.99206 6.30007C5.27563 6.31361 5.51172 6.08661 5.51172 5.80272V1.25721ZM9.51172 10.0356C9.51172 10.3194 9.74767 10.5464 10.0311 10.533C10.3692 10.5169 10.7007 10.4989 11.0316 10.4809H11.0318L11.0362 10.4807C11.4148 10.4601 11.7921 10.4396 12.1794 10.422C12.5669 10.4043 12.9339 10.2396 13.2046 9.96093C13.4781 9.67926 13.7963 9.34884 14.044 9.00082C14.2874 8.65876 14.5117 8.23398 14.5117 7.76157C14.5117 7.28918 14.2815 6.84033 14.0346 6.48286C13.7792 6.11301 13.4561 5.77066 13.1721 5.49913C12.9091 5.24761 12.5681 5.1187 12.2277 5.10343C11.8234 5.0853 11.4305 5.06394 11.0362 5.04251L11.0319 5.04228L11.0318 5.04227C10.7008 5.02429 10.3692 5.00627 10.0311 4.99023C9.74767 4.97678 9.51172 5.20376 9.51172 5.48756V10.0356Z" fill="black"/>
</g>
<defs>
<clipPath id="clip0_1121_717">
<rect width="14" height="14" fill="white" transform="translate(0.511719 0.0987549)"/>
</clipPath>
</defs>
</svg>
