<svg width="15" height="15" viewBox="0 0 15 15" fill="none" xmlns="http://www.w3.org/2000/svg">
<g clip-path="url(#clip0_1121_1045)">
<path fill-rule="evenodd" clip-rule="evenodd" d="M7.5117 0.609863C6.80428 0.609863 6.18101 0.810372 5.73507 1.25631C5.28913 1.70225 5.08862 2.32552 5.08862 3.03294C5.08862 3.74036 5.28913 4.36363 5.73507 4.80957C6.18101 5.25551 6.80428 5.45602 7.5117 5.45602C8.21912 5.45602 8.84239 5.25551 9.28833 4.80957C9.73427 4.36363 9.93478 3.74036 9.93478 3.03294C9.93478 2.32552 9.73427 1.70225 9.28833 1.25631C8.84239 0.810372 8.21912 0.609863 7.5117 0.609863ZM10.5303 6.64189C9.3754 6.36965 8.44898 6.23054 7.51098 6.23212C6.5736 6.2337 5.64799 6.37576 4.49563 6.64133C4.26869 6.69363 4.10791 6.89567 4.10791 7.12856C4.10791 8.63245 4.23212 10.2658 4.68759 11.5395C4.91644 12.1795 5.2406 12.7626 5.70595 13.1894C6.18241 13.6264 6.78474 13.8783 7.51176 13.8783C8.23879 13.8783 8.84112 13.6264 9.31758 13.1894C9.78293 12.7626 10.1071 12.1795 10.3359 11.5395C10.7914 10.2658 10.9156 8.63245 10.9156 7.12856C10.9156 6.89661 10.7561 6.69511 10.5303 6.64189Z" fill="black"/>
</g>
<defs>
<clipPath id="clip0_1121_1045">
<rect width="14" height="14" fill="white" transform="translate(0.511719 0.12854)"/>
</clipPath>
</defs>
</svg>
