<svg width="15" height="15" viewBox="0 0 15 15" fill="currentColor" xmlns="http://www.w3.org/2000/svg">
<g clip-path="url(#clip0_1121_1043)">
<path fill-rule="evenodd" clip-rule="evenodd" d="M5.16 2.12106C3.79603 0.59194 2.10588 0.467534 1.30769 0.733598C1.18615 0.774111 1.11491 0.899941 1.1427 1.025L1.96397 4.7207H1.38672C0.972506 4.7207 0.636719 5.05649 0.636719 5.4707C0.636719 5.88492 0.972506 6.2207 1.38672 6.2207H1.85296L1.1428 9.4164C1.11501 9.54146 1.18625 9.66729 1.30779 9.7078C2.0495 9.95504 3.55948 9.86476 4.86286 8.62728C4.88594 8.60536 4.90395 8.58005 4.9168 8.55283C5.9271 9.3591 7.23222 10.0384 8.85916 10.2191C10.7222 10.4262 12.1141 9.9094 13.0385 8.98489C13.9572 8.06612 14.3867 6.77234 14.3867 5.47061C14.3868 4.16886 13.9573 2.87512 13.0385 1.95637C12.1141 1.03189 10.7222 0.515128 8.85916 0.722133C7.37848 0.886652 6.16437 1.46412 5.19646 2.17442C5.18687 2.15551 5.17472 2.13756 5.16 2.12106ZM6.35994 10.8551C6.02437 10.7158 5.63606 10.939 5.66346 11.3013C5.68683 11.6104 5.73623 11.9133 5.81116 12.2359C5.89289 12.5877 6.10737 12.8933 6.40607 13.0913C6.72261 13.3012 7.08105 13.5032 7.52483 13.5897C7.97452 13.6773 8.46593 13.638 9.04481 13.4451C9.77148 13.2028 10.1437 12.6061 10.3179 12.0199C10.3989 11.7472 10.1596 11.5029 9.87524 11.5111C9.50421 11.5219 9.11917 11.5058 8.72112 11.4616C7.85428 11.3653 7.0684 11.1492 6.35994 10.8551Z" fill="black"/>
</g>
<defs>
<clipPath id="clip0_1121_1043">
<rect width="14" height="14" fill="white" transform="translate(0.511719 0.12854)"/>
</clipPath>
</defs>
</svg>
