<svg width="15" height="15" viewBox="0 0 15 15" fill="none" xmlns="http://www.w3.org/2000/svg">
<g clip-path="url(#clip0_1121_1037)">
<path fill-rule="evenodd" clip-rule="evenodd" d="M7.51172 1.87854C5.6096 1.87854 3.93066 2.8927 2.75104 3.99432C2.15655 4.5495 1.67159 5.1424 1.33165 5.67396C1.16177 5.93958 1.02371 6.19675 0.926532 6.43215C0.83315 6.65834 0.761719 6.90173 0.761719 7.12854C0.761719 7.35535 0.83315 7.59874 0.926532 7.82493C1.02371 8.06033 1.16177 8.3175 1.33165 8.58312C1.67159 9.11468 2.15655 9.70758 2.75104 10.2627C3.93066 11.3643 5.6096 12.3785 7.51172 12.3785C9.41384 12.3785 11.0928 11.3643 12.2724 10.2627C12.8669 9.70758 13.3518 9.11468 13.6918 8.58312C13.8616 8.3175 13.9997 8.06033 14.0969 7.82493C14.1903 7.59874 14.2617 7.35535 14.2617 7.12854C14.2617 6.90173 14.1903 6.65834 14.0969 6.43215C13.9997 6.19675 13.8616 5.93958 13.6918 5.67396C13.3518 5.1424 12.8669 4.5495 12.2724 3.99432C11.0928 2.8927 9.41384 1.87854 7.51172 1.87854ZM5.81945 6.32016C5.70232 6.56493 5.63672 6.83907 5.63672 7.12854C5.63672 8.16407 6.47619 9.00354 7.51172 9.00354C7.80119 9.00354 8.07533 8.93794 8.3201 8.82081L5.81945 6.32016ZM6.70334 5.43627L9.20399 7.93692C9.32113 7.69215 9.38672 7.41801 9.38672 7.12854C9.38672 6.09301 8.54725 5.25354 7.51172 5.25354C7.22225 5.25354 6.94811 5.31914 6.70334 5.43627ZM4.38672 7.12854C4.38672 5.40265 5.78583 4.00354 7.51172 4.00354C9.23761 4.00354 10.6367 5.40265 10.6367 7.12854C10.6367 8.85443 9.23761 10.2535 7.51172 10.2535C5.78583 10.2535 4.38672 8.85443 4.38672 7.12854Z" fill="black"/>
</g>
<defs>
<clipPath id="clip0_1121_1037">
<rect width="14" height="14" fill="white" transform="translate(0.511719 0.12854)"/>
</clipPath>
</defs>
</svg>
