<svg width="15" height="15" viewBox="0 0 15 15" fill="currentColor" xmlns="http://www.w3.org/2000/svg">
<g clip-path="url(#clip0_1121_723)">
<path fill-rule="evenodd" clip-rule="evenodd" d="M6.50004 2.15148C6.50004 1.01988 7.41738 0.102539 8.54898 0.102539C9.68058 0.102539 10.5979 1.01988 10.5979 2.15148C10.5979 3.28308 9.68058 4.20042 8.54898 4.20042C7.41738 4.20042 6.50004 3.28308 6.50004 2.15148ZM10.7233 8.85699L10.1709 6.34157C9.99182 5.52598 9.26931 4.94491 8.43429 4.94491C7.45233 4.94491 6.65629 5.74095 6.65629 6.72292V8.59698C6.65629 9.56348 7.4398 10.347 8.40629 10.347H10.1179C10.9497 10.347 11.3603 10.3971 11.6391 10.6506C11.9146 10.9011 12.2524 11.5476 12.2524 13.3488C12.2524 13.763 12.5882 14.0988 13.0024 14.0988C13.4166 14.0988 13.7524 13.763 13.7524 13.3488C13.7524 11.4774 13.4259 10.248 12.6482 9.54074C12.0714 9.01626 11.352 8.8882 10.7233 8.85699ZM2.27362 10.2128C2.12558 8.7759 3.17035 7.4911 4.60718 7.34306C5.01922 7.30061 5.31882 6.93218 5.27637 6.52014C5.23392 6.10811 4.86548 5.80852 4.45345 5.85097C2.19256 6.08391 0.548573 8.10555 0.781515 10.3665C1.01446 12.6274 3.03611 14.2714 5.29701 14.0384C6.5812 13.9061 7.66663 13.1958 8.32085 12.1953C8.54754 11.8486 8.45026 11.3838 8.10358 11.1571C7.75689 10.9304 7.29209 11.0277 7.06541 11.3744C6.64792 12.0129 5.9589 12.4623 5.14328 12.5463C3.70645 12.6944 2.42166 11.6496 2.27362 10.2128Z" fill="black"/>
</g>
<defs>
<clipPath id="clip0_1121_723">
<rect width="14" height="14" fill="white" transform="translate(0.511719 0.0987549)"/>
</clipPath>
</defs>
</svg>
