<svg width="15" height="15" viewBox="0 0 15 15" fill="currentColor" xmlns="http://www.w3.org/2000/svg">
<g clip-path="url(#clip0_1121_719)">
<path fill-rule="evenodd" clip-rule="evenodd" d="M9.8313 3.05676C9.64345 3.05676 9.46557 3.14125 9.34688 3.28684C9.22818 3.43244 9.18127 3.6237 9.21912 3.80769L9.57344 5.53005L7.55093 7.09008L6.49038 5.52539H6.56411C6.90929 5.52539 7.18911 5.24556 7.18911 4.90039C7.18911 4.55521 6.90929 4.27539 6.56411 4.27539H4.27617C3.931 4.27539 3.65117 4.55521 3.65117 4.90039C3.65117 5.24556 3.931 5.52539 4.27617 5.52539H4.9803L6.5593 7.85497L5.74499 8.48307C5.20857 8.02628 4.51319 7.75061 3.75343 7.75061C2.05598 7.75061 0.679932 9.12666 0.679932 10.8241C0.679932 12.5216 2.05598 13.8976 3.75343 13.8976C5.45087 13.8976 6.82692 12.5216 6.82692 10.8241C6.82692 10.3379 6.71402 9.87802 6.51299 9.46933L7.66082 8.58397C7.69793 8.56828 7.73406 8.54875 7.76868 8.52529C7.82551 8.48677 7.87399 8.44054 7.91367 8.38894L9.85372 6.89251L10.0794 7.98971C8.97325 8.45493 8.19653 9.54881 8.19653 10.8241C8.19653 12.5216 9.57258 13.8976 11.27 13.8976C12.9675 13.8976 14.3435 12.5216 14.3435 10.8241C14.3435 9.13882 12.9871 7.77034 11.3064 7.75082L10.5979 4.30676H10.5993H10.6024H10.6056H10.6087H10.6118H10.615H10.6181H10.6213H10.6245H10.6277H10.6309H10.6341H10.6374H10.6406H10.6439H10.6471H10.6504H10.6537H10.657H10.6603H10.6637H10.667H10.6704H10.6738H10.6771H10.6805H10.6839H10.6874H10.6908H10.6943H10.6977H10.7012H10.7047H10.7082H10.7117H10.7152H10.7188H10.7224H10.7259H10.7295H10.7331H10.7367H10.7404H10.744H10.7477H10.7513H10.755H10.7587H10.7625H10.7662H10.7699H10.7737H10.7775H10.7813H10.7851H10.7889H10.7927H10.7966H10.8005H10.8044H10.8083H10.8122H10.8161H10.8201H10.824H10.828H10.832H10.836H10.84H10.8441H10.8481H10.8522H10.8563H10.8604H10.8646H10.8687H10.8729H10.877H10.8812H10.8854H10.8897H10.8939H10.8982H10.9025H10.9068H10.9111H10.9154H10.9198H10.9241H10.9285H10.9329H10.9374H10.9418H10.9463H10.9507H10.9552H10.9597H10.9643H10.9688H10.9734H10.978H10.9826H10.9872H10.9919H10.9965H11.0012H11.0059H11.0106H11.0154H11.0201H11.0249H11.0297H11.0345H11.0393H11.0442H11.0491H11.054H11.0589H11.0638H11.0688H11.0738H11.0788H11.0838H11.0888H11.0939H11.0989H11.104H11.1092H11.1143H11.1195H11.1246H11.1298H11.1351H11.1403H11.1456H11.1509H11.1562H11.1615H11.1668H11.1722H11.1776H11.183H11.1885H11.1939H11.1994H11.2049H11.2104H11.216H11.2215H11.2271H11.2327H11.2384H11.244H11.2497H11.2554H11.2611H11.2669H11.2727H11.2784H11.2843H11.2901H11.296H11.3019H11.3078H11.3137H11.3197H11.3256H11.3316H11.3377H11.3437H11.3498H11.3559H11.362H11.3682H11.3743H11.3805H11.3867H11.393H11.3992H11.4055H11.4119H11.4182H11.4246H11.431H11.4374H11.4438H11.4503H11.4568H11.4633H11.4698H11.4764H11.483H11.4896H11.4962H11.5029H11.5096H11.5163H11.5231H11.5298H11.5366H11.5435H11.5503H11.5572H11.5641H11.571H11.578H11.5849H11.5919H11.599C12.017 4.30676 12.1712 4.45358 12.2428 4.55656C12.3399 4.69622 12.3686 4.88586 12.3578 5.00817C12.3274 5.35201 12.5816 5.65536 12.9254 5.68572C13.2692 5.71608 13.5726 5.46195 13.6029 5.11811C13.6328 4.77996 13.5722 4.27891 13.2691 3.84299C12.9405 3.3704 12.3837 3.05676 11.599 3.05676H11.5919H11.5849H11.578H11.571H11.5641H11.5572H11.5503H11.5435H11.5366H11.5298H11.5231H11.5163H11.5096H11.5029H11.4962H11.4896H11.483H11.4764H11.4698H11.4633H11.4568H11.4503H11.4438H11.4374H11.431H11.4246H11.4182H11.4119H11.4055H11.3992H11.393H11.3867H11.3805H11.3743H11.3682H11.362H11.3559H11.3498H11.3437H11.3377H11.3316H11.3256H11.3197H11.3137H11.3078H11.3019H11.296H11.2901H11.2843H11.2784H11.2727H11.2669H11.2611H11.2554H11.2497H11.244H11.2384H11.2327H11.2271H11.2215H11.216H11.2104H11.2049H11.1994H11.1939H11.1885H11.183H11.1776H11.1722H11.1668H11.1615H11.1562H11.1509H11.1456H11.1403H11.1351H11.1298H11.1246H11.1195H11.1143H11.1092H11.104H11.0989H11.0939H11.0888H11.0838H11.0788H11.0738H11.0688H11.0638H11.0589H11.054H11.0491H11.0442H11.0393H11.0345H11.0297H11.0249H11.0201H11.0154H11.0106H11.0059H11.0012H10.9965H10.9919H10.9872H10.9826H10.978H10.9734H10.9688H10.9643H10.9597H10.9552H10.9507H10.9463H10.9418H10.9374H10.9329H10.9285H10.9241H10.9198H10.9154H10.9111H10.9068H10.9025H10.8982H10.8939H10.8897H10.8854H10.8812H10.877H10.8729H10.8687H10.8646H10.8604H10.8563H10.8522H10.8481H10.8441H10.84H10.836H10.832H10.828H10.824H10.8201H10.8161H10.8122H10.8083H10.8044H10.8005H10.7966H10.7927H10.7889H10.7851H10.7813H10.7775H10.7737H10.7699H10.7662H10.7625H10.7587H10.755H10.7513H10.7477H10.744H10.7404H10.7367H10.7331H10.7295H10.7259H10.7224H10.7188H10.7152H10.7117H10.7082H10.7047H10.7012H10.6977H10.6943H10.6908H10.6874H10.6839H10.6805H10.6771H10.6738H10.6704H10.667H10.6637H10.6603H10.657H10.6537H10.6504H10.6471H10.6439H10.6406H10.6374H10.6341H10.6309H10.6277H10.6245H10.6213H10.6181H10.615H10.6118H10.6087H10.6056H10.6024H10.5993H10.5962H10.5932H10.5901H10.587H10.584H10.5809H10.5779H10.5749H10.5719H10.5689H10.5659H10.5629H10.56H10.557H10.5541H10.5511H10.5482H10.5453H10.5424H10.5395H10.5366H10.5338H10.5309H10.528H10.5252H10.5224H10.5195H10.5167H10.5139H10.5111H10.5083H10.5056H10.5028H10.5H10.4973H10.4945H10.4918H10.489H10.4863H10.4836H10.4809H10.4782H10.4755H10.4729H10.4702H10.4675H10.4649H10.4622H10.4596H10.4569H10.4543H10.4517H10.4491H10.4465H10.4439H10.4413H10.4387H10.4362H10.4336H10.431H10.4285H10.4259H10.4234H10.4209H10.4183H10.4158H10.4133H10.4108H10.4083H10.4058H10.4033H10.4008H10.3984H10.3959H10.3934H10.391H10.3885H10.3861H10.3836H10.3812H10.3787H10.3763H10.3739H10.3715H10.3691H10.3667H10.3643H10.3619H10.3595H10.3571H10.3547H10.3523H10.35H10.3476H10.3452H10.3429H10.3405H10.3382H10.3358H10.3335H10.3311H10.3288H10.3265H10.3241H10.3218H10.3195H10.3172H10.3148H10.3125H10.3102H10.3079H10.3056H10.3033H10.301H10.2987H10.2964H10.2941H10.2919H10.2896H10.2873H10.285H10.2827H10.2805H10.2782H10.2759H10.2737H10.2714H10.2691H10.2669H10.2646H10.2623H10.2601H10.2578H10.2556H10.2533H10.2511H10.2488H10.2466H10.2443H10.2421H10.2398H10.2376H10.2353H10.2331H10.2309H10.2286H10.2264H10.2241H10.2219H10.2196H10.2174H10.2152H10.2129H10.2107H10.2084H10.2062H10.204H10.2017H10.1995H10.1972H10.195H10.1927H10.1905H10.1882H10.186H10.1838H10.1815H10.1793H10.177H10.1748H10.1725H10.1702H10.168H10.1657H10.1635H10.1612H10.1589H10.1567H10.1544H10.1521H10.1499H10.1476H10.1453H10.143H10.1408H10.1385H10.1362H10.1339H10.1316H10.1293H10.127H10.1247H10.1224H10.1201H10.1178H10.1155H10.1132H10.1109H10.1086H10.1062H10.1039H10.1016H10.0992H10.0969H10.0946H10.0922H10.0899H10.0875H10.0852H10.0828H10.0804H10.078H10.0757H10.0733H10.0709H10.0685H10.0661H10.0637H10.0613H10.0589H10.0565H10.0541H10.0517H10.0492H10.0468H10.0443H10.0419H10.0395H10.037H10.0345H10.0321H10.0296H10.0271H10.0246H10.0221H10.0196H10.0171H10.0146H10.0121H10.0096H10.007H10.0045H10.002H9.99942H9.99686H9.9943H9.99173H9.98915H9.98657H9.98397H9.98138H9.97877H9.97615H9.97353H9.9709H9.96827H9.96562H9.96297H9.96031H9.95764H9.95497H9.95228H9.94959H9.94689H9.94418H9.94147H9.93874H9.93601H9.93326H9.93051H9.92775H9.92499H9.92221H9.91942H9.91663H9.91382H9.91101H9.90818H9.90535H9.90251H9.89966H9.8968H9.89393H9.89105H9.88816H9.88526H9.88235H9.87943H9.8765H9.87356H9.87061H9.86765H9.86468H9.8617H9.85871H9.85571H9.85269H9.84967H9.84664H9.84359H9.84053H9.83747H9.83439H9.8313ZM3.75343 9.00061C4.10728 9.00061 4.43759 9.10139 4.71721 9.27583L3.41637 10.2793C3.14306 10.4901 3.09239 10.8826 3.30321 11.1559C3.51403 11.4292 3.9065 11.4799 4.17982 11.269L5.48798 10.26C5.54572 10.4376 5.57692 10.6273 5.57692 10.8241C5.57692 11.8312 4.76052 12.6476 3.75343 12.6476C2.74634 12.6476 1.92993 11.8312 1.92993 10.8241C1.92993 9.81701 2.74634 9.00061 3.75343 9.00061ZM10.3398 9.25539L10.6818 10.9181C10.7514 11.2562 11.0818 11.4739 11.4199 11.4043C11.758 11.3348 11.9757 11.0043 11.9062 10.6662L11.5686 9.02492C12.4336 9.16739 13.0935 9.91868 13.0935 10.8241C13.0935 11.8312 12.2771 12.6476 11.27 12.6476C10.2629 12.6476 9.44653 11.8312 9.44653 10.8241C9.44653 10.1569 9.80497 9.57322 10.3398 9.25539Z" fill="black"/>
</g>
<defs>
<clipPath id="clip0_1121_719">
<rect width="14" height="14" fill="white" transform="translate(0.511719 0.0987549)"/>
</clipPath>
</defs>
</svg>
