<svg width="15" height="15" viewBox="0 0 15 15" fill="none" xmlns="http://www.w3.org/2000/svg">
<g clip-path="url(#clip0_1121_1047)">
<path fill-rule="evenodd" clip-rule="evenodd" d="M11.3579 0.547729C10.6505 0.547729 10.0272 0.748238 9.58126 1.19418C9.13533 1.64011 8.93482 2.26339 8.93482 2.97081C8.93482 3.67823 9.13533 4.3015 9.58126 4.74744C10.0272 5.19337 10.6505 5.39388 11.3579 5.39388C12.0653 5.39388 12.6886 5.19337 13.1345 4.74744C13.5804 4.3015 13.7809 3.67823 13.7809 2.97081C13.7809 2.26339 13.5804 1.64011 13.1345 1.19418C12.6886 0.748238 12.0653 0.547729 11.3579 0.547729ZM3.66551 0.601418C2.95809 0.601418 2.33482 0.801927 1.88888 1.24786C1.44294 1.6938 1.24243 2.31708 1.24243 3.02449C1.24243 3.73191 1.44294 4.35519 1.88888 4.80112C2.33482 5.24706 2.95809 5.44757 3.66551 5.44757C4.37293 5.44757 4.9962 5.24706 5.44214 4.80112C5.88808 4.35519 6.08859 3.73191 6.08859 3.02449C6.08859 2.31708 5.88808 1.6938 5.44214 1.24786C4.9962 0.801927 4.37293 0.601418 3.66551 0.601418ZM6.21402 6.64995C5.27337 6.36575 4.49937 6.20676 3.69884 6.20353C2.89811 6.20031 2.10265 6.35299 1.11747 6.64984C0.906268 6.71348 0.761719 6.908 0.761719 7.12858V7.17309V7.1731C0.761687 8.63086 0.761651 10.2433 1.07743 11.4938C1.23819 12.1304 1.49256 12.7261 1.9147 13.167C2.35258 13.6243 2.93643 13.8786 3.66558 13.8786C4.39473 13.8786 4.97859 13.6243 5.41646 13.167C5.8386 12.7261 6.09297 12.1304 6.25372 11.4938C6.56948 10.2433 6.56945 8.63091 6.56942 7.17317L6.56941 7.12858C6.56941 6.90814 6.42505 6.71371 6.21402 6.64995ZM13.8856 13.4881C12.9244 13.7342 12.147 13.8618 11.3569 13.8605C10.5674 13.8591 9.7909 13.7289 8.83232 13.4887C8.60987 13.433 8.45386 13.2331 8.45386 13.0037V12.9612C8.45383 11.5016 8.4538 9.8638 8.76893 8.58807C8.92907 7.9398 9.18215 7.3319 9.60207 6.88097C10.0383 6.41251 10.6233 6.14777 11.3577 6.14777C12.092 6.14777 12.6771 6.41251 13.1133 6.88097C13.5332 7.3319 13.7863 7.9398 13.9465 8.58807C14.2616 9.8638 14.2616 11.5016 14.2615 12.9612V13.0037C14.2615 13.2321 14.1068 13.4315 13.8856 13.4881Z" fill="black"/>
</g>
<defs>
<clipPath id="clip0_1121_1047">
<rect width="14" height="14" fill="white" transform="translate(0.511719 0.12854)"/>
</clipPath>
</defs>
</svg>
