<svg width="15" height="15" viewBox="0 0 15 15" fill="currentColor" xmlns="http://www.w3.org/2000/svg">
<g clip-path="url(#clip0_1121_729)">
<path fill-rule="evenodd" clip-rule="evenodd" d="M6.28674 2.44166C7.47255 2.1297 8.77455 2.26737 9.91949 2.9284C12.2227 4.25816 13.0118 7.20327 11.6821 9.50648L11.602 9.64522L11.2061 9.41667C11.0253 9.31227 10.7986 9.33123 10.6376 9.46422C10.4767 9.59721 10.4153 9.81622 10.4837 10.0135L11.0065 11.5212C11.0879 11.756 11.3293 11.8953 11.5732 11.8484L13.1403 11.5474C13.3454 11.508 13.5044 11.3453 13.5391 11.1394C13.5737 10.9335 13.4768 10.7277 13.296 10.6233L12.901 10.3953L12.9811 10.2565C14.7251 7.23583 13.6901 3.37333 10.6695 1.62936C9.16837 0.762691 7.45779 0.582549 5.90511 0.991024C5.50452 1.09641 5.26522 1.50657 5.3706 1.90715C5.47599 2.30774 5.88615 2.54704 6.28674 2.44166ZM2.01164 3.99478L1.59876 3.7564C1.41793 3.652 1.32102 3.44622 1.3557 3.24032C1.39039 3.03444 1.54937 2.87176 1.75442 2.83236L3.34826 2.52615C3.59223 2.47927 3.83361 2.61863 3.91501 2.85335L4.44673 4.38678C4.51514 4.58405 4.45376 4.80306 4.29279 4.93605C4.13182 5.06904 3.90516 5.08801 3.72433 4.9836L3.31076 4.74482C2.024 7.0399 2.81869 9.94964 5.10399 11.2691C6.26263 11.9381 7.58221 12.0711 8.7794 11.7444C9.179 11.6354 9.59133 11.871 9.70036 12.2706C9.80939 12.6702 9.57382 13.0825 9.17422 13.1915C7.60679 13.6192 5.87317 13.4453 4.35399 12.5682C1.35124 10.8345 0.310725 7.00734 2.01164 3.99478ZM6.54938 5.11856C5.60314 5.11856 4.83606 5.88563 4.83606 6.83187C4.83606 7.55568 5.2746 8.17665 5.78318 8.66527C6.2969 9.15883 6.92388 9.55727 7.38266 9.83375C7.46203 9.88157 7.56136 9.88157 7.64073 9.83375C8.09951 9.55727 8.72649 9.15883 9.24021 8.66527C9.74879 8.17665 10.1873 7.55568 10.1873 6.83187C10.1873 5.88563 9.42025 5.11856 8.47401 5.11856C8.11746 5.11856 7.78599 5.22768 7.5117 5.41417C7.2374 5.22768 6.90593 5.11856 6.54938 5.11856Z" fill="black"/>
</g>
<defs>
<clipPath id="clip0_1121_729">
<rect width="14" height="14" fill="white" transform="translate(0.511719 0.0987549)"/>
</clipPath>
</defs>
</svg>
