<svg width="20" height="20" viewBox="0 0 20 20" fill="currentColor" xmlns="http://www.w3.org/2000/svg">
<path d="M10 9.25V5.75M10 14.25C10 13.6642 10 13.3358 10 12.75M11.1912 17.4949L17.4949 11.1912C17.9119 10.7742 18.1204 10.5658 18.1985 10.3254C18.2672 10.1139 18.2672 9.88611 18.1985 9.67465C18.1204 9.43425 17.9119 9.22577 17.4949 8.80882L11.1912 2.50507C10.7742 2.08812 10.5658 1.87964 10.3254 1.80153C10.1139 1.73282 9.88611 1.73282 9.67465 1.80153C9.43425 1.87964 9.22577 2.08812 8.80882 2.50507L2.50507 8.80882C2.08812 9.22577 1.87964 9.43425 1.80153 9.67465C1.73282 9.88611 1.73282 10.1139 1.80153 10.3254C1.87964 10.5658 2.08812 10.7742 2.50507 11.1912L8.80882 17.4949C9.22577 17.9119 9.43425 18.1204 9.67465 18.1985C9.88611 18.2672 10.1139 18.2672 10.3254 18.1985C10.5658 18.1204 10.7742 17.9119 11.1912 17.4949Z" stroke="black" stroke-width="1.5" stroke-linecap="round" stroke-linejoin="round"/>
</svg>
