<svg width="20" height="20" viewBox="0 0 20 20" fill="currentColor" xmlns="http://www.w3.org/2000/svg">
<mask id="path-1-inside-1_4_11812" fill="white">
<path d="M4.75 3.25C4.75 4.07843 4.07843 4.75 3.25 4.75C2.42157 4.75 1.75 4.07843 1.75 3.25C1.75 2.42157 2.42157 1.75 3.25 1.75C4.07843 1.75 4.75 2.42157 4.75 3.25Z"/>
<path d="M11.5 3.25C11.5 4.07843 10.8284 4.75 10 4.75C9.17157 4.75 8.5 4.07843 8.5 3.25C8.5 2.42157 9.17157 1.75 10 1.75C10.8284 1.75 11.5 2.42157 11.5 3.25Z"/>
<path d="M18.25 3.25C18.25 4.07843 17.5784 4.75 16.75 4.75C15.9216 4.75 15.25 4.07843 15.25 3.25C15.25 2.42157 15.9216 1.75 16.75 1.75C17.5784 1.75 18.25 2.42157 18.25 3.25Z"/>
<path d="M4.75 10C4.75 10.8284 4.07843 11.5 3.25 11.5C2.42157 11.5 1.75 10.8284 1.75 10C1.75 9.17157 2.42157 8.5 3.25 8.5C4.07843 8.5 4.75 9.17157 4.75 10Z"/>
<path d="M11.5 10C11.5 10.8284 10.8284 11.5 10 11.5C9.17157 11.5 8.5 10.8284 8.5 10C8.5 9.17157 9.17157 8.5 10 8.5C10.8284 8.5 11.5 9.17157 11.5 10Z"/>
<path d="M18.25 10C18.25 10.8284 17.5784 11.5 16.75 11.5C15.9216 11.5 15.25 10.8284 15.25 10C15.25 9.17157 15.9216 8.5 16.75 8.5C17.5784 8.5 18.25 9.17157 18.25 10Z"/>
<path d="M4.75 16.75C4.75 17.5784 4.07843 18.25 3.25 18.25C2.42157 18.25 1.75 17.5784 1.75 16.75C1.75 15.9216 2.42157 15.25 3.25 15.25C4.07843 15.25 4.75 15.9216 4.75 16.75Z"/>
<path d="M11.5 16.75C11.5 17.5784 10.8284 18.25 10 18.25C9.17157 18.25 8.5 17.5784 8.5 16.75C8.5 15.9216 9.17157 15.25 10 15.25C10.8284 15.25 11.5 15.9216 11.5 16.75Z"/>
<path d="M18.25 16.75C18.25 17.5784 17.5784 18.25 16.75 18.25C15.9216 18.25 15.25 17.5784 15.25 16.75C15.25 15.9216 15.9216 15.25 16.75 15.25C17.5784 15.25 18.25 15.9216 18.25 16.75Z"/>
</mask>
<path d="M4.75 3.25C4.75 4.07843 4.07843 4.75 3.25 4.75C2.42157 4.75 1.75 4.07843 1.75 3.25C1.75 2.42157 2.42157 1.75 3.25 1.75C4.07843 1.75 4.75 2.42157 4.75 3.25Z" stroke="black" stroke-width="3" stroke-linejoin="round" mask="url(#path-1-inside-1_4_11812)"/>
<path d="M11.5 3.25C11.5 4.07843 10.8284 4.75 10 4.75C9.17157 4.75 8.5 4.07843 8.5 3.25C8.5 2.42157 9.17157 1.75 10 1.75C10.8284 1.75 11.5 2.42157 11.5 3.25Z" stroke="black" stroke-width="3" stroke-linejoin="round" mask="url(#path-1-inside-1_4_11812)"/>
<path d="M18.25 3.25C18.25 4.07843 17.5784 4.75 16.75 4.75C15.9216 4.75 15.25 4.07843 15.25 3.25C15.25 2.42157 15.9216 1.75 16.75 1.75C17.5784 1.75 18.25 2.42157 18.25 3.25Z" stroke="black" stroke-width="3" stroke-linejoin="round" mask="url(#path-1-inside-1_4_11812)"/>
<path d="M4.75 10C4.75 10.8284 4.07843 11.5 3.25 11.5C2.42157 11.5 1.75 10.8284 1.75 10C1.75 9.17157 2.42157 8.5 3.25 8.5C4.07843 8.5 4.75 9.17157 4.75 10Z" stroke="black" stroke-width="3" stroke-linejoin="round" mask="url(#path-1-inside-1_4_11812)"/>
<path d="M11.5 10C11.5 10.8284 10.8284 11.5 10 11.5C9.17157 11.5 8.5 10.8284 8.5 10C8.5 9.17157 9.17157 8.5 10 8.5C10.8284 8.5 11.5 9.17157 11.5 10Z" stroke="black" stroke-width="3" stroke-linejoin="round" mask="url(#path-1-inside-1_4_11812)"/>
<path d="M18.25 10C18.25 10.8284 17.5784 11.5 16.75 11.5C15.9216 11.5 15.25 10.8284 15.25 10C15.25 9.17157 15.9216 8.5 16.75 8.5C17.5784 8.5 18.25 9.17157 18.25 10Z" stroke="black" stroke-width="3" stroke-linejoin="round" mask="url(#path-1-inside-1_4_11812)"/>
<path d="M4.75 16.75C4.75 17.5784 4.07843 18.25 3.25 18.25C2.42157 18.25 1.75 17.5784 1.75 16.75C1.75 15.9216 2.42157 15.25 3.25 15.25C4.07843 15.25 4.75 15.9216 4.75 16.75Z" stroke="black" stroke-width="3" stroke-linejoin="round" mask="url(#path-1-inside-1_4_11812)"/>
<path d="M11.5 16.75C11.5 17.5784 10.8284 18.25 10 18.25C9.17157 18.25 8.5 17.5784 8.5 16.75C8.5 15.9216 9.17157 15.25 10 15.25C10.8284 15.25 11.5 15.9216 11.5 16.75Z" stroke="black" stroke-width="3" stroke-linejoin="round" mask="url(#path-1-inside-1_4_11812)"/>
<path d="M18.25 16.75C18.25 17.5784 17.5784 18.25 16.75 18.25C15.9216 18.25 15.25 17.5784 15.25 16.75C15.25 15.9216 15.9216 15.25 16.75 15.25C17.5784 15.25 18.25 15.9216 18.25 16.75Z" stroke="black" stroke-width="3" stroke-linejoin="round" mask="url(#path-1-inside-1_4_11812)"/>
</svg>
