<svg width="20" height="20" viewBox="0 0 20 20" fill="currentColor" xmlns="http://www.w3.org/2000/svg">
<path d="M1.75 11.75V16.25C1.75 17.3546 2.64543 18.25 3.75 18.25H16.25C17.3546 18.25 18.25 17.3546 18.25 16.25V11.75M1.75 11.75L1.74999 4.95009C1.74999 3.82999 1.74999 3.26993 1.96798 2.84211C2.15972 2.46579 2.46569 2.15982 2.84201 1.96808C3.26983 1.75009 3.82989 1.75009 4.94999 1.75009L15.05 1.7501C16.1701 1.7501 16.7302 1.7501 17.158 1.96808C17.5343 2.15983 17.8403 2.46579 18.032 2.84212C18.25 3.26994 18.25 3.82999 18.25 4.9501V11.75M1.75 11.75H4.51393C5.27147 11.75 5.964 12.178 6.30278 12.8556L6.44721 13.1444C6.78599 13.822 7.47852 14.25 8.23607 14.25H11.7639C12.5215 14.25 13.214 13.822 13.5528 13.1444L13.6972 12.8556C14.036 12.178 14.7285 11.75 15.4861 11.75H18.25" stroke="black" stroke-width="1.5" stroke-linejoin="round"/>
</svg>
