<svg width="20" height="20" viewBox="0 0 20 20" fill="currentColor" xmlns="http://www.w3.org/2000/svg">
<path d="M4.75 7.75V12.25M18.25 8.75V11.25M4.95 15.25H13.05C14.1701 15.25 14.7302 15.25 15.158 15.032C15.5343 14.8403 15.8403 14.5343 16.032 14.158C16.25 13.7302 16.25 13.1701 16.25 12.05V7.95C16.25 6.82989 16.25 6.26984 16.032 5.84202C15.8403 5.46569 15.5343 5.15973 15.158 4.96799C14.7302 4.75 14.1701 4.75 13.05 4.75H4.95C3.82989 4.75 3.26984 4.75 2.84202 4.96799C2.46569 5.15973 2.15973 5.46569 1.96799 5.84202C1.75 6.26984 1.75 6.82989 1.75 7.95V12.05C1.75 13.1701 1.75 13.7302 1.96799 14.158C2.15973 14.5343 2.46569 14.8403 2.84202 15.032C3.26984 15.25 3.82989 15.25 4.95 15.25Z" stroke="black" stroke-width="1.5" stroke-linecap="round" stroke-linejoin="round"/>
</svg>
