<svg width="20" height="20" viewBox="0 0 20 20" fill="currentColor" xmlns="http://www.w3.org/2000/svg">
<path d="M4.875 15.25C3.82559 15.25 3.30088 15.25 2.89489 15.058C2.4766 14.8601 2.13986 14.5234 1.94202 14.1051C1.75 13.6991 1.75 13.1744 1.75 12.125V7.875C1.75 6.82559 1.75 6.30089 1.94202 5.89489C2.13986 5.4766 2.4766 5.13986 2.89489 4.94202C3.30088 4.75 3.82559 4.75 4.875 4.75M13.125 15.25C14.1744 15.25 14.6991 15.25 15.1051 15.058C15.5234 14.8601 15.8601 14.5234 16.058 14.1051C16.25 13.6991 16.25 13.1744 16.25 12.125V7.875C16.25 6.82559 16.25 6.30089 16.058 5.89489C15.8601 5.4766 15.5234 5.13986 15.1051 4.94202C14.6991 4.75 14.1744 4.75 13.125 4.75M18.25 8.75V11.25M8.85 11.7045H5.25L9.6 3.75L9.21 8.29545H12.75L8.55 16.25L8.85 11.7045Z" stroke="black" stroke-width="1.5" stroke-linecap="round" stroke-linejoin="round"/>
</svg>
