<svg width="20" height="20" viewBox="0 0 20 20" fill="currentColor" xmlns="http://www.w3.org/2000/svg">
<path d="M10 3.74921V16.739M8.5809 16.9349L9.625 17.1878C9.7636 17.2213 9.83289 17.2381 9.90304 17.245C9.96753 17.2512 10.0325 17.2512 10.097 17.245C10.1671 17.2381 10.2364 17.2213 10.375 17.1878L11.4191 16.9349C11.7668 16.8506 11.9407 16.8085 12.1137 16.773C13.4407 16.5008 14.8093 16.5008 16.1363 16.773C16.3093 16.8085 16.4832 16.8506 16.8309 16.9349C16.9968 16.975 17.0798 16.9951 17.1467 17.0021C17.6841 17.0579 18.1686 16.677 18.241 16.142C18.25 16.0754 18.25 15.9901 18.25 15.8195V4.49843C18.25 4.258 18.25 4.13779 18.2271 4.03264C18.1618 3.7334 17.9628 3.48059 17.6871 3.34671C17.5903 3.29967 17.4733 3.27135 17.2395 3.21471C16.4857 3.0321 16.1087 2.9408 15.7307 2.87934C14.6672 2.70648 13.5828 2.70648 12.5193 2.87934C12.1413 2.9408 11.7643 3.0321 11.0105 3.21471L10.375 3.36864C10.2364 3.40221 10.1671 3.419 10.097 3.42583C10.0325 3.43211 9.96752 3.43211 9.90303 3.42583C9.83289 3.419 9.76359 3.40221 9.625 3.36864L8.98951 3.2147C8.23571 3.03209 7.8588 2.94079 7.48075 2.87933C6.41724 2.70645 5.33276 2.70644 4.26925 2.87932C3.89119 2.94077 3.51429 3.03207 2.76048 3.21467C2.52665 3.27131 2.40974 3.29963 2.31288 3.34667C2.0372 3.48055 1.83819 3.73336 1.77293 4.03262C1.75 4.13776 1.75 4.25796 1.75 4.49837V15.8195C1.75 15.9901 1.75 16.0754 1.75901 16.142C1.83135 16.677 2.31594 17.0579 2.85335 17.0021C2.92024 16.9951 3.00319 16.975 3.1691 16.9349C3.5168 16.8506 3.69065 16.8085 3.86367 16.773C5.19072 16.5008 6.55929 16.5008 7.88633 16.773C8.05935 16.8085 8.2332 16.8506 8.5809 16.9349Z" stroke="black" stroke-width="1.5" stroke-linecap="round" stroke-linejoin="round"/>
</svg>
