<svg width="20" height="20" viewBox="0 0 20 20" fill="currentColor" xmlns="http://www.w3.org/2000/svg">
<path d="M18.25 8.75V11.25M1.75 8.75L1.75 11.25M10 12.5V10M10 10H12.5M10 10V7.5M10 10H7.5M1.75 5.25V3.35C1.75 2.78995 1.75 2.50992 1.85899 2.29601C1.95487 2.10785 2.10785 1.95487 2.29601 1.85899C2.50992 1.75 2.78995 1.75 3.35 1.75H5.25M8.75 1.75H11.25M18.25 5.25V3.35C18.25 2.78995 18.25 2.50992 18.141 2.29601C18.0451 2.10785 17.8922 1.95487 17.704 1.85899C17.4901 1.75 17.2101 1.75 16.65 1.75H14.75M18.25 18.25H1.75" stroke="black" stroke-width="1.5" stroke-linecap="round" stroke-linejoin="round"/>
</svg>
