<svg width="20" height="20" viewBox="0 0 20 20" fill="currentColor" xmlns="http://www.w3.org/2000/svg">
<path d="M6.75 3.75H3.75C2.64543 3.75 1.75 4.64543 1.75 5.75V8.75M6.75 3.75H13.25M6.75 3.75V1.75M6.75 3.75V5.25M13.25 3.75H16.25C17.3546 3.75 18.25 4.64543 18.25 5.75V8.75H1.75M13.25 3.75V1.75M13.25 3.75V5.25M1.75 8.75V16.25C1.75 17.3546 2.64543 18.25 3.75 18.25H8.75M14.8437 19.25H12.75V17.1563L16.7226 13.1836C17.3008 12.6055 18.2382 12.6055 18.8164 13.1836C19.3945 13.7618 19.3945 14.6992 18.8164 15.2774L14.8437 19.25Z" stroke="black" stroke-width="1.5" stroke-linecap="round" stroke-linejoin="round"/>
</svg>
