<svg width="20" height="20" viewBox="0 0 20 20" fill="currentColor" xmlns="http://www.w3.org/2000/svg">
<path d="M12.75 16.0001H16M16 16.0001H19.25M16 16.0001V12.75M16 16.0001V19.25M6.75 3.75H3.75C2.64543 3.75 1.75 4.64543 1.75 5.75C1.75 5.75 1.75 7.57843 1.75 8.75M6.75 3.75H13.25M6.75 3.75V1.75M6.75 3.75V5.25M13.25 3.75H16.25C17.3546 3.75 18.25 4.64543 18.25 5.75V8.75C18.25 8.75 8.19365 8.75 1.75 8.75M13.25 3.75V1.75M13.25 3.75V5.25M1.75 8.75C1.75 11.6789 1.75 16.25 1.75 16.25C1.75 17.3546 2.64543 18.25 3.75 18.25H8.75" stroke="black" stroke-width="1.5" stroke-linecap="round" stroke-linejoin="round"/>
</svg>
