<svg width="20" height="20" viewBox="0 0 20 20" fill="currentColor" xmlns="http://www.w3.org/2000/svg">
<path d="M6.75 3.75H3.75C2.64543 3.75 1.75 4.64543 1.75 5.75V16.25C1.75 17.3546 2.64543 18.25 3.75 18.25H8.75M6.75 3.75H13.25M6.75 3.75V1.75M6.75 3.75V5.25M13.25 3.75H16.25C17.3546 3.75 18.25 4.64543 18.25 5.75V8.75H1.75M13.25 3.75V1.75M13.25 3.75V5.25M18.25 13.75L16 16M16 16L13.75 18.25M16 16L13.75 13.75M16 16L18.25 18.25" stroke="black" stroke-width="1.5" stroke-linecap="round" stroke-linejoin="round"/>
</svg>
