<svg width="20" height="20" viewBox="0 0 20 20" fill="none" xmlns="http://www.w3.org/2000/svg">
<path d="M1.75 7.95C1.75 6.82989 1.75 6.26984 1.96799 5.84202C2.15973 5.46569 2.46569 5.15973 2.84202 4.96799C3.26984 4.75 3.82989 4.75 4.95 4.75H6.75L7.30777 3.63446C7.4683 3.3134 7.54857 3.15287 7.66831 3.03558C7.77421 2.93187 7.90184 2.85299 8.04196 2.80465C8.20042 2.75 8.3799 2.75 8.73885 2.75H11.2611C11.6201 2.75 11.7996 2.75 11.958 2.80465C12.0982 2.85299 12.2258 2.93187 12.3317 3.03558C12.4514 3.15287 12.5317 3.3134 12.6922 3.63446L13.25 4.75H15.05C16.1701 4.75 16.7302 4.75 17.158 4.96799C17.5343 5.15973 17.8403 5.46569 18.032 5.84202C18.25 6.26984 18.25 6.8299 18.25 7.95V14.05C18.25 15.1701 18.25 15.7302 18.032 16.158C17.8403 16.5343 17.5343 16.8403 17.158 17.032C16.7302 17.25 16.1701 17.25 15.05 17.25H4.95C3.82989 17.25 3.26984 17.25 2.84202 17.032C2.46569 16.8403 2.15973 16.5343 1.96799 16.158C1.75 15.7302 1.75 15.1701 1.75 14.05V7.95Z" stroke="black" stroke-width="1.5" stroke-linejoin="round"/>
<path d="M13.25 11C13.25 12.7949 11.7949 14.25 10 14.25C8.20507 14.25 6.75 12.7949 6.75 11C6.75 9.20507 8.20507 7.75 10 7.75C11.7949 7.75 13.25 9.20507 13.25 11Z" stroke="black" stroke-width="1.5" stroke-linejoin="round"/>
</svg>
