<svg width="20" height="20" viewBox="0 0 20 20" fill="currentColor" xmlns="http://www.w3.org/2000/svg">
<path d="M18.25 10C18.25 14.5563 14.5563 18.25 10 18.25C5.44365 18.25 1.75 14.5563 1.75 10C1.75 5.44365 5.44365 1.75 10 1.75C14.5563 1.75 18.25 5.44365 18.25 10Z" stroke="black" stroke-width="1.5" stroke-linejoin="round"/>
<path d="M7.25178 9.3692C7.43402 8.77692 7.52515 8.48078 7.689 8.23639C7.83407 8.02002 8.02002 7.83407 8.23639 7.689C8.48078 7.52515 8.77692 7.43402 9.3692 7.25178L14.25 5.75L12.7482 10.6308C12.566 11.2231 12.4749 11.5192 12.311 11.7636C12.1659 11.98 11.98 12.1659 11.7636 12.311C11.5192 12.4749 11.2231 12.566 10.6308 12.7482L5.75 14.25L7.25178 9.3692Z" stroke="black" stroke-width="1.5" stroke-linejoin="round"/>
</svg>
