<svg width="20" height="20" viewBox="0 0 20 20" fill="currentColor" xmlns="http://www.w3.org/2000/svg">
<path d="M2.75 13.75V5.95C2.75 4.82989 2.75 4.26984 2.96799 3.84202C3.15973 3.46569 3.46569 3.15973 3.84202 2.96799C4.26984 2.75 4.82989 2.75 5.95 2.75H14.05C15.1701 2.75 15.7302 2.75 16.158 2.96799C16.5343 3.15973 16.8403 3.46569 17.032 3.84202C17.25 4.26984 17.25 4.8299 17.25 5.95V6.75959M11.75 15.25H8.65139C8.08825 15.25 7.56237 14.9686 7.25 14.5C6.93763 14.0314 6.41175 13.75 5.84861 13.75H1.75V14.05C1.75 15.1701 1.75 15.7302 1.96799 16.158C2.15973 16.5343 2.46569 16.8403 2.84202 17.032C3.26984 17.25 3.8299 17.25 4.95 17.25H11.7596M13.35 18.25H16.65C17.2101 18.25 17.4901 18.25 17.704 18.141C17.8922 18.0451 18.0451 17.8922 18.141 17.704C18.25 17.4901 18.25 17.2101 18.25 16.65V8.35C18.25 7.78995 18.25 7.50992 18.141 7.29601C18.0451 7.10785 17.8922 6.95487 17.704 6.85899C17.4901 6.75 17.2101 6.75 16.65 6.75H13.35C12.7899 6.75 12.5099 6.75 12.296 6.85899C12.1078 6.95487 11.9549 7.10785 11.859 7.29601C11.75 7.50992 11.75 7.78995 11.75 8.35V16.65C11.75 17.2101 11.75 17.4901 11.859 17.704C11.9549 17.8922 12.1078 18.0451 12.296 18.141C12.5099 18.25 12.7899 18.25 13.35 18.25Z" stroke="black" stroke-width="1.5" stroke-linejoin="round"/>
</svg>
