<svg width="20" height="20" viewBox="0 0 20 20" fill="none" xmlns="http://www.w3.org/2000/svg">
<path d="M18.25 7.75H1.75M15.25 3L10 7.75L4.75 3M17.9 6.84844L15.7161 3.52681C15.5461 3.24354 15.4611 3.10191 15.3441 2.99903C15.2406 2.90799 15.1194 2.83934 14.988 2.7974C14.8396 2.75 14.6744 2.75 14.3441 2.75H5.6559C5.32556 2.75 5.16039 2.75 5.01197 2.7974C4.88064 2.83934 4.75939 2.90799 4.65585 2.99903C4.53885 3.10191 4.45387 3.24354 4.28391 3.52681L2.1 6.84844C1.90433 7.17456 1.80355 7.33762 1.77 7.51059C1.74034 7.66347 1.74793 7.82117 1.78999 7.97111C1.83758 8.14076 1.94831 8.29527 2.17 8.60429L8.69994 16.16C9.13861 16.7715 9.35795 17.0717 9.62964 17.18C9.86744 17.2748 10.1326 17.2748 10.3704 17.18C10.642 17.0717 10.8614 16.7715 11.3001 16.16L17.83 8.60429C18.0517 8.29527 18.1624 8.14076 18.21 7.97111C18.2521 7.82117 18.2597 7.66347 18.23 7.51059C18.1964 7.33762 18.0957 7.17456 17.9 6.84844Z" stroke="black" stroke-width="1.5" stroke-linecap="round" stroke-linejoin="round"/>
</svg>
