<svg width="20" height="20" viewBox="0 0 20 20" fill="none" xmlns="http://www.w3.org/2000/svg">
<path d="M4.95 10H15.05M4.95 10C3.82989 10 3.26984 10 2.84202 9.78201C2.46569 9.59027 2.15973 9.28431 1.96799 8.90798C1.75 8.48016 1.75 7.92011 1.75 6.8V6.45C1.75 5.3299 1.75 4.76984 1.96799 4.34202C2.15973 3.96569 2.46569 3.65973 2.84202 3.46799C3.26984 3.25 3.82989 3.25 4.95 3.25H15.05C16.1701 3.25 16.7302 3.25 17.158 3.46799C17.5343 3.65973 17.8403 3.96569 18.032 4.34202C18.25 4.76984 18.25 5.32989 18.25 6.45V6.8C18.25 7.9201 18.25 8.48016 18.032 8.90798C17.8403 9.28431 17.5343 9.59027 17.158 9.78201C16.7302 10 16.1701 10 15.05 10M4.95 10C3.82989 10 3.26984 10 2.84202 10.218C2.46569 10.4097 2.15973 10.7157 1.96799 11.092C1.75 11.5198 1.75 12.0799 1.75 13.2V13.55C1.75 14.6701 1.75 15.2302 1.96799 15.658C2.15973 16.0343 2.46569 16.3403 2.84202 16.532C3.26984 16.75 3.82989 16.75 4.95 16.75H15.05C16.1701 16.75 16.7302 16.75 17.158 16.532C17.5343 16.3403 17.8403 16.0343 18.032 15.658C18.25 15.2302 18.25 14.6701 18.25 13.55V13.2C18.25 12.0799 18.25 11.5198 18.032 11.092C17.8403 10.7157 17.5343 10.4097 17.158 10.218C16.7302 10 16.1701 10 15.05 10M4.75 6.7478L7.25 6.74948M4.75 13.25L7.25 13.2517" stroke="black" stroke-width="1.5" stroke-linecap="round" stroke-linejoin="round"/>
</svg>
