<svg width="20" height="20" viewBox="0 0 20 20" fill="currentColor" xmlns="http://www.w3.org/2000/svg">
<mask id="path-1-inside-1_4_11658" fill="white">
<path d="M12.75 4.75C11.9216 4.75 11.25 4.07843 11.25 3.25C11.25 2.42157 11.9216 1.75 12.75 1.75C13.5784 1.75 14.25 2.42157 14.25 3.25C14.25 4.07843 13.5784 4.75 12.75 4.75Z"/>
<path d="M12.75 11.5C11.9216 11.5 11.25 10.8284 11.25 10C11.25 9.17157 11.9216 8.5 12.75 8.5C13.5784 8.5 14.25 9.17157 14.25 10C14.25 10.8284 13.5784 11.5 12.75 11.5Z"/>
<path d="M12.75 18.25C11.9216 18.25 11.25 17.5784 11.25 16.75C11.25 15.9216 11.9216 15.25 12.75 15.25C13.5784 15.25 14.25 15.9216 14.25 16.75C14.25 17.5784 13.5784 18.25 12.75 18.25Z"/>
<path d="M7.25 4.75C6.42157 4.75 5.75 4.07843 5.75 3.25C5.75 2.42157 6.42157 1.75 7.25 1.75C8.07843 1.75 8.75 2.42157 8.75 3.25C8.75 4.07843 8.07843 4.75 7.25 4.75Z"/>
<path d="M7.25 11.5C6.42157 11.5 5.75 10.8284 5.75 10C5.75 9.17157 6.42157 8.5 7.25 8.5C8.07843 8.5 8.75 9.17157 8.75 10C8.75 10.8284 8.07843 11.5 7.25 11.5Z"/>
<path d="M7.25 18.25C6.42157 18.25 5.75 17.5784 5.75 16.75C5.75 15.9216 6.42157 15.25 7.25 15.25C8.07843 15.25 8.75 15.9216 8.75 16.75C8.75 17.5784 8.07843 18.25 7.25 18.25Z"/>
</mask>
<path d="M12.75 4.75C11.9216 4.75 11.25 4.07843 11.25 3.25C11.25 2.42157 11.9216 1.75 12.75 1.75C13.5784 1.75 14.25 2.42157 14.25 3.25C14.25 4.07843 13.5784 4.75 12.75 4.75Z" stroke="black" stroke-width="3" stroke-linejoin="round" mask="url(#path-1-inside-1_4_11658)"/>
<path d="M12.75 11.5C11.9216 11.5 11.25 10.8284 11.25 10C11.25 9.17157 11.9216 8.5 12.75 8.5C13.5784 8.5 14.25 9.17157 14.25 10C14.25 10.8284 13.5784 11.5 12.75 11.5Z" stroke="black" stroke-width="3" stroke-linejoin="round" mask="url(#path-1-inside-1_4_11658)"/>
<path d="M12.75 18.25C11.9216 18.25 11.25 17.5784 11.25 16.75C11.25 15.9216 11.9216 15.25 12.75 15.25C13.5784 15.25 14.25 15.9216 14.25 16.75C14.25 17.5784 13.5784 18.25 12.75 18.25Z" stroke="black" stroke-width="3" stroke-linejoin="round" mask="url(#path-1-inside-1_4_11658)"/>
<path d="M7.25 4.75C6.42157 4.75 5.75 4.07843 5.75 3.25C5.75 2.42157 6.42157 1.75 7.25 1.75C8.07843 1.75 8.75 2.42157 8.75 3.25C8.75 4.07843 8.07843 4.75 7.25 4.75Z" stroke="black" stroke-width="3" stroke-linejoin="round" mask="url(#path-1-inside-1_4_11658)"/>
<path d="M7.25 11.5C6.42157 11.5 5.75 10.8284 5.75 10C5.75 9.17157 6.42157 8.5 7.25 8.5C8.07843 8.5 8.75 9.17157 8.75 10C8.75 10.8284 8.07843 11.5 7.25 11.5Z" stroke="black" stroke-width="3" stroke-linejoin="round" mask="url(#path-1-inside-1_4_11658)"/>
<path d="M7.25 18.25C6.42157 18.25 5.75 17.5784 5.75 16.75C5.75 15.9216 6.42157 15.25 7.25 15.25C8.07843 15.25 8.75 15.9216 8.75 16.75C8.75 17.5784 8.07843 18.25 7.25 18.25Z" stroke="black" stroke-width="3" stroke-linejoin="round" mask="url(#path-1-inside-1_4_11658)"/>
</svg>
