<svg width="20" height="20" viewBox="0 0 20 20" fill="currentColor" xmlns="http://www.w3.org/2000/svg">
<path d="M8.75 1.75C7.36929 1.75 6.25 2.86929 6.25 4.25H3.75C2.64543 4.25 1.75 5.14543 1.75 6.25V8.75C3.13071 8.75 4.25 9.86929 4.25 11.25C4.25 12.6307 3.13071 13.75 1.75 13.75V16.25C1.75 17.3546 2.64543 18.25 3.75 18.25H6.25C6.25 16.8693 7.36929 15.75 8.75 15.75C10.1307 15.75 11.25 16.8693 11.25 18.25H13.75C14.8546 18.25 15.75 17.3546 15.75 16.25V13.75C17.1307 13.75 18.25 12.6307 18.25 11.25C18.25 9.86929 17.1307 8.75 15.75 8.75L15.75 6.25C15.75 5.14543 14.8546 4.25 13.75 4.25H11.25C11.25 2.86929 10.1307 1.75 8.75 1.75Z" stroke="black" stroke-width="1.5" stroke-linejoin="round"/>
</svg>
