<svg width="20" height="20" viewBox="0 0 20 20" fill="none" xmlns="http://www.w3.org/2000/svg">
<path d="M2.75 16.5C2.75 17.4665 3.5335 18.25 4.5 18.25C5.4665 18.25 6 17.5 6.25 16.5L7.54803 9.75024M12.25 3.5C12.25 2.5335 11.4665 1.75 10.5 1.75C9.5335 1.75 9 2.5 8.75 3.5L7.54803 9.75024M7.54803 9.75024H11.2862C11.5804 9.75024 11.8596 9.87975 12.0496 10.1043L14.5 13.0002M7.54803 9.75024H4.5M14.5 13.0002L17.25 16.2502M14.5 13.0002L17.25 9.75024M14.5 13.0002L11.75 16.2502" stroke="black" stroke-width="1.5" stroke-linecap="round" stroke-linejoin="round"/>
</svg>
