<svg width="20" height="20" viewBox="0 0 20 20" fill="currentColor" xmlns="http://www.w3.org/2000/svg">
<path d="M18.25 10.65V9.35C18.25 8.78995 18.25 8.50992 18.141 8.29601C18.0451 8.10785 17.8922 7.95487 17.704 7.85899C17.4901 7.75 17.2101 7.75 16.65 7.75H12.25V3.35C12.25 2.78995 12.25 2.50992 12.141 2.29601C12.0451 2.10785 11.8922 1.95487 11.704 1.85899C11.4901 1.75 11.2101 1.75 10.65 1.75H9.35C8.78995 1.75 8.50992 1.75 8.29601 1.85899C8.10785 1.95487 7.95487 2.10785 7.85899 2.29601C7.75 2.50992 7.75 2.78995 7.75 3.35L7.75 7.75H3.35C2.78995 7.75 2.50992 7.75 2.29601 7.85899C2.10785 7.95487 1.95487 8.10785 1.85899 8.29601C1.75 8.50992 1.75 8.78995 1.75 9.35V10.65C1.75 11.2101 1.75 11.4901 1.85899 11.704C1.95487 11.8922 2.10785 12.0451 2.29601 12.141C2.50992 12.25 2.78995 12.25 3.35 12.25H7.75L7.75 16.65C7.75 17.2101 7.75 17.4901 7.85899 17.704C7.95487 17.8922 8.10785 18.0451 8.29601 18.141C8.50992 18.25 8.78995 18.25 9.35 18.25H10.65C11.2101 18.25 11.4901 18.25 11.704 18.141C11.8922 18.0451 12.0451 17.8922 12.141 17.704C12.25 17.4901 12.25 17.2101 12.25 16.65L12.25 12.25H16.65C17.2101 12.25 17.4901 12.25 17.704 12.141C17.8922 12.0451 18.0451 11.8922 18.141 11.704C18.25 11.4901 18.25 11.2101 18.25 10.65Z" stroke="black" stroke-width="1.5" stroke-linejoin="round"/>
</svg>
