<svg width="20" height="20" viewBox="0 0 20 20" fill="currentColor" xmlns="http://www.w3.org/2000/svg">
<path d="M3.75 1.75H16.25M16.25 18.25H3.75M5.75 18.25V15.7811C5.75 15.4331 5.84083 15.091 6.01351 14.7889L8.18298 10.9923C8.53434 10.3774 8.53434 9.62259 8.18298 9.00772L6.01351 5.21115C5.84083 4.90895 5.75 4.56693 5.75 4.21887V1.75M14.25 18.25V15.7811C14.25 15.4331 14.1592 15.091 13.9865 14.7889L11.817 10.9923C11.4657 10.3774 11.4657 9.62259 11.817 9.00772L13.9865 5.21115C14.1592 4.90895 14.25 4.56693 14.25 4.21887V1.75" stroke="black" stroke-width="1.5" stroke-linecap="round" stroke-linejoin="round"/>
</svg>
