<svg width="20" height="20" viewBox="0 0 20 20" fill="none" xmlns="http://www.w3.org/2000/svg">
<path d="M7.75 1.75H15.05C16.1701 1.75 16.7302 1.75 17.158 1.96799C17.5343 2.15973 17.8403 2.46569 18.032 2.84202C18.25 3.26984 18.25 3.8299 18.25 4.95V12.26M1.75 14.5833L6 9.25L10.25 14.75M8.75 12.75L11.5 10.25L15.25 13.75M4.95 18.25H12.05C13.1701 18.25 13.7302 18.25 14.158 18.032C14.5343 17.8403 14.8403 17.5343 15.032 17.158C15.25 16.7302 15.25 16.1701 15.25 15.05V7.95C15.25 6.8299 15.25 6.26984 15.032 5.84202C14.8403 5.46569 14.5343 5.15973 14.158 4.96799C13.7302 4.75 13.1701 4.75 12.05 4.75H4.95C3.8299 4.75 3.26984 4.75 2.84202 4.96799C2.46569 5.15973 2.15973 5.46569 1.96799 5.84202C1.75 6.26984 1.75 6.82989 1.75 7.95V15.05C1.75 16.1701 1.75 16.7302 1.96799 17.158C2.15973 17.5343 2.46569 17.8403 2.84202 18.032C3.26984 18.25 3.82989 18.25 4.95 18.25Z" stroke="black" stroke-width="1.5" stroke-linecap="round" stroke-linejoin="round"/>
</svg>
