<svg width="20" height="20" viewBox="0 0 20 20" fill="currentColor" xmlns="http://www.w3.org/2000/svg">
<path d="M1.75 10.75V15.25C1.75 16.3546 2.64543 17.25 3.75 17.25H16.25C17.3546 17.25 18.25 16.3546 18.25 15.25V10.75M1.75 10.75L3.37127 4.26493C3.59385 3.37459 4.39382 2.75 5.31155 2.75H14.6884C15.6062 2.75 16.4061 3.37459 16.6287 4.26493L18.25 10.75M1.75 10.75H4.51393C5.27148 10.75 5.964 11.178 6.30279 11.8556L6.44721 12.1444C6.786 12.822 7.47852 13.25 8.23607 13.25H11.7639C12.5215 13.25 13.214 12.822 13.5528 12.1444L13.6972 11.8556C14.036 11.178 14.7285 10.75 15.4861 10.75H18.25" stroke="black" stroke-width="1.5" stroke-linejoin="round"/>
</svg>
