<svg width="20" height="20" viewBox="0 0 20 20" fill="none" xmlns="http://www.w3.org/2000/svg">
<path d="M14.25 6.25H13.75M18.25 6.25C18.25 8.73528 16.2353 10.75 13.75 10.75C13.4 10.75 13.0594 10.7101 12.7324 10.6345L11.3696 12H9V14.3743L8.37552 15H6V17.3802L5.57124 17.8099C5.28985 18.0918 4.90787 18.2502 4.50953 18.2502H2.25C1.97386 18.2502 1.75 18.0264 1.75 17.7502V15.5417C1.75 15.1444 1.90759 14.7634 2.18819 14.4822L9.36964 7.28519C9.2914 6.95283 9.25 6.60625 9.25 6.25C9.25 3.76472 11.2647 1.75 13.75 1.75C16.2353 1.75 18.25 3.76472 18.25 6.25Z" stroke="black" stroke-width="1.5" stroke-linecap="round" stroke-linejoin="round"/>
</svg>
