<svg width="20" height="20" viewBox="0 0 20 20" fill="currentColor" xmlns="http://www.w3.org/2000/svg">
<path d="M1.75 7.95C1.75 6.82989 1.75 6.26984 1.97144 5.84202C2.16622 5.46569 2.47703 5.15973 2.85931 4.96799C3.29391 4.75 3.86283 4.75 5.00067 4.75H12.8379C13.4285 4.75 13.7238 4.75 13.9952 4.82565C14.2356 4.89265 14.4613 5.00273 14.6612 5.15036C14.8868 5.31704 15.0657 5.54825 15.4236 6.01066L17.7608 9.03033C18.0296 9.37766 18.164 9.55133 18.2157 9.7425C18.2614 9.91122 18.2614 10.0888 18.2157 10.2575C18.164 10.4487 18.0296 10.6223 17.7608 10.9697L15.4236 13.9893C15.0657 14.4518 14.8868 14.683 14.6612 14.8496C14.4613 14.9973 14.2356 15.1073 13.9952 15.1744C13.7238 15.25 13.4285 15.25 12.8379 15.25H5.00067C3.86283 15.25 3.29391 15.25 2.85931 15.032C2.47703 14.8403 2.16622 14.5343 1.97144 14.158C1.75 13.7302 1.75 13.1701 1.75 12.05V7.95Z" stroke="black" stroke-width="1.5" stroke-linejoin="round"/>
</svg>
