<svg width="20" height="20" viewBox="0 0 20 20" fill="currentColor" xmlns="http://www.w3.org/2000/svg">
<path d="M17.25 13.75V5.95C17.25 4.8299 17.25 4.26984 17.032 3.84202C16.8403 3.46569 16.5343 3.15973 16.158 2.96799C15.7302 2.75 15.1701 2.75 14.05 2.75H5.95C4.82989 2.75 4.26984 2.75 3.84202 2.96799C3.46569 3.15973 3.15973 3.46569 2.96799 3.84202C2.75 4.26984 2.75 4.82989 2.75 5.95V13.75M1.75 13.75V14.05C1.75 15.1701 1.75 15.7302 1.96799 16.158C2.15973 16.5343 2.46569 16.8403 2.84202 17.032C3.26984 17.25 3.82989 17.25 4.95 17.25H15.05C16.1701 17.25 16.7302 17.25 17.158 17.032C17.5343 16.8403 17.8403 16.5343 18.032 16.158C18.25 15.7302 18.25 15.1701 18.25 14.05V13.75H14.1514C13.5883 13.75 13.0624 14.0314 12.75 14.5C12.4376 14.9686 11.9117 15.25 11.3486 15.25H8.65139C8.08825 15.25 7.56237 14.9686 7.25 14.5C6.93763 14.0314 6.41175 13.75 5.84861 13.75H1.75Z" stroke="black" stroke-width="1.5" stroke-linejoin="round"/>
</svg>
