<svg width="20" height="20" viewBox="0 0 20 20" fill="currentColor" xmlns="http://www.w3.org/2000/svg">
<path d="M18.25 12L11.4655 15.4951C10.9288 15.7715 10.6604 15.9098 10.3783 15.9641C10.1284 16.0123 9.87162 16.0123 9.62174 15.9641C9.33955 15.9098 9.07121 15.7715 8.53454 15.4951L1.75 12M1.75 8L8.53454 4.50494C9.07121 4.22847 9.33955 4.09023 9.62174 4.03588C9.87162 3.98775 10.1284 3.98775 10.3783 4.03588C10.6604 4.09023 10.9288 4.22847 11.4655 4.50494L18.25 8L11.4655 11.4951C10.9288 11.7715 10.6604 11.9098 10.3783 11.9641C10.1284 12.0123 9.87162 12.0123 9.62174 11.9641C9.33955 11.9098 9.07121 11.7715 8.53454 11.4951L1.75 8Z" stroke="black" stroke-width="1.5" stroke-linecap="round" stroke-linejoin="round"/>
</svg>
