<svg width="20" height="20" viewBox="0 0 20 20" fill="currentColor" xmlns="http://www.w3.org/2000/svg">
<path d="M1.75 18.25L1.75 1.75M4.75 9.95V10.05C4.75 11.1701 4.75 11.7302 4.96799 12.158C5.15973 12.5343 5.4657 12.8403 5.84202 13.032C6.26984 13.25 6.8299 13.25 7.95 13.25L15.05 13.25C16.1701 13.25 16.7302 13.25 17.158 13.032C17.5343 12.8403 17.8403 12.5343 18.032 12.158C18.25 11.7302 18.25 11.1701 18.25 10.05V9.95C18.25 8.8299 18.25 8.26984 18.032 7.84202C17.8403 7.4657 17.5343 7.15973 17.158 6.96799C16.7302 6.75 16.1701 6.75 15.05 6.75H7.95C6.8299 6.75 6.26984 6.75 5.84202 6.96799C5.4657 7.15973 5.15973 7.46569 4.96799 7.84202C4.75 8.26984 4.75 8.8299 4.75 9.95Z" stroke="black" stroke-width="1.5" stroke-linecap="round" stroke-linejoin="round"/>
</svg>
