<svg width="20" height="20" viewBox="0 0 20 20" fill="currentColor" xmlns="http://www.w3.org/2000/svg">
<path d="M18.25 10L11.4655 13.4951C10.9288 13.7715 10.6604 13.9098 10.3783 13.9641C10.1284 14.0123 9.87162 14.0123 9.62174 13.9641C9.33955 13.9098 9.07121 13.7715 8.53454 13.4951L1.75 10M18.25 14L11.4655 17.4951C10.9288 17.7715 10.6604 17.9098 10.3783 17.9641C10.1284 18.0123 9.87162 18.0123 9.62174 17.9641C9.33955 17.9098 9.07121 17.7715 8.53454 17.4951L1.75 14M1.75 6L8.53454 2.50494C9.07121 2.22847 9.33955 2.09023 9.62174 2.03588C9.87162 1.98775 10.1284 1.98775 10.3783 2.03588C10.6604 2.09023 10.9288 2.22847 11.4655 2.50494L18.25 6L11.4655 9.49507C10.9288 9.77154 10.6604 9.90977 10.3783 9.96412C10.1284 10.0123 9.87162 10.0123 9.62174 9.96412C9.33955 9.90977 9.07121 9.77154 8.53454 9.49507L1.75 6Z" stroke="black" stroke-width="1.5" stroke-linecap="round" stroke-linejoin="round"/>
</svg>
