<svg width="20" height="20" viewBox="0 0 20 20" fill="none" xmlns="http://www.w3.org/2000/svg">
<path d="M4.25 9.75L2.99264 11.0074C2.92283 11.0772 2.88788 11.1121 2.85501 11.1466C2.1684 11.8667 1.77483 12.8169 1.75113 13.8116C1.75 13.8592 1.75 13.9086 1.75 14.0074C1.75 14.2327 1.75 14.3453 1.75454 14.4405C1.85273 16.4999 3.50012 18.1473 5.5595 18.2455C5.6547 18.25 5.76734 18.25 5.99264 18.25C6.09141 18.25 6.14079 18.25 6.18842 18.2489C7.18312 18.2252 8.13328 17.8316 8.8534 17.145C8.88787 17.1121 8.92286 17.0771 8.99264 17.0074L11.25 14.75C11.4093 14.5907 11.489 14.511 11.5531 14.4405C12.9398 12.9149 12.9398 10.5851 11.5531 9.05948C11.489 8.98897 11.4093 8.90926 11.25 8.75L11 8.5M15.75 10.25L17.0074 8.99264C17.0772 8.92283 17.1121 8.88788 17.145 8.8534C17.8316 8.13328 18.2252 7.18312 18.2489 6.18842C18.25 6.14079 18.25 6.09141 18.25 5.99264C18.25 5.76734 18.25 5.6547 18.2455 5.5595C18.1473 3.50012 16.4999 1.85273 14.4405 1.75454C14.3453 1.75 14.2327 1.75 14.0074 1.75C13.9086 1.75 13.8592 1.75 13.8116 1.75113C12.8169 1.77483 11.8667 2.1684 11.1466 2.85501C11.1121 2.88787 11.0771 2.92287 11.0074 2.99264L8.75 5.25C8.59071 5.40928 8.51103 5.48897 8.44693 5.55948C7.06016 7.08512 7.06016 9.41488 8.44693 10.9405C8.51103 11.011 8.59074 11.0907 8.75 11.25L9 11.5" stroke="black" stroke-width="1.5" stroke-linecap="round" stroke-linejoin="round"/>
</svg>
