<svg width="20" height="20" viewBox="0 0 20 20" fill="none" xmlns="http://www.w3.org/2000/svg">
<path d="M15.75 10.25L17.0074 8.99264C17.0772 8.9228 17.1121 8.88788 17.145 8.8534C17.8316 8.13328 18.2252 7.18312 18.2489 6.18842C18.25 6.14079 18.25 6.09141 18.25 5.99264C18.25 5.76734 18.25 5.6547 18.2455 5.5595C18.1473 3.50012 16.4999 1.85273 14.4405 1.75454C14.3453 1.75 14.2327 1.75 14.0074 1.75C13.9086 1.75 13.8592 1.75 13.8116 1.75113C12.8169 1.77483 11.8667 2.1684 11.1466 2.85501C11.1121 2.88788 11.0772 2.9228 11.0074 2.99264L9.75 4.25M10.25 15.75L8.99264 17.0074C8.9228 17.0772 8.88788 17.1121 8.8534 17.145C8.13328 17.8316 7.18312 18.2252 6.18842 18.2489C6.14079 18.25 6.09141 18.25 5.99264 18.25C5.76734 18.25 5.6547 18.25 5.5595 18.2455C3.50012 18.1473 1.85273 16.4999 1.75454 14.4405C1.75 14.3453 1.75 14.2327 1.75 14.0074C1.75 13.9086 1.75 13.8592 1.75113 13.8116C1.77483 12.8169 2.1684 11.8667 2.85501 11.1466C2.88787 11.1121 2.92285 11.0772 2.99264 11.0074L4.25 9.75M7.25 2.75V7.25H2.75M12.75 17.25V12.75H17.25" stroke="black" stroke-width="1.5" stroke-linecap="round" stroke-linejoin="round"/>
</svg>
