<svg width="20" height="20" viewBox="0 0 20 20" fill="currentColor" xmlns="http://www.w3.org/2000/svg">
<path d="M18.25 5H11.75M18.25 5L15.25 1.75M18.25 5L15.25 8.25M6.26541 2.26541C6.26541 2.26541 8.48452 4.52994 8.53684 4.69098C8.6021 4.89183 8.6021 5.10817 8.53684 5.30902C8.46265 5.53735 7.26588 6.62835 6.86034 7.16754C6.45481 7.70674 6.38235 8.50798 6.57748 9.04866C6.62527 9.18107 7.00189 9.98395 7.36031 10.5323C8.14817 11.7377 8.77001 12.3402 9.96769 13.1397C10.6241 13.5779 11.5972 14.022 11.759 14.0751C12.2299 14.2296 12.7414 14.2037 13.1943 14.0025C13.6472 13.8013 15.0903 12.7731 15.2594 12.7312C15.4174 12.6921 15.5826 12.6921 15.7406 12.7312C15.9097 12.7731 17.2331 13.6554 17.5467 13.8645C18.1423 14.2615 18.5 14.9299 18.5 15.6457C18.5 17.2221 17.2221 18.5 15.6457 18.5H13.1656C12.0713 18.5 10.9931 18.2364 10.0223 17.7316C6.91635 16.1165 4.3835 13.5837 2.76842 10.4777C2.26357 9.50687 2 8.42869 2 7.33441V5.62465C2 3.62281 3.62281 2 5.62465 2C5.86498 2 6.09547 2.09547 6.26541 2.26541Z" stroke="black" stroke-width="1.5" stroke-miterlimit="1.41421" stroke-linecap="round" stroke-linejoin="round"/>
</svg>
