<svg width="20" height="20" viewBox="0 0 20 20" fill="currentColor" xmlns="http://www.w3.org/2000/svg">
<path d="M13 1.75C15.8995 1.75 18.25 4.10051 18.25 7M12 4.75C13.7949 4.75 15.25 6.20507 15.25 8M6.01541 2.01541C6.01541 2.01541 8.23452 4.27994 8.28684 4.44098C8.3521 4.64183 8.3521 4.85817 8.28684 5.05902C8.21265 5.28735 7.01588 6.37835 6.61034 6.91754C6.20481 7.45674 6.13235 8.25798 6.32748 8.79866C6.37527 8.93107 6.75189 9.73395 7.11031 10.2823C7.89817 11.4877 8.52001 12.0902 9.71769 12.8897C10.3741 13.3279 11.3472 13.772 11.509 13.8251C11.9799 13.9796 12.4914 13.9537 12.9443 13.7525C13.3972 13.5513 14.8403 12.5231 15.0094 12.4812C15.1674 12.4421 15.3326 12.4421 15.4906 12.4812C15.6597 12.5231 16.9831 13.4054 17.2967 13.6145C17.8923 14.0115 18.25 14.6799 18.25 15.3957C18.25 16.9721 16.9721 18.25 15.3957 18.25H12.9156C11.8213 18.25 10.7431 17.9864 9.77226 17.4816C6.66635 15.8665 4.1335 13.3337 2.51842 10.2277C2.01357 9.25687 1.75 8.17869 1.75 7.08441V5.37465C1.75 3.37281 3.37281 1.75 5.37465 1.75C5.61498 1.75 5.84547 1.84547 6.01541 2.01541Z" stroke="black" stroke-width="1.5" stroke-miterlimit="1.41421" stroke-linecap="round" stroke-linejoin="round"/>
</svg>
