<svg width="20" height="20" viewBox="0 0 20 20" fill="none" xmlns="http://www.w3.org/2000/svg">
<path d="M10 14.75V18.25M13.7239 5.57097L14.1542 3.67962C14.3045 3.01895 14.3797 2.68862 14.2851 2.42975C14.2022 2.20274 14.0339 2.01083 13.8109 1.88896C13.5566 1.75 13.1917 1.75 12.4621 1.75H7.53793C6.80826 1.75 6.44342 1.75 6.18913 1.88896C5.96613 2.01083 5.79784 2.20274 5.7149 2.42975C5.62032 2.68862 5.69548 3.01895 5.8458 3.67962L6.27614 5.57097C6.35474 5.9164 6.39403 6.08911 6.40049 6.26249C6.40622 6.41639 6.39273 6.57039 6.36027 6.72143C6.3237 6.89158 6.25484 7.05618 6.11711 7.38538L4.15625 12.0724C3.85059 12.803 3.69776 13.1683 3.7661 13.4611C3.82587 13.7172 3.99186 13.9413 4.22838 14.0853C4.49879 14.25 4.92215 14.25 5.76887 14.25H14.2311C15.0779 14.25 15.5012 14.25 15.7716 14.0853C16.0081 13.9413 16.1741 13.7172 16.2339 13.4611C16.3022 13.1683 16.1494 12.803 15.8438 12.0724L13.8829 7.38538C13.7452 7.05618 13.6763 6.89158 13.6397 6.72143C13.6073 6.57039 13.5938 6.41639 13.5995 6.26249C13.606 6.08911 13.6453 5.9164 13.7239 5.57097Z" stroke="black" stroke-width="1.5" stroke-linecap="round" stroke-linejoin="round"/>
</svg>
