<svg width="20" height="20" viewBox="0 0 20 20" fill="currentColor" xmlns="http://www.w3.org/2000/svg">
<path d="M1.75 6.95C1.75 5.8299 1.75 5.26984 1.96799 4.84202C2.15973 4.46569 2.46569 4.15973 2.84202 3.96799C3.26984 3.75 3.8299 3.75 4.95 3.75H5.56006C6.20176 3.75 6.52261 3.75 6.78527 3.82296C7.46117 4.0107 7.9893 4.53883 8.17704 5.21473C8.25 5.47739 8.25 5.79824 8.25 6.43994V6.57881C8.25 7.41227 8.25 7.829 8.22177 8.23984C8.13206 9.54539 7.8294 10.8275 7.32578 12.0353C7.1673 12.4154 6.98093 12.7881 6.60819 13.5336C6.52918 13.6916 6.48968 13.7706 6.44148 13.8371C6.28697 14.0501 6.05471 14.1937 5.79507 14.2366C5.71407 14.25 5.62573 14.25 5.44906 14.25H3.5L5.5 10.25H4.95C3.8299 10.25 3.26984 10.25 2.84202 10.032C2.46569 9.84027 2.15973 9.53431 1.96799 9.15798C1.75 8.73016 1.75 8.1701 1.75 7.05V6.95Z" stroke="black" stroke-width="1.5" stroke-linejoin="round"/>
<path d="M11.75 8.95C11.75 7.8299 11.75 7.26984 11.968 6.84202C12.1597 6.46569 12.4657 6.15973 12.842 5.96799C13.2698 5.75 13.8299 5.75 14.95 5.75H15.5601C16.2018 5.75 16.5226 5.75 16.7853 5.82296C17.4612 6.0107 17.9893 6.53883 18.177 7.21473C18.25 7.47739 18.25 7.79824 18.25 8.43994V8.57881C18.25 9.41227 18.25 9.829 18.2218 10.2398C18.1321 11.5454 17.8294 12.8275 17.3258 14.0353C17.1673 14.4154 16.9809 14.7881 16.6082 15.5336C16.5292 15.6916 16.4897 15.7706 16.4415 15.8371C16.287 16.0501 16.0547 16.1937 15.7951 16.2366C15.7141 16.25 15.6257 16.25 15.4491 16.25H13.5L15.5 12.25H14.95C13.8299 12.25 13.2698 12.25 12.842 12.032C12.4657 11.8403 12.1597 11.5343 11.968 11.158C11.75 10.7302 11.75 10.1701 11.75 9.05V8.95Z" stroke="black" stroke-width="1.5" stroke-linejoin="round"/>
</svg>
