<svg width="20" height="20" viewBox="0 0 20 20" fill="currentColor" xmlns="http://www.w3.org/2000/svg">
<path d="M12 3.25C12 2.42157 11.3284 1.75 10.5 1.75H9.5C8.67157 1.75 8 2.42157 8 3.25V3.96448C8 4.40993 7.46143 4.63301 7.14645 4.31803L6.64125 3.81283C6.05546 3.22705 5.10571 3.22705 4.51993 3.81283L3.81282 4.51994C3.22703 5.10573 3.22703 6.05547 3.81282 6.64126L4.31801 7.14645C4.63299 7.46143 4.40991 8 3.96445 8L3.25 8C2.42157 8 1.75 8.67157 1.75 9.5L1.75 10.5C1.75 11.3284 2.42157 12 3.25 12H3.96442C4.40988 12 4.63296 12.5386 4.31798 12.8536L3.81281 13.3587C3.22703 13.9445 3.22703 14.8942 3.81281 15.48L4.51992 16.1871C5.10571 16.7729 6.05545 16.7729 6.64124 16.1871L7.14645 15.6819C7.46143 15.367 8 15.59 8 16.0355V16.75C8 17.5784 8.67157 18.25 9.5 18.25H10.5C11.3284 18.25 12 17.5784 12 16.75V16.0355C12 15.5901 12.5386 15.367 12.8536 15.682L13.3588 16.1872C13.9445 16.773 14.8943 16.773 15.4801 16.1872L16.1872 15.4801C16.773 14.8943 16.773 13.9446 16.1872 13.3588L15.682 12.8536C15.367 12.5386 15.5901 12 16.0355 12H16.75C17.5784 12 18.25 11.3284 18.25 10.5V9.5C18.25 8.67157 17.5784 8 16.75 8L16.0355 8C15.59 8 15.367 7.46143 15.6819 7.14645L16.1872 6.6412C16.773 6.05541 16.773 5.10567 16.1872 4.51988L15.4801 3.81277C14.8943 3.22699 13.9445 3.22699 13.3588 3.81277L12.8536 4.31798C12.5386 4.63296 12 4.40988 12 3.96442V3.25Z" stroke="black" stroke-width="1.5" stroke-linejoin="round"/>
<path d="M12.75 10C12.75 11.5188 11.5188 12.75 10 12.75C8.48122 12.75 7.25 11.5188 7.25 10C7.25 8.48122 8.48122 7.25 10 7.25C11.5188 7.25 12.75 8.48122 12.75 10Z" stroke="black" stroke-width="1.5" stroke-linejoin="round"/>
</svg>
