<svg width="20" height="20" viewBox="0 0 20 20" fill="none" xmlns="http://www.w3.org/2000/svg">
<path d="M1.75 3.75H14.25M14.25 3.75C14.25 4.85457 15.1454 5.75 16.25 5.75C17.3546 5.75 18.25 4.85457 18.25 3.75C18.25 2.64543 17.3546 1.75 16.25 1.75C15.1454 1.75 14.25 2.64543 14.25 3.75ZM1.75 10H4M4 10C4 11.1046 4.89543 12 6 12C7.10457 12 8 11.1046 8 10M4 10C4 8.89543 4.89543 8 6 8C7.10457 8 8 8.89543 8 10M8 10H18.25M1.75 16.25H9.75M9.75 16.25C9.75 17.3546 10.6454 18.25 11.75 18.25C12.8546 18.25 13.75 17.3546 13.75 16.25M9.75 16.25C9.75 15.1454 10.6454 14.25 11.75 14.25C12.8546 14.25 13.75 15.1454 13.75 16.25M13.75 16.25H18.25" stroke="black" stroke-width="1.5" stroke-linecap="round" stroke-linejoin="round"/>
</svg>
