<svg width="20" height="20" viewBox="0 0 20 20" fill="currentColor" xmlns="http://www.w3.org/2000/svg">
<path d="M16.25 10C16.25 13.4518 13.4518 16.25 10 16.25M16.25 10C16.25 6.54822 13.4518 3.75 10 3.75M16.25 10H18.25M10 16.25C6.54822 16.25 3.75 13.4518 3.75 10M10 16.25V18.25M3.75 10C3.75 6.54822 6.54822 3.75 10 3.75M3.75 10L1.75 10M10 3.75V1.75M12.25 10C12.25 11.2426 11.2426 12.25 10 12.25C8.75736 12.25 7.75 11.2426 7.75 10C7.75 8.75736 8.75736 7.75 10 7.75C11.2426 7.75 12.25 8.75736 12.25 10Z" stroke="black" stroke-width="1.5" stroke-linecap="round" stroke-linejoin="round"/>
</svg>
