<svg width="20" height="20" viewBox="0 0 20 20" fill="currentColor" xmlns="http://www.w3.org/2000/svg">
<path d="M14.25 11.25H15.05C16.1701 11.25 16.7301 11.25 17.158 11.032C17.5343 10.8403 17.8403 10.5343 18.032 10.158C18.25 9.73016 18.25 9.1701 18.25 8.05V4.95C18.25 3.82989 18.25 3.26984 18.032 2.84202C17.8403 2.46569 17.5343 2.15973 17.158 1.96799C16.7301 1.75 16.1701 1.75 15.05 1.75H14.25M14.25 11.25H14.2069C13.7743 11.25 13.558 11.25 13.3762 11.3242C13.2158 11.3898 13.0751 11.4959 12.968 11.6321C12.8467 11.7865 12.7873 11.9945 12.6684 12.4104L11.2069 17.5259C11.0844 17.9545 10.6927 18.25 10.2469 18.25C9.14402 18.25 8.24999 17.356 8.24999 16.2531V13.85C8.24999 13.2899 8.24999 13.0099 8.141 12.796C8.04512 12.6078 7.89214 12.4549 7.70398 12.359C7.49007 12.25 7.21004 12.25 6.64999 12.25H5.31997C3.87978 12.25 3.16399 12.25 2.67997 11.9501C2.25597 11.6874 1.93612 11.2757 1.79999 10.7958C1.64459 10.2481 1.85432 9.55567 2.24997 8.17089L3.41999 4.07089C3.65769 3.23895 3.77736 2.82299 4.01999 2.51423C4.23415 2.24171 4.50912 2.02953 4.82999 1.89847C5.19352 1.75 5.62476 1.75 6.48999 1.75H14.25M14.25 11.25V1.75" stroke="black" stroke-width="1.5" stroke-linejoin="round"/>
</svg>
