<svg width="20" height="20" viewBox="0 0 20 20" fill="currentColor" xmlns="http://www.w3.org/2000/svg">
<path d="M7.25 18.25C8.25 16.25 11.75 16.25 12.75 18.25M4.95 14.25H15.05C16.1701 14.25 16.7302 14.25 17.158 14.032C17.5343 13.8403 17.8403 13.5343 18.032 13.158C18.25 12.7302 18.25 12.1701 18.25 11.05V4.95C18.25 3.82989 18.25 3.26984 18.032 2.84202C17.8403 2.46569 17.5343 2.15973 17.158 1.96799C16.7302 1.75 16.1701 1.75 15.05 1.75H4.95C3.82989 1.75 3.26984 1.75 2.84202 1.96799C2.46569 2.15973 2.15973 2.46569 1.96799 2.84202C1.75 3.26984 1.75 3.82989 1.75 4.95V11.05C1.75 12.1701 1.75 12.7302 1.96799 13.158C2.15973 13.5343 2.46569 13.8403 2.84202 14.032C3.26984 14.25 3.82989 14.25 4.95 14.25Z" stroke="black" stroke-width="1.5" stroke-linecap="round" stroke-linejoin="round"/>
</svg>
