<svg width="20" height="20" viewBox="0 0 20 20" fill="currentColor" xmlns="http://www.w3.org/2000/svg">
<path d="M13.25 7.75L15.8268 6.20392C16.6199 5.72803 17.0165 5.49009 17.3428 5.52051C17.6273 5.54703 17.8869 5.694 18.056 5.92433C18.25 6.18848 18.25 6.65095 18.25 7.5759V12.4241C18.25 13.349 18.25 13.8115 18.056 14.0757C17.8869 14.306 17.6273 14.453 17.3428 14.4795C17.0165 14.5099 16.6199 14.272 15.8268 13.7961L13.25 12.25M13.25 7.75V6.95C13.25 5.8299 13.25 5.26984 13.032 4.84202C12.8403 4.46569 12.5343 4.15973 12.158 3.96799C11.7302 3.75 11.1701 3.75 10.05 3.75H4.95C3.8299 3.75 3.26984 3.75 2.84202 3.96799C2.46569 4.15973 2.15973 4.46569 1.96799 4.84202C1.75 5.26984 1.75 5.82989 1.75 6.95V13.05C1.75 14.1701 1.75 14.7302 1.96799 15.158C2.15973 15.5343 2.46569 15.8403 2.84202 16.032C3.26984 16.25 3.82989 16.25 4.95 16.25H10.05C11.1701 16.25 11.7302 16.25 12.158 16.032C12.5343 15.8403 12.8403 15.5343 13.032 15.158C13.25 14.7302 13.25 14.1701 13.25 13.05V12.25M13.25 7.75V12.25" stroke="black" stroke-width="1.5" stroke-linejoin="round"/>
</svg>
