<svg width="20" height="20" viewBox="0 0 20 20" fill="currentColor" xmlns="http://www.w3.org/2000/svg">
<path d="M18.25 18.25H1.75M18.25 1.75H1.75M4.95 13.25H15.05C16.1701 13.25 16.7302 13.25 17.158 13.032C17.5343 12.8403 17.8403 12.5343 18.032 12.158C18.25 11.7302 18.25 11.1701 18.25 10.05V9.95C18.25 8.82989 18.25 8.26984 18.032 7.84202C17.8403 7.46569 17.5343 7.15973 17.158 6.96799C16.7302 6.75 16.1701 6.75 15.05 6.75H4.95C3.82989 6.75 3.26984 6.75 2.84202 6.96799C2.46569 7.15973 2.15973 7.46569 1.96799 7.84202C1.75 8.26984 1.75 8.82989 1.75 9.95V10.05C1.75 11.1701 1.75 11.7302 1.96799 12.158C2.15973 12.5343 2.46569 12.8403 2.84202 13.032C3.26984 13.25 3.82989 13.25 4.95 13.25Z" stroke="black" stroke-width="1.5" stroke-linecap="round" stroke-linejoin="round"/>
</svg>
