<svg width="20" height="20" viewBox="0 0 20 20" fill="currentColor" xmlns="http://www.w3.org/2000/svg">
<path d="M1.75 15.5L1.75 5M18.25 15.5V5M6.75 5.2L6.75 15.3C6.75 16.4201 6.75 16.9802 6.96799 17.408C7.15973 17.7843 7.46569 18.0903 7.84202 18.282C8.26984 18.5 8.82989 18.5 9.95 18.5H10.05C11.1701 18.5 11.7302 18.5 12.158 18.282C12.5343 18.0903 12.8403 17.7843 13.032 17.408C13.25 16.9802 13.25 16.4201 13.25 15.3V5.2C13.25 4.0799 13.25 3.51984 13.032 3.09202C12.8403 2.71569 12.5343 2.40973 12.158 2.21799C11.7302 2 11.1701 2 10.05 2L9.95 2C8.8299 2 8.26984 2 7.84202 2.21799C7.4657 2.40973 7.15973 2.71569 6.96799 3.09202C6.75 3.51984 6.75 4.07989 6.75 5.2Z" stroke="black" stroke-width="1.5" stroke-linecap="round" stroke-linejoin="round"/>
</svg>
