<svg width="20" height="20" viewBox="0 0 20 20" fill="currentColor" xmlns="http://www.w3.org/2000/svg">
<path d="M1.75 5.37503C2.42002 4.78875 3.2163 4.30068 4.09655 3.91082M4.25 8.81246C5.2035 7.93845 6.40954 7.34222 7.70759 7.02378M6.5 12.0625C8.5 10.3125 11.5 10.3125 13.5 12.0625M17.25 15.25L7.70759 7.02378M1.75 1.75L4.09655 3.91082M4.09655 3.91082L7.70759 7.02378M7.32326 2.96833C11.2289 2.31808 15.6732 3.12032 18.25 5.37505M11.9344 6.94342C13.3679 7.23555 14.7094 7.85855 15.75 8.81246M11.25 16C11.25 16.6904 10.6904 17.25 10 17.25C9.30964 17.25 8.75 16.6904 8.75 16C8.75 15.3096 9.30964 14.75 10 14.75C10.6904 14.75 11.25 15.3096 11.25 16Z" stroke="black" stroke-width="1.5" stroke-linecap="round" stroke-linejoin="round"/>
</svg>
