<svg width="20" height="20" viewBox="0 0 20 20" fill="currentColor" xmlns="http://www.w3.org/2000/svg">
<path d="M1.75 5.37503C3.75 3.62501 6.875 2.75 10 2.75C13.125 2.75 16.25 3.62502 18.25 5.37505M4.25 8.81246C5.75 7.43751 7.875 6.75001 10 6.75C12.125 6.74999 14.25 7.43747 15.75 8.81246M6.5 12.0625C7.5 11.1875 8.75 10.75 10 10.75C11.25 10.75 12.5 11.1875 13.5 12.0625M11.25 16C11.25 16.6904 10.6904 17.25 10 17.25C9.30964 17.25 8.75 16.6904 8.75 16C8.75 15.3096 9.30964 14.75 10 14.75C10.6904 14.75 11.25 15.3096 11.25 16Z" stroke="black" stroke-width="1.5" stroke-linecap="round" stroke-linejoin="round"/>
</svg>
