<svg width="20" height="20" viewBox="0 0 20 20" fill="currentColor" xmlns="http://www.w3.org/2000/svg">
<path d="M9.7519 19.997C4.53059 19.8694 0.301696 15.7397 0.0162561 10.559L0.00390625 10.246L9.7519 19.997ZM10.0009 0C13.39 0 16.3854 1.68597 18.194 4.26495L16.556 5.41293C15.1092 3.3492 12.7126 2 10.0009 2C6.59784 2 3.69105 4.12484 2.53491 7.12017L12.8807 17.466C15.2681 16.5445 17.1025 14.5109 17.7488 12.0004L13.5009 12V10H20.0009C20.0009 14.7261 16.7223 18.6865 12.3155 19.7308L0.270126 7.68538C1.31443 3.27856 5.27479 0 10.0009 0Z" fill="black"/>
</svg>
