<svg width="20" height="20" viewBox="0 0 20 20" fill="none" xmlns="http://www.w3.org/2000/svg">
<path d="M10.001 0C4.50098 0 0.000976562 4.5 0.000976562 10C0.000976562 15.5 4.50098 20 10.001 20C15.501 20 20.001 15.5 20.001 10C20.001 4.5 15.501 0 10.001 0ZM4.42956 15.5714C2.92956 14.0714 2.14385 12.0714 2.14385 10.1429L9.9297 17.8571C7.92973 17.7857 5.92973 17.0714 4.42956 15.5714ZM11.7151 17.6429L2.3581 8.2857C3.14385 4.78571 6.28681 2.14286 10.001 2.14286C12.6439 2.14286 14.9297 3.42857 16.3581 5.35712L15.2868 6.28571C14.0722 4.64288 12.1439 3.57143 10.001 3.57143C7.21514 3.57143 4.8581 5.35713 3.92956 7.85713L12.1439 16.0714C14.2151 15.3571 15.7868 13.5714 16.2868 11.4286H12.8581V10H17.8581C17.8581 13.7143 15.2151 16.8571 11.7151 17.6429Z" fill="black"/>
</svg>
